<?xml version="1.0" encoding="UTF-8" standalone="no"?>
<!-- Created with Inkscape (http://www.inkscape.org/) -->

<svg
   width="100"
   height="100"
   viewBox="0 0 100 100"
   version="1.1"
   id="svg1"
   inkscape:version="1.3.2 (091e20e, 2023-11-25, custom)"
   xml:space="preserve"
   sodipodi:docname="clown-1.svg"
   xmlns:inkscape="http://www.inkscape.org/namespaces/inkscape"
   xmlns:sodipodi="http://sodipodi.sourceforge.net/DTD/sodipodi-0.dtd"
   xmlns="http://www.w3.org/2000/svg"
   xmlns:svg="http://www.w3.org/2000/svg"
   xmlns:rdf="http://www.w3.org/1999/02/22-rdf-syntax-ns#"
   xmlns:cc="http://creativecommons.org/ns#"
   xmlns:dc="http://purl.org/dc/elements/1.1/"><sodipodi:namedview
     id="namedview1"
     pagecolor="#000000"
     bordercolor="#eeeeee"
     borderopacity="1"
     inkscape:showpageshadow="false"
     inkscape:pageopacity="0"
     inkscape:pagecheckerboard="false"
     inkscape:deskcolor="#121212"
     inkscape:document-units="px"
     showgrid="false"
     inkscape:zoom="2.225"
     inkscape:cx="-14.831461"
     inkscape:cy="28.988764"
     inkscape:window-width="1360"
     inkscape:window-height="697"
     inkscape:window-x="-8"
     inkscape:window-y="-8"
     inkscape:window-maximized="1"
     inkscape:current-layer="g4"><inkscape:grid
       id="grid1"
       units="px"
       originx="480"
       originy="270"
       spacingx="1"
       spacingy="1"
       empcolor="#0099e5"
       empopacity="0.69803922"
       color="#4d4d4d"
       opacity="0.69803922"
       empspacing="5"
       dotted="false"
       gridanglex="30"
       gridanglez="30"
       visible="false" /></sodipodi:namedview><defs
     id="defs1" /><g
     inkscape:label="Capa 1"
     inkscape:groupmode="layer"
     id="layer1"><g
       id="g4"
       transform="matrix(4.8445509,0,0,4.8445509,-8.1346108,-8.1346108)"><circle
         cx="8.5"
         cy="8.5"
         r="6.5"
         style="fill:#fa6d62"
         id="circle1" /><circle
         cx="15.5"
         cy="8.5"
         r="6.5"
         style="fill:#fa6d62"
         id="circle2" /><path
         d="M 16.5,13.3695 H 6 v 2.9736 a 4,4 0 0 0 1.1716,2.8285 l 2.2426,2.2426 A 2,2 0 0 0 10.8284,22 h 2.3432 a 2,2 0 0 0 1.4142,-0.5858 l 2.2426,-2.2426 A 4,4 0 0 0 18,16.3431 v -2.9736 z"
         style="fill:#e3edf0"
         id="path2" /><path
         d="M 17.2681,16 H 6.7319 A 1.7319,1.7319 0 0 1 5,14.2681 10.46669,10.46669 0 0 1 5,13 13.8465,13.8465 0 0 0 5.4859,11.5001 13.82778,13.82778 0 0 0 5,10 8.26176,8.26176 0 0 1 5,9 6,6 0 0 1 11,3 h 2 a 6,6 0 0 1 6,6 8.26176,8.26176 0 0 1 0,1 13.82626,13.82626 0 0 0 -0.4859,1.5001 A 13.845,13.845 0 0 0 19,13 10.46821,10.46821 0 0 1 19,14.2681 1.73191,1.73191 0 0 1 17.2681,16 Z"
         style="fill:#e3edf0"
         id="path3" /><circle
         cx="9"
         cy="11"
         r="2.5"
         style="fill:#000000"
         id="circle3" /><circle
         cx="15"
         cy="11"
         r="2.5"
         style="fill:#000000"
         id="circle4" /><circle
         cx="15"
         cy="11"
         r="0.75"
         style="fill:#ffffff"
         id="circle5" /><circle
         cx="9"
         cy="11"
         r="0.75"
         style="fill:#ffffff"
         id="circle6" /><path
         d="M 14,19 H 10 C 8,19 7,17 7,15 h 10 c 0,2 -1,4 -3,4 z"
         style="fill:#fa3c2f;fill-opacity:1"
         id="path6" /><polygon
         points="11,15 10,17 9,15 "
         style="fill:#ffffff"
         id="polygon6" /><polygon
         points="13,15 12,17 11,15 "
         style="fill:#ffffff"
         id="polygon7" /><polygon
         points="15,15 14,17 13,15 "
         style="fill:#ffffff"
         id="polygon8" /><polygon
         points="14,19 13,18 12,19 "
         style="fill:#ffffff"
         id="polygon9" /><polygon
         points="12,19 11,18 10,19 "
         style="fill:#ffffff"
         id="polygon10" /><path
         d="M 8,9 V 7 A 1,1 0 0 1 9,6 v 0 a 1,1 0 0 1 1,1 v 2 z"
         style="fill:#000000"
         id="path10" /><path
         d="M 14,9 V 7 a 1,1 0 0 1 1,-1 v 0 a 1,1 0 0 1 1,1 v 2 z"
         style="fill:#000000"
         id="path11" /><circle
         cx="12"
         cy="13"
         r="2"
         style="fill:#fa1200;fill-opacity:1"
         id="circle11" /></g></g><metadata
     id="metadata1"><rdf:RDF><cc:Work
         rdf:about=""><dc:creator><cc:Agent><dc:title>1812</dc:title></cc:Agent></dc:creator></cc:Work></rdf:RDF></metadata></svg>
