<?xml version="1.0" encoding="UTF-8" standalone="no"?>
<!-- Created with Inkscape (http://www.inkscape.org/) -->

<svg
   width="100"
   height="100"
   viewBox="0 0 100 100"
   version="1.1"
   id="svg1"
   inkscape:version="1.3.2 (091e20e, 2023-11-25, custom)"
   xml:space="preserve"
   sodipodi:docname="luchador.svg"
   xmlns:inkscape="http://www.inkscape.org/namespaces/inkscape"
   xmlns:sodipodi="http://sodipodi.sourceforge.net/DTD/sodipodi-0.dtd"
   xmlns="http://www.w3.org/2000/svg"
   xmlns:svg="http://www.w3.org/2000/svg"
   xmlns:rdf="http://www.w3.org/1999/02/22-rdf-syntax-ns#"
   xmlns:cc="http://creativecommons.org/ns#"
   xmlns:dc="http://purl.org/dc/elements/1.1/"><sodipodi:namedview
     id="namedview1"
     pagecolor="#000000"
     bordercolor="#eeeeee"
     borderopacity="1"
     inkscape:showpageshadow="false"
     inkscape:pageopacity="0"
     inkscape:pagecheckerboard="false"
     inkscape:deskcolor="#121212"
     inkscape:document-units="px"
     showgrid="false"
     inkscape:zoom="3.1466252"
     inkscape:cx="19.70365"
     inkscape:cy="59.58765"
     inkscape:window-width="1360"
     inkscape:window-height="697"
     inkscape:window-x="-8"
     inkscape:window-y="-8"
     inkscape:window-maximized="1"
     inkscape:current-layer="layer1"><inkscape:grid
       id="grid1"
       units="px"
       originx="480"
       originy="270"
       spacingx="1"
       spacingy="1"
       empcolor="#0099e5"
       empopacity="0.69803922"
       color="#4d4d4d"
       opacity="0.69803922"
       empspacing="5"
       dotted="false"
       gridanglex="30"
       gridanglez="30"
       visible="false" /></sodipodi:namedview><defs
     id="defs1" /><g
     inkscape:label="Capa 1"
     inkscape:groupmode="layer"
     id="layer1"><g
       id="g5"
       style="fill:#000000"
       transform="matrix(0.32513548,0,0,0.32513548,1.7173812,1.7173812)">
	<path
   d="m 125.752,151.904 c 0.304,-12.704 -1.382,-29.982 -7.669,-36.27 -6.273,-6.272 -33.485,-11.03 -55.656,-13.137 4.923,14.066 13.165,34.619 20.351,41.805 4.796,4.797 19.112,7.66 38.296,7.66 1.71,0 3.286,-0.024 4.678,-0.058 z m -15.334,-11.439 c 0,0 -12.075,0.896 -15.658,-2.687 -3.583,-3.583 -7.277,-15.664 -7.277,-15.664 0,0 16.662,1.004 20.245,4.587 3.583,3.584 2.69,13.764 2.69,13.764 z"
   id="path1"
   style="fill:#ffffff" />
	<path
   d="m 171.248,151.904 c 1.391,0.035 2.968,0.058 4.677,0.058 19.184,0 33.5,-2.863 38.296,-7.66 7.197,-7.196 15.434,-27.743 20.354,-41.805 -22.17,2.106 -49.386,6.865 -55.66,13.138 -6.284,6.287 -7.971,23.562 -7.667,36.269 z m 18.025,-25.203 c 3.583,-3.583 20.245,-4.587 20.245,-4.587 0,0 -3.694,12.081 -7.277,15.664 -3.583,3.584 -15.658,2.687 -15.658,2.687 0,0 -0.894,-10.18 2.69,-13.764 z"
   id="path2"
   style="fill:#ffffff" />
	<path
   d="m 139.347,68.636 0.278,7.215 6.949,-1.965 c 0.629,-0.178 1.279,-0.267 1.927,-0.267 0.648,0 1.297,0.089 1.927,0.267 l 6.949,1.965 0.278,-7.215 c 0.05,-1.309 0.463,-2.578 1.192,-3.667 l 4.015,-5.999 -6.777,-2.495 c -1.228,-0.452 -2.307,-1.237 -3.117,-2.265 l -4.466,-5.673 -4.466,5.673 c -0.81,1.028 -1.889,1.813 -3.117,2.265 l -6.777,2.495 4.015,5.999 c 0.726,1.09 1.139,2.358 1.19,3.667 z"
   id="path3"
   style="fill:#ffffff" />
	<path
   d="M 235.59,24.277 C 213.41,8.395 183.294,0 148.5,0 113.706,0 83.59,8.395 61.41,24.277 36.642,42.013 23.55,67.898 23.55,99.136 c 0,60.777 12.213,111.33 35.317,146.196 C 80.946,278.65 112.779,297 148.5,297 c 35.721,0 67.554,-18.35 89.633,-51.668 23.104,-34.866 35.317,-85.419 35.317,-146.196 0,-31.238 -13.092,-57.123 -37.86,-74.859 z M 116.516,53.244 c 0.671,-2.065 2.252,-3.707 4.288,-4.458 l 13.339,-4.91 8.792,-11.169 c 1.343,-1.705 3.394,-2.701 5.565,-2.701 2.171,0 4.222,0.996 5.565,2.701 l 8.792,11.169 13.339,4.91 c 2.036,0.751 3.617,2.393 4.288,4.458 0.671,2.065 0.358,4.323 -0.85,6.128 l -7.905,11.812 -0.547,14.203 c -0.084,2.17 -1.158,4.181 -2.915,5.457 -1.223,0.889 -2.684,1.353 -4.163,1.353 -0.645,0 -1.293,-0.088 -1.927,-0.267 L 148.5,88.061 134.822,91.929 c -2.085,0.59 -4.333,0.192 -6.089,-1.086 -1.757,-1.276 -2.831,-3.287 -2.915,-5.457 l -0.547,-14.203 -7.905,-11.812 c -1.208,-1.804 -1.521,-4.062 -0.85,-6.127 z M 72.761,154.318 C 59.384,140.94 46.96,101.165 45.587,96.673 c -0.678,-2.219 -0.226,-4.63 1.209,-6.452 1.437,-1.824 3.684,-2.833 5.989,-2.687 10.169,0.613 61.592,4.365 75.312,18.084 14.435,14.436 11.783,49.723 11.433,53.699 -0.303,3.458 -3.069,6.186 -6.531,6.442 -0.203,0.016 -5.03,0.368 -11.927,0.368 -24.22,-0.001 -40.474,-3.973 -48.311,-11.809 z m 91.762,29.343 c 3.912,0 7.082,3.171 7.082,7.082 0,3.912 -3.171,7.082 -7.082,7.082 h -32.046 c -3.912,0 -7.082,-3.17 -7.082,-7.082 0,-3.912 3.171,-7.082 7.082,-7.082 z M 148.5,252.207 c -23.405,0 -39.129,-8.602 -39.129,-21.406 0,-12.804 15.724,-21.406 39.129,-21.406 23.405,0 39.129,8.602 39.129,21.406 0,12.804 -15.725,21.406 -39.129,21.406 z m 75.738,-97.889 c -7.836,7.835 -24.09,11.808 -48.31,11.808 -0.001,0 -0.001,0 -0.003,0 -6.896,0 -11.724,-0.352 -11.927,-0.368 -3.461,-0.256 -6.227,-2.984 -6.531,-6.442 -0.35,-3.976 -3.002,-39.262 11.432,-53.698 13.721,-13.72 65.144,-17.472 75.313,-18.085 2.306,-0.145 4.553,0.864 5.989,2.687 1.436,1.822 1.887,4.233 1.209,6.452 -1.37,4.493 -13.795,44.269 -27.172,57.646 z"
   id="path4"
   style="fill:#ff0000"
   inkscape:label="mask" />
	<path
   d="m 148.5,223.56 c -18.449,0 -24.965,5.767 -24.965,7.241 0,1.474 6.516,7.241 24.965,7.241 18.449,0 24.965,-5.767 24.965,-7.241 0,-1.474 -6.516,-7.241 -24.965,-7.241 z"
   id="path5"
   style="fill:#ffe4e1" />
</g></g><metadata
     id="metadata1"><rdf:RDF><cc:Work
         rdf:about=""><dc:creator><cc:Agent><dc:title>1812</dc:title></cc:Agent></dc:creator></cc:Work></rdf:RDF></metadata></svg>
