<?xml version="1.0" encoding="UTF-8" standalone="no"?>
<!-- Created with Inkscape (http://www.inkscape.org/) -->

<svg
   width="100"
   height="100"
   viewBox="0 0 100 100"
   version="1.1"
   id="svg1"
   inkscape:version="1.3.2 (091e20e, 2023-11-25, custom)"
   xml:space="preserve"
   sodipodi:docname="pirate.svg"
   xmlns:inkscape="http://www.inkscape.org/namespaces/inkscape"
   xmlns:sodipodi="http://sodipodi.sourceforge.net/DTD/sodipodi-0.dtd"
   xmlns="http://www.w3.org/2000/svg"
   xmlns:svg="http://www.w3.org/2000/svg"
   xmlns:rdf="http://www.w3.org/1999/02/22-rdf-syntax-ns#"
   xmlns:cc="http://creativecommons.org/ns#"
   xmlns:dc="http://purl.org/dc/elements/1.1/"><sodipodi:namedview
     id="namedview1"
     pagecolor="#000000"
     bordercolor="#eeeeee"
     borderopacity="1"
     inkscape:showpageshadow="false"
     inkscape:pageopacity="0"
     inkscape:pagecheckerboard="false"
     inkscape:deskcolor="#121212"
     inkscape:document-units="px"
     showgrid="false"
     inkscape:zoom="2.225"
     inkscape:cx="29.662921"
     inkscape:cy="69.88764"
     inkscape:window-width="1360"
     inkscape:window-height="697"
     inkscape:window-x="-8"
     inkscape:window-y="-8"
     inkscape:window-maximized="1"
     inkscape:current-layer="g1"><inkscape:grid
       id="grid1"
       units="px"
       originx="480"
       originy="270"
       spacingx="1"
       spacingy="1"
       empcolor="#0099e5"
       empopacity="0.69803922"
       color="#4d4d4d"
       opacity="0.69803922"
       empspacing="5"
       dotted="false"
       gridanglex="30"
       gridanglez="30"
       visible="false" /></sodipodi:namedview><defs
     id="defs1" /><g
     inkscape:label="Capa 1"
     inkscape:groupmode="layer"
     id="layer1"><g
       id="g1"
       transform="matrix(4.7770176,0,0,4.7770176,-7.3242112,-7.3242112)"><path
         d="M 17,19 H 7 A 2.99994,2.99994 0 0 1 4,16 v 0 C 4,15.6948 4.5917,15.3052 4.5917,15 4.5917,14.6948 4,14.5781 4,14 v -1 a 7,7 0 0 1 7,-7 h 2 a 7,7 0 0 1 7,7 v 1 c 0,0.5156 -0.5917,0.6948 -0.5917,1 0,0.3052 0.5917,0.5469 0.5917,1 v 0 a 2.99994,2.99994 0 0 1 -3,3 z"
         style="fill:#ffffff"
         id="path1" /><path
         d="m 14.5,22 h -5 A 1.5,1.5 0 0 1 8,20.5 V 18 c 0.75,0 1.8116,-0.676 2.8367,-2.0694 a 1.86242,1.86242 0 0 1 2.3266,0 C 14.1883,17.3239 15.25,18 16,18 v 2.5 A 1.5,1.5 0 0 1 14.5,22 Z"
         style="fill:#ffffff"
         id="path2" /><path
         d="m 10.7698,18.6549 v 0 a 6.56476,6.56476 0 0 1 0.7539,-1.4853 0.53563,0.53563 0 0 1 0.9154,0 6.54136,6.54136 0 0 1 0.7544,1.4853 0.53554,0.53554 0 0 1 -0.5248,0.6758 c -0.5243,0 -0.3989,-0.6083 -0.6687,-0.6036 -0.2835,0.0053 -0.1971,0.6036 -0.7059,0.6036 a 0.53491,0.53491 0 0 1 -0.5243,-0.6758 z"
         style="fill:#131313;fill-opacity:1"
         id="path3" /><path
         d="m 18.024,16.1795 h -10e-5 c -0.2283,0.4844 -0.957,0.5879 -2.0464,0.6252 -1.0267,0.0344 -1.8052,0.396 -2.2926,-1.7242 -0.1513,-0.5448 0.9017,-0.9504 2.1202,-1.4622 2.6912,-1.1303 2.7782,1.9009 2.2189,2.5612 z"
         style="fill:#000000"
         id="path4" /><path
         d="m 5.9464,16.1795 v 0 c 0.2284,0.4844 0.957,0.5879 2.0465,0.6252 1.0266,0.0344 1.8052,0.396 2.2926,-1.7242 C 10.4368,14.5357 9.3838,14.1301 8.1653,13.6183 5.474,12.488 5.387,15.5192 5.9464,16.1795 Z"
         style="fill:#000000"
         id="path5" /><rect
         height="1"
         style="fill:#000000"
         width="1"
         x="11.5"
         y="21"
         id="rect5" /><rect
         height="1"
         style="fill:#000000"
         width="1"
         x="9.5"
         y="21"
         id="rect6" /><rect
         height="1"
         style="fill:#000000"
         width="1"
         x="13.5"
         y="21"
         id="rect7" /><rect
         height="3"
         style="fill:#ff0000"
         width="16"
         x="4"
         y="10"
         id="rect8" /><g
         id="g2"
         style="fill:#0c0c0c;fill-opacity:1"><path
           d="M 21,11 H 3 A 1,1 0 0 1 2,10 v 0 A 2,2 0 0 1 4,8 h 16 a 2,2 0 0 1 2,2 v 0 a 1,1 0 0 1 -1,1 z"
           style="fill:#0c0c0c;fill-opacity:1"
           id="path8" /><path
           d="M 19,10 H 5 V 9 a 7,7 0 0 1 7,-7 v 0 a 7,7 0 0 1 7,7 z"
           style="fill:#0c0c0c;fill-opacity:1"
           id="path9" /></g><rect
         height="1.49988"
         style="fill:#ff8c00"
         transform="rotate(-45,12.000005,7.2321752)"
         width="4.9998498"
         x="9.5000801"
         y="6.4822402"
         id="rect9" /><rect
         height="4.9998498"
         style="fill:#ff8c00"
         transform="rotate(-44.99595,11.999994,7.2321729)"
         width="1.49988"
         x="11.25006"
         y="4.7322502"
         id="rect10" /></g></g><metadata
     id="metadata1"><rdf:RDF><cc:Work
         rdf:about=""><dc:creator><cc:Agent><dc:title>1812</dc:title></cc:Agent></dc:creator></cc:Work></rdf:RDF></metadata></svg>
