<?xml version="1.0" encoding="UTF-8" standalone="no"?>
<!-- Created with Inkscape (http://www.inkscape.org/) -->

<svg
   width="100"
   height="100"
   viewBox="0 0 100 100"
   version="1.1"
   id="svg1"
   inkscape:version="1.3.2 (091e20e, 2023-11-25, custom)"
   xml:space="preserve"
   sodipodi:docname="skull-1.svg"
   xmlns:inkscape="http://www.inkscape.org/namespaces/inkscape"
   xmlns:sodipodi="http://sodipodi.sourceforge.net/DTD/sodipodi-0.dtd"
   xmlns="http://www.w3.org/2000/svg"
   xmlns:svg="http://www.w3.org/2000/svg"
   xmlns:rdf="http://www.w3.org/1999/02/22-rdf-syntax-ns#"
   xmlns:cc="http://creativecommons.org/ns#"
   xmlns:dc="http://purl.org/dc/elements/1.1/"><sodipodi:namedview
     id="namedview1"
     pagecolor="#000000"
     bordercolor="#eeeeee"
     borderopacity="1"
     inkscape:showpageshadow="false"
     inkscape:pageopacity="0"
     inkscape:pagecheckerboard="false"
     inkscape:deskcolor="#121212"
     inkscape:document-units="px"
     showgrid="false"
     inkscape:zoom="2.225"
     inkscape:cx="50.337079"
     inkscape:cy="68.089888"
     inkscape:window-width="1360"
     inkscape:window-height="697"
     inkscape:window-x="-8"
     inkscape:window-y="-8"
     inkscape:window-maximized="1"
     inkscape:current-layer="g1"><inkscape:grid
       id="grid1"
       units="px"
       originx="480"
       originy="270"
       spacingx="1"
       spacingy="1"
       empcolor="#0099e5"
       empopacity="0.69803922"
       color="#4d4d4d"
       opacity="0.69803922"
       empspacing="5"
       dotted="false"
       gridanglex="30"
       gridanglez="30"
       visible="false" /></sodipodi:namedview><defs
     id="defs1" /><g
     inkscape:label="Capa 1"
     inkscape:groupmode="layer"
     id="layer1"><g
       id="g1"
       transform="matrix(5.0696498,0,0,5.0696498,-10.835798,-8.3009727)"><g
         id="g3"
         style="fill:#1a1a1a;fill-opacity:1"><path
           d="M 19,21 H 5 V 10 C 5,3 12,2 12,2 v 0 c 0,0 7,1 7,8 z"
           style="fill:#1a1a1a;fill-opacity:1"
           id="path1" /><path
           d="m 7,16 h 10 a 4,4 0 0 1 4,4 v 1 H 3 v -1 a 4,4 0 0 1 4,-4 z"
           style="fill:#1a1a1a;fill-opacity:1"
           id="path2" /></g><path
         d="m 7,9.6603 v 2.645 A 1.68084,1.68084 0 0 0 8.6667,14 h 0.9231 l 0.7435,2 h 3.3334 l 0.7435,-2 h 0.9231 A 1.68085,1.68085 0 0 0 17,12.3053 V 9.6603 A 4.62228,4.62228 0 0 0 12.4167,5 H 11.5833 A 4.62228,4.62228 0 0 0 7,9.6603 Z"
         style="display:inline;fill:#ffffff"
         id="path3"
         inkscape:label="skull" /><g
         id="g2"
         inkscape:label="face"
         style="fill:#000000"><path
           d="m 8.1401,11.7697 v 0 a 1.851,1.851 0 0 1 0,-1.4267 C 8.3163,9.9012 9.006,9.6816 9.6394,9.6412 a 1.08647,1.08647 0 0 1 1.2405,1.0771 c 0,0.688 -0.6453,1.0968 -1.3218,1.2034 -0.7184,0.1125 -1.2076,0.1364 -1.418,-0.152 z"
           style="fill:#000000"
           id="path4" /><path
           d="m 15.86,11.7697 v 0 c -0.2104,0.2884 -0.7005,0.2645 -1.4184,0.152 -0.6765,-0.1066 -1.3218,-0.5154 -1.3218,-1.2034 a 1.08647,1.08647 0 0 1 1.2405,-1.0771 c 0.6333,0.0404 1.3235,0.26 1.4997,0.7018 a 1.85292,1.85292 0 0 1 0,1.4267 z"
           style="fill:#000000"
           id="path5" /><path
           d="m 11.1456,12.9644 v 0 a 4.52719,4.52719 0 0 1 0.5201,-1.0246 0.36948,0.36948 0 0 1 0.6315,0 4.51947,4.51947 0 0 1 0.5205,1.0246 0.36955,0.36955 0 0 1 -0.3621,0.4663 c -0.3617,0 -0.2752,-0.4197 -0.4613,-0.4164 -0.1956,0.0036 -0.136,0.4164 -0.487,0.4164 a 0.369,0.369 0 0 1 -0.3617,-0.4663 z"
           style="fill:#000000"
           id="path6" /></g></g></g><metadata
     id="metadata1"><rdf:RDF><cc:Work
         rdf:about=""><dc:creator><cc:Agent><dc:title>1812</dc:title></cc:Agent></dc:creator></cc:Work></rdf:RDF></metadata></svg>
