<?xml version="1.0" encoding="UTF-8" standalone="no"?>
<!-- Created with Inkscape (http://www.inkscape.org/) -->

<svg
   width="100"
   height="100"
   viewBox="0 0 100 100"
   version="1.1"
   id="svg1"
   inkscape:version="1.3.2 (091e20e, 2023-11-25, custom)"
   xml:space="preserve"
   sodipodi:docname="skull-2.svg"
   xmlns:inkscape="http://www.inkscape.org/namespaces/inkscape"
   xmlns:sodipodi="http://sodipodi.sourceforge.net/DTD/sodipodi-0.dtd"
   xmlns="http://www.w3.org/2000/svg"
   xmlns:svg="http://www.w3.org/2000/svg"
   xmlns:rdf="http://www.w3.org/1999/02/22-rdf-syntax-ns#"
   xmlns:cc="http://creativecommons.org/ns#"
   xmlns:dc="http://purl.org/dc/elements/1.1/"><sodipodi:namedview
     id="namedview1"
     pagecolor="#000000"
     bordercolor="#eeeeee"
     borderopacity="1"
     inkscape:showpageshadow="false"
     inkscape:pageopacity="0"
     inkscape:pagecheckerboard="false"
     inkscape:deskcolor="#121212"
     inkscape:document-units="px"
     showgrid="false"
     inkscape:zoom="4.45"
     inkscape:cx="66.966292"
     inkscape:cy="51.123596"
     inkscape:window-width="1360"
     inkscape:window-height="697"
     inkscape:window-x="-8"
     inkscape:window-y="-8"
     inkscape:window-maximized="1"
     inkscape:current-layer="g20"><inkscape:grid
       id="grid1"
       units="px"
       originx="480"
       originy="270"
       spacingx="1"
       spacingy="1"
       empcolor="#0099e5"
       empopacity="0.69803922"
       color="#4d4d4d"
       opacity="0.69803922"
       empspacing="5"
       dotted="false"
       gridanglex="30"
       gridanglez="30"
       visible="false" /></sodipodi:namedview><defs
     id="defs1" /><g
     inkscape:label="Capa 1"
     inkscape:groupmode="layer"
     id="layer1"><g
       id="g4"
       transform="matrix(0.19053162,0,0,0.19053162,1.2239053,1.2239053)"><path
         style="fill:#ffffff"
         d="m 370.352,229.604 v 164.222 c 0,0 0.413,27.192 -25.449,36.908 v -8.193 c 0,-9.112 -7.454,-16.566 -16.566,-16.566 H 183.66 c -9.112,0 -16.566,7.455 -16.566,16.566 v 8.193 c -25.861,-9.715 -25.448,-36.908 -25.448,-36.908 V 229.604 c -19.483,21.117 -31.429,49.282 -31.429,80.103 v 83.937 C 110.217,458.74 163.478,512 228.573,512 h 54.853 c 65.096,0 118.356,-53.261 118.356,-118.356 v -83.936 c -10e-4,-30.823 -11.947,-58.986 -31.43,-80.104 z"
         id="path1" /><g
         id="g3">
	<path
   style="fill:#a9a9a9"
   d="m 131.183,379.813 c 5.875,1.49 8.908,4.385 10.463,7.22 v -157.43 c -19.483,21.117 -31.428,49.282 -31.428,80.103 v 62.364 c 6.546,3.245 13.551,5.862 20.965,7.743 z"
   id="path2" />
	<path
   style="fill:#808080"
   d="m 401.781,309.708 c 0,-30.821 -11.945,-58.986 -31.428,-80.103 v 157.066 c 1.199,-2.38 3.434,-5.252 9.883,-6.717 7.48,-1.699 14.707,-4.312 21.547,-7.705 v -62.541 z"
   id="path3" />
</g><path
         style="fill:#ed539d"
         d="m 279.411,512 c -0.068,0 -0.132,-0.004 -0.201,-0.004 66.808,0 21.798,-77.959 -11.607,-20.103 33.403,-57.857 -56.616,-57.857 -23.212,0 -33.403,-57.857 -78.413,20.103 -11.607,20.103 -0.069,0 -0.132,0.003 -0.201,0.004 z"
         id="path4" /><path
         style="fill:#ffe477"
         d="m 255.998,494.207 c -9.824,0 -17.788,7.964 -17.788,17.788 0,10e-4 0,0.002 0,0.003 h 35.577 c 0,-10e-4 0,-0.002 0,-0.003 0,-9.823 -7.964,-17.788 -17.789,-17.788 z"
         id="path5" /><path
         style="display:inline;fill:#ffffff"
         d="M 440.319,184.317 C 440.319,82.522 357.794,0 255.998,0 154.202,0 71.681,82.522 71.681,184.317 c 0,24.875 4.939,48.593 13.871,70.243 -3.87,9.015 -6.021,18.944 -6.021,29.377 0,35.325 23.499,63.941 57.559,72.58 29.396,7.455 30.073,34.288 30.073,34.288 0.717,8.463 7.856,15.169 16.495,15.169 H 328.34 c 8.639,0 15.778,-6.706 16.495,-15.169 0,0 0.329,-27.53 30.073,-34.288 33.025,-7.503 57.559,-37.256 57.559,-72.58 0,-10.433 -2.15,-20.362 -6.021,-29.377 8.934,-21.649 13.873,-45.368 13.873,-70.243 z"
         id="path6" /><g
         id="g11"
         style="fill:#dcdcdc">
	<path
   style="fill:#dcdcdc"
   d="m 256,430.498 c -4.329,0 -7.837,-3.509 -7.837,-7.837 v -28.867 c 0,-4.328 3.508,-7.837 7.837,-7.837 4.329,0 7.837,3.509 7.837,7.837 v 28.867 c 0,4.328 -3.508,7.837 -7.837,7.837 z"
   id="path7" />
	<path
   style="fill:#dcdcdc"
   d="m 229.355,430.498 c -4.329,0 -7.837,-3.509 -7.837,-7.837 v -28.867 c 0,-4.328 3.508,-7.837 7.837,-7.837 4.329,0 7.837,3.509 7.837,7.837 v 28.867 c 0,4.328 -3.508,7.837 -7.837,7.837 z"
   id="path8" />
	<path
   style="fill:#dcdcdc"
   d="m 202.71,430.498 c -4.329,0 -7.837,-3.509 -7.837,-7.837 v -28.867 c 0,-4.328 3.508,-7.837 7.837,-7.837 4.329,0 7.837,3.509 7.837,7.837 v 28.867 c 0,4.328 -3.508,7.837 -7.837,7.837 z"
   id="path9" />
	<path
   style="fill:#dcdcdc"
   d="m 309.292,430.498 c -4.329,0 -7.837,-3.509 -7.837,-7.837 v -28.867 c 0,-4.328 3.508,-7.837 7.837,-7.837 4.329,0 7.837,3.509 7.837,7.837 v 28.867 c 0,4.328 -3.508,7.837 -7.837,7.837 z"
   id="path10" />
	<path
   style="fill:#dcdcdc"
   d="m 282.647,430.498 c -4.329,0 -7.837,-3.509 -7.837,-7.837 v -28.867 c 0,-4.328 3.508,-7.837 7.837,-7.837 4.329,0 7.837,3.509 7.837,7.837 v 28.867 c 0,4.328 -3.508,7.837 -7.837,7.837 z"
   id="path11" />
</g><g
         id="g16"
         style="fill:#dcdcdc">
	<path
   style="fill:#dcdcdc"
   d="m 256,430.498 c 4.329,0 7.837,-3.509 7.837,-7.837 v -16.686 h -15.673 v 16.686 c -10e-4,4.328 3.507,7.837 7.836,7.837 z"
   id="path12" />
	<path
   style="fill:#dcdcdc"
   d="m 229.355,430.498 c 4.329,0 7.837,-3.509 7.837,-7.837 v -16.686 h -15.673 v 16.686 c -0.001,4.328 3.507,7.837 7.836,7.837 z"
   id="path13" />
	<path
   style="fill:#dcdcdc"
   d="m 202.71,430.498 c 4.329,0 7.837,-3.509 7.837,-7.837 v -16.686 h -15.673 v 16.686 c -0.001,4.328 3.507,7.837 7.836,7.837 z"
   id="path14" />
	<path
   style="fill:#dcdcdc"
   d="m 309.292,430.498 c 4.329,0 7.837,-3.509 7.837,-7.837 v -16.686 h -15.673 v 16.686 c -0.001,4.328 3.507,7.837 7.836,7.837 z"
   id="path15" />
	<path
   style="fill:#dcdcdc"
   d="m 282.647,430.498 c 4.329,0 7.837,-3.509 7.837,-7.837 V 405.975 H 274.81 v 16.686 c 0,4.328 3.508,7.837 7.837,7.837 z"
   id="path16" />
</g><g
         id="g20">
	<path
   style="fill:#808080"
   d="m 402.204,159.946 c 0,0 1.104,-18.218 24.337,0.342 3.373,2.695 8.107,6.142 13.296,10.722 0.31,4.375 0.478,8.79 0.478,13.243 0,24.784 -4.906,48.418 -13.776,70.005 -5.887,-11.49 -28.082,-57.688 -24.335,-94.312 z"
   id="path17" />
	<path
   style="fill:#808080"
   d="m 109.793,160.01 c 0,0 -1.104,-18.218 -24.337,0.342 -3.373,2.695 -8.107,6.142 -13.296,10.722 -0.31,4.375 -0.478,8.79 -0.478,13.243 0,24.784 4.906,48.418 13.776,70.004 5.887,-11.489 28.082,-57.687 24.335,-94.311 z"
   id="path18" />
	<path
   style="fill:#a9a9a9"
   d="m 358.923,81.052 c -6.548,-6.461 -13.736,-12.326 -21.363,-17.431 -3.597,-2.407 -4.561,-7.275 -2.154,-10.872 2.407,-3.597 7.276,-4.56 10.871,-2.154 8.446,5.654 16.404,12.147 23.653,19.299 3.08,3.04 3.115,8.003 0.074,11.082 -4.987,5.054 -9.554,1.582 -11.081,0.076 z"
   id="path19" />
	<path
   style="fill:#a9a9a9"
   d="m 374.923,99.742 c -0.661,-0.921 -1.333,-1.832 -2.018,-2.736 -2.609,-3.452 -1.927,-8.368 1.527,-10.977 3.452,-2.61 8.366,-1.927 10.978,1.526 0.758,1.002 1.503,2.015 2.238,3.034 2.527,3.514 1.947,8.747 -1.787,10.938 -5.64,3.311 -9.407,0.343 -10.938,-1.785 z"
   id="path20" />
</g><path
         style="fill:#3e3d42"
         d="m 281.539,347.659 c 0,14.105 -11.434,18.767 -25.539,18.767 -14.105,0 -25.539,-4.662 -25.539,-18.767 0,-14.105 11.434,-54.069 25.539,-54.069 14.105,0 25.539,39.963 25.539,54.069 z"
         id="path21" /><path
         style="fill:#2d2d30"
         d="m 250.375,347.658 c 0,-10.572 6.424,-35.672 15.583,-47.582 -3.059,-3.979 -6.425,-6.487 -9.958,-6.487 -14.105,0 -25.54,39.964 -25.54,54.069 0,14.105 11.434,18.767 25.54,18.767 3.533,0 6.897,-0.293 9.958,-0.953 -9.159,-1.974 -15.583,-7.24 -15.583,-17.814 z"
         id="path22" /><path
         style="fill:#ff3f62"
         d="m 231.611,253.721 c 6.459,-2.185 11.114,-8.281 11.114,-15.477 0,-9.029 -6.403,-16.899 -18.665,-16.167 1.461,-2.448 2.317,-5.3 2.317,-8.357 0,-9.029 -7.32,-16.35 -16.35,-16.35 -5.149,0 -9.736,2.387 -12.733,6.107 -1.018,-8.051 -7.876,-14.282 -16.204,-14.282 -6.87,0 -12.741,4.243 -15.16,10.248 -2.843,-4.82 -8.096,-8.557 -14.077,-8.065 0,0 -16.711,1.229 -15.898,20.107 -2.605,-1.753 -5.741,-2.777 -9.117,-2.777 -9.029,0 -16.348,7.32 -16.348,16.348 0,4.502 1.821,8.579 4.766,11.535 -8.658,0.417 -15.555,7.547 -15.555,16.309 0,8.14 5.955,14.871 13.742,16.122 -3.029,2.967 -4.914,7.099 -4.914,11.675 0,9.029 7.32,16.348 16.35,16.348 1.979,0 3.868,-0.37 5.624,-1.014 -0.563,1.654 -0.883,3.42 -0.883,5.264 0,9.029 7.32,16.35 16.348,16.35 6.485,0 12.072,-3.786 14.714,-9.259 2.643,5.473 8.229,9.259 14.714,9.259 9.029,0 18.435,-8.185 16.29,-17.51 2.978,3.126 7.171,5.086 11.83,5.086 9.029,0 16.35,-7.32 16.35,-16.35 0,-1.9 -0.341,-3.716 -0.936,-5.411 1.345,0.357 2.749,0.566 4.207,0.566 9.029,0 16.348,-7.32 16.348,-16.35 -0.003,-5.917 -3.161,-11.087 -7.874,-13.955 z"
         id="path23" /><path
         style="fill:#3e3d42"
         d="m 178.598,297.839 c -23.702,7.657 -49.125,-5.35 -56.782,-29.052 -7.657,-23.702 5.35,-49.125 29.052,-56.782 23.702,-7.657 65.568,0.038 73.225,23.74 7.657,23.702 -21.792,54.437 -45.495,62.094 z"
         id="path24" /><path
         style="fill:#2d2d30"
         d="m 148.676,270.203 c -7.657,-23.702 5.35,-49.125 29.052,-56.782 3.451,-1.115 7.295,-1.894 11.355,-2.356 -13.239,-2.822 -27.56,-2.493 -38.216,0.949 -23.702,7.657 -36.709,33.079 -29.052,56.782 7.37,22.811 31.192,35.706 54.101,29.819 -12.495,-4.642 -22.824,-14.743 -27.24,-28.412 z"
         id="path25" /><path
         style="fill:#ff3f62"
         d="m 412.302,252.904 c 0,-8.761 -6.897,-15.893 -15.555,-16.309 2.945,-2.957 4.766,-7.033 4.766,-11.535 0,-9.029 -7.32,-16.348 -16.348,-16.348 -3.376,0 -6.512,1.024 -9.117,2.777 1.51,-14.35 -6.868,-20.107 -15.898,-20.107 -6.002,0 -11.234,3.243 -14.077,8.065 -2.419,-6.005 -8.289,-10.248 -15.16,-10.248 -8.328,0 -15.185,6.231 -16.204,14.282 -2.997,-3.721 -7.584,-6.107 -12.733,-6.107 -9.029,0 -16.35,7.32 -16.35,16.35 0,3.058 0.855,5.91 2.317,8.357 -12.435,-1.081 -18.665,7.137 -18.665,16.167 0,7.196 4.655,13.292 11.114,15.477 -4.712,2.868 -7.871,8.038 -7.871,13.96 0,9.029 7.32,16.35 16.348,16.35 1.457,0 2.862,-0.209 4.207,-0.566 -0.596,1.696 -0.936,3.512 -0.936,5.411 0,9.029 7.32,16.35 16.35,16.35 4.659,0 8.852,-1.958 11.83,-5.086 -1.101,10.715 7.259,17.507 16.289,17.507 6.485,0 12.072,-3.786 14.714,-9.259 2.643,5.473 8.23,9.259 14.714,9.259 9.029,0 19.707,-10.449 15.467,-21.614 1.755,0.645 3.645,1.014 5.624,1.014 9.029,0 16.35,-7.32 16.35,-16.348 0,-4.576 -1.885,-8.707 -4.914,-11.675 7.783,-1.253 13.738,-7.984 13.738,-16.124 z"
         id="path26" /><path
         style="fill:#3e3d42"
         d="m 333.402,297.839 c 23.702,7.657 49.125,-5.35 56.782,-29.052 7.657,-23.702 -5.35,-49.125 -29.052,-56.782 -23.702,-7.657 -65.568,0.038 -73.225,23.74 -7.658,23.702 21.792,54.437 45.495,62.094 z"
         id="path27" /><path
         style="fill:#2d2d30"
         d="m 317.689,237.156 c 4.753,-14.714 22.691,-23.254 41.282,-25.787 -24,-6.544 -63.634,1.381 -71.064,24.38 -7.657,23.702 21.793,54.437 45.496,62.094 9.026,2.916 18.298,2.828 26.747,0.301 -23.093,-9.15 -49.795,-38.287 -42.461,-60.988 z"
         id="path28" /><path
         style="fill:#ed539d"
         d="m 272.21,168.765 c 0,8.953 -7.257,16.21 -16.21,16.21 -8.953,0 -16.21,-7.257 -16.21,-16.21 0,-8.953 7.257,-35.949 16.21,-35.949 8.953,0 16.21,26.996 16.21,35.949 z"
         id="path29" /><path
         style="fill:#ff5023"
         d="m 175.492,18.473 c -1.273,14.559 11.843,30.375 39.364,18.976 -52.611,21.791 2.309,76.71 24.102,24.101 -21.792,52.609 55.877,52.609 34.085,0 21.792,52.609 76.712,-2.309 24.102,-24.101 27.521,11.399 40.636,-4.416 39.364,-18.974 C 312.182,6.642 284.867,0 255.998,0 227.131,0 199.817,6.642 175.492,18.473 Z"
         id="path30" /><path
         style="fill:#ffe477"
         d="m 233.238,1.399 c -4.303,5.147 -6.896,11.774 -6.896,19.008 0,16.38 13.279,29.657 29.657,29.657 16.38,0 29.657,-13.279 29.657,-29.657 0,-7.234 -2.592,-13.86 -6.895,-19.007 C 271.303,0.48 263.707,0 255.998,0 c -7.707,0 -15.301,0.481 -22.76,1.399 z"
         id="path31" /><g
         id="g33">
	<path
   style="fill:#424ede"
   d="m 305.85,166.654 c -13.213,-20.537 -7.252,-47.995 13.286,-61.209 17.157,-11.037 40.095,-6.058 51.134,11.099 9.296,14.453 5.103,33.775 -9.349,43.073 -12.289,7.906 -28.719,4.339 -36.625,-7.95 -2.342,-3.639 -1.288,-8.49 2.351,-10.83 3.637,-2.342 8.489,-1.289 10.83,2.351 3.229,5.02 9.942,6.477 14.963,3.248 7.184,-4.622 9.268,-14.226 4.647,-21.411 -6.363,-9.889 -19.583,-12.757 -29.472,-6.397 -13.269,8.537 -17.121,26.278 -8.584,39.547 2.342,3.639 1.457,8.772 -2.351,10.83 -5.648,3.055 -9.332,-0.022 -10.83,-2.351 z"
   id="path32" />
	<path
   style="fill:#424ede"
   d="m 195.32,169.005 c -3.9,-1.878 -4.693,-7.191 -2.351,-10.83 8.537,-13.269 4.685,-31.01 -8.584,-39.547 -9.89,-6.362 -23.111,-3.49 -29.472,6.398 -4.622,7.184 -2.537,16.789 4.647,21.411 5.023,3.231 11.734,1.773 14.963,-3.248 2.343,-3.64 7.191,-4.693 10.83,-2.351 3.639,2.342 4.693,7.191 2.351,10.83 -7.905,12.288 -24.335,15.855 -36.625,7.95 -14.452,-9.298 -18.646,-28.62 -9.349,-43.073 11.038,-17.157 33.978,-22.135 51.134,-11.099 20.537,13.214 26.498,40.672 13.286,61.209 -1.498,2.327 -4.485,5.405 -10.83,2.35 z"
   id="path33" />
</g></g></g><metadata
     id="metadata1"><rdf:RDF><cc:Work
         rdf:about=""><dc:creator><cc:Agent><dc:title>1812</dc:title></cc:Agent></dc:creator></cc:Work></rdf:RDF></metadata></svg>
