<?xml version="1.0" encoding="UTF-8" standalone="no"?>
<!-- Created with Inkscape (http://www.inkscape.org/) -->

<svg
   width="100"
   height="100"
   viewBox="0 0 100 100"
   version="1.1"
   id="svg1"
   inkscape:version="1.3.2 (091e20e, 2023-11-25, custom)"
   xml:space="preserve"
   sodipodi:docname="zombie.svg"
   xmlns:inkscape="http://www.inkscape.org/namespaces/inkscape"
   xmlns:sodipodi="http://sodipodi.sourceforge.net/DTD/sodipodi-0.dtd"
   xmlns="http://www.w3.org/2000/svg"
   xmlns:svg="http://www.w3.org/2000/svg"
   xmlns:rdf="http://www.w3.org/1999/02/22-rdf-syntax-ns#"
   xmlns:cc="http://creativecommons.org/ns#"
   xmlns:dc="http://purl.org/dc/elements/1.1/"><sodipodi:namedview
     id="namedview1"
     pagecolor="#000000"
     bordercolor="#eeeeee"
     borderopacity="1"
     inkscape:showpageshadow="false"
     inkscape:pageopacity="0"
     inkscape:pagecheckerboard="false"
     inkscape:deskcolor="#121212"
     inkscape:document-units="px"
     showgrid="false"
     inkscape:zoom="3.1466252"
     inkscape:cx="39.407299"
     inkscape:cy="74.206487"
     inkscape:window-width="1360"
     inkscape:window-height="697"
     inkscape:window-x="-8"
     inkscape:window-y="-8"
     inkscape:window-maximized="1"
     inkscape:current-layer="g1"><inkscape:grid
       id="grid1"
       units="px"
       originx="480"
       originy="270"
       spacingx="1"
       spacingy="1"
       empcolor="#0099e5"
       empopacity="0.69803922"
       color="#4d4d4d"
       opacity="0.69803922"
       empspacing="5"
       dotted="false"
       gridanglex="30"
       gridanglez="30"
       visible="false" /></sodipodi:namedview><defs
     id="defs1" /><metadata
     id="metadata1"><rdf:RDF><cc:Work
         rdf:about=""><dc:creator><cc:Agent><dc:title>1812</dc:title></cc:Agent></dc:creator></cc:Work></rdf:RDF></metadata><g
     id="g1"
     transform="matrix(0.81708763,0,0,0.81708763,-2.4284278,-2.8288007)"><path
       d="m 108.3,52.5 c -1.2,0 -2.3,-0.4 -2.5,-1.6 -0.5,-3 -1.3,-6.1 -2.5,-8.1 -0.1,0.1 -0.2,0.1 -0.4,0.1 -7.2,0 -14.2,3 -21.4,3 h -18 -18 c -4.8,0 -9.5,-0.1 -14.3,-0.1 h -7 c -0.3,0 -0.5,0 -0.7,0.2 -0.4,0.3 -0.3,1.7 -0.7,2.2 -0.5,0.8 -1.3,1.4 -1.9,2.1 -1.9,2 -2.9,4.9 -2.7,7.7 0.2,1.8 0.9,3.5 1.9,5 0.4,0.6 1.4,1.2 1.6,2 0.2,0.8 -0.5,1.8 -0.8,2.5 -0.7,1.9 -1.4,4.4 -0.8,6.5 0,0 2.4,-2.2 3.9,-2.7 0,0 0.4,1.2 1.4,2.7 1.8,2.7 6.3,4.1 4.6,7.7 -1,2.1 -3.7,2.9 -3.7,2.9 2,2.2 4.7,2.4 5.7,2.4 h 0.4 c 0.8,0 1.4,0.6 1.9,1.1 5.6,6.2 9.5,7.5 29.3,7.5 19.8,0 23.7,-1.3 29.3,-7.5 0.5,-0.6 1.1,-1.1 1.9,-1.1 0,0 0.8,0.1 1.8,0.1 1.3,0 3.1,-0.2 4.7,-1 0,0 -3.8,-1.6 -3.9,-5.2 0,0 1.2,-1.2 3.4,-1.2 0.9,0 1.9,0.2 3.1,0.8 -0.9,-4.6 -5.6,-5.6 -5.3,-5.7 0.5,-0.9 5.2,-2.6 7.7,-11.9 0.3,-1.2 0.8,-3.9 0.8,-3.9 0,0 3.8,-0.8 4.7,-7.2 0,0 -1.9,0.7 -3.5,0.7 z"
       fill="url(#IconifyId17ecdb2904d178eab26108)"
       id="path2" /><path
       d="M 116,121 C 116,104.3 89.7,96 64.1,96 H 64 c -25.5,0 -52,7.3 -52,25.1 v 3 h 3 l 101,0.1 z"
       fill="url(#IconifyId17ecdb2904d178eab26109)"
       id="path4"
       style="fill:#ff791f;fill-opacity:1" /><path
       d="M 73.1,90.1 H 54.9 v 10 c 0,4.5 3.7,8.2 8.3,8.2 h 1.7 c 4.6,0 8.3,-3.7 8.3,-8.2 z"
       fill="#709921"
       id="path5" /><path
       d="M 91.3,50.4 H 36.7 c -5.9,0 -10.7,5.1 -10.7,11.4 0,6.3 4.8,11.4 10.7,11.4 h 54.7 c 5.9,0 10.7,-5.1 10.7,-11.4 C 102,55.6 97.2,50.4 91.3,50.4 Z"
       fill="#709921"
       id="path6" /><path
       d="M 64,11.1 C 46.6,11.1 30.5,29.7 30.5,56.5 30.5,83.1 47.1,96.3 64,96.3 80.9,96.3 97.5,83.1 97.5,56.5 97.5,29.7 81.4,11.1 64,11.1 Z"
       fill="#82cc2b"
       id="path7" /><path
       d="m 78.6,79.7 c -0.4,-0.4 -0.8,-1 -0.8,-1.6 0.1,-1 1,-1.6 1.9,-2 1.7,-0.8 3.4,-1.7 5.3,-1.9 0.7,-0.1 1.5,-0.1 2.1,0.3 0.7,0.5 1.1,1.4 1,2.3 -0.1,0.9 -0.5,1.7 -1.1,2.3 -2.4,2.9 -5.7,3.2 -8.4,0.6 z"
       fill="#709921"
       id="path8" /><path
       d="m 81.4,84 c 0.3,0.3 0.4,0.8 0.3,1.3 -0.1,0.6 -0.6,1 -1.1,1.5 -0.4,0.3 -0.7,0.6 -1.2,0.8 -0.5,0.2 -1,0 -1.3,-0.4 C 78,86.9 78,86.6 78,86.4 77.9,85 78.3,83 80.1,83.2 c 0.5,0.1 1,0.4 1.3,0.8 z"
       fill="#709921"
       id="path9" /><path
       d="m 42.5,77.8 c -0.4,0.1 -0.9,0 -1.3,-0.4 -0.5,-0.4 -0.6,-1 -0.8,-1.6 -0.1,-0.5 -0.2,-1 -0.1,-1.4 0.1,-0.4 0.5,-0.9 1,-0.9 0.2,0 0.5,0.1 0.7,0.2 1.2,0.6 2.9,1.9 1.8,3.3 -0.4,0.4 -0.8,0.7 -1.3,0.8 z"
       fill="#709921"
       id="path10" /><path
       d="m 56.7,41 c 0.8,-0.4 1.6,-0.7 2.4,-0.4 1,0.4 1.5,1.7 1.2,2.8 -0.3,1.1 -1.1,1.9 -1.9,2.6 -0.5,0.4 -1,0.8 -1.7,0.9 C 55.9,47 55,46.6 54.3,46 51.7,43.6 54.2,42.2 56.7,41 Z"
       fill="#709921"
       id="path11" /><path
       d="m 60.1,71.2 c 0.1,0 0.2,0.1 0.3,0.1 h 7.1 c 0.1,0 0.2,0 0.3,-0.1 0.6,-0.3 1,-0.9 0.7,-1.6 -0.3,-0.7 -1.7,-2.7 -4.5,-2.7 -2.8,0 -4.2,2 -4.5,2.7 -0.3,0.6 0,1.3 0.6,1.6 z"
       fill="#597718"
       id="path12" /><path
       d="m 74.5,83 c 0,3.2 -4.7,3.8 -10.5,3.8 -5.8,0 -10.5,-0.6 -10.5,-3.8 0,-3.2 4.7,-7.8 10.5,-7.8 5.8,0 10.5,4.6 10.5,7.8 z"
       fill="#333333"
       id="path13"
       style="fill:#000000;fill-opacity:1" /><path
       d="m 64,86.8 c 3.5,0 6.7,-0.2 8.6,-1.1 -0.2,-2.9 -4,-5.2 -8.6,-5.2 -4.6,0 -8.4,2.3 -8.6,5.2 1.9,0.9 5.1,1.1 8.6,1.1 z"
       fill="#f05455"
       id="path14" /><path
       d="m 112.1,47.94 c 1.52,-7.63 -7.29,-13.57 -7.47,-13.67 0.29,-0.3 4.27,-4.62 1.67,-11.17 l -0.05,0.05 C 106.23,23.1 106.22,23.05 106.2,23 l -3.45,3.36 c -0.88,-2.6 -3.06,-5.18 -5.76,-6.84 -2.23,-1.4 -4.8,-2.15 -7.29,-1.73 C 89.89,12.99 86.1,8.6 81.6,7 78.7,6 75.7,5.6 72.8,5.6 c -7.9,0 -15.2,2.9 -19,4.4 -0.8,0.2 -1.4,0.3 -2,0.3 -3.9,0 -4.7,-4.4 -4.7,-4.4 L 47.01,5.97 C 47,5.93 47,5.9 47,5.9 c 0,0 -0.04,0.07 -0.11,0.18 -0.79,0.7 -3.5,3.54 -1.69,8.02 -0.3,0.1 -0.5,0.1 -0.8,0.1 -4.7,0 -7.6,-9.1 -7.6,-9.1 -7.4,9.8 -0.4,15.1 -0.4,15.1 0,0 -1,-0.3 -2.4,-0.3 -1.7,0 -3.9,0.5 -5.6,2.6 -1.5,1.9 -1.1,3.5 -2.6,5.4 -0.35,0.45 -0.89,0.75 -1.5,0.93 -1.8,0.44 -4.2,-0.03 -4.2,-0.03 0.02,0.04 0.04,0.08 0.06,0.13 C 20.06,28.91 20,28.9 20,28.9 c 1.78,4.39 5.65,4.77 6.47,4.8 -0.99,0.38 -1.74,0.89 -2.3,1.48 -2.67,2.7 -1.28,7.11 -1.27,7.12 0.6,5.78 -7.92,3.2 -7.92,3.2 4.26,12.7 14.02,7 14.02,7.1 -0.6,10.7 2.8,16 2.8,16 0,0 0.02,-0.07 0.04,-0.19 0.03,0.06 0.06,0.09 0.06,0.09 0,0 4.1,-18.5 3.7,-21.3 0,0 7.8,-1.5 16.6,-6.6 6,-3.4 10,-7.4 16.7,-8.9 1.4,-0.3 2.6,-0.4 3.7,-0.4 2.55,0 4.4,0.71 5.73,1.62 2.3,1.63 2.97,3.88 2.97,3.88 0,0 0.03,-0.01 0.1,0 0,0 0.13,-0.03 0.36,-0.06 1.92,-0.16 9.32,-0.01 11.84,11.36 1.2,5.4 1.7,14.4 2.3,19.8 -0.01,-0.05 0.02,-0.15 0.07,-0.28 L 96,67.9 c -0.08,-0.76 0.87,-2.07 1.17,-2.73 0.84,-1.87 1.61,-3.78 2.16,-5.76 0.28,-1 0.39,-1.91 0.47,-2.92 0.08,-0.99 0.28,-1.35 1.21,-1.76 3.8,-1.65 3.27,-5.04 6.06,-6.65 2.79,-1.61 5.03,-0.14 5.03,-0.14 z"
       fill="url(#IconifyId17ecdb2904d178eab26110)"
       id="path15"
       style="fill:#6c1c1c;fill-opacity:1" /><path
       d="m 46.9,69.1 c -4.9,0 -8.8,-4.5 -8.8,-10.1 0,-5.6 4,-10.1 8.8,-10.1 4.9,0 8.8,4.5 8.8,10.1 0,5.6 -3.9,10.1 -8.8,10.1 z"
       fill="#4e6b17"
       id="path16" /><path
       d="m 46.9,50.3 c 4.2,0 8.32,4.09 8.32,8.99 0,4.9 -3.03,9.21 -8.19,9.21 -5.16,0 -8.37,-4.63 -8.37,-9.53 0,-4.9 4.14,-8.67 8.24,-8.67 m 0,-2.7 c -5.6,0 -10.2,5.1 -10.2,11.4 0,6.3 4.5,11.4 10.2,11.4 5.6,0 10.2,-5.1 10.2,-11.4 0,-6.3 -4.6,-11.4 -10.2,-11.4 z"
       fill="#709921"
       id="path17" /><ellipse
       cx="47.099998"
       cy="56.799999"
       rx="7.9000001"
       ry="8.1999998"
       fill="#ffffff"
       id="ellipse17"
       style="fill:#000000;fill-opacity:1" /><path
       d="m 47.1,49.7 c 3.7,0 6.8,3.2 6.8,7.1 0,3.9 -3,7.1 -6.8,7.1 -3.8,0 -6.8,-3.2 -6.8,-7.1 0,-3.9 3.1,-7.1 6.8,-7.1 m 0,-2.2 c -5,0 -9,4.2 -9,9.3 0,5.1 4,9.3 9,9.3 5,0 9,-4.2 9,-9.3 0,-5.1 -4,-9.3 -9,-9.3 z"
       fill="#709921"
       id="path18" /><g
       id="g27"><path
         d="m 40.62,104.26 c -0.6,-0.7 -1.31,-0.91 -2,-1 -1.05,-0.14 -1.95,0.11 -2.46,0.87 -0.89,1.33 -1.2,3.89 -3.71,4.17 -1.64,0.18 -1.93,-5.48 -1.95,-7.67 -0.07,-7.76 0.4,-11.27 0.59,-11.94 0.2,-0.68 0.35,-1.89 0.78,-2.59 1.58,-0.03 2.72,-1.32 2.85,-2.9 0.13,-1.71 -2.93,-4.5 -6.32,-2.09 -1.7,1.21 -3.7,4.7 -3.9,14.7 0,0 -0.38,1.51 -1.12,-0.35 -0.74,-1.86 -1.99,-5.3 -0.41,-9.3 1.03,0.02 2.13,-0.92 2.18,-2.53 0.07,-2.02 -1.76,-2.91 -3.08,-2.77 -1.32,0.14 -3.94,0.76 -4.88,4.5 -0.54,2.14 -0.47,4.34 -0.47,4.34 0,0 -2.46,0.57 -2.72,0.79 -0.68,0.59 -2.42,1.68 -2.21,5.71 0.09,1.79 0.72,4.02 0.72,4.02 0,0 -1.39,0.72 -1.93,1.38 -0.81,0.98 -1.47,2.08 -1.79,3.3 -0.56,2.19 -0.35,4.42 0.31,6.56 0.41,1.34 0.98,2.64 1.63,3.89 0.43,0.83 1.06,1.6 1.32,2.52 0.12,0.43 0.1,0.81 0.02,1.2 -0.08,0.42 -0.84,3.88 -1.09,5.14 h 14.08 c 0.1,-0.43 0.27,-0.95 0.38,-1.38 0.23,-0.87 2.07,-1.36 2.8,-1.76 4.6,-2.49 9.43,-6.34 12.13,-11.29 0.91,-1.66 1.45,-4.12 0.25,-5.52 z m -22.95,-4.62 -0.78,-4.22 1.06,-0.39 c 0,0 0.53,1.38 0.85,3.29 0.32,1.91 -1.13,1.32 -1.13,1.32 z"
         fill="#82cc2b"
         id="path19" /><path
         d="m 22.03,117.39 c -0.14,0.03 0.88,-2.91 -1.49,-5.67 -2.04,-2.37 -4.99,-1.4 -4.99,-1.4 0,0 2.39,0.42 4.15,2.38 1.76,1.97 2.33,4.69 2.33,4.69 z"
         fill="#709921"
         id="path20" /><path
         d="m 15.5,101.12 c 0.73,0.59 1.31,1.49 1.19,2.42 -0.14,1.1 -1.24,1.88 -2.35,2 -1.11,0.12 -2.19,-0.26 -3.22,-0.69 0.76,1.48 2.25,1.49 2.25,1.49 0,0 0.86,3.63 1.31,3.8 l 0.09,-3.58 c 0,0 2.1,0.33 2.96,-2.48 0.54,-1.78 -0.38,-3.15 -1.67,-3.74 -1.29,-0.59 -3.12,-0.05 -3.12,-0.05 0,0 1.82,0.23 2.56,0.83 z"
         fill="#709921"
         id="path21" /><path
         d="m 17.27,90.49 c 0.8,0.29 1.53,0.77 1.61,1.71 0.1,1.1 -0.81,2.1 -1.86,2.46 -1.05,0.36 -2.2,0.22 -3.29,0.02 0.93,1.05 2.17,0.94 2.29,1.19 0.16,0.34 0.07,2.19 0.76,3.24 0.35,0.53 1.25,0.62 1.25,0.62 0,0 -1.02,-1.59 -0.83,-3.92 0,0 0.84,-0.23 1.44,-0.61 0.92,-0.58 1.3,-1.67 1.38,-2.7 0.14,-1.86 -1.61,-2.64 -2.88,-2.77 -1.9,-0.2 -3.14,0.77 -3.14,0.77 0,0 2.37,-0.34 3.27,-0.01 z"
         fill="#709921"
         id="path22" /><path
         d="m 12.07,119.1 c 1.45,0.95 3.68,1.33 5.22,1.17 -1.93,-0.47 -4.57,-2.28 -5.87,-3.78 0.26,0.44 0.51,0.88 0.64,1.37 0.12,0.43 0.1,0.81 0.02,1.2 0,0.01 -0.01,0.03 -0.01,0.04 z"
         fill="#709921"
         id="path23" /><path
         d="m 20.54,121.85 c 0.95,0.84 3.12,1.33 4.84,1.18 l 0.06,-0.21 c 0.15,-0.57 0.98,-0.97 1.75,-1.3 -1.69,0.58 -4.88,0.59 -6.65,0.33 z"
         fill="#709921"
         id="path24" /><path
         d="m 19.99,85.39 c -0.02,0.03 -0.02,0.07 -0.01,0.1 0.09,0.71 0.49,1.38 1.07,1.8 0.42,0.3 0.92,0.46 1.43,0.48 0.11,-0.53 0.26,-1.06 0.48,-1.62 -0.97,0.03 -1.94,-0.23 -2.75,-0.76 -0.06,-0.03 -0.17,-0.07 -0.22,0 z"
         fill="#709921"
         id="path25" /><path
         d="m 28.87,84.7 c -0.01,0.94 0.5,1.82 1.19,2.46 0.35,0.33 0.77,0.61 1.23,0.78 0.14,-0.62 0.3,-1.33 0.59,-1.83 -0.45,-0.01 -0.9,-0.12 -1.31,-0.3 -0.63,-0.27 -1.17,-0.69 -1.7,-1.11 z"
         fill="#709921"
         id="path26" /><path
         d="m 35.64,105.11 c -0.6,1.33 -1.21,2.96 -3.19,3.18 -0.22,0.02 -0.41,-0.06 -0.59,-0.22 0.12,1.6 0.33,3.53 0.03,5.01 2.08,-2.12 3.67,-4.61 3.75,-7.97 z"
         fill="#709921"
         id="path27" /></g><g
       id="g30"><path
         d="m 80.7,69.1 c -4.9,0 -8.8,-4.5 -8.8,-10.1 0,-5.6 4,-10.1 8.8,-10.1 4.9,0 8.8,4.5 8.8,10.1 0,5.6 -3.9,10.1 -8.8,10.1 z"
         fill="#4e6b17"
         id="path28" /><path
         d="m 80.7,50.3 c 4.2,0 8.32,4.09 8.32,8.99 0,4.9 -3.03,9.21 -8.19,9.21 -5.15,0 -8.37,-4.63 -8.37,-9.53 0,-4.9 4.14,-8.67 8.24,-8.67 m 0,-2.7 c -5.6,0 -10.2,5.1 -10.2,11.4 0,6.3 4.5,11.4 10.2,11.4 5.6,0 10.2,-5.1 10.2,-11.4 0,-6.3 -4.6,-11.4 -10.2,-11.4 z"
         fill="#709921"
         id="path29" /><ellipse
         cx="80.900002"
         cy="56.799999"
         rx="7.9000001"
         ry="8.1999998"
         fill="#ffffff"
         id="ellipse29"
         style="fill:#000000;fill-opacity:1" /><path
         d="m 80.9,49.7 c 3.7,0 6.8,3.2 6.8,7.1 0,3.9 -3,7.1 -6.8,7.1 -3.8,0 -6.8,-3.2 -6.8,-7.1 0,-3.9 3.1,-7.1 6.8,-7.1 m 0,-2.2 c -5,0 -9,4.2 -9,9.3 0,5.1 4,9.3 9,9.3 5,0 9,-4.2 9,-9.3 0,-5.1 -4,-9.3 -9,-9.3 z"
         fill="#709921"
         id="path30" /></g><g
       id="g39"><path
         d="m 87.96,109.77 c 2.7,4.95 7.53,8.8 12.13,11.29 0.73,0.4 2.58,0.89 2.8,1.76 0.11,0.43 0.28,0.95 0.38,1.38 h 14.08 c -0.26,-1.26 -1.01,-4.72 -1.09,-5.14 -0.07,-0.38 -0.09,-0.77 0.02,-1.2 0.25,-0.92 0.88,-1.68 1.32,-2.52 0.65,-1.25 1.22,-2.54 1.63,-3.89 0.66,-2.14 0.87,-4.38 0.31,-6.56 -0.32,-1.23 -0.98,-2.33 -1.79,-3.3 -0.54,-0.65 -1.93,-1.38 -1.93,-1.38 0,0 0.63,-2.23 0.72,-4.02 0.21,-4.03 -1.53,-5.12 -2.21,-5.71 -0.26,-0.23 -2.72,-0.79 -2.72,-0.79 0,0 0.07,-2.2 -0.47,-4.34 -0.94,-3.74 -3.56,-4.36 -4.88,-4.5 -1.32,-0.14 -3.15,0.75 -3.08,2.77 0.06,1.6 1.15,2.55 2.18,2.53 1.58,4 0.34,7.45 -0.41,9.3 -0.74,1.85 -1.12,0.35 -1.12,0.35 -0.2,-10 -2.2,-13.49 -3.9,-14.7 -3.39,-2.41 -6.45,0.38 -6.32,2.09 0.12,1.58 1.27,2.87 2.85,2.9 0.44,0.7 0.59,1.91 0.78,2.59 0.19,0.66 0.66,4.18 0.59,11.94 -0.02,2.19 -0.31,7.86 -1.95,7.67 -2.51,-0.28 -2.81,-2.84 -3.71,-4.17 -0.51,-0.76 -1.41,-1 -2.46,-0.87 -0.69,0.09 -1.4,0.3 -2,1 -1.19,1.41 -0.66,3.87 0.25,5.52 z m 21.58,-11.45 c 0.32,-1.91 0.85,-3.29 0.85,-3.29 l 1.06,0.39 -0.78,4.22 c 0,0 -1.46,0.58 -1.13,-1.32 z"
         fill="#82cc2b"
         id="path31" /><path
         d="m 106.3,117.39 c 0.14,0.03 -0.88,-2.91 1.49,-5.67 2.04,-2.37 4.99,-1.4 4.99,-1.4 0,0 -2.39,0.42 -4.15,2.38 -1.75,1.97 -2.33,4.69 -2.33,4.69 z"
         fill="#709921"
         id="path32" /><path
         d="m 112.83,101.12 c -0.73,0.59 -1.31,1.49 -1.19,2.42 0.14,1.1 1.24,1.88 2.35,2 1.1,0.13 2.19,-0.26 3.22,-0.69 -0.76,1.48 -2.25,1.49 -2.25,1.49 0,0 -0.86,3.63 -1.31,3.8 l -0.09,-3.58 c 0,0 -2.1,0.33 -2.96,-2.48 -0.54,-1.78 0.38,-3.15 1.67,-3.74 1.29,-0.59 3.12,-0.05 3.12,-0.05 0,0 -1.81,0.23 -2.56,0.83 z"
         fill="#709921"
         id="path33" /><path
         d="m 111.06,90.49 c -0.8,0.29 -1.53,0.77 -1.61,1.71 -0.1,1.1 0.81,2.1 1.86,2.46 1.05,0.36 2.2,0.22 3.29,0.02 -0.93,1.05 -2.17,0.94 -2.29,1.19 -0.16,0.34 -0.07,2.19 -0.76,3.24 -0.35,0.53 -1.25,0.62 -1.25,0.62 0,0 1.02,-1.59 0.83,-3.92 0,0 -0.84,-0.23 -1.44,-0.61 -0.92,-0.58 -1.3,-1.67 -1.38,-2.7 -0.14,-1.86 1.61,-2.64 2.88,-2.77 1.9,-0.2 3.14,0.77 3.14,0.77 0,0 -2.37,-0.34 -3.27,-0.01 z"
         fill="#709921"
         id="path34" /><path
         d="m 116.27,119.1 c -1.45,0.95 -3.68,1.33 -5.22,1.17 1.93,-0.47 4.57,-2.28 5.87,-3.78 -0.26,0.44 -0.51,0.88 -0.64,1.37 -0.12,0.43 -0.1,0.81 -0.02,1.2 0,0.01 0,0.03 0.01,0.04 z"
         fill="#709921"
         id="path35" /><path
         d="m 107.79,121.85 c -0.95,0.84 -3.12,1.33 -4.84,1.18 l -0.06,-0.21 c -0.15,-0.57 -0.98,-0.97 -1.75,-1.3 1.69,0.58 4.88,0.59 6.65,0.33 z"
         fill="#709921"
         id="path36" /><path
         d="m 108.34,85.39 c 0.02,0.03 0.02,0.07 0.01,0.1 -0.09,0.71 -0.49,1.38 -1.07,1.8 -0.42,0.3 -0.92,0.46 -1.43,0.48 -0.11,-0.53 -0.26,-1.06 -0.48,-1.62 0.97,0.03 1.94,-0.23 2.75,-0.76 0.07,-0.03 0.18,-0.07 0.22,0 z"
         fill="#709921"
         id="path37" /><path
         d="m 99.47,84.7 c 0.01,0.94 -0.5,1.82 -1.19,2.46 -0.35,0.33 -0.77,0.61 -1.23,0.78 -0.14,-0.62 -0.3,-1.33 -0.59,-1.83 0.45,-0.01 0.9,-0.12 1.31,-0.3 0.62,-0.27 1.17,-0.69 1.7,-1.11 z"
         fill="#709921"
         id="path38" /><path
         d="m 92.69,105.11 c 0.6,1.33 1.21,2.96 3.19,3.18 0.22,0.02 0.41,-0.06 0.59,-0.22 -0.12,1.6 -0.33,3.53 -0.03,5.01 -2.07,-2.12 -3.67,-4.61 -3.75,-7.97 z"
         fill="#709921"
         id="path39" /></g></g></svg>
