<?xml version="1.0" encoding="UTF-8" standalone="no"?>
<!-- Created with Inkscape (http://www.inkscape.org/) -->

<svg
   width="150"
   height="200"
   viewBox="0 0 150 200"
   version="1.1"
   id="svg1"
   inkscape:version="1.3.2 (091e20e, 2023-11-25, custom)"
   sodipodi:docname="1.svg"
   xmlns:inkscape="http://www.inkscape.org/namespaces/inkscape"
   xmlns:sodipodi="http://sodipodi.sourceforge.net/DTD/sodipodi-0.dtd"
   xmlns="http://www.w3.org/2000/svg"
   xmlns:svg="http://www.w3.org/2000/svg"
   xmlns:rdf="http://www.w3.org/1999/02/22-rdf-syntax-ns#"
   xmlns:cc="http://creativecommons.org/ns#"
   xmlns:dc="http://purl.org/dc/elements/1.1/">
  <sodipodi:namedview
     id="namedview1"
     pagecolor="#000000"
     bordercolor="#eeeeee"
     borderopacity="1"
     inkscape:showpageshadow="false"
     inkscape:pageopacity="0"
     inkscape:pagecheckerboard="false"
     inkscape:deskcolor="#121212"
     inkscape:document-units="px"
     showgrid="false"
     inkscape:zoom="2.225"
     inkscape:cx="79.101124"
     inkscape:cy="94.157303"
     inkscape:window-width="1360"
     inkscape:window-height="697"
     inkscape:window-x="-8"
     inkscape:window-y="-8"
     inkscape:window-maximized="1"
     inkscape:current-layer="layer1">
    <inkscape:grid
       id="grid1"
       units="px"
       originx="480"
       originy="270"
       spacingx="1"
       spacingy="1"
       empcolor="#0099e5"
       empopacity="0.69803922"
       color="#4d4d4d"
       opacity="0.69803922"
       empspacing="5"
       dotted="false"
       gridanglex="30"
       gridanglez="30"
       visible="false" />
  </sodipodi:namedview>
  <defs
     id="defs1" />
  <g
     inkscape:label="Capa 1"
     inkscape:groupmode="layer"
     id="layer1">
    <g
       id="g371"
       transform="translate(-335.98,-48.912947)">
      <g
         id="g370">
        <path
           class="cls-1"
           d="m 435.14,91.58 c 2.61,-11.84 -9.65,-19.35 -20.41,-22.53 -10.77,-3.18 -24.64,-3.79 -30.12,8.45 -5.48,12.24 11,21.89 11,21.89 0,0 -2.3,5.91 0.33,7.12 2.63,1.21 5.28,-5.72 5.28,-5.72 0,0 -1.5,7.27 2.46,8.26 3.96,0.99 6.29,-6.15 6.29,-6.15 0,0 -1.71,7.29 2.39,7.75 4.1,0.46 3.46,-6.5 3.46,-6.5 0,0 16.71,-0.72 19.32,-12.55 z M 402.8,90.81 c -4.97,1.78 -13.46,-9.27 -5.06,-12.05 8.4,-2.78 10.03,10.28 5.06,12.05 z m 6.91,8.05 c -1.43,0.15 -2.75,-2.97 -2.75,-2.97 0,0 -2.66,2.21 -3.58,1.09 -0.92,-1.12 2.76,-5.91 4.66,-5.44 1.9,0.47 3.11,7.17 1.67,7.32 z m 3.77,-4.81 c -3,-3.28 3.36,-12.36 8.52,-6.97 5.16,5.39 -5.52,10.26 -8.52,6.97 z"
           id="path309"
           style="fill:#ffffff" />
        <path
           class="cls-1"
           d="m 424.5,151.99 c -3.8,-0.96 -9.9,1 -16.27,1.04 -6.38,0.04 -12.47,-2 -16.27,-1.04 -3.8,0.96 -6,5.1 -6,8.01 0,2.91 8.17,11.82 11.14,12.68 2.96,0.85 6.51,-2.71 11.14,-2.82 4.63,-0.11 8.17,3.67 11.14,2.82 2.96,-0.85 11.14,-9.77 11.14,-12.68 0,-2.91 -2.21,-7.04 -6,-8.01 z m -25.81,12.94 c -1.39,0.42 -6.92,-2.2 -7.48,-3.59 -0.56,-1.39 0.33,-4.7 2.39,-5.17 2.06,-0.47 7.48,5.11 7.39,5.89 -0.08,0.78 -0.92,2.45 -2.31,2.86 z m 26.55,-3.58 c -0.56,1.39 -6.09,4 -7.48,3.59 -1.39,-0.42 -2.22,-2.08 -2.31,-2.86 -0.08,-0.78 5.34,-6.37 7.39,-5.89 2.06,0.47 2.95,3.78 2.39,5.17 z"
           id="path310"
           style="fill:#ffffff" />
        <g
           id="g315">
          <path
             class="cls-1"
             d="m 394.86,205.38 c 0,0 -2.35,-4.96 -5.53,-2.4 -3.18,2.56 1.18,5.66 1.18,5.66 l -3.43,10.9 c 0,0 -5.32,-1.47 -5.24,2.76 0.07,4.23 6.46,3.21 6.46,3.21 0,0 4.39,4.61 6.44,1.47 2.05,-3.14 -2.37,-5.79 -2.37,-5.79 l 3.35,-10.73 c 0,0 5.27,-0.54 4.94,-3.9 -0.33,-3.35 -5.8,-1.19 -5.8,-1.19 z"
             id="path311"
             style="fill:#ffffff" />
          <path
             class="cls-1"
             d="m 387.84,176.65 c 0,0 1.24,-5.64 4.57,-3.27 3.33,2.37 -0.46,5.5 -0.46,5.5 l 3.87,11.7 c 0,0 5.22,-1.77 5.4,2.46 0.19,4.23 -6.25,3.58 -6.25,3.58 0,0 -4.1,4.85 -6.34,1.84 -2.24,-3.01 2.01,-5.92 2.01,-5.92 l -3.35,-10.76 c 0,0 -3.92,0.59 -3.79,-2.78 0.13,-3.37 4.34,-2.35 4.34,-2.35 z"
             id="path312"
             style="fill:#ffffff" />
          <g
             id="g314">
            <path
               class="cls-1"
               d="m 385.63,229.33 c 2.2,-0.19 2.69,2.65 2.58,3.58 -0.27,1.81 -6.65,0.98 -7.35,-0.33 -0.7,-1.31 2.58,-3.05 4.78,-3.25 z"
               id="path313"
               style="fill:#ffffff" />
            <path
               class="cls-1"
               d="m 389.92,229.39 c 1.38,-0.55 15.25,2.16 14.99,3.95 -0.26,1.78 -13.64,0.41 -14.4,0 -0.76,-0.41 -1.97,-3.4 -0.6,-3.95 z"
               id="path314"
               style="fill:#ffffff" />
          </g>
          <path
             class="cls-1"
             d="m 394.03,200.98 c -0.09,1.17 1.56,2.05 2.91,2.13 1.35,0.08 3.49,-1.17 3.23,-2.11 -0.38,-1.21 -1.61,-1.91 -3.06,-1.91 -1.45,0 -3.08,1.06 -3.08,1.89 z"
             id="path315"
             style="fill:#ffffff" />
        </g>
        <g
           id="g320">
          <path
             class="cls-1"
             d="m 422.63,205.38 c 0,0 2.35,-4.96 5.53,-2.4 3.18,2.56 -1.18,5.66 -1.18,5.66 l 3.43,10.9 c 0,0 5.32,-1.47 5.24,2.76 -0.07,4.23 -6.46,3.21 -6.46,3.21 0,0 -4.39,4.61 -6.44,1.47 -2.05,-3.14 2.37,-5.79 2.37,-5.79 l -3.35,-10.73 c 0,0 -5.27,-0.54 -4.94,-3.9 0.33,-3.35 5.8,-1.19 5.8,-1.19 z"
             id="path316"
             style="fill:#ffffff" />
          <path
             class="cls-1"
             d="m 429.65,176.65 c 0,0 -1.24,-5.64 -4.57,-3.27 -3.33,2.37 0.46,5.5 0.46,5.5 l -3.87,11.7 c 0,0 -5.22,-1.77 -5.4,2.46 -0.19,4.23 6.25,3.58 6.25,3.58 0,0 4.1,4.85 6.34,1.84 2.24,-3.01 -2.01,-5.92 -2.01,-5.92 l 3.35,-10.76 c 0,0 3.92,0.59 3.79,-2.78 -0.13,-3.37 -4.34,-2.35 -4.34,-2.35 z"
             id="path317"
             style="fill:#ffffff" />
          <g
             id="g319">
            <path
               class="cls-1"
               d="m 432.16,229.33 c -2.06,-0.19 -2.53,2.65 -2.42,3.58 0.26,1.81 6.24,0.98 6.9,-0.33 0.66,-1.31 -2.42,-3.05 -4.48,-3.25 z"
               id="path318"
               style="fill:#ffffff" />
            <path
               class="cls-1"
               d="m 428.13,229.39 c -1.29,-0.55 -14.32,2.16 -14.07,3.95 0.24,1.78 12.8,0.41 13.51,0 0.71,-0.41 1.85,-3.4 0.56,-3.95 z"
               id="path319"
               style="fill:#ffffff" />
          </g>
          <path
             class="cls-1"
             d="m 423.46,200.98 c 0.09,1.17 -1.56,2.05 -2.91,2.13 -1.35,0.08 -3.49,-1.17 -3.23,-2.11 0.38,-1.21 1.61,-1.91 3.06,-1.91 1.45,0 3.08,1.06 3.08,1.89 z"
             id="path320"
             style="fill:#ffffff" />
        </g>
        <g
           id="g340">
          <path
             class="cls-1"
             d="m 388.27,116.91 c 0,0 5.12,-4.57 1.1,-5.55 -4.02,-0.98 -5.51,3.88 -5.51,3.88 l -11.74,4.8 c 0,0 -1.95,-5.17 -5.42,-2.51 -3.46,2.66 1.19,7.16 1.19,7.16 0,0 -1.2,6.36 2.62,6.08 3.82,-0.28 3.38,-5.46 3.38,-5.46 l 10.66,-4.58 c 0,0 2.06,3.39 4.64,1.06 2.58,-2.33 -0.93,-4.88 -0.93,-4.88 z"
             id="path321"
             style="fill:#ffffff" />
          <path
             class="cls-1"
             d="m 361.97,130.53 c 0,0 -2.66,-4.96 -5.67,-2.12 -3.01,2.83 1.54,5.75 1.54,5.75 l -2.72,11.44 c 0,0 -5.4,-1.18 -5.06,3.17 0.34,4.35 6.66,2.91 6.66,2.91 0,0 4.68,4.47 6.52,1.11 1.84,-3.36 -2.74,-5.81 -2.74,-5.81 l 2.65,-11.26 c 0,0 5.23,-0.89 4.68,-4.32 -0.55,-3.43 -5.86,-0.87 -5.86,-0.87 z"
             id="path322"
             style="fill:#ffffff" />
          <path
             class="cls-1"
             d="m 361.57,122.95 c -1.03,0.65 -0.78,2.51 -0.05,3.65 0.73,1.14 3.04,2.1 3.66,1.31 0.78,-1.05 0.64,-2.46 -0.22,-3.63 -0.86,-1.17 -2.71,-1.84 -3.39,-1.33 z"
             id="path323"
             style="fill:#ffffff" />
          <g
             id="g339">
            <path
               class="cls-1"
               d="m 351.59,160.34 c -0.39,-0.59 -0.88,-1.11 -1.32,-1.65 -0.45,-0.56 -0.88,-1.2 -0.48,-1.93 0.17,-0.32 0.44,-0.57 0.72,-0.8 0.7,-0.6 1.46,-1.14 2.31,-1.52 1.44,-0.65 3.14,-0.8 4.45,0.23 1.53,1.21 1.26,2.98 0.5,4.55 -0.51,1.05 -1.1,2.09 -1.86,2.99 -0.61,0.72 -1.42,0.99 -2.28,0.5 -0.89,-0.51 -1.43,-1.39 -1.96,-2.24 -0.03,-0.04 -0.05,-0.08 -0.08,-0.12 z"
               id="path324"
               style="fill:#ffffff" />
            <g
               id="g327">
              <path
                 class="cls-1"
                 d="m 350.73,160.92 c 0.16,0.15 0.33,0.32 0.33,0.54 0,0.19 -0.13,0.35 -0.26,0.49 -0.31,0.32 -0.67,0.59 -1.05,0.81 -0.16,0.09 -0.33,0.17 -0.51,0.17 -0.32,0 -0.56,-0.28 -0.76,-0.54 -0.04,-0.05 -0.08,-0.1 -0.09,-0.16 0,-0.06 0.01,-0.12 0.03,-0.17 0.12,-0.29 0.32,-0.53 0.52,-0.77 0.19,-0.22 0.4,-0.43 0.65,-0.56 0.45,-0.24 0.78,-0.13 1.13,0.19 z"
                 id="path325"
                 style="fill:#ffffff" />
              <path
                 class="cls-1"
                 d="m 348.32,162.97 c 0.16,0.15 0.33,0.32 0.33,0.54 0,0.19 -0.13,0.35 -0.26,0.49 -0.31,0.32 -0.67,0.59 -1.05,0.81 -0.16,0.09 -0.33,0.17 -0.51,0.17 -0.32,0 -0.56,-0.28 -0.76,-0.54 -0.04,-0.05 -0.08,-0.1 -0.09,-0.16 0,-0.06 0.01,-0.12 0.03,-0.17 0.12,-0.29 0.32,-0.53 0.52,-0.77 0.19,-0.22 0.4,-0.43 0.65,-0.56 0.45,-0.24 0.78,-0.13 1.13,0.19 z"
                 id="path326"
                 style="fill:#ffffff" />
              <path
                 class="cls-1"
                 d="m 345.93,165.17 c 0.12,0.09 0.25,0.2 0.26,0.35 0.01,0.13 -0.07,0.25 -0.15,0.35 -0.2,0.24 -0.42,0.45 -0.68,0.62 -0.1,0.07 -0.21,0.14 -0.34,0.15 -0.22,0.01 -0.4,-0.16 -0.55,-0.32 -0.03,-0.03 -0.06,-0.07 -0.07,-0.11 0,-0.04 0,-0.08 0.01,-0.12 0.06,-0.2 0.19,-0.39 0.31,-0.56 0.12,-0.16 0.25,-0.32 0.42,-0.43 0.3,-0.19 0.53,-0.13 0.79,0.06 z"
                 id="path327"
                 style="fill:#ffffff" />
            </g>
            <g
               id="g330">
              <path
                 class="cls-1"
                 d="m 352.36,162.85 c 0.16,0.12 0.34,0.26 0.36,0.46 0.02,0.17 -0.08,0.33 -0.19,0.47 -0.25,0.32 -0.55,0.61 -0.88,0.85 -0.13,0.1 -0.28,0.19 -0.45,0.21 -0.3,0.02 -0.54,-0.2 -0.75,-0.41 -0.04,-0.04 -0.08,-0.09 -0.1,-0.14 -0.01,-0.05 0,-0.11 0.01,-0.16 0.08,-0.27 0.23,-0.52 0.4,-0.75 0.15,-0.22 0.32,-0.43 0.54,-0.58 0.39,-0.26 0.71,-0.2 1.06,0.06 z"
                 id="path328"
                 style="fill:#ffffff" />
              <path
                 class="cls-1"
                 d="m 350.37,164.96 c 0.16,0.12 0.34,0.26 0.36,0.46 0.02,0.17 -0.08,0.33 -0.19,0.47 -0.25,0.32 -0.55,0.61 -0.88,0.85 -0.13,0.1 -0.28,0.19 -0.45,0.21 -0.3,0.02 -0.54,-0.2 -0.75,-0.41 -0.04,-0.04 -0.08,-0.09 -0.1,-0.14 -0.01,-0.05 0,-0.11 0.01,-0.16 0.08,-0.27 0.23,-0.52 0.4,-0.75 0.15,-0.22 0.32,-0.43 0.54,-0.58 0.39,-0.26 0.71,-0.2 1.06,0.06 z"
                 id="path329"
                 style="fill:#ffffff" />
              <path
                 class="cls-1"
                 d="m 348.4,167.22 c 0.12,0.07 0.25,0.16 0.28,0.3 0.02,0.12 -0.04,0.23 -0.1,0.34 -0.15,0.24 -0.34,0.45 -0.55,0.64 -0.09,0.08 -0.18,0.15 -0.3,0.17 -0.2,0.03 -0.39,-0.11 -0.54,-0.24 -0.03,-0.03 -0.06,-0.05 -0.08,-0.09 -0.01,-0.03 0,-0.07 0,-0.11 0.04,-0.19 0.13,-0.37 0.23,-0.54 0.09,-0.16 0.19,-0.32 0.34,-0.43 0.25,-0.2 0.47,-0.18 0.73,-0.02 z"
                 id="path330"
                 style="fill:#ffffff" />
            </g>
            <g
               id="g333">
              <path
                 class="cls-1"
                 d="m 349.16,158.97 c 0.13,0.14 0.26,0.31 0.25,0.5 -0.02,0.16 -0.14,0.29 -0.27,0.4 -0.3,0.25 -0.63,0.46 -0.98,0.62 -0.14,0.06 -0.3,0.12 -0.45,0.1 -0.28,-0.03 -0.47,-0.29 -0.62,-0.53 -0.03,-0.05 -0.06,-0.09 -0.06,-0.15 0,-0.05 0.02,-0.1 0.04,-0.14 0.13,-0.24 0.32,-0.44 0.51,-0.62 0.18,-0.17 0.38,-0.34 0.61,-0.43 0.41,-0.17 0.69,-0.05 0.97,0.26 z"
                 id="path331"
                 style="fill:#ffffff" />
              <path
                 class="cls-1"
                 d="m 346.91,160.54 c 0.13,0.14 0.27,0.31 0.25,0.5 -0.02,0.16 -0.14,0.29 -0.27,0.4 -0.3,0.25 -0.63,0.46 -0.98,0.62 -0.14,0.07 -0.3,0.12 -0.45,0.1 -0.28,-0.03 -0.47,-0.29 -0.62,-0.53 -0.03,-0.05 -0.06,-0.09 -0.06,-0.15 0,-0.05 0.02,-0.1 0.04,-0.14 0.13,-0.24 0.32,-0.44 0.51,-0.62 0.18,-0.17 0.38,-0.34 0.61,-0.43 0.41,-0.17 0.69,-0.05 0.97,0.26 z"
                 id="path332"
                 style="fill:#ffffff" />
              <path
                 class="cls-1"
                 d="m 344.66,162.25 c 0.1,0.09 0.2,0.2 0.2,0.33 0,0.11 -0.08,0.21 -0.16,0.29 -0.19,0.19 -0.4,0.35 -0.64,0.48 -0.09,0.05 -0.2,0.1 -0.31,0.1 -0.19,0 -0.34,-0.17 -0.46,-0.33 -0.02,-0.03 -0.05,-0.06 -0.05,-0.1 0,-0.03 0,-0.07 0.02,-0.1 0.07,-0.17 0.19,-0.32 0.32,-0.46 0.12,-0.13 0.24,-0.26 0.39,-0.33 0.27,-0.14 0.47,-0.07 0.68,0.12 z"
                 id="path333"
                 style="fill:#ffffff" />
            </g>
            <g
               id="g336">
              <path
                 class="cls-1"
                 d="m 348.75,156.67 c 0.08,0.13 0.15,0.29 0.11,0.43 -0.04,0.13 -0.16,0.2 -0.28,0.27 -0.27,0.14 -0.57,0.25 -0.87,0.31 -0.12,0.03 -0.25,0.04 -0.37,0 -0.21,-0.07 -0.31,-0.31 -0.39,-0.52 -0.02,-0.04 -0.03,-0.08 -0.02,-0.13 0,-0.04 0.03,-0.07 0.06,-0.11 0.14,-0.17 0.32,-0.29 0.51,-0.4 0.17,-0.1 0.36,-0.2 0.55,-0.23 0.35,-0.06 0.55,0.08 0.71,0.37 z"
                 id="path334"
                 style="fill:#ffffff" />
              <path
                 class="cls-1"
                 d="m 346.72,157.5 c 0.08,0.13 0.15,0.29 0.11,0.43 -0.04,0.13 -0.16,0.2 -0.28,0.27 -0.27,0.14 -0.57,0.25 -0.87,0.31 -0.12,0.03 -0.25,0.04 -0.37,0 -0.21,-0.07 -0.31,-0.31 -0.39,-0.52 -0.02,-0.04 -0.03,-0.08 -0.02,-0.13 0,-0.04 0.03,-0.07 0.06,-0.11 0.14,-0.17 0.32,-0.29 0.51,-0.4 0.17,-0.1 0.36,-0.2 0.55,-0.23 0.35,-0.06 0.55,0.08 0.71,0.37 z"
                 id="path335"
                 style="fill:#ffffff" />
              <path
                 class="cls-1"
                 d="m 344.66,158.45 c 0.06,0.09 0.12,0.19 0.1,0.29 -0.02,0.09 -0.1,0.15 -0.18,0.2 -0.18,0.12 -0.38,0.21 -0.58,0.27 -0.08,0.03 -0.17,0.05 -0.26,0.02 -0.15,-0.04 -0.23,-0.19 -0.3,-0.33 -0.01,-0.03 -0.03,-0.06 -0.02,-0.09 0,-0.03 0.02,-0.05 0.03,-0.08 0.09,-0.12 0.21,-0.22 0.33,-0.3 0.11,-0.08 0.23,-0.16 0.37,-0.19 0.24,-0.06 0.38,0.03 0.51,0.21 z"
                 id="path336"
                 style="fill:#ffffff" />
            </g>
            <g
               id="g338">
              <path
                 class="cls-1"
                 d="m 355.8,164.7 c -0.15,0.35 -0.36,0.68 -0.62,0.96 -0.11,0.12 -0.23,0.23 -0.39,0.26 -0.3,0.07 -0.64,-0.12 -0.92,-0.3 -0.06,-0.03 -0.12,-0.07 -0.15,-0.12 -0.03,-0.05 -0.04,-0.1 -0.04,-0.16 -0.01,-0.28 0.06,-0.54 0.15,-0.8 0.08,-0.23 0.18,-0.47 0.36,-0.65 0.31,-0.31 0.67,-0.29 1.12,-0.09 0.21,0.09 0.44,0.21 0.53,0.4 0.08,0.17 0.03,0.34 -0.04,0.49 z"
                 id="path337"
                 style="fill:#ffffff" />
              <path
                 class="cls-1"
                 d="m 354.44,166.89 c -0.08,0.25 -0.2,0.49 -0.36,0.7 -0.06,0.09 -0.14,0.17 -0.25,0.21 -0.2,0.06 -0.44,-0.05 -0.64,-0.16 -0.04,-0.02 -0.08,-0.04 -0.11,-0.08 -0.02,-0.03 -0.03,-0.07 -0.04,-0.11 -0.03,-0.19 0,-0.38 0.05,-0.56 0.04,-0.17 0.09,-0.34 0.2,-0.47 0.19,-0.24 0.43,-0.24 0.75,-0.13 0.15,0.05 0.31,0.12 0.39,0.25 0.06,0.11 0.04,0.23 0,0.34 z"
                 id="path338"
                 style="fill:#ffffff" />
            </g>
          </g>
        </g>
        <g
           id="g359">
          <path
             class="cls-1"
             d="m 433.69,114.92 c 0,0 -5.12,4.57 -1.1,5.55 4.02,0.98 5.51,-3.88 5.51,-3.88 l 11.74,-4.8 c 0,0 1.95,5.17 5.42,2.51 3.46,-2.66 -1.19,-7.16 -1.19,-7.16 0,0 1.2,-6.36 -2.62,-6.08 -3.82,0.28 -3.38,5.46 -3.38,5.46 l -10.66,4.58 c 0,0 -2.06,-3.39 -4.64,-1.06 -2.58,2.33 0.93,4.88 0.93,4.88 z"
             id="path340"
             style="fill:#ffffff" />
          <path
             class="cls-1"
             d="m 459.98,101.3 c 0,0 2.67,4.96 5.67,2.12 3.01,-2.83 -1.54,-5.75 -1.54,-5.75 l 2.72,-11.44 c 0,0 5.4,1.18 5.06,-3.17 -0.34,-4.35 -6.66,-2.91 -6.66,-2.91 0,0 -4.68,-4.47 -6.52,-1.11 -1.84,3.36 2.74,5.81 2.74,5.81 l -2.65,11.26 c 0,0 -5.23,0.89 -4.68,4.32 0.55,3.43 5.86,0.87 5.86,0.87 z"
             id="path341"
             style="fill:#ffffff" />
          <path
             class="cls-1"
             d="m 460.39,108.88 c 1.03,-0.65 0.78,-2.51 0.05,-3.65 -0.73,-1.14 -3.04,-2.1 -3.66,-1.31 -0.78,1.05 -0.64,2.46 0.22,3.63 0.86,1.17 2.71,1.84 3.39,1.33 z"
             id="path342"
             style="fill:#ffffff" />
          <g
             id="g358">
            <path
               class="cls-1"
               d="m 470.36,71.49 c 0.39,0.59 0.88,1.11 1.32,1.65 0.45,0.56 0.88,1.2 0.48,1.93 -0.17,0.32 -0.44,0.57 -0.72,0.8 -0.7,0.6 -1.46,1.14 -2.31,1.52 -1.44,0.65 -3.14,0.8 -4.45,-0.23 -1.53,-1.21 -1.26,-2.98 -0.5,-4.55 0.51,-1.05 1.1,-2.09 1.86,-2.99 0.61,-0.72 1.42,-0.99 2.28,-0.5 0.89,0.51 1.43,1.39 1.96,2.24 0.03,0.04 0.05,0.08 0.08,0.12 z"
               id="path343"
               style="fill:#ffffff" />
            <g
               id="g346">
              <path
                 class="cls-1"
                 d="m 471.23,70.91 c -0.16,-0.15 -0.33,-0.32 -0.33,-0.54 0,-0.19 0.13,-0.35 0.26,-0.49 0.31,-0.32 0.67,-0.59 1.05,-0.81 0.16,-0.09 0.33,-0.17 0.51,-0.17 0.32,0 0.56,0.28 0.76,0.54 0.04,0.05 0.08,0.1 0.09,0.16 0,0.06 -0.01,0.12 -0.03,0.17 -0.12,0.29 -0.32,0.53 -0.52,0.77 -0.19,0.22 -0.4,0.43 -0.65,0.56 -0.45,0.24 -0.78,0.13 -1.13,-0.19 z"
                 id="path344"
                 style="fill:#ffffff" />
              <path
                 class="cls-1"
                 d="m 473.63,68.86 c -0.16,-0.15 -0.33,-0.32 -0.33,-0.54 0,-0.19 0.13,-0.35 0.26,-0.49 0.31,-0.32 0.67,-0.59 1.05,-0.81 0.16,-0.09 0.33,-0.17 0.51,-0.17 0.32,0 0.56,0.28 0.76,0.54 0.04,0.05 0.08,0.1 0.09,0.16 0,0.06 -0.01,0.12 -0.03,0.17 -0.12,0.29 -0.32,0.53 -0.52,0.77 -0.19,0.22 -0.4,0.43 -0.65,0.56 -0.45,0.24 -0.78,0.13 -1.13,-0.19 z"
                 id="path345"
                 style="fill:#ffffff" />
              <path
                 class="cls-1"
                 d="m 476.03,66.67 c -0.12,-0.09 -0.25,-0.2 -0.26,-0.35 -0.01,-0.13 0.07,-0.25 0.15,-0.35 0.2,-0.24 0.42,-0.45 0.68,-0.62 0.1,-0.07 0.21,-0.14 0.34,-0.15 0.22,-0.01 0.4,0.16 0.55,0.32 0.03,0.03 0.06,0.07 0.07,0.11 0,0.04 0,0.08 -0.01,0.12 -0.06,0.2 -0.19,0.39 -0.31,0.56 -0.12,0.16 -0.25,0.32 -0.42,0.43 -0.3,0.19 -0.53,0.13 -0.79,-0.06 z"
                 id="path346"
                 style="fill:#ffffff" />
            </g>
            <g
               id="g349">
              <path
                 class="cls-1"
                 d="m 469.6,68.98 c -0.16,-0.12 -0.34,-0.26 -0.36,-0.46 -0.02,-0.17 0.08,-0.33 0.19,-0.47 0.25,-0.32 0.55,-0.61 0.88,-0.85 0.13,-0.1 0.28,-0.19 0.45,-0.21 0.3,-0.02 0.54,0.2 0.75,0.41 0.04,0.04 0.08,0.09 0.1,0.14 0.01,0.05 0,0.11 -0.01,0.16 -0.08,0.27 -0.23,0.52 -0.4,0.75 -0.15,0.22 -0.32,0.43 -0.54,0.58 -0.39,0.26 -0.71,0.2 -1.06,-0.06 z"
                 id="path347"
                 style="fill:#ffffff" />
              <path
                 class="cls-1"
                 d="m 471.59,66.87 c -0.16,-0.12 -0.34,-0.26 -0.36,-0.46 -0.02,-0.17 0.08,-0.33 0.19,-0.47 0.25,-0.32 0.55,-0.61 0.88,-0.85 0.13,-0.1 0.28,-0.19 0.45,-0.21 0.3,-0.02 0.54,0.2 0.75,0.41 0.04,0.04 0.08,0.09 0.1,0.14 0.01,0.05 0,0.11 -0.01,0.16 -0.08,0.27 -0.23,0.52 -0.4,0.75 -0.15,0.22 -0.32,0.43 -0.54,0.58 -0.39,0.26 -0.71,0.2 -1.06,-0.06 z"
                 id="path348"
                 style="fill:#ffffff" />
              <path
                 class="cls-1"
                 d="m 473.55,64.61 c -0.12,-0.07 -0.25,-0.16 -0.28,-0.3 -0.02,-0.12 0.04,-0.23 0.1,-0.34 0.15,-0.24 0.34,-0.45 0.55,-0.64 0.09,-0.08 0.18,-0.15 0.3,-0.17 0.2,-0.03 0.39,0.11 0.54,0.24 0.03,0.03 0.06,0.05 0.08,0.09 0.01,0.03 0,0.07 0,0.11 -0.04,0.19 -0.13,0.37 -0.23,0.54 -0.09,0.16 -0.19,0.32 -0.34,0.43 -0.25,0.2 -0.47,0.18 -0.73,0.02 z"
                 id="path349"
                 style="fill:#ffffff" />
            </g>
            <g
               id="g352">
              <path
                 class="cls-1"
                 d="m 472.79,72.86 c -0.13,-0.14 -0.26,-0.31 -0.25,-0.5 0.02,-0.16 0.14,-0.29 0.27,-0.4 0.3,-0.25 0.63,-0.46 0.98,-0.62 0.14,-0.06 0.3,-0.12 0.45,-0.1 0.28,0.03 0.47,0.29 0.62,0.53 0.03,0.05 0.06,0.09 0.06,0.15 0,0.05 -0.02,0.1 -0.04,0.14 -0.13,0.24 -0.32,0.44 -0.51,0.62 -0.18,0.17 -0.38,0.34 -0.61,0.43 -0.41,0.17 -0.69,0.05 -0.97,-0.26 z"
                 id="path350"
                 style="fill:#ffffff" />
              <path
                 class="cls-1"
                 d="m 475.04,71.29 c -0.13,-0.14 -0.26,-0.31 -0.25,-0.5 0.02,-0.16 0.14,-0.29 0.27,-0.4 0.3,-0.25 0.63,-0.46 0.98,-0.62 0.14,-0.07 0.3,-0.12 0.45,-0.1 0.28,0.03 0.47,0.29 0.62,0.53 0.03,0.05 0.06,0.09 0.06,0.15 0,0.05 -0.02,0.1 -0.04,0.14 -0.13,0.24 -0.32,0.44 -0.51,0.62 -0.18,0.17 -0.38,0.34 -0.61,0.43 -0.41,0.17 -0.69,0.05 -0.97,-0.26 z"
                 id="path351"
                 style="fill:#ffffff" />
              <path
                 class="cls-1"
                 d="m 477.3,69.58 c -0.1,-0.09 -0.2,-0.2 -0.2,-0.33 0,-0.11 0.08,-0.21 0.16,-0.29 0.19,-0.19 0.4,-0.35 0.64,-0.48 0.09,-0.05 0.2,-0.1 0.31,-0.1 0.19,0 0.34,0.17 0.46,0.33 0.02,0.03 0.05,0.06 0.05,0.1 0,0.03 0,0.07 -0.02,0.1 -0.07,0.17 -0.19,0.32 -0.32,0.46 -0.12,0.13 -0.24,0.26 -0.39,0.33 -0.27,0.14 -0.47,0.07 -0.68,-0.12 z"
                 id="path352"
                 style="fill:#ffffff" />
            </g>
            <g
               id="g355">
              <path
                 class="cls-1"
                 d="m 473.2,75.16 c -0.08,-0.13 -0.15,-0.29 -0.11,-0.43 0.04,-0.13 0.16,-0.2 0.28,-0.27 0.27,-0.14 0.57,-0.25 0.87,-0.31 0.12,-0.03 0.25,-0.04 0.37,0 0.21,0.07 0.31,0.31 0.39,0.52 0.02,0.04 0.03,0.08 0.02,0.13 0,0.04 -0.03,0.07 -0.06,0.11 -0.14,0.17 -0.32,0.29 -0.51,0.4 -0.17,0.1 -0.36,0.2 -0.55,0.23 -0.35,0.06 -0.55,-0.08 -0.71,-0.37 z"
                 id="path353"
                 style="fill:#ffffff" />
              <path
                 class="cls-1"
                 d="m 475.23,74.33 c -0.08,-0.13 -0.15,-0.29 -0.11,-0.43 0.04,-0.13 0.16,-0.2 0.28,-0.27 0.27,-0.14 0.57,-0.25 0.87,-0.31 0.12,-0.03 0.25,-0.04 0.37,0 0.21,0.07 0.31,0.31 0.39,0.52 0.02,0.04 0.03,0.08 0.02,0.13 0,0.04 -0.03,0.07 -0.06,0.11 -0.14,0.17 -0.32,0.29 -0.51,0.4 -0.17,0.1 -0.36,0.2 -0.55,0.23 -0.35,0.06 -0.55,-0.08 -0.71,-0.37 z"
                 id="path354"
                 style="fill:#ffffff" />
              <path
                 class="cls-1"
                 d="m 477.29,73.38 c -0.06,-0.09 -0.12,-0.19 -0.1,-0.29 0.02,-0.09 0.1,-0.15 0.18,-0.2 0.18,-0.12 0.38,-0.21 0.58,-0.27 0.08,-0.03 0.17,-0.05 0.26,-0.02 0.15,0.04 0.23,0.19 0.3,0.33 0.01,0.03 0.03,0.06 0.02,0.09 0,0.03 -0.02,0.05 -0.03,0.08 -0.09,0.12 -0.21,0.22 -0.33,0.3 -0.11,0.08 -0.23,0.16 -0.37,0.19 -0.24,0.06 -0.38,-0.03 -0.51,-0.21 z"
                 id="path355"
                 style="fill:#ffffff" />
            </g>
            <g
               id="g357">
              <path
                 class="cls-1"
                 d="m 466.15,67.13 c 0.15,-0.35 0.36,-0.68 0.62,-0.96 0.11,-0.12 0.23,-0.23 0.39,-0.26 0.3,-0.07 0.64,0.12 0.92,0.3 0.06,0.03 0.12,0.07 0.15,0.12 0.03,0.05 0.04,0.1 0.04,0.16 0.01,0.28 -0.06,0.54 -0.15,0.8 -0.08,0.23 -0.18,0.47 -0.36,0.65 -0.31,0.31 -0.67,0.29 -1.12,0.09 -0.21,-0.09 -0.44,-0.21 -0.53,-0.4 -0.08,-0.17 -0.03,-0.34 0.04,-0.49 z"
                 id="path356"
                 style="fill:#ffffff" />
              <path
                 class="cls-1"
                 d="m 467.52,64.94 c 0.08,-0.25 0.2,-0.49 0.36,-0.7 0.06,-0.09 0.14,-0.17 0.25,-0.21 0.2,-0.06 0.44,0.05 0.64,0.16 0.04,0.02 0.08,0.04 0.11,0.08 0.02,0.03 0.03,0.07 0.04,0.11 0.03,0.19 0,0.38 -0.05,0.56 -0.04,0.17 -0.09,0.34 -0.2,0.47 -0.19,0.24 -0.43,0.24 -0.75,0.13 -0.15,-0.05 -0.31,-0.12 -0.39,-0.25 -0.06,-0.11 -0.04,-0.23 0,-0.34 z"
                 id="path357"
                 style="fill:#ffffff" />
            </g>
          </g>
        </g>
        <path
           class="cls-4"
           d="m 395.28,142.9 c -20.84,-2.93 -26.88,38.17 -8.81,42.06 2.97,2.91 7.88,5.13 12.54,2.04 3.23,2.81 14.52,3.58 18.78,0.25 4.5,2.36 10.38,0.95 14.02,-3.4 18.65,-3.89 12.65,-45.03 -7.78,-40.95 -5.63,-4.29 -27.12,-3.28 -28.74,0 z"
           id="path359"
           style="fill:#fc8e44" />
        <path
           class="cls-2"
           d="m 398.77,143.49 -0.29,-0.69 c 2.69,-1.14 6.69,-1.79 10.96,-1.79 3.74,0 7.26,0.49 9.92,1.39 l -0.24,0.71 c -2.58,-0.87 -6.01,-1.35 -9.68,-1.35 -4.18,0 -8.07,0.63 -10.67,1.73 z"
           id="path360"
           style="fill:#110d39" />
        <g
           id="g369">
          <ellipse
             class="cls-2"
             cx="409.45001"
             cy="146.07001"
             rx="11.61"
             ry="3.05"
             id="ellipse360"
             style="fill:#110d39" />
          <path
             class="cls-2"
             d="m 386.22,185.24 c -5.46,-5.03 -8.43,-16.9 -3.17,-29.01 2.91,-6.71 7.58,-10.49 12.52,-10.12 l -0.06,0.75 c -4.58,-0.34 -8.99,3.27 -11.77,9.67 -3.87,8.92 -3.81,21.89 3,28.16 l -0.51,0.55 z"
             id="path361"
             style="fill:#110d39" />
          <path
             class="cls-2"
             d="m 409.45,151.14 c -7.98,0 -14.23,-2.22 -14.23,-5.06 0,-1.24 1.13,-2.37 3.26,-3.27 l 0.29,0.69 c -1.81,0.77 -2.81,1.68 -2.81,2.58 0,2.08 5.42,4.31 13.48,4.31 8.06,0 13.48,-2.23 13.48,-4.31 0,-1.06 -1.39,-2.14 -3.8,-2.96 l 0.24,-0.71 c 2.78,0.94 4.31,2.24 4.31,3.67 0,2.84 -6.25,5.06 -14.23,5.06 z"
             id="path362"
             style="fill:#110d39" />
          <path
             class="cls-2"
             d="m 432.08,184.1 -0.55,-0.51 c 7.16,-7.69 6.67,-23.16 1.44,-31.84 -2.64,-4.38 -6.04,-6.27 -9.57,-5.32 l -0.2,-0.72 c 3.89,-1.05 7.58,0.96 10.41,5.65 5.37,8.91 5.85,24.81 -1.53,32.74 z"
             id="path363"
             style="fill:#110d39" />
          <path
             class="cls-2"
             d="m 398.75,187.27 c -6.35,-5.91 -6.43,-18.94 -3.28,-28.2 1.89,-5.57 4.67,-8.93 7.62,-9.21 l 0.07,0.75 c -2.6,0.25 -5.21,3.5 -6.98,8.7 -3.11,9.16 -2.81,21.92 3.08,27.4 l -0.51,0.55 z"
             id="path364"
             style="fill:#110d39" />
          <path
             class="cls-2"
             d="m 417.95,187.58 -0.33,-0.67 c 3.75,-1.85 6.07,-6.89 6.38,-13.84 0.43,-9.69 -3.06,-19.62 -7.94,-22.59 l 0.39,-0.64 c 5.69,3.46 8.69,14.55 8.3,23.26 -0.32,7.23 -2.8,12.51 -6.8,14.48 z"
             id="path365"
             style="fill:#110d39" />
          <path
             class="cls-2"
             d="m 385.36,165.71 c 1.65,21.56 44.94,24.63 48.65,0 -3.79,2.19 -7.54,3.86 -11.25,5.03 -0.46,4.2 -2.11,6.38 -2.11,6.38 -0.69,-2.01 -1.65,-3.76 -3.06,-5.08 -5.53,1.06 -10.97,1 -16.34,-0.08 -1.35,1.05 -1.86,2.6 -1.92,4.42 0,0 -2.47,-1.32 -3.22,-5.77 -3.61,-1.18 -7.19,-2.82 -10.74,-4.9 z"
             id="path366"
             style="fill:#110d39" />
          <path
             class="cls-2"
             d="m 394.13,156.67 c 1.05,-0.31 7.74,6.76 6.45,7.91 -1.29,1.14 -8.97,-0.49 -9.54,-1.61 -0.56,-1.11 2.03,-5.99 3.08,-6.3 z"
             id="path367"
             style="fill:#110d39" />
          <path
             class="cls-2"
             d="m 423.56,156.67 c -1.05,-0.31 -7.74,6.76 -6.45,7.91 1.29,1.14 8.97,-0.49 9.54,-1.61 0.56,-1.11 -2.03,-5.99 -3.08,-6.3 z"
             id="path368"
             style="fill:#110d39" />
          <path
             class="cls-2"
             d="m 409.3,161.82 c -1.52,0 -3.81,6.11 -2.99,6.57 0.82,0.45 2.98,-1.26 2.98,-1.26 0,0 2.19,1.87 2.99,1.49 0.8,-0.38 -1.46,-6.8 -2.99,-6.8 z"
             id="path369"
             style="fill:#110d39" />
        </g>
        <path
           class="cls-1"
           d="m 386.28,129.54 c 2.87,-4.95 15.29,-3.7 19.96,3.94 l -0.2,4.22 c -15.92,-8.61 -20.95,-2.86 -18.37,4.04 0.54,-6.8 11.43,-3.18 18.1,1.73 0,0 -0.5,4.52 -0.26,5.48 0,0 3.29,0.38 7.25,0.05 0.19,-1.31 0.2,-5.19 0.2,-5.19 7.1,-4.27 18.28,-6.86 18.18,-0.04 3.22,-6.63 -1.26,-12.82 -17.91,-5.73 l 0.2,-4.22 c 5.36,-7.17 17.85,-7.26 20.24,-2.06 2.35,-8.13 -8.09,-10.39 -19.86,-6.08 l 0.17,-3.55 c 4.38,-4.12 11.37,-6.72 15.42,-4.4 -0.84,-5.15 -11.01,-4.93 -15.53,-0.81 0,0 -0.27,-2.33 -0.7,-2.84 -0.43,-0.51 -4.25,-0.83 -4.82,-0.22 -0.57,0.6 -0.96,2.76 -0.96,2.76 -4.12,-4.52 -14.23,-5.68 -15.54,-0.64 4.25,-1.93 10.96,1.31 14.94,5.82 l -0.17,3.55 c -11.33,-5.39 -21.92,-4.1 -20.34,4.21 z"
           id="path370"
           style="fill:#ffffff" />
      </g>
      <rect
         class="cls-3"
         x="354.44"
         y="233.92"
         width="113.99"
         height="0.75"
         id="rect370"
         style="fill:#474675" />
    </g>
  </g>
  <metadata
     id="metadata1">
    <rdf:RDF>
      <cc:Work
         rdf:about="">
        <dc:creator>
          <cc:Agent>
            <dc:title>1812</dc:title>
          </cc:Agent>
        </dc:creator>
      </cc:Work>
    </rdf:RDF>
  </metadata>
</svg>
