<?xml version="1.0" encoding="UTF-8" standalone="no"?>
<!-- Created with Inkscape (http://www.inkscape.org/) -->

<svg
   width="150"
   height="200"
   viewBox="0 0 150 200"
   version="1.1"
   id="svg1"
   inkscape:version="1.3.2 (091e20e, 2023-11-25, custom)"
   sodipodi:docname="2.svg"
   xmlns:inkscape="http://www.inkscape.org/namespaces/inkscape"
   xmlns:sodipodi="http://sodipodi.sourceforge.net/DTD/sodipodi-0.dtd"
   xmlns="http://www.w3.org/2000/svg"
   xmlns:svg="http://www.w3.org/2000/svg"
   xmlns:rdf="http://www.w3.org/1999/02/22-rdf-syntax-ns#"
   xmlns:cc="http://creativecommons.org/ns#"
   xmlns:dc="http://purl.org/dc/elements/1.1/">
  <sodipodi:namedview
     id="namedview1"
     pagecolor="#000000"
     bordercolor="#eeeeee"
     borderopacity="1"
     inkscape:showpageshadow="false"
     inkscape:pageopacity="0"
     inkscape:pagecheckerboard="false"
     inkscape:deskcolor="#121212"
     inkscape:document-units="px"
     showgrid="false"
     inkscape:zoom="2.225"
     inkscape:cx="79.101124"
     inkscape:cy="93.707865"
     inkscape:window-width="1360"
     inkscape:window-height="697"
     inkscape:window-x="-8"
     inkscape:window-y="-8"
     inkscape:window-maximized="1"
     inkscape:current-layer="layer1">
    <inkscape:grid
       id="grid1"
       units="px"
       originx="480"
       originy="270"
       spacingx="1"
       spacingy="1"
       empcolor="#0099e5"
       empopacity="0.69803922"
       color="#4d4d4d"
       opacity="0.69803922"
       empspacing="5"
       dotted="false"
       gridanglex="30"
       gridanglez="30"
       visible="false" />
  </sodipodi:namedview>
  <defs
     id="defs1" />
  <g
     inkscape:label="Capa 1"
     inkscape:groupmode="layer"
     id="layer1">
    <g
       id="g309"
       transform="translate(-23.351665,-266.94277)">
      <g
         id="g308">
        <path
           class="cls-1"
           d="m 106.66,296.25 c -2.44,-11.87 -16.69,-13.75 -27.82,-12.27 -11.13,1.47 -24.05,6.57 -24.07,19.98 -0.02,13.41 18.96,15.51 18.96,15.51 0,0 0.31,6.33 3.2,6.37 2.89,0.04 2.49,-7.38 2.49,-7.38 0,0 1.59,7.25 5.61,6.54 4.02,-0.71 3.24,-8.18 3.24,-8.18 0,0 1.4,7.35 5.34,6.11 3.93,-1.25 0.51,-7.34 0.51,-7.34 0,0 14.97,-7.46 12.54,-19.33 z m -29.85,12.46 c -3.82,3.65 -16.07,-2.98 -9.52,-8.95 6.55,-5.96 13.34,5.3 9.52,8.95 z m 9.58,4.54 c -1.25,0.72 -3.72,-1.59 -3.72,-1.59 0,0 -1.54,3.1 -2.83,2.45 -1.29,-0.65 0.12,-6.52 2.04,-6.87 1.92,-0.34 5.75,5.28 4.51,6 z m 1.49,-5.93 c -4.08,-1.78 -1.96,-12.66 4.94,-9.84 6.9,2.82 -0.86,11.61 -4.94,9.84 z"
           id="path251"
           style="fill:#ffffff" />
        <path
           class="cls-1"
           d="m 59,345.21 c 2.87,-4.95 15.29,-3.7 19.96,3.94 l -0.2,4.22 c -15.92,-8.61 -20.95,-2.86 -18.37,4.04 0.54,-6.8 11.43,-3.18 18.1,1.73 0,0 -0.5,4.52 -0.26,5.48 0.25,0.96 6.93,1.19 7.19,0.34 0.25,-0.85 0.26,-5.48 0.26,-5.48 7.1,-4.27 18.28,-6.86 18.18,-0.04 3.22,-6.63 -1.26,-12.82 -17.91,-5.73 l 0.2,-4.22 c 5.36,-7.17 17.85,-7.26 20.24,-2.06 2.35,-8.13 -8.09,-10.39 -19.86,-6.08 l 0.17,-3.55 c 4.38,-4.12 11.37,-6.72 15.42,-4.4 -0.84,-5.15 -11.01,-4.93 -15.53,-0.81 0,0 -0.27,-2.33 -0.7,-2.84 -0.43,-0.51 -4.25,-0.83 -4.82,-0.22 -0.57,0.6 -0.96,2.76 -0.96,2.76 -4.12,-4.52 -14.23,-5.68 -15.54,-0.64 4.25,-1.93 10.96,1.31 14.94,5.82 l -0.17,3.55 C 68.01,335.63 57.42,336.92 59,345.23 Z"
           id="path252"
           style="fill:#ffffff" />
        <path
           class="cls-1"
           d="m 97.21,367.66 c -3.8,-0.96 -9.9,1 -16.27,1.04 -6.38,0.04 -12.47,-2 -16.27,-1.04 -3.8,0.96 -6,5.1 -6,8.01 0,2.91 8.17,11.82 11.14,12.68 2.96,0.85 6.51,-2.71 11.14,-2.82 4.63,-0.11 8.17,3.67 11.14,2.82 2.96,-0.85 11.14,-9.77 11.14,-12.68 0,-2.91 -2.21,-7.04 -6,-8.01 z M 71.4,380.6 c -1.39,0.42 -6.92,-2.2 -7.48,-3.59 -0.56,-1.39 0.33,-4.7 2.39,-5.17 2.06,-0.47 7.48,5.11 7.39,5.89 -0.08,0.78 -0.92,2.45 -2.31,2.86 z m 26.55,-3.58 c -0.56,1.39 -6.09,4 -7.48,3.59 -1.39,-0.42 -2.22,-2.08 -2.31,-2.86 -0.08,-0.78 5.34,-6.37 7.39,-5.89 2.06,0.47 2.95,3.78 2.39,5.17 z"
           id="path253"
           style="fill:#ffffff" />
        <g
           id="g258">
          <path
             class="cls-1"
             d="m 67.78,390.94 c 0,0 -2.67,-6.32 -4.89,-2.84 -2.22,3.48 1.89,6.46 1.89,6.46 l 0.75,12.66 c 0,0 -5.53,0.18 -4.13,4.31 1.4,4.14 7.16,1.19 7.16,1.19 0,0 5.63,3.19 6.6,-0.52 0.96,-3.71 -4.08,-4.97 -4.08,-4.97 l -0.89,-11.56 c 0,0 3.87,-0.85 2.5,-4.05 -1.37,-3.19 -4.92,-0.69 -4.92,-0.69 z"
             id="path254"
             style="fill:#ffffff" />
          <path
             class="cls-1"
             d="m 67.98,420.73 c 0,0 -3.8,-4.15 -6.02,-0.67 -2.22,3.48 2.91,5.2 2.91,5.2 l 0.17,11.76 c 0,0 -5.53,0.18 -4.13,4.31 1.4,4.14 7.16,1.19 7.16,1.19 0,0 5.63,3.19 6.6,-0.52 0.96,-3.71 -4.08,-4.97 -4.08,-4.97 L 70.4,425.47 c 0,0 4.85,-2.14 3.48,-5.34 -1.37,-3.19 -5.9,0.59 -5.9,0.59 z"
             id="path255"
             style="fill:#ffffff" />
          <g
             id="g257">
            <path
               class="cls-1"
               d="m 67.74,444.91 c -2.78,-0.2 -3.4,2.73 -3.26,3.69 0.34,1.87 8.41,1.01 9.29,-0.34 0.88,-1.35 -3.26,-3.15 -6.04,-3.35 z"
               id="path256"
               style="fill:#ffffff" />
            <path
               class="cls-1"
               d="m 62.31,444.97 c -1.74,-0.57 -19.27,2.23 -18.95,4.07 0.33,1.84 17.23,0.43 18.19,0 0.96,-0.43 2.5,-3.51 0.76,-4.07 z"
               id="path257"
               style="fill:#ffffff" />
          </g>
          <path
             class="cls-1"
             d="m 65.34,416.27 c -0.09,1.21 1.56,2.11 2.91,2.2 1.35,0.09 3.49,-1.21 3.23,-2.18 -0.38,-1.25 -1.61,-1.97 -3.06,-1.97 -1.45,0 -3.08,1.09 -3.08,1.95 z"
             id="path258"
             style="fill:#ffffff" />
        </g>
        <g
           id="g263">
          <path
             class="cls-1"
             d="m 104.92,420.38 c 0,0 -3.8,-4.15 -6.02,-0.67 -2.22,3.48 2.91,5.2 2.91,5.2 l 0.17,11.76 c 0,0 -5.53,0.18 -4.13,4.31 1.4,4.14 7.16,1.19 7.16,1.19 0,0 5.63,3.19 6.6,-0.52 0.96,-3.71 -4.08,-4.97 -4.08,-4.97 l -0.19,-11.56 c 0,0 4.85,-2.14 3.48,-5.34 -1.37,-3.19 -5.9,0.59 -5.9,0.59 z"
             id="path259"
             style="fill:#ffffff" />
          <path
             class="cls-1"
             d="m 95.41,390.49 c 0,0 1.24,-5.82 4.57,-3.38 3.33,2.45 -0.46,5.68 -0.46,5.68 l 3.87,12.08 c 0,0 5.22,-1.83 5.4,2.53 0.19,4.36 -6.25,3.69 -6.25,3.69 0,0 -4.1,5.01 -6.34,1.9 -2.24,-3.11 2.01,-6.1 2.01,-6.1 l -3.35,-11.1 c 0,0 -3.92,0.6 -3.79,-2.87 0.13,-3.47 4.34,-2.42 4.34,-2.42 z"
             id="path260"
             style="fill:#ffffff" />
          <g
             id="g262">
            <path
               class="cls-1"
               d="m 103.21,444.85 c 2.78,-0.2 3.4,2.73 3.26,3.69 -0.34,1.87 -8.41,1.01 -9.29,-0.34 -0.89,-1.35 3.26,-3.15 6.04,-3.35 z"
               id="path261"
               style="fill:#ffffff" />
            <path
               class="cls-1"
               d="m 108.64,444.91 c 1.74,-0.57 19.28,2.23 18.95,4.07 -0.33,1.84 -17.23,0.43 -18.19,0 -0.96,-0.43 -2.5,-3.51 -0.76,-4.07 z"
               id="path262"
               style="fill:#ffffff" />
          </g>
          <path
             class="cls-1"
             d="m 101.6,415.59 c -0.09,1.21 1.56,2.11 2.91,2.2 1.35,0.09 3.49,-1.21 3.23,-2.18 -0.38,-1.25 -1.61,-1.97 -3.06,-1.97 -1.45,0 -3.08,1.09 -3.08,1.95 z"
             id="path263"
             style="fill:#ffffff" />
        </g>
        <g
           id="g283">
          <path
             class="cls-1"
             d="m 60,330.91 c 0,0 2.87,-6.23 -1.2,-5.53 -4.07,0.71 -3.5,5.75 -3.5,5.75 l -8.85,9.09 c 0,0 -3.86,-3.96 -5.97,-0.14 -2.11,3.82 3.95,6.09 3.95,6.09 0,0 1.44,6.31 4.83,4.52 3.39,-1.79 0.92,-6.36 0.92,-6.36 l 7.94,-8.45 c 0,0 3.24,2.29 4.67,-0.88 1.43,-3.17 -2.8,-4.1 -2.8,-4.1 z"
             id="path264"
             style="fill:#ffffff" />
          <path
             class="cls-1"
             d="m 41.33,353.9 c 0,0 -4.42,-3.48 -6.05,0.32 -1.63,3.8 3.71,4.66 3.71,4.66 l 2.08,11.58 c 0,0 -5.42,1.07 -3.37,4.93 2.05,3.86 7.26,0 7.26,0 0,0 6.08,2.23 6.43,-1.58 0.35,-3.81 -4.83,-4.24 -4.83,-4.24 l -2.07,-11.38 c 0,0 4.44,-2.9 2.57,-5.83 -1.87,-2.93 -5.72,1.55 -5.72,1.55 z"
             id="path265"
             style="fill:#ffffff" />
          <path
             class="cls-1"
             d="m 37.93,347.11 c -0.68,1 0.29,2.61 1.41,3.37 1.12,0.75 3.63,0.71 3.88,-0.26 0.3,-1.28 -0.4,-2.51 -1.65,-3.24 -1.25,-0.73 -3.21,-0.6 -3.64,0.14 z"
             id="path266"
             style="fill:#ffffff" />
          <g
             id="g282">
            <path
               class="cls-1"
               d="m 43.72,385.38 c -0.59,-0.38 -1.25,-0.66 -1.87,-0.99 -0.64,-0.33 -1.28,-0.75 -1.21,-1.57 0.03,-0.36 0.18,-0.7 0.34,-1.02 0.4,-0.83 0.89,-1.63 1.51,-2.32 1.06,-1.17 2.56,-1.99 4.17,-1.57 1.88,0.5 2.35,2.23 2.28,3.97 -0.04,1.16 -0.18,2.36 -0.51,3.48 -0.27,0.9 -0.9,1.47 -1.89,1.36 -1.02,-0.11 -1.87,-0.71 -2.69,-1.26 -0.04,-0.03 -0.08,-0.05 -0.12,-0.08 z"
               id="path267"
               style="fill:#ffffff" />
            <g
               id="g270">
              <path
                 class="cls-1"
                 d="m 43.16,386.25 c 0.21,0.07 0.43,0.16 0.52,0.36 0.07,0.17 0.02,0.37 -0.05,0.55 -0.16,0.42 -0.37,0.81 -0.64,1.17 -0.11,0.14 -0.23,0.29 -0.4,0.36 -0.3,0.12 -0.63,-0.04 -0.91,-0.19 -0.06,-0.03 -0.11,-0.06 -0.15,-0.12 -0.03,-0.05 -0.04,-0.11 -0.04,-0.17 0,-0.31 0.08,-0.62 0.17,-0.91 0.09,-0.28 0.19,-0.55 0.37,-0.78 0.32,-0.4 0.67,-0.43 1.11,-0.27 z"
                 id="path268"
                 style="fill:#ffffff" />
              <path
                 class="cls-1"
                 d="m 41.77,389.09 c 0.21,0.07 0.44,0.16 0.52,0.36 0.07,0.17 0.02,0.37 -0.05,0.55 -0.16,0.42 -0.37,0.81 -0.64,1.17 -0.11,0.14 -0.23,0.29 -0.4,0.36 -0.3,0.12 -0.63,-0.04 -0.91,-0.19 -0.06,-0.03 -0.11,-0.06 -0.15,-0.12 -0.03,-0.05 -0.04,-0.11 -0.04,-0.17 0,-0.31 0.08,-0.62 0.17,-0.91 0.09,-0.28 0.19,-0.55 0.37,-0.78 0.32,-0.4 0.67,-0.43 1.11,-0.27 z"
                 id="path269"
                 style="fill:#ffffff" />
              <path
                 class="cls-1"
                 d="m 40.45,392.06 c 0.15,0.04 0.31,0.09 0.38,0.22 0.06,0.11 0.04,0.26 0,0.38 -0.08,0.3 -0.21,0.58 -0.37,0.84 -0.07,0.11 -0.14,0.21 -0.25,0.27 -0.2,0.1 -0.43,0.01 -0.64,-0.08 -0.04,-0.02 -0.08,-0.04 -0.11,-0.07 -0.02,-0.03 -0.03,-0.07 -0.04,-0.11 -0.02,-0.21 0.02,-0.43 0.06,-0.64 0.05,-0.19 0.1,-0.39 0.21,-0.56 0.2,-0.29 0.43,-0.33 0.75,-0.26 z"
                 id="path270"
                 style="fill:#ffffff" />
            </g>
            <g
               id="g273">
              <path
                 class="cls-1"
                 d="m 45.42,387.37 c 0.2,0.04 0.42,0.1 0.52,0.28 0.09,0.15 0.06,0.34 0.01,0.51 -0.1,0.4 -0.26,0.78 -0.47,1.13 -0.08,0.14 -0.18,0.29 -0.33,0.37 -0.26,0.14 -0.58,0.03 -0.86,-0.08 -0.05,-0.02 -0.11,-0.04 -0.15,-0.09 -0.03,-0.04 -0.04,-0.1 -0.05,-0.15 -0.04,-0.28 0,-0.57 0.06,-0.85 0.05,-0.26 0.12,-0.52 0.26,-0.75 0.25,-0.4 0.57,-0.46 0.99,-0.37 z"
                 id="path271"
                 style="fill:#ffffff" />
              <path
                 class="cls-1"
                 d="m 44.44,390.1 c 0.2,0.04 0.42,0.1 0.52,0.28 0.09,0.15 0.06,0.34 0.01,0.51 -0.1,0.4 -0.26,0.78 -0.47,1.13 -0.08,0.14 -0.18,0.29 -0.33,0.37 -0.26,0.14 -0.58,0.03 -0.86,-0.08 -0.05,-0.02 -0.11,-0.04 -0.15,-0.09 -0.03,-0.04 -0.04,-0.1 -0.05,-0.15 -0.04,-0.28 0,-0.57 0.06,-0.85 0.05,-0.26 0.12,-0.52 0.26,-0.75 0.25,-0.4 0.57,-0.46 0.99,-0.37 z"
                 id="path272"
                 style="fill:#ffffff" />
              <path
                 class="cls-1"
                 d="m 43.54,392.95 c 0.14,0.02 0.29,0.05 0.37,0.16 0.07,0.1 0.06,0.23 0.04,0.35 -0.05,0.28 -0.13,0.55 -0.25,0.81 -0.05,0.1 -0.11,0.21 -0.2,0.27 -0.17,0.11 -0.4,0.06 -0.59,0 -0.04,-0.01 -0.08,-0.02 -0.11,-0.05 -0.03,-0.03 -0.04,-0.06 -0.04,-0.1 -0.04,-0.19 -0.03,-0.39 0,-0.59 0.02,-0.18 0.05,-0.37 0.14,-0.53 0.15,-0.29 0.36,-0.35 0.66,-0.31 z"
                 id="path273"
                 style="fill:#ffffff" />
            </g>
            <g
               id="g276">
              <path
                 class="cls-1"
                 d="m 40.94,385.09 c 0.17,0.08 0.37,0.18 0.43,0.36 0.05,0.16 -0.01,0.33 -0.09,0.47 -0.17,0.35 -0.39,0.67 -0.65,0.96 -0.11,0.12 -0.22,0.23 -0.38,0.28 -0.27,0.08 -0.54,-0.08 -0.78,-0.24 -0.05,-0.03 -0.09,-0.06 -0.12,-0.11 -0.02,-0.05 -0.02,-0.1 -0.02,-0.15 0.02,-0.27 0.12,-0.53 0.22,-0.78 0.1,-0.23 0.21,-0.46 0.39,-0.64 0.31,-0.32 0.62,-0.32 0.99,-0.15 z"
                 id="path274"
                 style="fill:#ffffff" />
              <path
                 class="cls-1"
                 d="m 39.51,387.43 c 0.17,0.08 0.37,0.18 0.43,0.36 0.05,0.16 -0.01,0.33 -0.09,0.47 -0.17,0.35 -0.39,0.67 -0.65,0.96 -0.11,0.12 -0.22,0.23 -0.38,0.28 -0.27,0.08 -0.54,-0.08 -0.78,-0.24 -0.05,-0.03 -0.09,-0.06 -0.12,-0.11 -0.02,-0.05 -0.02,-0.1 -0.02,-0.15 0.02,-0.27 0.12,-0.53 0.22,-0.78 0.1,-0.23 0.21,-0.46 0.39,-0.64 0.31,-0.32 0.62,-0.32 0.99,-0.15 z"
                 id="path275"
                 style="fill:#ffffff" />
              <path
                 class="cls-1"
                 d="m 38.12,389.9 c 0.12,0.04 0.26,0.1 0.31,0.22 0.04,0.1 0.01,0.22 -0.03,0.33 -0.1,0.25 -0.23,0.48 -0.39,0.7 -0.07,0.09 -0.14,0.17 -0.24,0.21 -0.18,0.07 -0.38,-0.02 -0.55,-0.12 -0.03,-0.02 -0.07,-0.04 -0.09,-0.07 -0.02,-0.03 -0.02,-0.07 -0.02,-0.1 0,-0.19 0.05,-0.37 0.11,-0.55 0.05,-0.16 0.12,-0.33 0.23,-0.46 0.19,-0.24 0.4,-0.25 0.67,-0.16 z"
                 id="path276"
                 style="fill:#ffffff" />
            </g>
            <g
               id="g279">
              <path
                 class="cls-1"
                 d="m 39.65,383.14 c 0.12,0.09 0.26,0.2 0.27,0.35 0.01,0.13 -0.07,0.25 -0.15,0.35 -0.19,0.24 -0.42,0.46 -0.67,0.64 -0.1,0.07 -0.22,0.14 -0.34,0.15 -0.22,0.02 -0.41,-0.16 -0.57,-0.32 -0.03,-0.03 -0.06,-0.07 -0.07,-0.11 0,-0.04 0,-0.08 0.01,-0.12 0.06,-0.21 0.18,-0.39 0.31,-0.57 0.12,-0.16 0.25,-0.32 0.41,-0.43 0.3,-0.2 0.54,-0.14 0.8,0.05 z"
                 id="path277"
                 style="fill:#ffffff" />
              <path
                 class="cls-1"
                 d="m 38.12,384.72 c 0.12,0.09 0.26,0.2 0.27,0.35 0.01,0.13 -0.07,0.25 -0.15,0.35 -0.19,0.24 -0.42,0.46 -0.67,0.64 -0.1,0.07 -0.22,0.14 -0.34,0.15 -0.22,0.02 -0.41,-0.16 -0.57,-0.32 -0.03,-0.03 -0.06,-0.07 -0.07,-0.11 0,-0.04 0,-0.08 0.01,-0.12 0.06,-0.21 0.18,-0.39 0.31,-0.57 0.12,-0.16 0.25,-0.32 0.41,-0.43 0.3,-0.2 0.54,-0.14 0.8,0.05 z"
                 id="path278"
                 style="fill:#ffffff" />
              <path
                 class="cls-1"
                 d="m 36.61,386.41 c 0.09,0.06 0.19,0.12 0.21,0.23 0.02,0.09 -0.03,0.18 -0.08,0.25 -0.12,0.18 -0.26,0.34 -0.43,0.48 -0.07,0.06 -0.14,0.11 -0.23,0.12 -0.15,0.02 -0.29,-0.08 -0.41,-0.19 -0.02,-0.02 -0.05,-0.04 -0.06,-0.07 0,-0.03 0,-0.06 0,-0.08 0.03,-0.15 0.1,-0.28 0.18,-0.41 0.07,-0.12 0.15,-0.24 0.26,-0.32 0.19,-0.15 0.36,-0.13 0.55,0 z"
                 id="path279"
                 style="fill:#ffffff" />
            </g>
            <g
               id="g281">
              <path
                 class="cls-1"
                 d="m 49.32,387.69 c 0,0.38 -0.06,0.76 -0.19,1.13 -0.05,0.15 -0.12,0.3 -0.26,0.4 -0.25,0.18 -0.63,0.14 -0.97,0.1 -0.07,0 -0.13,-0.02 -0.19,-0.05 -0.05,-0.03 -0.08,-0.08 -0.1,-0.13 -0.12,-0.25 -0.16,-0.52 -0.18,-0.79 -0.02,-0.25 -0.02,-0.5 0.07,-0.74 0.16,-0.41 0.49,-0.53 0.99,-0.53 0.23,0 0.49,0.01 0.65,0.15 0.14,0.12 0.16,0.3 0.16,0.46 z"
                 id="path280"
                 style="fill:#ffffff" />
              <path
                 class="cls-1"
                 d="m 48.94,390.25 c 0.03,0.26 0.01,0.53 -0.05,0.79 -0.02,0.1 -0.06,0.21 -0.15,0.29 -0.16,0.14 -0.42,0.13 -0.65,0.11 -0.05,0 -0.09,0 -0.13,-0.03 -0.04,-0.02 -0.06,-0.05 -0.08,-0.08 -0.1,-0.17 -0.15,-0.35 -0.18,-0.54 -0.03,-0.17 -0.05,-0.35 0,-0.51 0.08,-0.29 0.3,-0.39 0.64,-0.41 0.16,-0.01 0.34,-0.02 0.46,0.07 0.1,0.08 0.13,0.2 0.14,0.31 z"
                 id="path281"
                 style="fill:#ffffff" />
            </g>
          </g>
        </g>
        <g
           id="g307">
          <path
             class="cls-1"
             d="m 109.04,335.51 c 0,0 -4.03,-5.55 -5.41,-1.65 -1.38,3.9 3.31,5.87 3.31,5.87 l 3.6,12.16 c 0,0 -5.34,1.43 -3.04,5.14 2.3,3.71 7.25,-0.47 7.25,-0.47 0,0 6.21,1.83 6.31,-2 0.1,-3.83 -5.1,-3.91 -5.1,-3.91 l -3.49,-11.06 c 0,0 3.58,-1.71 1.52,-4.51 -2.06,-2.8 -4.95,0.44 -4.95,0.44 z"
             id="path283"
             style="fill:#ffffff" />
          <path
             class="cls-1"
             d="m 124.21,360.6 c 0,0 -2.76,4.91 1.24,5.93 4,1.03 4.03,-4.38 4.03,-4.38 l 11.12,-3.83 c 0,0 1.89,5.19 5.39,2.57 3.49,-2.62 -1.11,-7.18 -1.11,-7.18 0,0 1.27,-6.35 -2.55,-6.11 -3.82,0.24 -3.45,5.42 -3.45,5.42 l -10.93,3.79 c 0,0 -3.55,-3.94 -6.15,-1.64 -2.6,2.3 2.41,5.42 2.41,5.42 z"
             id="path284"
             style="fill:#ffffff" />
          <path
             class="cls-1"
             d="m 115.07,359.41 c -0.71,1.35 0.74,3.23 2.25,4 1.51,0.78 4.64,0.37 4.82,-0.89 0.19,-1.64 -0.86,-3.08 -2.54,-3.81 -1.67,-0.73 -4.11,-0.29 -4.53,0.7 z"
             id="path285"
             style="fill:#ffffff" />
          <g
             id="g299">
            <path
               class="cls-1"
               d="m 154.43,352.38 c -0.07,0.7 -0.02,1.41 -0.02,2.12 0,0.72 -0.07,1.48 -0.84,1.8 -0.33,0.14 -0.7,0.16 -1.06,0.17 -0.92,0.02 -1.86,-0.04 -2.75,-0.27 -1.53,-0.41 -2.95,-1.36 -3.31,-2.98 -0.43,-1.9 0.9,-3.11 2.48,-3.85 1.05,-0.5 2.18,-0.93 3.32,-1.15 0.93,-0.18 1.72,0.12 2.08,1.05 0.37,0.96 0.23,1.98 0.12,2.97 0,0.05 -0.01,0.1 -0.02,0.14 z"
               id="path286"
               style="fill:#ffffff" />
            <g
               id="g289">
              <path
                 class="cls-1"
                 d="m 155.47,352.48 c -0.03,-0.22 -0.06,-0.46 0.08,-0.63 0.12,-0.15 0.32,-0.19 0.51,-0.21 0.44,-0.05 0.89,-0.04 1.33,0.03 0.18,0.03 0.36,0.07 0.5,0.19 0.24,0.21 0.26,0.58 0.25,0.9 0,0.06 0,0.13 -0.04,0.18 -0.03,0.05 -0.08,0.08 -0.13,0.11 -0.27,0.15 -0.58,0.22 -0.89,0.27 -0.29,0.05 -0.58,0.08 -0.86,0.02 -0.5,-0.1 -0.69,-0.4 -0.75,-0.86 z"
                 id="path287"
                 style="fill:#ffffff" />
              <path
                 class="cls-1"
                 d="m 158.62,352.41 c -0.03,-0.22 -0.06,-0.46 0.08,-0.63 0.12,-0.15 0.32,-0.19 0.51,-0.21 0.44,-0.05 0.89,-0.04 1.33,0.03 0.18,0.03 0.36,0.07 0.5,0.19 0.24,0.21 0.26,0.58 0.25,0.9 0,0.06 0,0.13 -0.04,0.18 -0.03,0.05 -0.08,0.08 -0.13,0.11 -0.27,0.15 -0.58,0.22 -0.89,0.27 -0.29,0.05 -0.58,0.08 -0.86,0.02 -0.5,-0.1 -0.69,-0.4 -0.76,-0.86 z"
                 id="path288"
                 style="fill:#ffffff" />
              <path
                 class="cls-1"
                 d="m 161.87,352.21 c -0.03,-0.15 -0.07,-0.31 0.02,-0.44 0.07,-0.11 0.21,-0.15 0.34,-0.17 0.3,-0.06 0.61,-0.08 0.92,-0.06 0.12,0 0.25,0.03 0.36,0.1 0.18,0.13 0.21,0.38 0.23,0.6 0,0.04 0,0.09 -0.01,0.13 -0.02,0.04 -0.05,0.06 -0.08,0.08 -0.18,0.12 -0.39,0.18 -0.6,0.24 -0.19,0.05 -0.39,0.09 -0.59,0.07 -0.35,-0.04 -0.5,-0.23 -0.57,-0.55 z"
                 id="path289"
                 style="fill:#ffffff" />
            </g>
            <g
               id="g292">
              <path
                 class="cls-1"
                 d="m 155.41,349.96 c -0.05,-0.19 -0.1,-0.42 0,-0.59 0.09,-0.15 0.28,-0.21 0.45,-0.24 0.4,-0.09 0.81,-0.13 1.22,-0.11 0.17,0 0.34,0.03 0.48,0.12 0.24,0.17 0.3,0.5 0.32,0.8 0,0.06 0.01,0.12 -0.01,0.17 -0.02,0.05 -0.07,0.08 -0.11,0.11 -0.23,0.16 -0.51,0.26 -0.78,0.33 -0.26,0.07 -0.52,0.13 -0.79,0.11 -0.47,-0.04 -0.67,-0.29 -0.78,-0.71 z"
                 id="path290"
                 style="fill:#ffffff" />
              <path
                 class="cls-1"
                 d="m 158.29,349.57 c -0.05,-0.19 -0.1,-0.42 0,-0.59 0.09,-0.15 0.28,-0.21 0.45,-0.24 0.4,-0.09 0.81,-0.13 1.22,-0.11 0.17,0 0.34,0.03 0.48,0.12 0.24,0.17 0.3,0.5 0.32,0.8 0,0.06 0.01,0.12 -0.01,0.17 -0.02,0.05 -0.07,0.08 -0.11,0.11 -0.23,0.16 -0.51,0.26 -0.78,0.33 -0.26,0.07 -0.52,0.13 -0.79,0.11 -0.47,-0.04 -0.67,-0.29 -0.78,-0.71 z"
                 id="path291"
                 style="fill:#ffffff" />
              <path
                 class="cls-1"
                 d="m 161.24,349.06 c -0.05,-0.13 -0.09,-0.28 -0.03,-0.4 0.06,-0.11 0.18,-0.16 0.29,-0.19 0.27,-0.09 0.55,-0.14 0.83,-0.15 0.11,0 0.24,0 0.34,0.06 0.18,0.1 0.23,0.33 0.27,0.53 0,0.04 0.01,0.08 0,0.12 -0.01,0.03 -0.04,0.06 -0.07,0.09 -0.15,0.13 -0.34,0.21 -0.52,0.28 -0.17,0.06 -0.35,0.12 -0.53,0.12 -0.32,0 -0.48,-0.16 -0.58,-0.44 z"
                 id="path292"
                 style="fill:#ffffff" />
            </g>
            <g
               id="g295">
              <path
                 class="cls-1"
                 d="m 155.45,354.98 c -0.01,-0.19 -0.01,-0.41 0.12,-0.54 0.12,-0.12 0.29,-0.14 0.46,-0.14 0.39,0 0.78,0.04 1.15,0.14 0.15,0.04 0.31,0.09 0.42,0.21 0.19,0.2 0.18,0.52 0.15,0.8 0,0.05 -0.01,0.11 -0.05,0.16 -0.03,0.04 -0.08,0.07 -0.12,0.09 -0.25,0.11 -0.52,0.14 -0.79,0.16 -0.25,0.02 -0.51,0.02 -0.75,-0.05 -0.43,-0.13 -0.56,-0.4 -0.59,-0.81 z"
                 id="path293"
                 style="fill:#ffffff" />
              <path
                 class="cls-1"
                 d="m 158.19,355.18 c -0.01,-0.19 -0.01,-0.41 0.12,-0.54 0.12,-0.12 0.29,-0.14 0.46,-0.14 0.39,0 0.78,0.04 1.15,0.14 0.15,0.04 0.31,0.09 0.42,0.21 0.19,0.2 0.18,0.52 0.15,0.8 0,0.05 -0.01,0.11 -0.05,0.16 -0.03,0.04 -0.08,0.07 -0.12,0.09 -0.25,0.11 -0.52,0.14 -0.79,0.16 -0.25,0.02 -0.51,0.02 -0.75,-0.05 -0.43,-0.13 -0.56,-0.4 -0.59,-0.81 z"
                 id="path294"
                 style="fill:#ffffff" />
              <path
                 class="cls-1"
                 d="m 161.01,355.27 c -0.02,-0.13 -0.03,-0.28 0.05,-0.38 0.07,-0.09 0.19,-0.11 0.31,-0.12 0.27,-0.03 0.53,-0.02 0.8,0.02 0.11,0.02 0.22,0.05 0.3,0.12 0.15,0.13 0.15,0.35 0.15,0.54 0,0.04 0,0.08 -0.02,0.11 -0.02,0.03 -0.05,0.05 -0.08,0.07 -0.16,0.09 -0.35,0.13 -0.53,0.16 -0.17,0.03 -0.35,0.05 -0.52,0.01 -0.3,-0.06 -0.41,-0.24 -0.45,-0.52 z"
                 id="path295"
                 style="fill:#ffffff" />
            </g>
            <g
               id="g298">
              <path
                 class="cls-1"
                 d="m 154.31,357.03 c 0.02,-0.15 0.06,-0.32 0.19,-0.4 0.11,-0.07 0.25,-0.06 0.38,-0.03 0.3,0.06 0.6,0.16 0.87,0.31 0.11,0.06 0.23,0.13 0.29,0.23 0.12,0.19 0.05,0.44 -0.02,0.65 -0.01,0.04 -0.03,0.09 -0.06,0.11 -0.03,0.03 -0.07,0.04 -0.11,0.04 -0.21,0.04 -0.43,0.02 -0.65,-0.01 -0.2,-0.03 -0.4,-0.07 -0.58,-0.17 -0.31,-0.17 -0.37,-0.41 -0.32,-0.73 z"
                 id="path296"
                 style="fill:#ffffff" />
              <path
                 class="cls-1"
                 d="m 156.42,357.66 c 0.02,-0.15 0.06,-0.32 0.19,-0.4 0.11,-0.07 0.25,-0.06 0.38,-0.03 0.3,0.06 0.6,0.16 0.87,0.31 0.11,0.06 0.23,0.13 0.29,0.23 0.12,0.19 0.05,0.44 -0.02,0.65 -0.01,0.04 -0.03,0.09 -0.06,0.11 -0.03,0.03 -0.07,0.04 -0.11,0.04 -0.21,0.04 -0.43,0.02 -0.65,-0.01 -0.2,-0.03 -0.4,-0.07 -0.58,-0.17 -0.31,-0.17 -0.37,-0.41 -0.32,-0.73 z"
                 id="path297"
                 style="fill:#ffffff" />
              <path
                 class="cls-1"
                 d="m 158.61,358.22 c 0,-0.1 0.02,-0.22 0.11,-0.29 0.07,-0.06 0.17,-0.05 0.26,-0.04 0.21,0.02 0.42,0.08 0.62,0.16 0.08,0.03 0.16,0.07 0.21,0.14 0.09,0.12 0.06,0.3 0.02,0.45 0,0.03 -0.02,0.06 -0.04,0.08 -0.02,0.02 -0.05,0.03 -0.07,0.04 -0.14,0.04 -0.3,0.04 -0.44,0.03 -0.14,0 -0.28,-0.02 -0.41,-0.08 -0.22,-0.1 -0.28,-0.26 -0.26,-0.49 z"
                 id="path298"
                 style="fill:#ffffff" />
            </g>
          </g>
          <g
             id="g304">
            <path
               class="cls-1"
               d="m 166.69,360.36 c -0.67,0.31 -11.52,0.47 -11.88,0 -0.35,-0.47 -2.18,-20.67 -2.18,-20.67 h 16.23 c 0,0 -1.51,20.35 -2.18,20.67 z"
               id="path299"
               style="fill:#ffffff" />
            <path
               class="cls-4"
               d="m 167.48,355.52 c 0.39,-0.08 1.47,-9.22 1.06,-9.86 -0.41,-0.64 -15.22,-0.56 -15.56,0 -0.34,0.56 0.55,9.51 1.06,9.86 0.51,0.36 13.05,0.08 13.44,0 z"
               id="path300"
               style="fill:#fc8e44" />
            <path
               class="cls-4"
               d="m 152.38,339.12 c -0.29,0.26 -0.82,1.98 -0.49,2.24 0.34,0.25 17.46,0.14 17.61,0 0.15,-0.14 -0.03,-2.12 -0.37,-2.24 -0.33,-0.11 -16.46,-0.26 -16.75,0 z"
               id="path301"
               style="fill:#fc8e44" />
            <path
               class="cls-4"
               d="m 167.06,340.24 c 0.25,-0.12 -0.36,-3.76 -0.48,-4.07 -0.26,-0.66 -11.46,-0.68 -11.65,0 -0.24,0.26 -0.83,3.88 -0.48,4.07 0.35,0.19 12.37,0.12 12.61,0 z"
               id="path302"
               style="fill:#fc8e44" />
            <path
               class="cls-2"
               d="m 167.08,339.43 c -4.01,-0.22 -8.27,-0.24 -12.69,-0.07 l -0.03,-0.75 c 4.43,-0.17 8.73,-0.15 12.76,0.07 z"
               id="path303"
               style="fill:#110d39" />
            <path
               class="cls-2"
               d="m 162.28,354.06 c -1.99,0 -3.6,-1.62 -3.6,-3.6 0,-1.98 1.62,-3.6 3.6,-3.6 1.98,0 3.6,1.62 3.6,3.6 0,1.98 -1.62,3.6 -3.6,3.6 z m 0,-6.46 c -1.57,0 -2.85,1.28 -2.85,2.85 0,1.57 1.28,2.85 2.85,2.85 1.57,0 2.85,-1.28 2.85,-2.85 0,-1.57 -1.28,-2.85 -2.85,-2.85 z"
               id="path304"
               style="fill:#110d39" />
          </g>
          <g
             id="g306">
            <path
               class="cls-1"
               d="m 152.41,348.1 c 0.46,-0.19 0.94,-0.3 1.44,-0.33 0.2,-0.01 0.42,0 0.6,0.11 0.34,0.21 0.48,0.68 0.59,1.11 0.02,0.08 0.04,0.17 0.03,0.25 -0.01,0.07 -0.06,0.13 -0.1,0.18 -0.24,0.27 -0.55,0.45 -0.86,0.6 -0.29,0.14 -0.59,0.27 -0.92,0.27 -0.57,0 -0.88,-0.33 -1.12,-0.92 -0.11,-0.27 -0.22,-0.59 -0.14,-0.85 0.08,-0.23 0.28,-0.34 0.47,-0.42 z"
               id="path305"
               style="fill:#ffffff" />
            <path
               class="cls-1"
               d="m 155.65,347.3 c 0.3,-0.16 0.63,-0.28 0.96,-0.33 0.14,-0.02 0.28,-0.03 0.42,0.03 0.24,0.12 0.36,0.44 0.46,0.73 0.02,0.06 0.04,0.12 0.03,0.17 0,0.05 -0.03,0.1 -0.06,0.13 -0.15,0.21 -0.35,0.35 -0.55,0.48 -0.19,0.12 -0.39,0.23 -0.61,0.25 -0.39,0.05 -0.61,-0.17 -0.81,-0.56 -0.09,-0.18 -0.18,-0.39 -0.14,-0.58 0.04,-0.16 0.17,-0.25 0.3,-0.32 z"
               id="path306"
               style="fill:#ffffff" />
          </g>
        </g>
      </g>
    </g>
  </g>
  <metadata
     id="metadata1">
    <rdf:RDF>
      <cc:Work
         rdf:about="">
        <dc:creator>
          <cc:Agent>
            <dc:title>1812</dc:title>
          </cc:Agent>
        </dc:creator>
      </cc:Work>
    </rdf:RDF>
  </metadata>
</svg>
