<?xml version="1.0" encoding="UTF-8" standalone="no"?>
<!-- Created with Inkscape (http://www.inkscape.org/) -->

<svg
   width="150"
   height="200"
   viewBox="0 0 150 200"
   version="1.1"
   id="svg1"
   inkscape:version="1.3.2 (091e20e, 2023-11-25, custom)"
   sodipodi:docname="3.svg"
   xmlns:inkscape="http://www.inkscape.org/namespaces/inkscape"
   xmlns:sodipodi="http://sodipodi.sourceforge.net/DTD/sodipodi-0.dtd"
   xmlns="http://www.w3.org/2000/svg"
   xmlns:svg="http://www.w3.org/2000/svg"
   xmlns:rdf="http://www.w3.org/1999/02/22-rdf-syntax-ns#"
   xmlns:cc="http://creativecommons.org/ns#"
   xmlns:dc="http://purl.org/dc/elements/1.1/">
  <sodipodi:namedview
     id="namedview1"
     pagecolor="#000000"
     bordercolor="#eeeeee"
     borderopacity="1"
     inkscape:showpageshadow="false"
     inkscape:pageopacity="0"
     inkscape:pagecheckerboard="false"
     inkscape:deskcolor="#121212"
     inkscape:document-units="px"
     showgrid="false"
     inkscape:zoom="2.225"
     inkscape:cx="79.101124"
     inkscape:cy="94.157303"
     inkscape:window-width="1360"
     inkscape:window-height="697"
     inkscape:window-x="-8"
     inkscape:window-y="-8"
     inkscape:window-maximized="1"
     inkscape:current-layer="layer1">
    <inkscape:grid
       id="grid1"
       units="px"
       originx="480"
       originy="270"
       spacingx="1"
       spacingy="1"
       empcolor="#0099e5"
       empopacity="0.69803922"
       color="#4d4d4d"
       opacity="0.69803922"
       empspacing="5"
       dotted="false"
       gridanglex="30"
       gridanglez="30"
       visible="false" />
  </sodipodi:namedview>
  <defs
     id="defs1" />
  <g
     inkscape:label="Capa 1"
     inkscape:groupmode="layer"
     id="layer1">
    <g
       id="g195"
       transform="matrix(0.9,0,0,0.9,-163.4955,-22.026502)">
      <g
         id="g131">
        <path
           class="cls-1"
           d="m 200.35,95 c 0.12,0.7 0.13,1.4 0.19,2.11 0.06,0.72 0.2,1.47 0.99,1.72 0.34,0.11 0.71,0.1 1.07,0.08 0.92,-0.05 1.85,-0.19 2.72,-0.5 1.49,-0.53 2.82,-1.6 3.05,-3.25 0.27,-1.93 -1.16,-3.02 -2.79,-3.63 -1.09,-0.41 -2.25,-0.74 -3.41,-0.86 -0.94,-0.1 -1.71,0.27 -1.98,1.22 -0.29,0.99 -0.07,1.99 0.13,2.97 0,0.05 0.02,0.09 0.03,0.14 z"
           id="path116"
           style="fill:#ffffff" />
        <g
           id="g119">
          <path
             class="cls-1"
             d="m 199.33,95.18 c 0.01,-0.22 0.02,-0.46 -0.14,-0.62 -0.13,-0.14 -0.34,-0.16 -0.53,-0.17 -0.44,-0.01 -0.89,0.03 -1.32,0.14 -0.18,0.04 -0.36,0.1 -0.48,0.23 -0.22,0.23 -0.21,0.59 -0.17,0.91 0,0.06 0.01,0.13 0.05,0.18 0.03,0.05 0.09,0.08 0.14,0.1 0.28,0.13 0.6,0.17 0.91,0.19 0.29,0.02 0.58,0.03 0.86,-0.05 0.49,-0.14 0.65,-0.45 0.68,-0.92 z"
             id="path117"
             style="fill:#ffffff" />
          <path
             class="cls-1"
             d="m 196.18,95.38 c 0.01,-0.22 0.02,-0.46 -0.14,-0.62 -0.13,-0.14 -0.34,-0.16 -0.53,-0.17 -0.44,-0.01 -0.89,0.03 -1.32,0.14 -0.18,0.04 -0.36,0.1 -0.48,0.23 -0.22,0.23 -0.21,0.59 -0.17,0.91 0,0.06 0.01,0.13 0.05,0.18 0.03,0.05 0.09,0.08 0.14,0.1 0.28,0.13 0.6,0.17 0.91,0.19 0.29,0.02 0.58,0.03 0.86,-0.05 0.49,-0.14 0.65,-0.45 0.68,-0.92 z"
             id="path118"
             style="fill:#ffffff" />
          <path
             class="cls-1"
             d="m 192.93,95.46 c 0.02,-0.15 0.04,-0.32 -0.06,-0.44 -0.08,-0.1 -0.22,-0.13 -0.35,-0.15 -0.31,-0.04 -0.62,-0.03 -0.92,0.02 -0.12,0.02 -0.25,0.05 -0.35,0.13 -0.17,0.14 -0.18,0.4 -0.17,0.62 0,0.04 0,0.09 0.02,0.13 0.02,0.03 0.06,0.06 0.09,0.08 0.19,0.1 0.4,0.15 0.61,0.19 0.2,0.03 0.4,0.06 0.59,0.02 0.35,-0.07 0.48,-0.27 0.52,-0.59 z"
             id="path119"
             style="fill:#ffffff" />
        </g>
        <g
           id="g122">
          <path
             class="cls-1"
             d="m 199.17,92.67 c 0.04,-0.2 0.06,-0.42 -0.06,-0.58 -0.11,-0.14 -0.29,-0.18 -0.46,-0.21 -0.41,-0.06 -0.82,-0.06 -1.22,0 -0.16,0.02 -0.34,0.06 -0.47,0.16 -0.23,0.19 -0.25,0.52 -0.26,0.82 0,0.06 0,0.12 0.03,0.17 0.03,0.05 0.07,0.08 0.12,0.11 0.25,0.14 0.53,0.21 0.81,0.27 0.26,0.05 0.53,0.09 0.79,0.04 0.46,-0.08 0.64,-0.35 0.72,-0.77 z"
             id="path120"
             style="fill:#ffffff" />
          <path
             class="cls-1"
             d="m 196.27,92.52 c 0.04,-0.2 0.06,-0.42 -0.06,-0.58 -0.11,-0.14 -0.29,-0.18 -0.46,-0.21 -0.41,-0.06 -0.82,-0.06 -1.22,0 -0.16,0.02 -0.34,0.06 -0.47,0.16 -0.23,0.19 -0.25,0.52 -0.26,0.82 0,0.06 0,0.12 0.03,0.17 0.03,0.05 0.07,0.08 0.12,0.11 0.25,0.14 0.53,0.21 0.81,0.27 0.26,0.05 0.53,0.09 0.79,0.04 0.46,-0.08 0.64,-0.35 0.72,-0.77 z"
             id="path121"
             style="fill:#ffffff" />
          <path
             class="cls-1"
             d="m 193.29,92.26 c 0.04,-0.13 0.07,-0.29 0,-0.4 -0.06,-0.1 -0.19,-0.14 -0.31,-0.17 -0.28,-0.06 -0.56,-0.09 -0.84,-0.08 -0.11,0 -0.23,0.02 -0.33,0.08 -0.17,0.11 -0.2,0.34 -0.23,0.55 0,0.04 0,0.08 0,0.12 0.02,0.03 0.05,0.06 0.08,0.08 0.16,0.11 0.35,0.18 0.54,0.23 0.18,0.05 0.36,0.09 0.54,0.08 0.32,-0.03 0.46,-0.2 0.54,-0.49 z"
             id="path122"
             style="fill:#ffffff" />
        </g>
        <g
           id="g125">
          <path
             class="cls-1"
             d="m 199.55,97.68 c 0,-0.19 -0.02,-0.4 -0.17,-0.53 -0.12,-0.11 -0.31,-0.11 -0.47,-0.1 -0.39,0.02 -0.77,0.1 -1.13,0.23 -0.15,0.05 -0.3,0.12 -0.4,0.24 -0.18,0.22 -0.13,0.53 -0.08,0.81 0.01,0.05 0.02,0.11 0.06,0.15 0.03,0.04 0.08,0.06 0.13,0.07 0.26,0.09 0.53,0.1 0.8,0.09 0.25,0 0.51,-0.02 0.74,-0.11 0.41,-0.16 0.53,-0.45 0.52,-0.86 z"
             id="path123"
             style="fill:#ffffff" />
          <path
             class="cls-1"
             d="m 196.84,98.11 c 0,-0.19 -0.02,-0.4 -0.17,-0.53 -0.12,-0.11 -0.31,-0.11 -0.47,-0.1 -0.39,0.02 -0.77,0.1 -1.13,0.23 -0.15,0.05 -0.3,0.12 -0.4,0.24 -0.18,0.22 -0.13,0.53 -0.08,0.81 0.01,0.05 0.02,0.11 0.06,0.15 0.03,0.04 0.08,0.06 0.13,0.07 0.26,0.09 0.53,0.1 0.8,0.09 0.25,0 0.51,-0.02 0.74,-0.11 0.41,-0.16 0.53,-0.45 0.52,-0.86 z"
             id="path124"
             style="fill:#ffffff" />
          <path
             class="cls-1"
             d="m 194.03,98.43 c 0,-0.13 0,-0.28 -0.08,-0.37 -0.08,-0.08 -0.2,-0.1 -0.32,-0.1 -0.27,0 -0.53,0.02 -0.79,0.09 -0.11,0.03 -0.21,0.06 -0.29,0.14 -0.13,0.14 -0.12,0.36 -0.1,0.55 0,0.04 0,0.08 0.03,0.11 0.02,0.03 0.05,0.04 0.09,0.06 0.17,0.07 0.36,0.1 0.55,0.11 0.17,0.01 0.35,0.02 0.52,-0.03 0.29,-0.09 0.39,-0.28 0.41,-0.56 z"
             id="path125"
             style="fill:#ffffff" />
        </g>
        <g
           id="g128">
          <path
             class="cls-1"
             d="m 200.86,99.62 c -0.04,-0.15 -0.09,-0.31 -0.22,-0.38 -0.12,-0.06 -0.26,-0.03 -0.38,0 -0.3,0.09 -0.58,0.21 -0.85,0.38 -0.11,0.07 -0.21,0.14 -0.27,0.26 -0.1,0.2 -0.01,0.44 0.08,0.65 0.02,0.04 0.04,0.08 0.07,0.11 0.03,0.02 0.07,0.03 0.11,0.04 0.22,0.02 0.43,-0.02 0.64,-0.07 0.2,-0.05 0.39,-0.1 0.56,-0.22 0.29,-0.2 0.34,-0.44 0.26,-0.76 z"
             id="path126"
             style="fill:#ffffff" />
          <path
             class="cls-1"
             d="m 198.81,100.43 c -0.04,-0.15 -0.09,-0.31 -0.22,-0.38 -0.12,-0.06 -0.26,-0.03 -0.38,0 -0.3,0.09 -0.58,0.21 -0.85,0.38 -0.11,0.07 -0.21,0.14 -0.27,0.26 -0.1,0.2 -0.01,0.44 0.08,0.65 0.02,0.04 0.04,0.08 0.07,0.11 0.03,0.02 0.07,0.03 0.11,0.04 0.22,0.02 0.43,-0.02 0.64,-0.07 0.2,-0.05 0.39,-0.1 0.56,-0.22 0.29,-0.2 0.34,-0.44 0.26,-0.76 z"
             id="path127"
             style="fill:#ffffff" />
          <path
             class="cls-1"
             d="m 196.67,101.17 c -0.02,-0.1 -0.04,-0.22 -0.13,-0.28 -0.08,-0.05 -0.18,-0.04 -0.26,-0.02 -0.21,0.04 -0.41,0.11 -0.6,0.21 -0.08,0.04 -0.16,0.09 -0.2,0.16 -0.08,0.13 -0.03,0.3 0.02,0.45 0,0.03 0.02,0.06 0.04,0.08 0.02,0.02 0.05,0.03 0.08,0.03 0.15,0.03 0.3,0.01 0.45,0 0.14,-0.02 0.28,-0.05 0.4,-0.11 0.21,-0.12 0.26,-0.28 0.22,-0.51 z"
             id="path128"
             style="fill:#ffffff" />
        </g>
        <g
           id="g130">
          <path
             class="cls-1"
             d="m 200.37,88.94 c -0.35,-0.15 -0.73,-0.24 -1.11,-0.26 -0.16,0 -0.32,0 -0.47,0.08 -0.26,0.16 -0.37,0.53 -0.46,0.85 -0.02,0.06 -0.03,0.13 -0.02,0.19 0.01,0.06 0.04,0.1 0.08,0.14 0.18,0.21 0.42,0.35 0.66,0.47 0.22,0.11 0.46,0.21 0.71,0.21 0.44,0 0.68,-0.25 0.87,-0.71 0.09,-0.21 0.18,-0.46 0.11,-0.66 -0.06,-0.17 -0.22,-0.26 -0.36,-0.33 z"
             id="path129"
             style="fill:#ffffff" />
          <path
             class="cls-1"
             d="m 197.86,88.31 c -0.23,-0.13 -0.48,-0.22 -0.74,-0.26 -0.11,-0.02 -0.22,-0.03 -0.32,0.02 -0.19,0.09 -0.28,0.34 -0.36,0.56 -0.01,0.04 -0.03,0.09 -0.02,0.13 0,0.04 0.03,0.07 0.05,0.1 0.12,0.16 0.27,0.27 0.43,0.37 0.15,0.09 0.3,0.18 0.47,0.2 0.3,0.04 0.48,-0.13 0.63,-0.43 0.07,-0.14 0.14,-0.3 0.11,-0.45 -0.03,-0.13 -0.13,-0.2 -0.23,-0.25 z"
             id="path130"
             style="fill:#ffffff" />
        </g>
      </g>
      <path
         class="cls-1"
         d="m 291.01,77.82 c -4.35,-10.89 -18.24,-10.23 -28.58,-6.93 -10.34,3.31 -21.77,10.36 -19.5,23.13 2.27,12.77 20.7,11.53 20.7,11.53 0,0 1.37,5.98 4.13,5.52 2.76,-0.46 1.11,-7.45 1.11,-7.45 0,0 2.75,6.63 6.46,5.27 3.7,-1.36 1.69,-8.34 1.69,-8.34 0,0 2.59,6.76 6.12,4.9 3.53,-1.86 -0.77,-7.08 -0.77,-7.08 0,0 12.98,-9.66 8.63,-20.55 z m -26.3,16.97 c -3.01,4.12 -15.81,-0.09 -10.6,-6.89 5.21,-6.8 13.61,2.77 10.6,6.89 z m 9.91,2.68 c -1.06,0.9 -3.82,-0.88 -3.82,-0.88 0,0 -0.93,3.21 -2.27,2.82 -1.34,-0.39 -1,-6.23 0.77,-6.89 1.77,-0.65 6.38,4.04 5.32,4.95 z m 0.4,-5.9 c -4.18,-0.99 -4.03,-11.71 3.02,-10.21 7.06,1.5 1.16,11.2 -3.02,10.21 z"
         id="path131"
         style="fill:#ffffff" />
      <path
         class="cls-1"
         d="m 248.53,131.52 c 2.55,-4.91 14.61,-4.27 19.47,2.9 v 4.09 c -15.77,-7.6 -20.38,-1.82 -17.57,4.73 0.22,-6.59 10.9,-3.58 17.57,0.86 0,0 -0.28,4.39 0,5.31 0.28,0.91 6.75,0.83 6.96,0 0.21,-0.83 0,-5.31 0,-5.31 6.67,-4.45 17.35,-7.45 17.57,-0.86 2.81,-6.55 -1.79,-12.33 -17.57,-4.73 v -4.09 c 4.86,-7.17 16.92,-7.82 19.47,-2.9 1.9,-7.96 -8.28,-9.68 -19.47,-4.98 v -3.44 c 4.05,-4.18 10.68,-7 14.7,-4.95 -1.04,-4.93 -10.86,-4.27 -15.04,-0.09 0,0 -0.37,-2.24 -0.8,-2.71 -0.44,-0.47 -4.14,-0.61 -4.66,0 -0.52,0.61 -0.8,2.71 -0.8,2.71 -4.18,-4.18 -14,-4.85 -15.04,0.09 4.02,-2.05 10.65,0.77 14.7,4.95 v 3.44 c -11.19,-4.7 -21.37,-2.98 -19.47,4.98 z"
         id="path132"
         style="fill:#ffffff" />
      <path
         class="cls-1"
         d="m 287.21,153.77 c -3.67,-0.93 -9.57,0.97 -15.74,1 -6.17,0.04 -12.07,-1.94 -15.74,-1 -3.67,0.93 -5.81,4.93 -5.81,7.74 0,2.81 7.91,11.44 10.77,12.26 2.87,0.82 6.29,-2.62 10.77,-2.72 4.48,-0.11 7.91,3.55 10.77,2.72 2.87,-0.82 10.77,-9.45 10.77,-12.26 0,-2.81 -2.13,-6.81 -5.81,-7.74 z m -24.96,12.52 c -1.34,0.4 -6.69,-2.12 -7.23,-3.47 -0.54,-1.34 0.32,-4.54 2.31,-5 1.99,-0.46 7.23,4.94 7.15,5.7 -0.08,0.76 -0.89,2.37 -2.23,2.77 z m 25.68,-3.47 c -0.54,1.34 -5.89,3.87 -7.23,3.47 -1.34,-0.4 -2.15,-2.01 -2.23,-2.77 -0.08,-0.76 5.16,-6.16 7.15,-5.7 1.99,0.46 2.85,3.66 2.31,5 z"
         id="path133"
         style="fill:#ffffff" />
      <g
         id="g138">
        <path
           class="cls-1"
           d="m 251.67,171.66 c 0,0 0.56,-5.85 -3.3,-4.79 -3.85,1.06 -1.21,5.45 -1.21,5.45 l -7.67,9.58 c 0,0 -4.08,-3.45 -5.76,0.42 -1.67,3.88 4.38,5.5 4.38,5.5 0,0 1.98,5.94 5.07,3.9 3.09,-2.04 0.29,-6.21 0.29,-6.21 l 6.86,-8.88 c 0,0 3.33,1.9 4.42,-1.28 1.09,-3.18 -3.08,-3.69 -3.08,-3.69 z"
           id="path134"
           style="fill:#ffffff" />
        <path
           class="cls-1"
           d="m 240.02,199.13 c 0,0 -5.18,-1.36 -5.27,2.55 -0.09,3.91 4.97,2.65 4.97,2.65 l 5.99,9.28 c 0,0 -4.44,2.97 -1.24,5.55 3.21,2.58 6.47,-2.73 6.47,-2.73 0,0 6.21,-0.35 5.15,-3.79 -1.06,-3.44 -5.81,-1.87 -5.81,-1.87 l -5.91,-9.11 c 0,0 2.91,-4.19 0.2,-6.03 -2.71,-1.84 -4.54,3.5 -4.54,3.5 z"
           id="path135"
           style="fill:#ffffff" />
        <g
           id="g137">
          <path
             class="cls-1"
             d="m 251.85,218.51 c -2.38,1.27 -1.43,3.92 -0.83,4.61 1.21,1.31 7.4,-3.5 7.45,-5.04 0.05,-1.53 -4.24,-0.84 -6.62,0.43 z"
             id="path136"
             style="fill:#ffffff" />
          <path
             class="cls-1"
             d="m 247.43,221.34 c -1.71,0.44 -14.7,11.65 -13.52,12.95 1.18,1.3 14.35,-8.49 14.92,-9.32 0.58,-0.83 0.3,-4.07 -1.41,-3.63 z"
             id="path137"
             style="fill:#ffffff" />
        </g>
        <path
           class="cls-1"
           d="m 237.32,190.95 c -1.47,0 -2.44,1.84 -2.45,3.28 -0.01,1.44 1.7,3.63 2.86,3.27 1.48,-0.51 2.26,-1.87 2.16,-3.42 -0.1,-1.55 -1.54,-3.2 -2.57,-3.13 z"
           id="path138"
           style="fill:#ffffff" />
      </g>
      <g
         id="g143">
        <path
           class="cls-1"
           d="m 295.5,163.52 c 0,0 -2.75,-5.2 1.21,-5.69 3.96,-0.49 3.2,4.58 3.2,4.58 l 10.75,5.91 c 0,0 2.45,-4.75 5.48,-1.81 3.03,2.94 -1.94,6.75 -1.94,6.75 0,0 0.44,6.25 -3.19,5.55 -3.64,-0.7 -2.65,-5.62 -2.65,-5.62 l -9.73,-5.58 c 0,0 -2.35,3.03 -4.57,0.51 -2.22,-2.52 1.44,-4.59 1.44,-4.59 z"
           id="path139"
           style="fill:#ffffff" />
        <path
           class="cls-1"
           d="m 314.54,184 c 0,0 5.31,-1.21 5.15,2.79 -0.15,3.99 -5.17,2.53 -5.17,2.53 l -6.62,9.26 c 0,0 4.29,3.19 0.9,5.7 -3.39,2.51 -6.35,-3.01 -6.35,-3.01 0,0 -6.23,-0.57 -4.96,-4.05 1.28,-3.48 5.98,-1.7 5.98,-1.7 l 6.53,-9.08 c 0,0 -2.67,-4.38 0.18,-6.16 2.85,-1.78 4.36,3.72 4.36,3.72 z"
           id="path140"
           style="fill:#ffffff" />
        <g
           id="g142">
          <path
             class="cls-1"
             d="m 301.4,203.35 c 2.32,1.38 1.2,4.05 0.55,4.73 -1.31,1.3 -7.24,-3.83 -7.19,-5.4 0.04,-1.57 4.33,-0.71 6.64,0.67 z"
             id="path141"
             style="fill:#ffffff" />
          <path
             class="cls-1"
             d="m 305.68,206.39 c 1.7,0.51 14.09,12.4 12.81,13.68 -1.27,1.28 -13.93,-9.16 -14.46,-10.03 -0.53,-0.87 -0.05,-4.16 1.64,-3.65 z"
             id="path142"
             style="fill:#ffffff" />
        </g>
        <path
           class="cls-1"
           d="m 316.15,175.84 c 1.36,-0.56 2.96,0.77 3.52,2.1 0.56,1.33 -0.19,4.01 -1.39,4.11 -1.57,0.1 -2.81,-0.86 -3.3,-2.34 -0.49,-1.48 0.2,-3.55 1.18,-3.87 z"
           id="path143"
           style="fill:#ffffff" />
      </g>
      <g
         id="g146">
        <path
           class="cls-1"
           d="m 250.09,118.2 c 0,0 6.28,2.15 3.07,4.53 -3.21,2.38 -6.36,-1.39 -6.36,-1.39 l -12.27,0.13 c 0,0 0.2,5.34 -3.89,4.27 -4.09,-1.07 -1.63,-6.83 -1.63,-6.83 0,0 -3.45,-5.22 0.06,-6.4 3.51,-1.18 5.07,3.6 5.07,3.6 l 11.22,0.08 c 0,0 0.56,-3.8 3.74,-2.69 3.17,1.11 1,4.7 1,4.7 z"
           id="path144"
           style="fill:#ffffff" />
        <path
           class="cls-1"
           d="m 221.54,115.93 c 0,0 -0.52,5.42 -4.26,4.02 -3.74,-1.4 -0.78,-5.71 -0.78,-5.71 l -6.72,-9.18 c 0,0 -4.37,3.08 -5.7,-0.93 -1.33,-4.01 4.84,-5.09 4.84,-5.09 0,0 2.49,-5.74 5.4,-3.44 2.9,2.3 -0.26,6.21 -0.26,6.21 l 6.59,9.04 c 0,0 4.99,-1.17 5.79,2.09 0.8,3.27 -4.9,2.97 -4.9,2.97 z"
           id="path145"
           style="fill:#ffffff" />
        <path
           class="cls-1"
           d="m 224.02,122.84 c -1.16,-0.19 -1.64,-1.95 -1.41,-3.23 0.22,-1.29 1.92,-3.02 2.77,-2.55 1.09,0.64 1.49,1.95 1.17,3.32 -0.33,1.37 -1.72,2.65 -2.53,2.46 z"
           id="path146"
           style="fill:#ffffff" />
      </g>
      <g
         id="g165">
        <g
           id="g162">
          <path
             class="cls-1"
             d="m 331.13,75.04 c 0.54,0.46 1.15,0.82 1.73,1.22 0.59,0.41 1.17,0.91 1,1.72 -0.08,0.35 -0.27,0.67 -0.46,0.97 -0.51,0.77 -1.09,1.51 -1.79,2.1 -1.21,1.02 -2.8,1.65 -4.34,1.02 -1.8,-0.73 -2.04,-2.51 -1.75,-4.23 0.19,-1.15 0.48,-2.32 0.95,-3.38 0.38,-0.86 1.09,-1.35 2.05,-1.11 1,0.24 1.76,0.94 2.51,1.6 0.04,0.03 0.07,0.06 0.11,0.09 z"
             id="path147"
             style="fill:#ffffff" />
          <g
             id="g150">
            <path
               class="cls-1"
               d="m 331.8,74.24 c -0.2,-0.1 -0.41,-0.22 -0.47,-0.43 -0.05,-0.18 0.03,-0.37 0.12,-0.54 0.21,-0.39 0.47,-0.76 0.78,-1.07 0.13,-0.13 0.27,-0.26 0.44,-0.3 0.31,-0.08 0.62,0.12 0.88,0.31 0.05,0.04 0.1,0.08 0.13,0.13 0.02,0.05 0.02,0.11 0.01,0.17 -0.03,0.31 -0.15,0.6 -0.29,0.88 -0.12,0.26 -0.26,0.52 -0.47,0.72 -0.37,0.35 -0.72,0.34 -1.14,0.13 z"
               id="path148"
               style="fill:#ffffff" />
            <path
               class="cls-1"
               d="m 333.55,71.61 c -0.2,-0.1 -0.41,-0.22 -0.47,-0.43 -0.05,-0.18 0.03,-0.37 0.12,-0.54 0.21,-0.39 0.47,-0.76 0.78,-1.07 0.13,-0.13 0.27,-0.26 0.44,-0.3 0.31,-0.08 0.62,0.12 0.88,0.31 0.05,0.04 0.1,0.08 0.13,0.13 0.02,0.05 0.02,0.11 0.01,0.17 -0.03,0.31 -0.15,0.6 -0.29,0.88 -0.12,0.26 -0.26,0.52 -0.47,0.72 -0.37,0.35 -0.72,0.34 -1.14,0.13 z"
               id="path149"
               style="fill:#ffffff" />
            <path
               class="cls-1"
               d="m 335.23,68.83 c -0.14,-0.06 -0.3,-0.12 -0.35,-0.27 -0.05,-0.12 0,-0.26 0.05,-0.38 0.12,-0.28 0.28,-0.55 0.48,-0.79 0.08,-0.1 0.17,-0.19 0.29,-0.23 0.21,-0.07 0.43,0.04 0.62,0.16 0.04,0.02 0.08,0.05 0.1,0.08 0.02,0.04 0.02,0.08 0.02,0.12 0,0.21 -0.07,0.42 -0.15,0.62 -0.07,0.19 -0.15,0.37 -0.28,0.52 -0.23,0.27 -0.47,0.28 -0.77,0.16 z"
               id="path150"
               style="fill:#ffffff" />
          </g>
          <g
             id="g153">
            <path
               class="cls-1"
               d="m 329.7,72.85 c -0.19,-0.07 -0.4,-0.16 -0.48,-0.34 -0.07,-0.16 -0.01,-0.34 0.05,-0.51 0.15,-0.38 0.36,-0.74 0.61,-1.06 0.1,-0.13 0.22,-0.26 0.37,-0.32 0.28,-0.11 0.58,0.04 0.84,0.19 0.05,0.03 0.1,0.06 0.13,0.11 0.03,0.05 0.03,0.1 0.03,0.16 0,0.29 -0.08,0.57 -0.17,0.84 -0.09,0.25 -0.19,0.5 -0.36,0.71 -0.3,0.36 -0.62,0.38 -1.03,0.24 z"
               id="path151"
               style="fill:#ffffff" />
            <path
               class="cls-1"
               d="m 331.02,70.26 c -0.19,-0.07 -0.4,-0.16 -0.48,-0.34 -0.07,-0.16 -0.01,-0.34 0.05,-0.51 0.15,-0.38 0.36,-0.74 0.61,-1.06 0.1,-0.13 0.22,-0.26 0.37,-0.32 0.28,-0.11 0.58,0.04 0.84,0.19 0.05,0.03 0.1,0.06 0.13,0.11 0.03,0.05 0.03,0.1 0.03,0.16 0,0.29 -0.08,0.57 -0.17,0.84 -0.09,0.25 -0.19,0.5 -0.36,0.71 -0.3,0.36 -0.62,0.38 -1.03,0.24 z"
               id="path152"
               style="fill:#ffffff" />
            <path
               class="cls-1"
               d="m 332.28,67.55 c -0.13,-0.04 -0.28,-0.08 -0.35,-0.21 -0.06,-0.11 -0.03,-0.24 0,-0.35 0.08,-0.27 0.2,-0.53 0.35,-0.77 0.06,-0.1 0.13,-0.19 0.24,-0.24 0.18,-0.09 0.4,0 0.59,0.08 0.04,0.02 0.07,0.03 0.1,0.07 0.02,0.03 0.03,0.07 0.03,0.11 0.02,0.2 -0.02,0.39 -0.07,0.58 -0.04,0.18 -0.1,0.36 -0.2,0.51 -0.18,0.27 -0.41,0.3 -0.69,0.22 z"
               id="path153"
               style="fill:#ffffff" />
          </g>
          <g
             id="g156">
            <path
               class="cls-1"
               d="m 333.85,75.68 c -0.16,-0.1 -0.34,-0.22 -0.38,-0.41 -0.03,-0.16 0.06,-0.32 0.15,-0.46 0.21,-0.32 0.47,-0.62 0.77,-0.87 0.12,-0.1 0.25,-0.2 0.41,-0.23 0.28,-0.04 0.53,0.15 0.74,0.33 0.04,0.04 0.08,0.07 0.1,0.13 0.02,0.05 0,0.1 0,0.15 -0.05,0.26 -0.18,0.51 -0.32,0.74 -0.13,0.22 -0.27,0.43 -0.47,0.59 -0.35,0.28 -0.65,0.24 -1,0.02 z"
               id="path154"
               style="fill:#ffffff" />
            <path
               class="cls-1"
               d="m 335.57,73.55 c -0.16,-0.1 -0.34,-0.22 -0.38,-0.41 -0.03,-0.16 0.05,-0.32 0.15,-0.46 0.21,-0.32 0.47,-0.62 0.77,-0.87 0.12,-0.1 0.25,-0.2 0.41,-0.23 0.28,-0.04 0.53,0.15 0.74,0.33 0.04,0.04 0.08,0.07 0.1,0.13 0.02,0.05 0,0.1 0,0.15 -0.05,0.26 -0.18,0.51 -0.32,0.74 -0.13,0.22 -0.27,0.43 -0.47,0.59 -0.35,0.28 -0.65,0.24 -1,0.02 z"
               id="path155"
               style="fill:#ffffff" />
            <path
               class="cls-1"
               d="m 337.26,71.28 c -0.12,-0.06 -0.25,-0.13 -0.28,-0.26 -0.03,-0.11 0.02,-0.22 0.07,-0.32 0.13,-0.23 0.29,-0.45 0.48,-0.64 0.08,-0.08 0.16,-0.15 0.27,-0.18 0.19,-0.05 0.37,0.07 0.53,0.19 0.03,0.02 0.06,0.05 0.08,0.08 0.01,0.03 0.01,0.07 0,0.1 -0.02,0.19 -0.09,0.36 -0.18,0.53 -0.08,0.16 -0.16,0.31 -0.29,0.43 -0.22,0.21 -0.43,0.2 -0.69,0.07 z"
               id="path156"
               style="fill:#ffffff" />
          </g>
          <g
             id="g159">
            <path
               class="cls-1"
               d="m 334.88,77.78 c -0.11,-0.11 -0.23,-0.23 -0.22,-0.38 0,-0.13 0.1,-0.24 0.19,-0.33 0.22,-0.22 0.48,-0.4 0.75,-0.54 0.11,-0.06 0.23,-0.11 0.36,-0.11 0.22,0.01 0.39,0.21 0.52,0.39 0.03,0.04 0.05,0.07 0.06,0.12 0,0.04 0,0.08 -0.03,0.12 -0.09,0.2 -0.23,0.37 -0.38,0.52 -0.14,0.15 -0.29,0.29 -0.47,0.38 -0.32,0.16 -0.55,0.07 -0.79,-0.16 z"
               id="path157"
               style="fill:#ffffff" />
            <path
               class="cls-1"
               d="m 336.6,76.41 c -0.11,-0.11 -0.23,-0.23 -0.22,-0.38 0,-0.13 0.1,-0.24 0.19,-0.33 0.22,-0.22 0.48,-0.4 0.75,-0.54 0.11,-0.06 0.23,-0.11 0.36,-0.11 0.22,0.01 0.39,0.21 0.52,0.39 0.03,0.04 0.05,0.07 0.06,0.12 0,0.04 -0.01,0.08 -0.03,0.12 -0.09,0.2 -0.23,0.37 -0.38,0.52 -0.14,0.15 -0.29,0.29 -0.47,0.38 -0.32,0.16 -0.55,0.07 -0.79,-0.16 z"
               id="path158"
               style="fill:#ffffff" />
            <path
               class="cls-1"
               d="m 338.32,74.93 c -0.08,-0.07 -0.17,-0.15 -0.18,-0.25 0,-0.09 0.05,-0.17 0.11,-0.24 0.14,-0.16 0.3,-0.3 0.48,-0.42 0.07,-0.05 0.15,-0.09 0.24,-0.09 0.15,0 0.28,0.12 0.38,0.24 0.02,0.02 0.04,0.05 0.05,0.08 0,0.03 0,0.06 -0.01,0.08 -0.05,0.14 -0.14,0.27 -0.23,0.38 -0.09,0.11 -0.18,0.22 -0.3,0.29 -0.21,0.13 -0.37,0.08 -0.55,-0.06 z"
               id="path159"
               style="fill:#ffffff" />
          </g>
          <g
             id="g161">
            <path
               class="cls-1"
               d="m 325.88,72.03 c 0.05,-0.38 0.16,-0.75 0.33,-1.09 0.07,-0.14 0.15,-0.28 0.31,-0.36 0.27,-0.15 0.64,-0.06 0.97,0.03 0.06,0.02 0.13,0.04 0.18,0.08 0.04,0.04 0.07,0.09 0.08,0.14 0.09,0.27 0.09,0.54 0.07,0.81 -0.02,0.25 -0.05,0.5 -0.17,0.72 -0.21,0.39 -0.56,0.47 -1.05,0.4 -0.23,-0.03 -0.48,-0.07 -0.62,-0.23 -0.12,-0.14 -0.12,-0.32 -0.1,-0.48 z"
               id="path160"
               style="fill:#ffffff" />
            <path
               class="cls-1"
               d="m 326.58,69.54 c 0,-0.27 0.05,-0.53 0.15,-0.77 0.04,-0.1 0.09,-0.2 0.18,-0.27 0.17,-0.11 0.43,-0.07 0.66,-0.03 0.04,0 0.09,0.02 0.13,0.04 0.03,0.02 0.05,0.06 0.07,0.09 0.08,0.18 0.1,0.37 0.11,0.56 0,0.17 0,0.35 -0.06,0.51 -0.12,0.28 -0.35,0.35 -0.68,0.33 -0.16,0 -0.33,-0.03 -0.44,-0.13 -0.09,-0.09 -0.1,-0.21 -0.1,-0.33 z"
               id="path161"
               style="fill:#ffffff" />
          </g>
        </g>
        <g
           id="g164">
          <path
             class="cls-1"
             d="m 292.89,117.22 c 0,0 -5.5,3.71 -1.78,5.17 3.72,1.46 5.78,-3 5.78,-3 l 11.88,-3.07 c 0,0 1.2,5.21 4.86,3.11 3.66,-2.1 -0.21,-7.02 -0.21,-7.02 0,0 1.98,-5.94 -1.72,-6.17 -3.7,-0.22 -3.95,4.79 -3.95,4.79 l -10.81,3 c 0,0 -1.53,-3.52 -4.31,-1.62 -2.77,1.9 0.26,4.8 0.26,4.8 z"
             id="path162"
             style="fill:#ffffff" />
          <path
             class="cls-1"
             d="m 320.29,104.21 c 0,0 2.27,4.95 5.35,2.4 3.08,-2.55 -1.14,-5.64 -1.14,-5.64 l 3.32,-10.88 c 0,0 5.14,1.47 5.07,-2.75 -0.07,-4.22 -6.25,-3.21 -6.25,-3.21 0,0 -4.25,-4.6 -6.23,-1.47 -1.98,3.13 2.29,5.78 2.29,5.78 l -3.24,10.71 c 0,0 -5.1,0.54 -4.78,3.89 0.32,3.35 5.61,1.19 5.61,1.19 z"
             id="path163"
             style="fill:#ffffff" />
          <path
             class="cls-1"
             d="m 316.52,112.56 c 1.23,0.59 2.87,-0.76 3.52,-2.14 0.65,-1.38 0.19,-4.17 -0.94,-4.29 -1.47,-0.12 -2.74,0.86 -3.34,2.39 -0.61,1.52 -0.14,3.69 0.76,4.04 z"
             id="path164"
             style="fill:#ffffff" />
        </g>
      </g>
      <g
         id="g171">
        <path
           class="cls-4"
           d="m 245.91,81.22 -1.64,-44.6 32.51,32.2 c -11.6,1.73 -21.87,5.91 -30.87,12.4 z"
           id="path165"
           style="fill:#fc8e44" />
        <path
           class="cls-2"
           d="m 258.09,71.02 c -5.04,0 -9.53,-0.88 -12.8,-2.25 l 0.29,-0.69 c 6.61,2.77 18.28,3.47 29.45,-1.2 l 0.29,0.69 c -5.86,2.45 -11.87,3.44 -17.23,3.44 z"
           id="path166"
           style="fill:#110d39" />
        <path
           class="cls-2"
           d="m 257.63,63.81 c -4.68,0 -9.1,-0.76 -12.69,-2.26 l 0.29,-0.69 c 6.5,2.72 15.83,2.94 24.36,0.57 l 0.2,0.72 c -4,1.11 -8.17,1.66 -12.16,1.66 z"
           id="path167"
           style="fill:#110d39" />
        <path
           class="cls-2"
           d="m 257.28,56.74 c -4.72,0 -9.15,-0.77 -12.71,-2.26 l 0.29,-0.69 c 5.04,2.11 11.9,2.74 18.81,1.73 l 0.11,0.74 c -2.19,0.32 -4.37,0.48 -6.5,0.48 z"
           id="path168"
           style="fill:#110d39" />
        <path
           class="cls-2"
           d="m 257.32,49.95 c -4.75,0 -9.27,-0.8 -12.75,-2.26 L 244.86,47 c 3.39,1.42 7.81,2.2 12.46,2.2 h 0.06 v 0.75 z"
           id="path169"
           style="fill:#110d39" />
        <path
           class="cls-2"
           d="m 250.39,43.18 c -2.32,-0.39 -4.42,-0.97 -6.26,-1.74 l 0.29,-0.69 c 1.79,0.75 3.84,1.32 6.1,1.69 l -0.12,0.74 z"
           id="path170"
           style="fill:#110d39" />
        <path
           class="cls-2"
           d="m 251.95,77.63 c -2.3,-0.28 -4.44,-0.75 -6.36,-1.41 l 0.24,-0.71 c 1.87,0.64 3.96,1.1 6.21,1.38 z"
           id="path171"
           style="fill:#110d39" />
      </g>
      <g
         id="g194">
        <path
           class="cls-4"
           d="m 261.7,139.01 c -28.25,0 -53.54,-16.4 -66.52,-44.1 l 0.68,-0.32 c 14.7,31.37 45.35,48.12 78.08,42.65 30.69,-5.13 52.67,-28.41 55.99,-59.33 l 0.75,0.08 c -3.36,31.25 -25.58,54.8 -56.61,59.99 -4.16,0.7 -8.29,1.04 -12.36,1.04 z"
           id="path172"
           style="fill:#fc8e44" />
        <polygon
           class="cls-4"
           points="201.73,105.83 195.62,95.24 183.6,109.12 "
           id="polygon172"
           style="fill:#fc8e44" />
        <polygon
           class="cls-4"
           points="210.95,117.17 202.85,108.02 193.84,124.02 "
           id="polygon173"
           style="fill:#fc8e44" />
        <polygon
           class="cls-4"
           points="222.37,126.27 212.47,119.11 207.18,136.69 "
           id="polygon174"
           style="fill:#fc8e44" />
        <polygon
           class="cls-4"
           points="236.81,133.83 225.58,129.01 224.27,147.32 "
           id="polygon175"
           style="fill:#fc8e44" />
        <polygon
           class="cls-4"
           points="252.63,137.83 240.65,135.46 243.18,153.65 "
           id="polygon176"
           style="fill:#fc8e44" />
        <polygon
           class="cls-4"
           points="269.01,137.9 256.8,138.13 263.14,155.36 "
           id="polygon177"
           style="fill:#fc8e44" />
        <polygon
           class="cls-4"
           points="284.47,134.93 272.59,137.81 282.54,153.25 "
           id="polygon178"
           style="fill:#fc8e44" />
        <polygon
           class="cls-4"
           points="298.97,128.18 288.06,133.68 301.24,146.46 "
           id="polygon179"
           style="fill:#fc8e44" />
        <polygon
           class="cls-4"
           points="311.88,118 302.62,125.97 318.49,135.2 "
           id="polygon180"
           style="fill:#fc8e44" />
        <polygon
           class="cls-4"
           points="321.35,106.24 314.21,116.16 331.8,121.41 "
           id="polygon181"
           style="fill:#fc8e44" />
        <polygon
           class="cls-4"
           points="327.7,92.22 323.01,103.5 341.34,104.6 "
           id="polygon182"
           style="fill:#fc8e44" />
        <polygon
           class="cls-4"
           points="330.44,78.15 328.25,90.18 346.39,87.38 "
           id="polygon183"
           style="fill:#fc8e44" />
        <path
           class="cls-2"
           d="m 200.82,106.16 c -2.56,-3.43 -4.55,-6.92 -5.91,-10.36 l 0.7,-0.28 c 1.34,3.38 3.29,6.81 5.81,10.19 z"
           id="path183"
           style="fill:#110d39" />
        <path
           class="cls-2"
           d="m 209.7,117.83 c -2.61,-2.63 -5.1,-5.55 -7.61,-8.94 l 0.6,-0.45 c 2.49,3.36 4.95,6.26 7.54,8.86 z"
           id="path184"
           style="fill:#110d39" />
        <path
           class="cls-2"
           d="m 221.06,127.35 c -5.02,-3.11 -9.06,-7.12 -9.1,-7.16 l 0.53,-0.53 c 0,0 4.02,3.99 8.96,7.06 l -0.39,0.64 z"
           id="path185"
           style="fill:#110d39" />
        <path
           class="cls-2"
           d="m 235.85,135.06 c -6.12,-2.39 -10.47,-4.89 -10.52,-4.92 l 0.38,-0.65 c 0,0 4.35,2.5 10.41,4.87 z"
           id="path186"
           style="fill:#110d39" />
        <path
           class="cls-2"
           d="m 252,139.19 c -6.34,-0.82 -11.28,-2.37 -11.33,-2.38 l 0.23,-0.71 c 0,0 4.92,1.54 11.2,2.36 l -0.1,0.74 z"
           id="path187"
           style="fill:#110d39" />
        <path
           class="cls-2"
           d="m 262.1,139.85 c -2.92,0 -4.86,-0.14 -4.89,-0.15 l 0.06,-0.75 c 0.05,0 5.15,0.38 11.27,-0.1 l 0.06,0.75 c -2.4,0.19 -4.65,0.25 -6.5,0.25 z"
           id="path188"
           style="fill:#110d39" />
        <path
           class="cls-2"
           d="m 273.22,139.04 -0.13,-0.74 c 0.07,-0.01 6.56,-1.16 11.15,-2.6 l 0.22,0.72 c -4.64,1.45 -11.18,2.61 -11.24,2.62 z"
           id="path189"
           style="fill:#110d39" />
        <path
           class="cls-2"
           d="m 288.99,134.8 -0.28,-0.69 c 3.96,-1.62 7.3,-3.27 10.21,-5.06 l 0.39,0.64 c -2.95,1.8 -6.33,3.48 -10.32,5.11 z"
           id="path190"
           style="fill:#110d39" />
        <path
           class="cls-2"
           d="m 303.93,126.89 -0.47,-0.59 c 3.13,-2.49 6.01,-5.02 8.56,-7.51 l 0.52,0.54 c -2.57,2.51 -5.47,5.05 -8.62,7.56 z"
           id="path191"
           style="fill:#110d39" />
        <path
           class="cls-2"
           d="m 315.08,116.57 -0.58,-0.48 c 2.07,-2.51 4.42,-5.68 6.99,-9.42 l 0.62,0.42 c -2.58,3.76 -4.95,6.95 -7.03,9.47 z"
           id="path192"
           style="fill:#110d39" />
        <path
           class="cls-2"
           d="m 324.12,103.71 -0.67,-0.33 c 1.72,-3.49 3.22,-7.12 4.45,-10.79 l 0.71,0.24 c -1.24,3.7 -2.75,7.36 -4.49,10.88 z"
           id="path193"
           style="fill:#110d39" />
        <path
           class="cls-2"
           d="m 329.24,90.18 -0.72,-0.21 c 1.01,-3.49 1.76,-7.35 2.23,-11.47 l 0.75,0.09 c -0.47,4.16 -1.23,8.06 -2.25,11.59 z"
           id="path194"
           style="fill:#110d39" />
      </g>
    </g>
  </g>
  <metadata
     id="metadata1">
    <rdf:RDF>
      <cc:Work
         rdf:about="">
        <dc:creator>
          <cc:Agent>
            <dc:title>1812</dc:title>
          </cc:Agent>
        </dc:creator>
      </cc:Work>
    </rdf:RDF>
  </metadata>
</svg>
