<?xml version="1.0" encoding="UTF-8" standalone="no"?>
<!-- Created with Inkscape (http://www.inkscape.org/) -->

<svg
   width="150"
   height="200"
   viewBox="0 0 150 200"
   version="1.1"
   id="svg1"
   inkscape:version="1.3.2 (091e20e, 2023-11-25, custom)"
   sodipodi:docname="4.svg"
   xmlns:inkscape="http://www.inkscape.org/namespaces/inkscape"
   xmlns:sodipodi="http://sodipodi.sourceforge.net/DTD/sodipodi-0.dtd"
   xmlns="http://www.w3.org/2000/svg"
   xmlns:svg="http://www.w3.org/2000/svg"
   xmlns:rdf="http://www.w3.org/1999/02/22-rdf-syntax-ns#"
   xmlns:cc="http://creativecommons.org/ns#"
   xmlns:dc="http://purl.org/dc/elements/1.1/">
  <sodipodi:namedview
     id="namedview1"
     pagecolor="#000000"
     bordercolor="#eeeeee"
     borderopacity="1"
     inkscape:showpageshadow="false"
     inkscape:pageopacity="0"
     inkscape:pagecheckerboard="false"
     inkscape:deskcolor="#121212"
     inkscape:document-units="px"
     showgrid="false"
     inkscape:zoom="3.1466252"
     inkscape:cx="66.738168"
     inkscape:cy="108.84677"
     inkscape:window-width="1360"
     inkscape:window-height="697"
     inkscape:window-x="-8"
     inkscape:window-y="-8"
     inkscape:window-maximized="1"
     inkscape:current-layer="g86">
    <inkscape:grid
       id="grid1"
       units="px"
       originx="480"
       originy="270"
       spacingx="1"
       spacingy="1"
       empcolor="#0099e5"
       empopacity="0.69803922"
       color="#4d4d4d"
       opacity="0.69803922"
       empspacing="5"
       dotted="false"
       gridanglex="30"
       gridanglez="30"
       visible="false" />
  </sodipodi:namedview>
  <defs
     id="defs1" />
  <g
     inkscape:label="Capa 1"
     inkscape:groupmode="layer"
     id="layer1">
    <g
       id="g116"
       transform="matrix(0.9,0,0,0.9,-282.65008,-214.86012)">
      <g
         id="g48">
        <path
           class="cls-1"
           d="m 434.78,330.36 c 0,0 -2.72,-6.35 1.24,-5.18 3.96,1.17 3.14,5.35 3.14,5.35 l 7.74,10.05 c 0,0 4.29,-3.49 5.94,0.55 1.66,4.04 -4.63,5.59 -4.63,5.59 0,0 -2.16,6.1 -5.32,3.94 -3.16,-2.17 -0.18,-6.42 -0.18,-6.42 l -6.91,-9.31 c 0,0 -3.48,1.9 -4.54,-1.41 -1.06,-3.31 3.52,-3.16 3.52,-3.16 z"
           id="path47"
           style="fill:#ffffff" />
        <path
           class="cls-1"
           d="m 450.49,349.69 c -1.28,-0.61 -2.97,0.79 -3.64,2.21 -0.67,1.43 -0.19,4.31 0.98,4.44 1.52,0.12 2.83,-0.9 3.45,-2.47 0.62,-1.58 0.14,-3.82 -0.79,-4.18 z"
           id="path48"
           style="fill:#ffffff" />
      </g>
      <path
         class="cls-1"
         d="m 438.73,294.02 c -1.01,-12.08 -14.94,-15.63 -26.17,-15.48 -11.23,0.14 -24.66,3.67 -26.27,16.98 -1.61,13.31 16.99,17.65 16.99,17.65 0,0 -0.45,6.32 2.42,6.7 2.87,0.38 3.35,-7.03 3.35,-7.03 0,0 0.72,7.39 4.79,7.16 4.07,-0.23 4.19,-7.74 4.19,-7.74 0,0 0.52,7.47 4.57,6.7 4.05,-0.77 1.38,-7.23 1.38,-7.23 0,0 15.75,-5.63 14.74,-17.71 z m -31.12,8.83 c -4.22,3.17 -15.6,-4.87 -8.4,-10.01 7.2,-5.14 12.62,6.85 8.4,10.01 z m 8.98,5.65 c -1.32,0.57 -3.51,-2.02 -3.51,-2.02 0,0 -1.89,2.89 -3.1,2.1 -1.2,-0.79 0.89,-6.46 2.84,-6.57 1.95,-0.11 5.09,5.93 3.76,6.5 z m 2.18,-5.72 c -3.84,-2.25 -0.45,-12.8 6.07,-9.18 6.52,3.62 -2.23,11.43 -6.07,9.18 z"
         id="path49"
         style="fill:#ffffff" />
      <path
         class="cls-1"
         d="m 389.79,343.93 c 2.63,-5.08 15.1,-4.41 20.13,3 v 4.23 c -16.31,-7.86 -21.07,-1.88 -18.16,4.89 0.22,-6.82 11.27,-3.71 18.16,0.89 0,0 -0.29,4.54 0,5.49 0.29,0.95 6.98,0.86 7.19,0 0.21,-0.86 0,-5.49 0,-5.49 6.89,-4.6 17.94,-7.71 18.16,-0.89 2.9,-6.78 -1.85,-12.75 -18.16,-4.89 v -4.23 c 5.02,-7.41 17.49,-8.08 20.13,-3 1.96,-8.23 -8.56,-10.01 -20.13,-5.15 v -3.56 c 4.19,-4.32 11.04,-7.24 15.2,-5.11 -1.08,-5.1 -11.23,-4.41 -15.55,-0.09 0,0 -0.38,-2.31 -0.83,-2.8 -0.45,-0.49 -4.28,-0.63 -4.82,0 -0.54,0.63 -0.83,2.8 -0.83,2.8 -4.32,-4.32 -14.48,-5.01 -15.55,0.09 4.16,-2.12 11.01,0.8 15.2,5.11 v 3.56 c -11.56,-4.85 -22.09,-3.08 -20.13,5.15 z"
         id="path50"
         style="fill:#ffffff" />
      <path
         class="cls-1"
         d="m 429.79,366.94 c -3.8,-0.96 -9.9,1 -16.27,1.04 -6.38,0.04 -12.47,-2 -16.27,-1.04 -3.8,0.96 -6,5.1 -6,8.01 0,2.91 8.17,11.82 11.14,12.68 2.96,0.85 6.51,-2.71 11.14,-2.82 4.63,-0.11 8.17,3.67 11.14,2.82 2.96,-0.85 11.14,-9.77 11.14,-12.68 0,-2.91 -2.21,-7.04 -6,-8.01 z m -25.81,12.94 c -1.39,0.42 -6.92,-2.2 -7.48,-3.59 -0.56,-1.39 0.33,-4.7 2.39,-5.17 2.06,-0.47 7.48,5.11 7.39,5.89 -0.08,0.78 -0.92,2.45 -2.31,2.86 z m 26.55,-3.58 c -0.56,1.39 -6.09,4 -7.48,3.59 -1.39,-0.42 -2.22,-2.08 -2.31,-2.86 -0.08,-0.78 5.34,-6.37 7.39,-5.89 2.06,0.47 2.95,3.78 2.39,5.17 z"
         id="path51"
         style="fill:#ffffff" />
      <g
         id="g56">
        <path
           class="cls-1"
           d="m 443.12,417.4 c 0,0 -2.76,-5.46 -6.11,-2.46 -3.35,3 1.52,6.29 1.52,6.29 l -3.26,12.37 c 0,0 -5.84,-1.43 -5.58,3.31 0.26,4.74 7.16,3.34 7.16,3.34 0,0 4.97,4.98 7.06,1.38 2.09,-3.6 -2.82,-6.39 -2.82,-6.39 l 3.18,-12.16 c 0,0 5.71,-0.83 5.2,-4.57 -0.5,-3.74 -6.35,-1.1 -6.35,-1.1 z"
           id="path52"
           style="fill:#ffffff" />
        <path
           class="cls-1"
           d="m 431.16,388.03 c 0,0 -0.85,-7.41 3.12,-5.3 3.97,2.11 1.66,7.13 1.66,7.13 l 6.05,12.39 c 0,0 5.33,-2.78 6.21,1.88 0.88,4.66 -6.15,4.95 -6.15,4.95 0,0 -3.63,6.03 -6.52,3.03 -2.89,-2.99 1.21,-6.88 1.21,-6.88 l -5.33,-11.42 c 0,0 -4.12,1.26 -4.53,-2.49 -0.41,-3.76 4.29,-3.29 4.29,-3.29 z"
           id="path53"
           style="fill:#ffffff" />
        <g
           id="g55">
          <path
             class="cls-1"
             d="m 434.53,444.15 c 3.02,-0.21 3.7,2.97 3.54,4.02 -0.37,2.03 -9.14,1.1 -10.1,-0.37 -0.96,-1.47 3.54,-3.43 6.56,-3.64 z"
             id="path54"
             style="fill:#ffffff" />
          <path
             class="cls-1"
             d="m 440.42,444.22 c 1.89,-0.62 20.95,2.43 20.6,4.43 -0.36,2 -18.73,0.46 -19.78,0 -1.04,-0.46 -2.71,-3.81 -0.82,-4.43 z"
             id="path55"
             style="fill:#ffffff" />
        </g>
        <path
           class="cls-1"
           d="m 441.42,412.81 c -0.09,1.32 1.7,2.3 3.17,2.39 1.46,0.09 3.8,-1.31 3.51,-2.37 -0.42,-1.36 -1.75,-2.14 -3.33,-2.14 -1.58,0 -3.35,1.19 -3.35,2.12 z"
           id="path56"
           style="fill:#ffffff" />
      </g>
      <g
         id="g61">
        <path
           class="cls-1"
           d="m 382.91,417.4 c 0,0 2.76,-5.46 6.11,-2.46 3.35,3 -1.52,6.29 -1.52,6.29 l 3.26,12.37 c 0,0 5.84,-1.43 5.58,3.31 -0.26,4.74 -7.16,3.34 -7.16,3.34 0,0 -4.97,4.98 -7.06,1.38 -2.09,-3.6 2.82,-6.39 2.82,-6.39 l -3.18,-12.16 c 0,0 -5.71,-0.83 -5.2,-4.57 0.5,-3.74 6.35,-1.1 6.35,-1.1 z"
           id="path57"
           style="fill:#ffffff" />
        <path
           class="cls-1"
           d="m 394.87,388.03 c 0,0 0.85,-7.41 -3.12,-5.3 -3.97,2.11 -1.66,7.13 -1.66,7.13 l -6.05,12.39 c 0,0 -5.33,-2.78 -6.21,1.88 -0.88,4.66 6.15,4.95 6.15,4.95 0,0 3.63,6.03 6.52,3.03 2.89,-2.99 -1.21,-6.88 -1.21,-6.88 l 5.33,-11.42 c 0,0 4.12,1.26 4.53,-2.49 0.41,-3.76 -4.29,-3.29 -4.29,-3.29 z"
           id="path58"
           style="fill:#ffffff" />
        <g
           id="g60">
          <path
             class="cls-1"
             d="m 391.5,444.15 c -3.02,-0.21 -3.7,2.97 -3.54,4.02 0.37,2.03 9.14,1.1 10.1,-0.37 0.96,-1.47 -3.54,-3.43 -6.56,-3.64 z"
             id="path59"
             style="fill:#ffffff" />
          <path
             class="cls-1"
             d="m 385.61,444.22 c -1.89,-0.62 -20.95,2.43 -20.6,4.43 0.36,2 18.73,0.46 19.78,0 1.04,-0.46 2.71,-3.81 0.82,-4.43 z"
             id="path60"
             style="fill:#ffffff" />
        </g>
        <path
           class="cls-1"
           d="m 384.61,412.81 c 0.09,1.32 -1.7,2.3 -3.17,2.39 -1.46,0.09 -3.8,-1.31 -3.51,-2.37 0.42,-1.36 1.75,-2.14 3.33,-2.14 1.58,0 3.35,1.19 3.35,2.12 z"
           id="path61"
           style="fill:#ffffff" />
      </g>
      <g
         id="g81">
        <path
           class="cls-1"
           d="m 390.22,330.4 c 0,0 0.53,-6.84 -3.04,-4.77 -3.58,2.07 -1.29,6.61 -1.29,6.61 l -5.15,11.59 c 0,0 -4.99,-2.38 -5.65,1.94 -0.66,4.32 5.82,4.35 5.82,4.35 0,0 3.54,5.42 6.1,2.57 2.56,-2.85 -1.34,-6.28 -1.34,-6.28 l 4.52,-10.68 c 0,0 3.83,1.02 4.08,-2.44 0.25,-3.47 -4.05,-2.88 -4.05,-2.88 z"
           id="path62"
           style="fill:#ffffff" />
        <path
           class="cls-1"
           d="m 374.78,355.72 c 0,0 5.56,0.88 3.88,4.66 -1.68,3.78 -5.94,0.44 -5.94,0.44 l -9.91,6.34 c 0,0 2.9,4.71 -1.33,5.82 -4.22,1.11 -4.94,-5.33 -4.94,-5.33 0,0 -5.76,-2.95 -3.2,-5.79 2.56,-2.85 6.39,0.67 6.39,0.67 l 9.76,-6.21 c 0,0 -0.88,-5.23 2.54,-5.84 3.42,-0.61 2.75,5.25 2.75,5.25 z"
           id="path63"
           style="fill:#ffffff" />
        <path
           class="cls-1"
           d="m 376.08,352.21 c -0.6,1.05 0.49,2.58 1.67,3.25 1.18,0.67 3.67,0.43 3.85,-0.56 0.2,-1.29 -0.59,-2.47 -1.9,-3.1 -1.31,-0.63 -3.25,-0.35 -3.62,0.42 z"
           id="path64"
           style="fill:#ffffff" />
        <g
           id="g80">
          <path
             class="cls-1"
             d="m 347.59,372.3 c 0.27,0.65 0.44,1.34 0.65,2.01 0.22,0.69 0.52,1.39 1.34,1.46 0.36,0.03 0.72,-0.06 1.06,-0.16 0.89,-0.26 1.76,-0.59 2.54,-1.09 1.34,-0.85 2.4,-2.18 2.26,-3.84 -0.17,-1.94 -1.8,-2.69 -3.52,-2.93 -1.15,-0.16 -2.36,-0.23 -3.51,-0.09 -0.94,0.11 -1.61,0.64 -1.67,1.63 -0.06,1.03 0.38,1.96 0.78,2.87 0.02,0.04 0.04,0.09 0.06,0.13 z"
             id="path65"
             style="fill:#ffffff" />
          <g
             id="g68">
            <path
               class="cls-1"
               d="m 346.63,372.7 c -0.04,-0.22 -0.09,-0.46 -0.27,-0.58 -0.16,-0.1 -0.37,-0.08 -0.55,-0.05 -0.44,0.08 -0.86,0.23 -1.26,0.43 -0.16,0.08 -0.32,0.18 -0.42,0.33 -0.17,0.27 -0.07,0.63 0.03,0.93 0.02,0.06 0.04,0.12 0.09,0.16 0.04,0.04 0.1,0.05 0.16,0.07 0.31,0.06 0.62,0.03 0.93,-0.01 0.29,-0.04 0.58,-0.1 0.83,-0.24 0.45,-0.25 0.54,-0.59 0.46,-1.05 z"
               id="path66"
               style="fill:#ffffff" />
            <path
               class="cls-1"
               d="m 343.6,373.59 c -0.04,-0.22 -0.09,-0.46 -0.27,-0.58 -0.16,-0.1 -0.37,-0.08 -0.55,-0.05 -0.44,0.08 -0.86,0.23 -1.26,0.43 -0.16,0.08 -0.32,0.18 -0.42,0.33 -0.17,0.27 -0.07,0.63 0.03,0.93 0.02,0.06 0.04,0.12 0.09,0.16 0.04,0.04 0.1,0.05 0.16,0.07 0.31,0.06 0.62,0.03 0.93,-0.01 0.29,-0.04 0.58,-0.1 0.83,-0.24 0.45,-0.25 0.54,-0.59 0.46,-1.05 z"
               id="path67"
               style="fill:#ffffff" />
            <path
               class="cls-1"
               d="m 340.44,374.38 c -0.01,-0.15 -0.03,-0.32 -0.15,-0.41 -0.1,-0.08 -0.25,-0.08 -0.38,-0.06 -0.31,0.03 -0.61,0.11 -0.89,0.22 -0.12,0.05 -0.23,0.1 -0.31,0.2 -0.13,0.18 -0.09,0.43 -0.03,0.64 0.01,0.04 0.02,0.09 0.05,0.12 0.03,0.03 0.07,0.04 0.11,0.05 0.21,0.06 0.42,0.06 0.64,0.05 0.2,-0.01 0.4,-0.03 0.58,-0.11 0.32,-0.14 0.4,-0.37 0.38,-0.69 z"
               id="path68"
               style="fill:#ffffff" />
          </g>
          <g
             id="g71">
            <path
               class="cls-1"
               d="m 345.92,370.28 c 0,-0.2 -0.03,-0.43 -0.19,-0.56 -0.13,-0.11 -0.32,-0.11 -0.5,-0.1 -0.41,0.03 -0.81,0.12 -1.2,0.27 -0.16,0.06 -0.32,0.13 -0.42,0.26 -0.18,0.23 -0.13,0.57 -0.07,0.86 0.01,0.06 0.03,0.12 0.06,0.16 0.04,0.04 0.09,0.06 0.14,0.08 0.27,0.09 0.56,0.09 0.85,0.08 0.27,0 0.54,-0.03 0.78,-0.13 0.43,-0.18 0.55,-0.48 0.53,-0.91 z"
               id="path69"
               style="fill:#ffffff" />
            <path
               class="cls-1"
               d="m 343.06,370.78 c 0,-0.2 -0.03,-0.43 -0.19,-0.56 -0.13,-0.11 -0.33,-0.11 -0.5,-0.1 -0.41,0.03 -0.81,0.12 -1.2,0.27 -0.16,0.06 -0.32,0.13 -0.42,0.26 -0.18,0.23 -0.13,0.57 -0.07,0.86 0.01,0.06 0.03,0.12 0.06,0.16 0.04,0.04 0.09,0.06 0.14,0.08 0.27,0.09 0.56,0.09 0.85,0.08 0.27,0 0.54,-0.03 0.78,-0.13 0.43,-0.18 0.55,-0.48 0.53,-0.91 z"
               id="path70"
               style="fill:#ffffff" />
            <path
               class="cls-1"
               d="m 340.09,371.18 c 0,-0.14 0,-0.3 -0.09,-0.39 -0.09,-0.08 -0.22,-0.1 -0.34,-0.1 -0.28,0 -0.57,0.04 -0.84,0.11 -0.11,0.03 -0.22,0.07 -0.3,0.15 -0.14,0.15 -0.12,0.38 -0.1,0.58 0,0.04 0.01,0.08 0.03,0.11 0.02,0.03 0.06,0.05 0.09,0.06 0.18,0.08 0.38,0.1 0.58,0.11 0.18,0.01 0.37,0.01 0.55,-0.04 0.31,-0.1 0.41,-0.3 0.42,-0.6 z"
               id="path71"
               style="fill:#ffffff" />
          </g>
          <g
             id="g74">
            <path
               class="cls-1"
               d="m 347.4,375.09 c -0.05,-0.18 -0.11,-0.39 -0.28,-0.48 -0.15,-0.08 -0.32,-0.04 -0.48,0 -0.37,0.11 -0.73,0.27 -1.06,0.48 -0.13,0.08 -0.27,0.18 -0.34,0.32 -0.12,0.25 -0.01,0.55 0.1,0.81 0.02,0.05 0.05,0.1 0.09,0.14 0.04,0.03 0.09,0.04 0.14,0.04 0.27,0.03 0.54,-0.02 0.8,-0.09 0.24,-0.06 0.49,-0.13 0.7,-0.27 0.37,-0.25 0.42,-0.55 0.32,-0.95 z"
               id="path72"
               style="fill:#ffffff" />
            <path
               class="cls-1"
               d="m 344.85,376.1 c -0.05,-0.18 -0.11,-0.39 -0.28,-0.48 -0.15,-0.08 -0.32,-0.04 -0.48,0 -0.37,0.11 -0.73,0.27 -1.06,0.48 -0.13,0.08 -0.27,0.18 -0.34,0.32 -0.12,0.25 -0.01,0.55 0.1,0.81 0.02,0.05 0.05,0.1 0.09,0.14 0.04,0.03 0.09,0.04 0.14,0.04 0.27,0.03 0.54,-0.02 0.8,-0.09 0.24,-0.06 0.49,-0.13 0.7,-0.27 0.37,-0.25 0.42,-0.55 0.32,-0.95 z"
               id="path73"
               style="fill:#ffffff" />
            <path
               class="cls-1"
               d="m 342.18,377.04 c -0.02,-0.13 -0.05,-0.27 -0.16,-0.35 -0.1,-0.06 -0.22,-0.05 -0.33,-0.03 -0.26,0.05 -0.52,0.14 -0.75,0.26 -0.1,0.05 -0.19,0.11 -0.25,0.2 -0.1,0.17 -0.04,0.38 0.02,0.56 0.01,0.04 0.03,0.07 0.05,0.1 0.03,0.02 0.06,0.03 0.1,0.04 0.18,0.03 0.37,0.02 0.56,-0.01 0.17,-0.03 0.35,-0.06 0.5,-0.15 0.27,-0.15 0.32,-0.35 0.27,-0.63 z"
               id="path74"
               style="fill:#ffffff" />
          </g>
          <g
             id="g77">
            <path
               class="cls-1"
               d="m 349.1,376.7 c -0.07,-0.14 -0.15,-0.29 -0.3,-0.33 -0.13,-0.04 -0.26,0.02 -0.37,0.09 -0.27,0.15 -0.52,0.34 -0.74,0.55 -0.09,0.09 -0.18,0.19 -0.21,0.31 -0.05,0.22 0.09,0.43 0.22,0.61 0.03,0.04 0.05,0.07 0.09,0.09 0.04,0.02 0.08,0.01 0.12,0 0.21,-0.03 0.42,-0.11 0.61,-0.21 0.18,-0.09 0.36,-0.19 0.5,-0.33 0.24,-0.26 0.23,-0.5 0.08,-0.8 z"
               id="path75"
               style="fill:#ffffff" />
            <path
               class="cls-1"
               d="m 347.28,377.93 c -0.07,-0.14 -0.15,-0.29 -0.3,-0.33 -0.13,-0.04 -0.26,0.02 -0.37,0.09 -0.27,0.15 -0.52,0.34 -0.74,0.55 -0.09,0.09 -0.18,0.19 -0.21,0.31 -0.05,0.22 0.09,0.43 0.22,0.61 0.03,0.04 0.05,0.07 0.09,0.09 0.04,0.02 0.08,0.01 0.12,0 0.21,-0.03 0.42,-0.11 0.61,-0.21 0.18,-0.09 0.36,-0.19 0.5,-0.33 0.24,-0.26 0.23,-0.5 0.08,-0.8 z"
               id="path76"
               style="fill:#ffffff" />
            <path
               class="cls-1"
               d="m 345.36,379.13 c -0.04,-0.1 -0.09,-0.21 -0.19,-0.24 -0.09,-0.03 -0.18,0 -0.26,0.04 -0.2,0.09 -0.38,0.2 -0.54,0.34 -0.07,0.06 -0.13,0.12 -0.16,0.2 -0.05,0.15 0.03,0.3 0.11,0.43 0.02,0.03 0.03,0.05 0.06,0.07 0.02,0.01 0.05,0.01 0.08,0.01 0.15,0 0.29,-0.05 0.43,-0.11 0.13,-0.05 0.26,-0.11 0.36,-0.2 0.18,-0.16 0.19,-0.33 0.1,-0.54 z"
               id="path77"
               style="fill:#ffffff" />
          </g>
          <g
             id="g79">
            <path
               class="cls-1"
               d="m 346.27,366.39 c -0.38,-0.07 -0.76,-0.07 -1.14,0 -0.15,0.02 -0.32,0.06 -0.44,0.18 -0.22,0.21 -0.25,0.6 -0.26,0.93 0,0.07 0,0.14 0.02,0.19 0.02,0.05 0.07,0.09 0.11,0.12 0.23,0.16 0.49,0.25 0.75,0.31 0.24,0.06 0.49,0.1 0.74,0.05 0.43,-0.09 0.61,-0.39 0.69,-0.88 0.04,-0.23 0.07,-0.48 -0.04,-0.67 -0.1,-0.16 -0.27,-0.21 -0.43,-0.24 z"
               id="path78"
               style="fill:#ffffff" />
            <path
               class="cls-1"
               d="m 343.69,366.32 c -0.25,-0.07 -0.52,-0.1 -0.78,-0.09 -0.11,0 -0.22,0.02 -0.31,0.09 -0.16,0.13 -0.2,0.39 -0.22,0.62 0,0.05 0,0.09 0,0.14 0.01,0.04 0.04,0.07 0.07,0.09 0.15,0.13 0.32,0.2 0.5,0.27 0.16,0.06 0.33,0.11 0.5,0.09 0.3,-0.03 0.44,-0.23 0.52,-0.56 0.04,-0.15 0.07,-0.33 0,-0.46 -0.06,-0.12 -0.17,-0.16 -0.28,-0.19 z"
               id="path79"
               style="fill:#ffffff" />
          </g>
        </g>
      </g>
      <g
         id="g86">
        <path
           class="cls-4"
           d="m 338.25,250.78 c -13.23,5.77 -15.28,26.59 -11.54,39.66 2.81,9.82 12.93,14.2 22.54,12.06 6.2,-1.38 11.99,-5.65 14.77,-11.42 3.06,-6.35 4.72,-13.53 3.8,-20.59 -1.39,-10.66 -9.07,-20.48 -20.26,-21.19 -3.58,-0.23 -6.67,0.33 -9.31,1.48 z"
           id="path81"
           style="fill:#fc8e44" />
        <path
           class="cls-2"
           d="m 343.11,253.19 -0.12,-0.74 c 1.41,-0.23 2.91,-0.3 4.47,-0.2 0.38,0.02 0.75,0.06 1.12,0.11 l -0.1,0.74 c -0.35,-0.04 -0.71,-0.08 -1.07,-0.1 -1.5,-0.1 -2.95,-0.03 -4.3,0.19 z"
           id="path82"
           style="fill:#110d39" />
        <path
           class="cls-2"
           d="m 360.56,260.5 c -1.97,-2.69 -4.5,-4.78 -7.3,-6.05 l 0.31,-0.68 c 2.92,1.32 5.55,3.5 7.6,6.29 l -0.6,0.44 z"
           id="path83"
           style="fill:#110d39" />
        <path
           class="cls-2"
           d="m 363.85,266.95 c -0.39,-1.19 -0.87,-2.35 -1.44,-3.45 l 0.67,-0.34 c 0.58,1.14 1.08,2.33 1.48,3.56 z"
           id="path84"
           style="fill:#110d39" />
        <path
           class="cls-4"
           d="m 342.24,301.24 c 0,0 -3.15,6.64 -2.35,7.81 0.8,1.18 8.61,1.22 9.6,0.56 0.99,-0.66 -2.31,-8.38 -2.31,-8.38 h -4.94 z"
           id="path85"
           style="fill:#fc8e44" />
        <g
           id="g1"
           inkscape:label="rop"
           style="fill:#696969">
          <rect
             class="cls-3"
             x="344.32999"
             y="298.69"
             width="0.75"
             height="100.39"
             id="rect81"
             style="fill:#696969" />
          <rect
             class="cls-3"
             x="346.17999"
             y="302.91"
             width="0.75"
             height="14.95"
             id="rect85"
             style="fill:#696969" />
          <rect
             class="cls-2"
             x="341.34"
             y="302.54001"
             width="6.6999998"
             height="0.75"
             id="rect86"
             style="fill:#696969" />
          <path
             class="cls-3"
             d="m 349.38,315.25 c -2.66,-3.49 -2.29,-12.12 -2.27,-12.49 l 0.75,0.03 c 0,0.09 -0.37,8.73 2.12,12 l -0.6,0.45 z"
             id="path86"
             style="fill:#696969" />
        </g>
      </g>
      <g
         id="g97">
        <path
           class="cls-4"
           d="m 435.66,370.85 c -1.35,1.26 -42.65,1.26 -44.33,0 -1.68,-1.26 0,-41.14 0,-41.14 h 44.33 c 0,0 1.35,39.88 0,41.14 z"
           id="path87"
           style="fill:#fc8e44" />
        <path
           class="cls-4"
           d="m 436.89,336.82 c -0.63,0.82 -46.18,0.61 -46.78,0 -0.6,-0.61 -0.49,-6.55 0,-7.11 0.49,-0.56 46.22,-0.64 46.78,0 0.56,0.64 0.63,6.29 0,7.11 z"
           id="path88"
           style="fill:#fc8e44" />
        <path
           class="cls-2"
           d="m 412.29,337.6 c -7.41,0 -14.42,-0.13 -20.97,-0.4 l 0.03,-0.75 c 13.08,0.53 27.99,0.53 44.3,0 l 0.03,0.75 c -8.16,0.27 -15.97,0.4 -23.38,0.4 z"
           id="path89"
           style="fill:#110d39" />
        <rect
           class="cls-2"
           x="399.12"
           y="329.70999"
           width="0.75"
           height="7.1100001"
           id="rect89"
           style="fill:#110d39" />
        <path
           class="cls-2"
           d="m 397.94,371.55 c -0.65,-10.82 -0.65,-22.84 0,-34.75 l 0.75,0.04 c -0.65,11.89 -0.65,23.87 0,34.66 l -0.75,0.04 z"
           id="path90"
           style="fill:#110d39" />
        <path
           class="cls-4"
           d="m 406.55,329.64 c 0,0 -0.29,-2.45 5.52,-3.08 5.81,-0.63 5.81,3.08 5.81,3.08 z"
           id="path91"
           style="fill:#fc8e44" />
        <path
           class="cls-4"
           d="m 411.52,328.07 c -0.12,-0.48 -5.97,-8.19 -8.6,-7.04 -2.63,1.16 -1.63,11.7 -1.63,11.7 l 10.24,-4.66 z"
           id="path92"
           style="fill:#fc8e44" />
        <path
           class="cls-4"
           d="m 413.99,328.07 c 0.12,-0.48 5.97,-8.19 8.6,-7.04 2.63,1.16 1.63,11.7 1.63,11.7 l -10.24,-4.66 z"
           id="path93"
           style="fill:#fc8e44" />
        <rect
           class="cls-2"
           x="401.10001"
           y="328.88"
           width="23.309999"
           height="0.75"
           id="rect93"
           style="fill:#110d39" />
        <path
           class="cls-2"
           d="m 409.8,329.28 -0.75,-0.03 c 0.09,-1.97 1.37,-2.72 1.43,-2.75 l 0.37,0.65 -0.18,-0.33 0.19,0.32 c 0,0 -0.98,0.6 -1.05,2.13 z"
           id="path94"
           style="fill:#110d39" />
        <path
           class="cls-2"
           d="m 415.76,329.28 c -0.07,-1.67 -1.02,-2.29 -1.06,-2.32 l 0.39,-0.64 c 0.05,0.03 1.33,0.83 1.42,2.92 l -0.75,0.03 z"
           id="path95"
           style="fill:#110d39" />
        <path
           class="cls-2"
           d="m 409.17,328.06 c -1.65,-1.54 -3.48,-2.65 -5.44,-3.32 l 0.24,-0.71 c 2.06,0.7 3.99,1.87 5.71,3.48 z"
           id="path96"
           style="fill:#110d39" />
        <path
           class="cls-2"
           d="m 415.93,328.07 -0.48,-0.58 c 1.68,-1.39 3.55,-2.43 5.56,-3.07 l 0.23,0.71 c -1.92,0.61 -3.7,1.6 -5.31,2.94 z"
           id="path97"
           style="fill:#110d39" />
      </g>
      <g
         id="g115">
        <path
           class="cls-1"
           d="m 421.65,354.33 c 0,0 -4.82,2.91 -1.84,5.77 2.98,2.87 5.67,-1.83 5.67,-1.83 l 11.56,2.15 c 0,0 -0.91,5.45 3.42,4.89 4.33,-0.56 2.57,-6.79 2.57,-6.79 0,0 4.23,-4.9 0.79,-6.57 -3.44,-1.67 -5.67,3.02 -5.67,3.02 l -11.38,-2.09 c 0,0 -1.15,-5.18 -4.55,-4.46 -3.4,0.72 -0.58,5.9 -0.58,5.9 z"
           id="path98"
           style="fill:#ffffff" />
        <g
           id="g114">
          <path
             class="cls-1"
             d="m 412.05,350.29 c -0.39,0.59 -0.88,1.11 -1.32,1.65 -0.45,0.56 -0.88,1.2 -0.48,1.93 0.17,0.32 0.44,0.57 0.72,0.8 0.7,0.6 1.46,1.14 2.31,1.52 1.44,0.65 3.14,0.8 4.45,-0.23 1.53,-1.21 1.26,-2.98 0.5,-4.55 -0.51,-1.05 -1.1,-2.09 -1.86,-2.99 -0.61,-0.72 -1.42,-0.99 -2.28,-0.5 -0.89,0.51 -1.43,1.39 -1.96,2.24 -0.03,0.04 -0.05,0.08 -0.08,0.12 z"
             id="path99"
             style="fill:#ffffff" />
          <g
             id="g102">
            <path
               class="cls-1"
               d="m 411.19,349.71 c 0.16,-0.15 0.33,-0.32 0.33,-0.54 0,-0.19 -0.13,-0.35 -0.26,-0.49 -0.31,-0.32 -0.67,-0.59 -1.05,-0.81 -0.16,-0.09 -0.33,-0.17 -0.51,-0.17 -0.32,0 -0.56,0.28 -0.76,0.54 -0.04,0.05 -0.08,0.1 -0.09,0.16 0,0.06 0.01,0.12 0.03,0.17 0.12,0.29 0.32,0.53 0.52,0.77 0.19,0.22 0.4,0.43 0.65,0.56 0.45,0.24 0.78,0.13 1.13,-0.19 z"
               id="path100"
               style="fill:#ffffff" />
            <path
               class="cls-1"
               d="m 408.78,347.67 c 0.16,-0.15 0.33,-0.32 0.33,-0.54 0,-0.19 -0.13,-0.35 -0.26,-0.49 -0.31,-0.32 -0.67,-0.59 -1.05,-0.81 -0.16,-0.09 -0.33,-0.17 -0.51,-0.17 -0.32,0 -0.56,0.28 -0.76,0.54 -0.04,0.05 -0.08,0.1 -0.09,0.16 0,0.06 0.01,0.12 0.03,0.17 0.12,0.29 0.32,0.53 0.52,0.77 0.19,0.22 0.4,0.43 0.65,0.56 0.45,0.24 0.78,0.13 1.13,-0.19 z"
               id="path101"
               style="fill:#ffffff" />
            <path
               class="cls-1"
               d="m 406.39,345.47 c 0.12,-0.09 0.25,-0.2 0.26,-0.35 0.01,-0.13 -0.07,-0.25 -0.15,-0.35 -0.2,-0.24 -0.42,-0.45 -0.68,-0.62 -0.1,-0.07 -0.21,-0.14 -0.34,-0.15 -0.22,-0.01 -0.4,0.16 -0.55,0.32 -0.03,0.03 -0.06,0.07 -0.07,0.11 0,0.04 0,0.08 0.01,0.12 0.06,0.2 0.19,0.39 0.31,0.56 0.12,0.16 0.25,0.32 0.42,0.43 0.3,0.19 0.53,0.13 0.79,-0.06 z"
               id="path102"
               style="fill:#ffffff" />
          </g>
          <g
             id="g105">
            <path
               class="cls-1"
               d="m 412.82,347.78 c 0.16,-0.12 0.34,-0.26 0.36,-0.46 0.02,-0.17 -0.08,-0.33 -0.19,-0.47 -0.25,-0.32 -0.55,-0.61 -0.88,-0.85 -0.13,-0.1 -0.28,-0.19 -0.45,-0.21 -0.3,-0.02 -0.54,0.2 -0.75,0.41 -0.04,0.04 -0.08,0.09 -0.1,0.14 -0.01,0.05 0,0.11 0.01,0.16 0.08,0.27 0.23,0.52 0.4,0.75 0.15,0.22 0.32,0.43 0.54,0.58 0.39,0.26 0.71,0.2 1.06,-0.06 z"
               id="path103"
               style="fill:#ffffff" />
            <path
               class="cls-1"
               d="m 410.83,345.67 c 0.16,-0.12 0.34,-0.26 0.36,-0.46 0.02,-0.17 -0.08,-0.33 -0.19,-0.47 -0.25,-0.32 -0.55,-0.61 -0.88,-0.85 -0.13,-0.1 -0.28,-0.19 -0.45,-0.21 -0.3,-0.02 -0.54,0.2 -0.75,0.41 -0.04,0.04 -0.08,0.09 -0.1,0.14 -0.01,0.05 0,0.11 0.01,0.16 0.08,0.27 0.23,0.52 0.4,0.75 0.15,0.22 0.32,0.43 0.54,0.58 0.39,0.26 0.71,0.2 1.06,-0.06 z"
               id="path104"
               style="fill:#ffffff" />
            <path
               class="cls-1"
               d="m 408.86,343.42 c 0.12,-0.07 0.25,-0.16 0.28,-0.3 0.02,-0.12 -0.04,-0.23 -0.1,-0.34 -0.15,-0.24 -0.34,-0.45 -0.55,-0.64 -0.09,-0.08 -0.18,-0.15 -0.3,-0.17 -0.2,-0.03 -0.39,0.11 -0.54,0.24 -0.03,0.03 -0.06,0.05 -0.08,0.09 -0.01,0.03 0,0.07 0,0.11 0.04,0.19 0.13,0.37 0.23,0.54 0.09,0.16 0.19,0.32 0.34,0.43 0.25,0.2 0.47,0.18 0.73,0.02 z"
               id="path105"
               style="fill:#ffffff" />
          </g>
          <g
             id="g108">
            <path
               class="cls-1"
               d="m 409.62,351.66 c 0.13,-0.14 0.26,-0.31 0.25,-0.5 -0.02,-0.16 -0.14,-0.29 -0.27,-0.4 -0.3,-0.25 -0.63,-0.46 -0.98,-0.62 -0.14,-0.06 -0.3,-0.12 -0.45,-0.1 -0.28,0.03 -0.47,0.29 -0.62,0.53 -0.03,0.05 -0.06,0.09 -0.06,0.15 0,0.05 0.02,0.1 0.04,0.14 0.13,0.24 0.32,0.44 0.51,0.62 0.18,0.17 0.38,0.34 0.61,0.43 0.41,0.17 0.69,0.05 0.97,-0.26 z"
               id="path106"
               style="fill:#ffffff" />
            <path
               class="cls-1"
               d="m 407.37,350.09 c 0.13,-0.14 0.26,-0.31 0.25,-0.5 -0.02,-0.16 -0.14,-0.29 -0.27,-0.4 -0.3,-0.25 -0.63,-0.46 -0.98,-0.62 -0.14,-0.07 -0.3,-0.12 -0.45,-0.1 -0.28,0.03 -0.47,0.29 -0.62,0.53 -0.03,0.05 -0.06,0.09 -0.06,0.15 0,0.05 0.02,0.1 0.04,0.14 0.13,0.24 0.32,0.44 0.51,0.62 0.18,0.17 0.38,0.34 0.61,0.43 0.41,0.17 0.69,0.05 0.97,-0.26 z"
               id="path107"
               style="fill:#ffffff" />
            <path
               class="cls-1"
               d="m 405.12,348.38 c 0.1,-0.09 0.2,-0.2 0.2,-0.33 0,-0.11 -0.08,-0.21 -0.16,-0.29 -0.19,-0.19 -0.4,-0.35 -0.64,-0.48 -0.09,-0.05 -0.2,-0.1 -0.31,-0.1 -0.19,0 -0.34,0.17 -0.46,0.33 -0.02,0.03 -0.05,0.06 -0.05,0.1 0,0.03 0,0.07 0.02,0.1 0.07,0.17 0.19,0.32 0.32,0.46 0.12,0.13 0.24,0.26 0.39,0.33 0.27,0.14 0.47,0.07 0.68,-0.12 z"
               id="path108"
               style="fill:#ffffff" />
          </g>
          <g
             id="g111">
            <path
               class="cls-1"
               d="m 409.21,353.97 c 0.08,-0.13 0.15,-0.29 0.11,-0.43 -0.04,-0.13 -0.16,-0.2 -0.28,-0.27 -0.27,-0.14 -0.57,-0.25 -0.87,-0.31 -0.12,-0.03 -0.25,-0.04 -0.37,0 -0.21,0.07 -0.31,0.31 -0.39,0.52 -0.02,0.04 -0.03,0.08 -0.02,0.13 0,0.04 0.03,0.07 0.06,0.11 0.14,0.17 0.32,0.29 0.51,0.4 0.17,0.1 0.36,0.2 0.55,0.23 0.35,0.06 0.55,-0.08 0.71,-0.37 z"
               id="path109"
               style="fill:#ffffff" />
            <path
               class="cls-1"
               d="m 407.18,353.13 c 0.08,-0.13 0.15,-0.29 0.11,-0.43 -0.04,-0.13 -0.16,-0.2 -0.28,-0.27 -0.27,-0.14 -0.57,-0.25 -0.87,-0.31 -0.12,-0.03 -0.25,-0.04 -0.37,0 -0.21,0.07 -0.31,0.31 -0.39,0.52 -0.02,0.04 -0.03,0.08 -0.02,0.13 0,0.04 0.03,0.07 0.06,0.11 0.14,0.17 0.32,0.29 0.51,0.4 0.17,0.1 0.36,0.2 0.55,0.23 0.35,0.06 0.55,-0.08 0.71,-0.37 z"
               id="path110"
               style="fill:#ffffff" />
            <path
               class="cls-1"
               d="m 405.12,352.18 c 0.06,-0.09 0.12,-0.19 0.1,-0.29 -0.02,-0.09 -0.1,-0.15 -0.18,-0.2 -0.18,-0.12 -0.38,-0.21 -0.58,-0.27 -0.08,-0.03 -0.17,-0.05 -0.26,-0.02 -0.15,0.04 -0.23,0.19 -0.3,0.33 -0.01,0.03 -0.03,0.06 -0.02,0.09 0,0.03 0.02,0.05 0.03,0.08 0.09,0.12 0.21,0.22 0.33,0.3 0.11,0.08 0.23,0.16 0.37,0.19 0.24,0.06 0.38,-0.03 0.51,-0.21 z"
               id="path111"
               style="fill:#ffffff" />
          </g>
          <g
             id="g113">
            <path
               class="cls-1"
               d="m 416.26,345.93 c -0.15,-0.35 -0.36,-0.68 -0.62,-0.96 -0.11,-0.12 -0.23,-0.23 -0.39,-0.26 -0.3,-0.07 -0.64,0.12 -0.92,0.3 -0.06,0.03 -0.12,0.07 -0.15,0.12 -0.03,0.05 -0.04,0.1 -0.04,0.16 -0.01,0.28 0.06,0.54 0.15,0.8 0.08,0.23 0.18,0.47 0.36,0.65 0.31,0.31 0.67,0.29 1.12,0.09 0.21,-0.09 0.44,-0.21 0.53,-0.4 0.08,-0.17 0.03,-0.34 -0.04,-0.49 z"
               id="path112"
               style="fill:#ffffff" />
            <path
               class="cls-1"
               d="m 414.9,343.74 c -0.08,-0.25 -0.2,-0.49 -0.36,-0.7 -0.06,-0.09 -0.14,-0.17 -0.25,-0.21 -0.2,-0.06 -0.44,0.05 -0.64,0.16 -0.04,0.02 -0.08,0.04 -0.11,0.08 -0.02,0.03 -0.03,0.07 -0.04,0.11 -0.03,0.19 0,0.38 0.05,0.56 0.04,0.17 0.09,0.34 0.2,0.47 0.19,0.24 0.43,0.24 0.75,0.13 0.15,-0.05 0.31,-0.12 0.39,-0.25 0.06,-0.11 0.04,-0.23 0,-0.34 z"
               id="path113"
               style="fill:#ffffff" />
          </g>
        </g>
      </g>
    </g>
  </g>
  <metadata
     id="metadata1">
    <rdf:RDF>
      <cc:Work
         rdf:about="">
        <dc:creator>
          <cc:Agent>
            <dc:title>1812</dc:title>
          </cc:Agent>
        </dc:creator>
      </cc:Work>
    </rdf:RDF>
  </metadata>
</svg>
