<?xml version="1.0" encoding="UTF-8" standalone="no"?>
<!-- Created with Inkscape (http://www.inkscape.org/) -->

<svg
   width="150"
   height="200"
   viewBox="0 0 150 200"
   version="1.1"
   id="svg1"
   inkscape:version="1.3.2 (091e20e, 2023-11-25, custom)"
   sodipodi:docname="5.svg"
   xmlns:inkscape="http://www.inkscape.org/namespaces/inkscape"
   xmlns:sodipodi="http://sodipodi.sourceforge.net/DTD/sodipodi-0.dtd"
   xmlns="http://www.w3.org/2000/svg"
   xmlns:svg="http://www.w3.org/2000/svg"
   xmlns:rdf="http://www.w3.org/1999/02/22-rdf-syntax-ns#"
   xmlns:cc="http://creativecommons.org/ns#"
   xmlns:dc="http://purl.org/dc/elements/1.1/">
  <sodipodi:namedview
     id="namedview1"
     pagecolor="#000000"
     bordercolor="#eeeeee"
     borderopacity="1"
     inkscape:showpageshadow="false"
     inkscape:pageopacity="0"
     inkscape:pagecheckerboard="false"
     inkscape:deskcolor="#121212"
     inkscape:document-units="px"
     showgrid="false"
     inkscape:zoom="1.3999704"
     inkscape:cx="62.144171"
     inkscape:cy="83.930346"
     inkscape:window-width="1360"
     inkscape:window-height="697"
     inkscape:window-x="-8"
     inkscape:window-y="-8"
     inkscape:window-maximized="1"
     inkscape:current-layer="layer1">
    <inkscape:grid
       id="grid1"
       units="px"
       originx="480"
       originy="270"
       spacingx="1"
       spacingy="1"
       empcolor="#0099e5"
       empopacity="0.69803922"
       color="#4d4d4d"
       opacity="0.69803922"
       empspacing="5"
       dotted="false"
       gridanglex="30"
       gridanglez="30"
       visible="false" />
  </sodipodi:namedview>
  <defs
     id="defs1" />
  <g
     inkscape:label="Capa 1"
     inkscape:groupmode="layer"
     id="layer1">
    <g
       id="g47"
       transform="translate(-166.40612,-258.93633)">
      <path
         class="cls-1"
         d="m 266.45,288.21 c -4.5,-11.26 -18.86,-10.58 -29.55,-7.16 -10.69,3.42 -22.51,10.71 -20.16,23.92 2.35,13.2 21.4,11.92 21.4,11.92 0,0 1.42,6.18 4.27,5.7 2.85,-0.47 1.15,-7.7 1.15,-7.7 0,0 2.85,6.86 6.67,5.45 3.83,-1.41 1.74,-8.62 1.74,-8.62 0,0 2.68,6.99 6.33,5.07 3.65,-1.92 -0.79,-7.32 -0.79,-7.32 0,0 13.42,-9.99 8.92,-21.24 z m -27.19,17.54 c -3.11,4.26 -16.34,-0.1 -10.96,-7.12 5.39,-7.03 14.07,2.86 10.96,7.12 z m 10.24,2.78 c -1.1,0.93 -3.95,-0.91 -3.95,-0.91 0,0 -0.96,3.32 -2.35,2.91 -1.38,-0.41 -1.04,-6.44 0.8,-7.12 1.83,-0.68 6.6,4.18 5.5,5.11 z m 0.42,-6.11 c -4.33,-1.03 -4.17,-12.11 3.12,-10.55 7.29,1.56 1.2,11.58 -3.12,10.55 z"
         id="path1"
         style="fill:#ffffff" />
      <path
         class="cls-1"
         d="m 222.53,343.72 c 2.63,-5.08 15.1,-4.41 20.13,3 v 4.23 c -16.31,-7.86 -21.07,-1.88 -18.16,4.89 0.22,-6.82 11.27,-3.71 18.16,0.89 0,0 -0.29,4.54 0,5.49 0.29,0.95 6.98,0.86 7.19,0 0.21,-0.86 0,-5.49 0,-5.49 6.89,-4.6 17.94,-7.71 18.16,-0.89 2.9,-6.78 -1.85,-12.75 -18.16,-4.89 v -4.23 c 5.02,-7.41 17.49,-8.08 20.13,-3 1.96,-8.23 -8.56,-10.01 -20.13,-5.15 v -3.56 c 4.19,-4.32 11.04,-7.24 15.2,-5.11 -1.08,-5.1 -11.23,-4.41 -15.55,-0.09 0,0 -0.38,-2.31 -0.83,-2.8 -0.45,-0.49 -4.28,-0.63 -4.82,0 -0.54,0.63 -0.83,2.8 -0.83,2.8 -4.32,-4.32 -14.48,-5.01 -15.55,0.09 4.16,-2.12 11.01,0.8 15.2,5.11 v 3.56 c -11.56,-4.85 -22.09,-3.08 -20.13,5.15 z"
         id="path2"
         style="fill:#ffffff" />
      <path
         class="cls-1"
         d="m 262.52,366.73 c -3.8,-0.96 -9.9,1 -16.27,1.04 -6.38,0.04 -12.47,-2 -16.27,-1.04 -3.8,0.96 -6,5.1 -6,8.01 0,2.91 8.17,11.82 11.14,12.68 2.96,0.85 6.51,-2.71 11.14,-2.82 4.63,-0.11 8.17,3.67 11.14,2.82 2.96,-0.85 11.14,-9.77 11.14,-12.68 0,-2.91 -2.21,-7.04 -6,-8.01 z m -25.8,12.94 c -1.39,0.42 -6.92,-2.2 -7.48,-3.59 -0.56,-1.39 0.33,-4.7 2.39,-5.17 2.06,-0.47 7.48,5.11 7.39,5.89 -0.09,0.78 -0.92,2.45 -2.31,2.86 z m 26.55,-3.58 c -0.56,1.39 -6.09,4 -7.48,3.59 -1.39,-0.42 -2.22,-2.08 -2.31,-2.86 -0.08,-0.78 5.34,-6.37 7.39,-5.89 2.06,0.47 2.95,3.78 2.39,5.17 z"
         id="path3"
         style="fill:#ffffff" />
      <g
         id="g8">
        <path
           class="cls-1"
           d="m 225.78,385.22 c 0,0 0.58,-6.05 -3.41,-4.96 -3.99,1.1 -1.25,5.64 -1.25,5.64 l -7.93,9.9 c 0,0 -4.22,-3.57 -5.95,0.44 -1.73,4.01 4.52,5.68 4.52,5.68 0,0 2.05,6.14 5.24,4.04 3.2,-2.11 0.3,-6.42 0.3,-6.42 l 7.09,-9.18 c 0,0 3.45,1.96 4.57,-1.33 1.12,-3.29 -3.19,-3.81 -3.19,-3.81 z"
           id="path4"
           style="fill:#ffffff" />
        <path
           class="cls-1"
           d="m 215.7,412.32 c 0,0 -5.55,0.95 -3.82,4.7 1.73,3.75 5.94,0.37 5.94,0.37 l 9.98,6.22 c 0,0 -2.84,4.74 1.4,5.8 4.24,1.06 4.87,-5.38 4.87,-5.38 0,0 5.73,-3.01 3.13,-5.83 -2.6,-2.82 -6.38,0.74 -6.38,0.74 l -9.83,-6.09 c 0,0 0.82,-5.24 -2.61,-5.81 -3.43,-0.57 -2.69,5.28 -2.69,5.28 z"
           id="path5"
           style="fill:#ffffff" />
        <g
           id="g7">
          <path
             class="cls-1"
             d="m 235.91,425.61 c -1.67,2.23 0.46,4.34 1.35,4.74 1.76,0.72 5.4,-6.52 4.74,-8 -0.66,-1.48 -4.41,1.03 -6.08,3.27 z"
             id="path6"
             style="fill:#ffffff" />
          <path
             class="cls-1"
             d="m 233.03,430.2 c -1.42,1.16 -8.55,17.42 -6.82,18.14 1.73,0.72 9.68,-14.26 9.84,-15.3 0.16,-1.04 -1.6,-4 -3.02,-2.84 z"
             id="path7"
             style="fill:#ffffff" />
        </g>
        <path
           class="cls-1"
           d="m 210.94,405.16 c -1.52,0 -2.52,1.9 -2.53,3.39 0,1.49 1.76,3.75 2.95,3.38 1.53,-0.53 2.34,-1.94 2.23,-3.54 -0.11,-1.6 -1.59,-3.31 -2.66,-3.23 z"
           id="path8"
           style="fill:#ffffff" />
      </g>
      <g
         id="g13">
        <path
           class="cls-1"
           d="m 262.99,420.34 c 0,0 -3.8,-4.15 -6.02,-0.67 -2.22,3.48 2.91,5.2 2.91,5.2 l 0.17,11.76 c 0,0 -5.53,0.18 -4.13,4.31 1.4,4.14 7.16,1.19 7.16,1.19 0,0 5.63,3.19 6.6,-0.52 0.96,-3.71 -4.08,-4.97 -4.08,-4.97 l -0.19,-11.56 c 0,0 4.85,-2.14 3.48,-5.34 -1.37,-3.19 -5.9,0.59 -5.9,0.59 z"
           id="path9"
           style="fill:#ffffff" />
        <path
           class="cls-1"
           d="m 263.19,390.01 c 0,0 2.67,-6.32 4.89,-2.84 2.22,3.48 -1.89,6.46 -1.89,6.46 l -0.75,12.66 c 0,0 5.53,0.18 4.13,4.31 -1.4,4.14 -7.16,1.19 -7.16,1.19 0,0 -5.63,3.19 -6.6,-0.52 -0.96,-3.71 4.08,-4.97 4.08,-4.97 l 0.89,-11.56 c 0,0 -3.87,-0.85 -2.5,-4.05 1.37,-3.19 4.92,-0.69 4.92,-0.69 z"
           id="path10"
           style="fill:#ffffff" />
        <g
           id="g12">
          <path
             class="cls-1"
             d="m 261.28,444.8 c 2.78,-0.2 3.4,2.73 3.26,3.69 -0.34,1.87 -8.41,1.01 -9.29,-0.34 -0.88,-1.35 3.26,-3.15 6.04,-3.35 z"
             id="path11"
             style="fill:#ffffff" />
          <path
             class="cls-1"
             d="m 266.7,444.87 c 1.74,-0.57 19.27,2.23 18.95,4.07 -0.33,1.84 -17.23,0.43 -18.19,0 -0.96,-0.43 -2.5,-3.51 -0.76,-4.07 z"
             id="path12"
             style="fill:#ffffff" />
        </g>
        <path
           class="cls-1"
           d="m 259.66,415.55 c -0.09,1.21 1.56,2.11 2.91,2.2 1.35,0.09 3.49,-1.21 3.23,-2.18 -0.38,-1.25 -1.61,-1.97 -3.06,-1.97 -1.45,0 -3.08,1.09 -3.08,1.95 z"
           id="path13"
           style="fill:#ffffff" />
      </g>
      <g
         id="g30">
        <path
           class="cls-1"
           d="m 224.98,329.47 c 0,0 6.32,2.68 2.83,4.9 -3.49,2.22 -6.46,-1.9 -6.46,-1.9 l -12.66,-0.77 c 0,0 -0.19,5.53 -4.32,4.12 -4.13,-1.41 -1.18,-7.17 -1.18,-7.17 0,0 -3.18,-5.64 0.53,-6.6 3.71,-0.96 4.96,4.08 4.96,4.08 l 11.56,0.91 c 0,0 0.86,-3.87 4.05,-2.5 3.19,1.38 0.69,4.92 0.69,4.92 z"
           id="path14"
           style="fill:#ffffff" />
        <path
           class="cls-1"
           d="m 195.7,325.03 c 0,0 -0.93,5.55 -4.69,3.84 -3.76,-1.71 -0.39,-5.94 -0.39,-5.94 l -6.26,-9.96 c 0,0 -4.73,2.86 -5.81,-1.38 -1.07,-4.23 5.37,-4.89 5.37,-4.89 0,0 2.99,-5.74 5.82,-3.15 2.82,2.59 -0.72,6.38 -0.72,6.38 l 6.13,9.81 c 0,0 5.24,-0.84 5.82,2.59 0.58,3.43 -5.27,2.71 -5.27,2.71 z"
           id="path15"
           style="fill:#ffffff" />
        <path
           class="cls-1"
           d="m 197.75,332.34 c -1.18,-0.28 -1.54,-2.13 -1.22,-3.44 0.32,-1.31 2.2,-2.97 3.05,-2.42 1.08,0.74 1.4,2.13 0.96,3.51 -0.44,1.38 -1.97,2.61 -2.78,2.35 z"
           id="path16"
           style="fill:#ffffff" />
        <g
           id="g29">
          <g
             id="g20">
            <path
               class="cls-1"
               d="m 176.91,301.04 c -0.11,0.7 -0.33,1.37 -0.5,2.06 -0.18,0.7 -0.29,1.45 0.37,1.95 0.29,0.22 0.64,0.33 0.99,0.43 0.89,0.25 1.81,0.42 2.73,0.41 1.58,-0.02 3.19,-0.59 3.94,-2.08 0.88,-1.74 -0.11,-3.24 -1.45,-4.34 -0.9,-0.74 -1.88,-1.44 -2.94,-1.93 -0.86,-0.4 -1.7,-0.3 -2.27,0.5 -0.6,0.84 -0.71,1.86 -0.84,2.85 0,0.05 -0.01,0.1 -0.02,0.14 z"
               id="path17"
               style="fill:#ffffff" />
            <g
               id="g19">
              <path
                 class="cls-1"
                 d="m 175.88,305.57 c 0.01,-0.15 0.02,-0.32 -0.08,-0.44 -0.09,-0.1 -0.23,-0.12 -0.36,-0.12 -0.31,-0.02 -0.62,0.01 -0.92,0.08 -0.12,0.03 -0.25,0.07 -0.34,0.15 -0.16,0.16 -0.15,0.41 -0.14,0.64 0,0.04 0,0.09 0.03,0.13 0.02,0.03 0.06,0.05 0.1,0.07 0.2,0.09 0.41,0.12 0.63,0.15 0.2,0.02 0.41,0.03 0.6,-0.02 0.34,-0.09 0.46,-0.31 0.49,-0.63 z"
                 id="path18"
                 style="fill:#ffffff" />
              <path
                 class="cls-1"
                 d="m 173.68,305.67 c 0.01,-0.15 0.02,-0.32 -0.08,-0.44 -0.09,-0.1 -0.23,-0.12 -0.36,-0.12 -0.31,-0.02 -0.62,0.01 -0.92,0.08 -0.12,0.03 -0.25,0.07 -0.34,0.15 -0.16,0.16 -0.15,0.41 -0.14,0.64 0,0.04 0,0.09 0.03,0.13 0.02,0.03 0.06,0.05 0.1,0.07 0.2,0.09 0.41,0.12 0.63,0.15 0.2,0.02 0.41,0.03 0.6,-0.02 0.34,-0.09 0.46,-0.31 0.49,-0.63 z"
                 id="path19"
                 style="fill:#ffffff" />
            </g>
          </g>
          <g
             id="g23">
            <path
               class="cls-4"
               d="m 189.55,283.03 c 1.17,-4.95 -1.89,-9.91 -6.83,-11.08 -4.95,-1.17 -9.91,1.89 -11.08,6.83 -0.45,1.9 -0.28,3.79 0.39,5.48 0,0 0,0.01 0,0.02 0.08,0.22 0.18,0.44 0.29,0.67 0.15,0.31 0.32,0.61 0.51,0.91 1.24,2.04 3.1,4.34 2.49,6.8 -0.53,2.14 -2.69,6.28 -4,8.67 -1.36,2.49 -0.13,5.66 2.59,6.46 0.1,0.03 0.21,0.06 0.32,0.08 0.11,0.03 0.22,0.05 0.32,0.07 2.74,0.5 5.2,-1.75 5.11,-4.53 -0.09,-2.71 -0.17,-7.47 0.32,-9.64 0.51,-2.25 2.78,-3.46 4.71,-4.61 2.36,-1.17 4.2,-3.35 4.86,-6.12 z"
               id="path20"
               style="fill:#fc8e44" />
            <path
               class="cls-1"
               d="m 189.78,280.37 c -0.08,-1.35 -0.45,-2.64 -1.07,-3.8 -3.93,0.27 -10.57,-1.27 -13.42,-3.18 -1.07,0.76 -1.99,1.74 -2.66,2.91 2.87,2.13 11.37,4.55 17.15,4.07 z"
               id="path21"
               style="fill:#ffffff" />
            <path
               class="cls-1"
               d="m 172.03,284.28 c 0.03,0.09 0.07,0.19 0.12,0.29 1.87,2.13 11.03,4.43 14.34,3.4 0.66,-0.55 1.25,-1.2 1.74,-1.92 -4.5,1.01 -14.48,-1.9 -16.76,-3.98 0.1,0.76 0.28,1.49 0.56,2.19 0,0 0,0.01 0,0.02 z"
               id="path22"
               style="fill:#ffffff" />
            <path
               class="cls-2"
               d="m 188.18,282.53 c -5.05,0 -14.77,-2.5 -16.53,-4.48 l 0.56,-0.5 c 1.84,2.07 13.63,4.83 17.51,4.12 l 0.14,0.74 c -0.46,0.09 -1.03,0.13 -1.67,0.13 z"
               id="path23"
               style="fill:#110d39" />
          </g>
          <g
             id="g25">
            <path
               class="cls-1"
               d="m 179.93,297.39 c -0.4,-0.3 -0.84,-0.52 -1.31,-0.67 -0.19,-0.06 -0.4,-0.11 -0.61,-0.04 -0.38,0.12 -0.63,0.54 -0.84,0.93 -0.04,0.08 -0.08,0.15 -0.09,0.24 0,0.08 0.02,0.14 0.06,0.2 0.17,0.32 0.42,0.57 0.68,0.79 0.25,0.21 0.51,0.41 0.82,0.49 0.55,0.15 0.93,-0.1 1.31,-0.62 0.18,-0.24 0.36,-0.52 0.34,-0.79 -0.02,-0.24 -0.19,-0.4 -0.36,-0.52 z"
               id="path24"
               style="fill:#ffffff" />
            <path
               class="cls-1"
               d="m 176.98,295.82 c -0.25,-0.23 -0.54,-0.42 -0.85,-0.56 -0.13,-0.06 -0.27,-0.1 -0.41,-0.07 -0.26,0.06 -0.46,0.34 -0.62,0.59 -0.03,0.05 -0.06,0.1 -0.07,0.16 0,0.05 0,0.1 0.03,0.14 0.09,0.24 0.25,0.42 0.42,0.6 0.15,0.16 0.32,0.32 0.53,0.4 0.37,0.14 0.64,0 0.92,-0.34 0.13,-0.16 0.27,-0.34 0.27,-0.53 0,-0.17 -0.11,-0.29 -0.21,-0.39 z"
               id="path25"
               style="fill:#ffffff" />
          </g>
          <path
             class="cls-1"
             d="m 173.71,299.05 c 0.07,-0.13 0.14,-0.29 0.09,-0.43 -0.04,-0.12 -0.17,-0.2 -0.29,-0.25 -0.28,-0.13 -0.57,-0.23 -0.87,-0.28 -0.12,-0.02 -0.25,-0.04 -0.37,0.01 -0.21,0.08 -0.3,0.32 -0.37,0.53 -0.01,0.04 -0.03,0.08 -0.02,0.13 0,0.04 0.03,0.07 0.06,0.1 0.14,0.16 0.33,0.27 0.52,0.38 0.18,0.1 0.36,0.18 0.56,0.21 0.35,0.05 0.54,-0.1 0.69,-0.39 z"
             id="path26"
             style="fill:#ffffff" />
          <path
             class="cls-1"
             d="m 174.22,297.67 c 0.08,-0.12 0.16,-0.25 0.13,-0.38 -0.03,-0.12 -0.13,-0.2 -0.23,-0.26 -0.24,-0.15 -0.5,-0.27 -0.77,-0.35 -0.11,-0.03 -0.23,-0.06 -0.34,-0.03 -0.2,0.05 -0.31,0.26 -0.39,0.44 -0.02,0.04 -0.03,0.07 -0.03,0.11 0,0.04 0.02,0.07 0.05,0.1 0.12,0.16 0.27,0.28 0.44,0.4 0.15,0.11 0.31,0.21 0.49,0.25 0.31,0.08 0.5,-0.04 0.67,-0.29 z"
             id="path27"
             style="fill:#ffffff" />
          <path
             class="cls-1"
             d="m 172.88,300.2 c 0.05,-0.12 0.1,-0.26 0.04,-0.38 -0.05,-0.1 -0.16,-0.16 -0.27,-0.2 -0.25,-0.09 -0.51,-0.15 -0.78,-0.17 -0.11,0 -0.22,0 -0.32,0.04 -0.17,0.09 -0.23,0.3 -0.28,0.49 0,0.04 -0.02,0.08 0,0.11 0.01,0.03 0.04,0.06 0.06,0.08 0.14,0.13 0.31,0.21 0.48,0.28 0.16,0.07 0.33,0.13 0.5,0.14 0.31,0.01 0.46,-0.13 0.57,-0.39 z"
             id="path28"
             style="fill:#ffffff" />
          <path
             class="cls-1"
             d="m 172.38,301.78 c 0.05,-0.12 0.1,-0.26 0.04,-0.38 -0.05,-0.1 -0.16,-0.16 -0.27,-0.2 -0.25,-0.09 -0.51,-0.15 -0.78,-0.17 -0.11,0 -0.22,0 -0.32,0.04 -0.17,0.09 -0.23,0.3 -0.28,0.49 0,0.04 -0.02,0.08 0,0.11 0.01,0.03 0.04,0.06 0.06,0.08 0.14,0.13 0.31,0.21 0.48,0.28 0.16,0.07 0.33,0.13 0.5,0.14 0.31,0.01 0.46,-0.13 0.57,-0.39 z"
             id="path29"
             style="fill:#ffffff" />
        </g>
      </g>
      <g
         id="g46">
        <g
           id="g32">
          <path
             class="cls-1"
             d="m 271.51,329.6 c 0,0 -6.49,2.23 -3.16,4.69 3.32,2.46 6.58,-1.45 6.58,-1.45 l 12.68,0.12 c 0,0 -0.2,5.53 4.02,4.41 4.22,-1.11 1.67,-7.07 1.67,-7.07 0,0 3.57,-5.4 -0.07,-6.62 -3.63,-1.22 -5.23,3.73 -5.23,3.73 l -11.6,0.1 c 0,0 -0.59,-3.92 -3.86,-2.77 -3.27,1.15 -1.03,4.86 -1.03,4.86 z"
             id="path30"
             style="fill:#ffffff" />
          <path
             class="cls-1"
             d="m 300.82,322.81 c 0,0 3.68,4.26 6,0.84 2.32,-3.42 -2.75,-5.28 -2.75,-5.28 l 0.17,-11.76 c 0,0 5.53,-0.02 4.25,-4.19 -1.28,-4.17 -7.13,-1.39 -7.13,-1.39 0,0 -5.54,-3.35 -6.61,0.33 -1.07,3.68 3.93,5.08 3.93,5.08 L 298.54,318 c 0,0 -4.91,2 -3.63,5.23 1.28,3.23 5.91,-0.42 5.91,-0.42 z"
             id="path31"
             style="fill:#ffffff" />
          <path
             class="cls-1"
             d="m 296.35,331.28 c 1.07,0.92 3.07,0.01 4.09,-1.19 1.02,-1.2 1.31,-4.11 0.21,-4.54 -1.44,-0.51 -2.97,0.13 -3.98,1.49 -1.01,1.36 -1.13,3.65 -0.33,4.24 z"
             id="path32"
             style="fill:#ffffff" />
        </g>
        <g
           id="g45">
          <g
             id="g36">
            <path
               class="cls-1"
               d="m 304.84,291.83 c 0.47,0.53 1.02,0.98 1.53,1.46 0.53,0.49 1.03,1.07 0.74,1.84 -0.13,0.34 -0.36,0.62 -0.6,0.89 -0.62,0.69 -1.3,1.33 -2.08,1.82 -1.34,0.84 -3.01,1.22 -4.44,0.37 -1.68,-0.99 -1.65,-2.79 -1.11,-4.44 0.36,-1.11 0.81,-2.22 1.44,-3.21 0.51,-0.8 1.27,-1.17 2.19,-0.8 0.95,0.39 1.6,1.19 2.25,1.95 0.03,0.04 0.06,0.07 0.09,0.11 z"
               id="path33"
               style="fill:#ffffff" />
            <g
               id="g35">
              <path
                 class="cls-1"
                 d="m 308.14,295.09 c -0.09,-0.12 -0.19,-0.26 -0.16,-0.41 0.02,-0.13 0.13,-0.22 0.24,-0.3 0.25,-0.18 0.53,-0.32 0.82,-0.43 0.12,-0.04 0.25,-0.08 0.37,-0.05 0.22,0.05 0.35,0.26 0.46,0.46 0.02,0.04 0.04,0.08 0.04,0.12 0,0.04 -0.02,0.08 -0.04,0.11 -0.12,0.18 -0.28,0.33 -0.45,0.46 -0.16,0.12 -0.33,0.24 -0.52,0.31 -0.34,0.11 -0.55,0 -0.75,-0.27 z"
                 id="path34"
                 style="fill:#ffffff" />
              <path
                 class="cls-1"
                 d="m 310.04,293.99 c -0.09,-0.12 -0.19,-0.26 -0.16,-0.41 0.02,-0.13 0.13,-0.22 0.24,-0.3 0.25,-0.18 0.53,-0.32 0.82,-0.43 0.12,-0.04 0.25,-0.08 0.37,-0.05 0.22,0.05 0.35,0.26 0.46,0.46 0.02,0.04 0.04,0.08 0.04,0.12 0,0.04 -0.02,0.08 -0.04,0.11 -0.12,0.18 -0.28,0.33 -0.45,0.46 -0.16,0.12 -0.33,0.24 -0.52,0.31 -0.34,0.11 -0.55,0 -0.75,-0.27 z"
                 id="path35"
                 style="fill:#ffffff" />
            </g>
          </g>
          <g
             id="g39">
            <path
               class="cls-4"
               d="m 284.49,283.45 c -3.65,-3.54 -3.74,-9.36 -0.2,-13.01 3.54,-3.65 9.36,-3.74 13.01,-0.2 1.4,1.36 2.27,3.05 2.62,4.83 0,0 0,0.01 0,0.02 0.05,0.23 0.08,0.47 0.11,0.72 0.04,0.35 0.06,0.69 0.06,1.04 0.05,2.39 -0.28,5.33 1.56,7.07 1.6,1.52 5.65,3.85 8.04,5.16 2.48,1.37 3.16,4.7 1.3,6.84 -0.07,0.08 -0.15,0.16 -0.22,0.24 -0.08,0.08 -0.16,0.16 -0.24,0.23 -2.04,1.89 -5.33,1.32 -6.74,-1.07 -1.38,-2.33 -3.87,-6.39 -5.46,-7.96 -1.64,-1.62 -4.2,-1.42 -6.45,-1.36 -2.62,0.28 -5.35,-0.56 -7.39,-2.54 z"
               id="path36"
               style="fill:#fc8e44" />
            <path
               class="cls-1"
               d="m 282.86,281.33 c -0.66,-1.18 -1.04,-2.47 -1.14,-3.78 3.46,-1.89 8.23,-6.76 9.6,-9.9 1.31,0.06 2.62,0.4 3.81,1.02 -1.27,3.34 -7.13,9.95 -12.27,12.66 z"
               id="path37"
               style="fill:#ffffff" />
            <path
               class="cls-1"
               d="m 299.93,275.08 c 0.02,0.1 0.04,0.2 0.06,0.3 -0.43,2.8 -6.92,9.67 -10.26,10.58 -0.85,-0.11 -1.7,-0.33 -2.5,-0.68 4.33,-1.57 11.18,-9.39 11.99,-12.37 0.33,0.69 0.57,1.41 0.71,2.15 0,0 0,0.01 0,0.02 z"
               id="path38"
               style="fill:#ffffff" />
            <path
               class="cls-2"
               d="m 283.9,283.08 -0.28,-0.7 c 3.66,-1.48 12.1,-10.16 12.54,-12.89 l 0.74,0.12 c -0.48,2.95 -9.1,11.89 -13,13.47 z"
               id="path39"
               style="fill:#110d39" />
          </g>
          <g
             id="g41">
            <path
               class="cls-1"
               d="m 300.33,290.37 c 0.17,-0.46 0.42,-0.89 0.74,-1.27 0.13,-0.15 0.28,-0.31 0.49,-0.37 0.38,-0.1 0.83,0.12 1.21,0.33 0.07,0.04 0.15,0.09 0.2,0.15 0.04,0.06 0.06,0.13 0.06,0.2 0.03,0.36 -0.05,0.7 -0.15,1.03 -0.09,0.31 -0.21,0.61 -0.43,0.85 -0.39,0.42 -0.84,0.42 -1.43,0.19 -0.28,-0.11 -0.58,-0.24 -0.71,-0.48 -0.11,-0.21 -0.05,-0.44 0.02,-0.63 z"
               id="path40"
               style="fill:#ffffff" />
            <path
               class="cls-1"
               d="m 301.96,287.46 c 0.09,-0.33 0.23,-0.65 0.42,-0.93 0.08,-0.11 0.17,-0.23 0.31,-0.28 0.25,-0.09 0.57,0.04 0.84,0.16 0.05,0.02 0.11,0.05 0.15,0.09 0.03,0.04 0.05,0.09 0.06,0.14 0.05,0.25 0.01,0.49 -0.03,0.73 -0.04,0.22 -0.1,0.44 -0.23,0.62 -0.23,0.32 -0.54,0.34 -0.96,0.21 -0.19,-0.06 -0.41,-0.14 -0.52,-0.3 -0.09,-0.14 -0.07,-0.3 -0.03,-0.44 z"
               id="path41"
               style="fill:#ffffff" />
          </g>
          <path
             class="cls-1"
             d="m 306.46,288.42 c -0.13,-0.08 -0.27,-0.17 -0.31,-0.31 -0.03,-0.13 0.04,-0.26 0.1,-0.37 0.16,-0.26 0.36,-0.5 0.59,-0.71 0.09,-0.08 0.19,-0.17 0.32,-0.19 0.22,-0.04 0.42,0.11 0.59,0.25 0.03,0.03 0.07,0.06 0.08,0.1 0.01,0.04 0,0.08 0,0.12 -0.04,0.21 -0.13,0.41 -0.24,0.6 -0.1,0.17 -0.2,0.35 -0.35,0.48 -0.27,0.23 -0.51,0.2 -0.79,0.04 z"
             id="path42"
             style="fill:#ffffff" />
          <path
             class="cls-1"
             d="m 305.29,287.54 c -0.13,-0.06 -0.27,-0.12 -0.31,-0.26 -0.04,-0.11 0,-0.24 0.06,-0.35 0.12,-0.26 0.28,-0.49 0.46,-0.71 0.08,-0.09 0.16,-0.17 0.27,-0.21 0.2,-0.06 0.4,0.05 0.57,0.16 0.03,0.02 0.07,0.04 0.09,0.08 0.02,0.03 0.02,0.07 0.02,0.11 -0.01,0.2 -0.08,0.39 -0.15,0.57 -0.07,0.17 -0.15,0.34 -0.28,0.47 -0.22,0.24 -0.45,0.24 -0.72,0.12 z"
             id="path43"
             style="fill:#ffffff" />
          <path
             class="cls-1"
             d="m 307.78,288.95 c -0.11,-0.08 -0.22,-0.17 -0.24,-0.3 -0.01,-0.11 0.05,-0.22 0.12,-0.31 0.16,-0.21 0.35,-0.4 0.56,-0.57 0.09,-0.07 0.18,-0.13 0.29,-0.14 0.19,-0.02 0.36,0.13 0.5,0.26 0.03,0.03 0.06,0.05 0.07,0.09 0,0.03 0,0.07 0,0.1 -0.05,0.18 -0.15,0.34 -0.25,0.5 -0.1,0.14 -0.2,0.29 -0.35,0.38 -0.25,0.18 -0.46,0.14 -0.69,-0.03 z"
             id="path44"
             style="fill:#ffffff" />
          <path
             class="cls-1"
             d="m 309.06,290.01 c -0.11,-0.08 -0.22,-0.17 -0.24,-0.3 -0.01,-0.11 0.05,-0.22 0.12,-0.31 0.16,-0.21 0.35,-0.4 0.56,-0.57 0.09,-0.07 0.18,-0.13 0.29,-0.14 0.19,-0.02 0.36,0.13 0.5,0.26 0.03,0.03 0.06,0.05 0.07,0.09 0,0.03 0,0.07 0,0.1 -0.05,0.18 -0.15,0.34 -0.25,0.5 -0.1,0.14 -0.2,0.29 -0.35,0.38 -0.25,0.18 -0.46,0.14 -0.69,-0.03 z"
             id="path45"
             style="fill:#ffffff" />
        </g>
      </g>
    </g>
  </g>
  <metadata
     id="metadata1">
    <rdf:RDF>
      <cc:Work
         rdf:about="">
        <dc:creator>
          <cc:Agent>
            <dc:title>1812</dc:title>
          </cc:Agent>
        </dc:creator>
      </cc:Work>
    </rdf:RDF>
  </metadata>
</svg>
