<?xml version="1.0" encoding="UTF-8" standalone="no"?>
<!-- Created with Inkscape (http://www.inkscape.org/) -->

<svg
   width="150"
   height="200"
   viewBox="0 0 150 200"
   version="1.1"
   id="svg1"
   inkscape:version="1.3.2 (091e20e, 2023-11-25, custom)"
   sodipodi:docname="6.svg"
   xmlns:inkscape="http://www.inkscape.org/namespaces/inkscape"
   xmlns:sodipodi="http://sodipodi.sourceforge.net/DTD/sodipodi-0.dtd"
   xmlns="http://www.w3.org/2000/svg"
   xmlns:svg="http://www.w3.org/2000/svg"
   xmlns:rdf="http://www.w3.org/1999/02/22-rdf-syntax-ns#"
   xmlns:cc="http://creativecommons.org/ns#"
   xmlns:dc="http://purl.org/dc/elements/1.1/">
  <sodipodi:namedview
     id="namedview1"
     pagecolor="#000000"
     bordercolor="#eeeeee"
     borderopacity="1"
     inkscape:showpageshadow="false"
     inkscape:pageopacity="0"
     inkscape:pagecheckerboard="false"
     inkscape:deskcolor="#121212"
     inkscape:document-units="px"
     showgrid="false"
     inkscape:zoom="1.3999704"
     inkscape:cx="62.144171"
     inkscape:cy="83.930346"
     inkscape:window-width="1360"
     inkscape:window-height="697"
     inkscape:window-x="-8"
     inkscape:window-y="-8"
     inkscape:window-maximized="1"
     inkscape:current-layer="layer1">
    <inkscape:grid
       id="grid1"
       units="px"
       originx="480"
       originy="270"
       spacingx="1"
       spacingy="1"
       empcolor="#0099e5"
       empopacity="0.69803922"
       color="#4d4d4d"
       opacity="0.69803922"
       empspacing="5"
       dotted="false"
       gridanglex="30"
       gridanglez="30"
       visible="false" />
  </sodipodi:namedview>
  <defs
     id="defs1" />
  <g
     inkscape:label="Capa 1"
     inkscape:groupmode="layer"
     id="layer1">
    <g
       id="g367"
       transform="matrix(0.9,0,0,0.9,-244.6188,-228.92208)">
      <g
         id="g358">
        <g
           id="g297">
          <path
             class="cls-1"
             d="m 339.37,330.53 c 1.08,-1.52 6.34,-2.25 7.25,-1.33 0.92,0.92 7.76,33.12 6.79,34.28 -0.98,1.16 -7.44,2.89 -8.92,1.57 -1.48,-1.32 -6.2,-33 -5.12,-34.52 z"
             id="path294"
             style="fill:#ffffff" />
          <path
             class="cls-1"
             d="m 317.97,347.86 c -1.12,-1.19 7.23,-12.75 24.94,-15.88 17.71,-3.13 31.7,4.38 31.03,6 -0.67,1.61 -13.29,-1.98 -29.76,1.19 -16.47,3.17 -25.09,9.87 -26.21,8.68 z"
             id="path295"
             style="fill:#ffffff" />
          <path
             class="cls-1"
             d="m 328.47,356.9 c -0.82,-0.98 4.95,-10.19 17.56,-12.42 12.61,-2.23 22.74,4.09 22.29,5.38 -0.45,1.29 -9.54,-1.83 -21.25,0.46 -11.72,2.28 -17.77,7.56 -18.59,6.58 z"
             id="path296"
             style="fill:#ffffff" />
          <path
             class="cls-1"
             d="m 333.69,367.05 c -0.68,-0.82 4.12,-8.49 14.63,-10.35 10.51,-1.85 18.95,3.41 18.57,4.49 -0.38,1.08 -7.95,-1.52 -17.71,0.38 -9.76,1.9 -14.81,6.3 -15.49,5.48 z"
             id="path297"
             style="fill:#ffffff" />
        </g>
        <path
           class="cls-1"
           d="m 365.46,365.12 c -4.86,-3.2 -8.04,1.18 -10.83,3.83 -2.54,2.49 -4.6,2.82 -7.6,1.53 -3.58,-1.49 -8.23,-4.84 -11.8,-0.03 -3.87,5.88 3.58,8.4 5.42,10.8 1.84,2.4 2.75,6.45 6.05,6.52 3.31,0.08 3.16,-4.89 6.17,-5.68 3.1,-0.29 4.66,4.43 7.74,3.22 3.08,-1.2 2.55,-5.31 3.46,-8.2 0.91,-2.89 7.04,-7.8 1.39,-12 z M 344.3,377.7 c -0.52,0.24 -1.14,0.22 -1.69,0.07 -0.6,-0.16 -1.2,-0.42 -1.76,-0.76 -0.91,-0.54 -1.73,-1.28 -2.28,-2.11 -0.52,-0.78 -0.73,-2.12 0.2,-2.7 0.3,-0.19 0.65,-0.27 1,-0.31 1.91,-0.23 3.69,0.69 4.87,2.16 0.97,1.21 1.38,2.88 -0.32,3.65 z m 19.55,-7.26 c -0.23,0.97 -0.75,1.94 -1.42,2.76 -0.42,0.51 -0.89,0.96 -1.4,1.32 -0.47,0.33 -1.04,0.56 -1.61,0.51 -1.86,-0.14 -2.05,-1.85 -1.55,-3.32 0.6,-1.78 1.96,-3.26 3.84,-3.69 0.34,-0.08 0.7,-0.12 1.04,-0.05 1.07,0.23 1.33,1.56 1.11,2.47 z"
           id="path298"
           style="fill:#ffffff" />
        <g
           id="g304">
          <path
             class="cls-1"
             d="m 343.11,413.37 0.03,-18.67 c 1.42,-0.82 3.61,-2.54 1.66,-4.65 -3.25,-3.26 -5.34,0.74 -5.34,0.74 0,0 -2.08,-4 -5.33,-0.76 -2.16,2.31 0.69,4.17 2.03,4.87 l -0.03,18.25 c -1.34,0.7 -4.19,2.55 -2.05,4.87 3.25,3.26 5.34,-0.74 5.34,-0.74 0,0 2.08,4 5.33,0.76 1.96,-2.11 -0.22,-3.84 -1.64,-4.66 z"
             id="path299"
             style="fill:#ffffff" />
          <path
             class="cls-1"
             d="m 340.22,430.5 9.25,16.22 c -0.83,1.41 -1.87,4 0.88,4.86 4.43,1.21 4.26,-3.3 4.26,-3.3 0,0 3.79,2.44 5.01,-1.99 0.72,-3.08 -2.67,-3.28 -4.18,-3.22 l -9.04,-15.85 c 0.82,-1.27 2.37,-4.3 -0.64,-5.24 -4.43,-1.21 -4.26,3.3 -4.26,3.3 0,0 -3.79,-2.44 -5.01,1.99 -0.66,2.8 2.1,3.22 3.74,3.23 z"
             id="path300"
             style="fill:#ffffff" />
          <path
             class="cls-1"
             d="m 341.06,386.9 c 0.76,-1.53 -2.14,-5.72 -4.34,-5.59 -2.2,0.12 -3.11,2.01 -2.51,3.62 0.6,1.61 6.09,3.5 6.85,1.97 z"
             id="path301"
             style="fill:#ffffff" />
          <path
             class="cls-1"
             d="m 337.92,420.22 c 0,0 -0.03,0.03 -0.05,0.04 -0.52,0.46 -0.81,1.2 -0.62,1.87 0.28,0.96 1.49,1.31 2.38,1.15 0.62,-0.12 1.19,-0.53 1.42,-1.12 0.24,-0.6 0.1,-1.29 -0.21,-1.85 -0.61,-1.1 -2.1,-0.78 -2.92,-0.09 z"
             id="path302"
             style="fill:#ffffff" />
          <path
             class="cls-1"
             d="m 356.3,451.39 c -2.9,0.79 -6.65,2.58 -4.45,5.53 0.9,1.22 2.66,1.45 4.06,1.47 1.66,0.03 4.12,0.25 5.47,-0.98 1.26,-1.15 1.08,-3.59 0.6,-5.08 -0.49,-1.49 -2.35,-1.56 -3.65,-1.38 -0.53,0.07 -1.24,0.21 -2.02,0.43 z"
             id="path303"
             style="fill:#ffffff" />
          <path
             class="cls-1"
             d="m 349.28,458.05 c 1.09,-0.48 0.67,-4.27 -1.06,-5.05 -1.73,-0.78 -10.71,1.4 -10.81,3.34 -0.1,1.94 10.78,2.19 11.87,1.71 z"
             id="path304"
             style="fill:#ffffff" />
        </g>
        <g
           id="g310">
          <path
             class="cls-1"
             d="m 396.02,386.93 -18.5,-2.56 c -1.01,1.29 -3.02,3.23 -4.84,0.99 -2.77,-3.67 1.48,-5.18 1.48,-5.18 0,0 -3.68,-2.61 -0.01,-5.39 2.59,-1.81 4.04,1.26 4.54,2.69 l 18.07,2.51 c 0.88,-1.23 3.11,-3.8 5.1,-1.35 2.77,3.67 -1.48,5.18 -1.48,5.18 0,0 3.68,2.61 0.01,5.39 -2.36,1.65 -3.77,-0.75 -4.39,-2.27 z"
             id="path305"
             style="fill:#ffffff" />
          <path
             class="cls-1"
             d="m 410.58,394.03 0.15,18.67 c 1.43,0.81 3.63,2.52 1.69,4.64 -3.22,3.28 -5.34,-0.71 -5.34,-0.71 0,0 -2.05,4.02 -5.33,0.79 -2.17,-2.3 0.66,-4.18 2,-4.89 l -0.15,-18.25 c -1.35,-0.69 -4.21,-2.52 -2.08,-4.85 3.22,-3.28 5.34,0.71 5.34,0.71 0,0 2.05,-4.02 5.33,-0.79 1.98,2.09 -0.2,3.84 -1.61,4.67 z"
             id="path306"
             style="fill:#ffffff" />
          <path
             class="cls-1"
             d="m 370,383.92 c -1.7,0.2 -4.65,-3.96 -3.78,-5.98 0.86,-2.02 2.95,-2.24 4.26,-1.13 1.31,1.11 1.22,6.91 -0.48,7.11 z"
             id="path307"
             style="fill:#ffffff" />
          <path
             class="cls-1"
             d="m 404.79,383.75 c 0,0 0.04,-0.02 0.06,-0.03 0.61,-0.33 1.41,-0.36 1.96,0.05 0.81,0.59 0.73,1.84 0.27,2.63 -0.32,0.54 -0.9,0.94 -1.53,0.96 -0.64,0.02 -1.24,-0.34 -1.66,-0.83 -0.82,-0.95 -0.01,-2.24 0.91,-2.78 z"
             id="path308"
             style="fill:#ffffff" />
          <path
             class="cls-1"
             d="m 410.33,420.42 c 2.86,0.95 6.5,2.93 4.15,5.77 -0.97,1.17 -2.73,1.3 -4.13,1.25 -1.66,-0.05 -4.13,0.03 -5.41,-1.27 -1.2,-1.22 -0.89,-3.65 -0.32,-5.11 0.56,-1.46 2.43,-1.43 3.71,-1.18 0.52,0.1 1.23,0.28 1.99,0.53 z"
             id="path309"
             style="fill:#ffffff" />
          <path
             class="cls-1"
             d="m 416.99,427.45 c -1.06,-0.54 -0.44,-4.3 1.33,-4.98 1.77,-0.68 10.62,1.98 10.62,3.92 0,1.94 -10.88,1.61 -11.94,1.07 z"
             id="path310"
             style="fill:#ffffff" />
        </g>
        <g
           id="g332">
          <path
             class="cls-1"
             d="m 391.14,346.01 -11.72,-4.02 c -1.03,0.91 -3,2.19 -4.15,0.06 -1.71,-3.46 2.03,-4.05 2.03,-4.05 0,0 -2.62,-2.74 0.84,-4.45 2.42,-1.09 3.13,1.68 3.33,2.93 l 11.38,3.9 c 0.92,-0.88 3.16,-2.65 4.43,-0.31 1.71,3.46 -2.03,4.05 -2.03,4.05 0,0 2.62,2.74 -0.84,4.45 -2.21,0.99 -2.99,-1.22 -3.26,-2.57 z"
             id="path311"
             style="fill:#ffffff" />
          <path
             class="cls-1"
             d="m 402.36,337.22 3.13,-12.08 c -0.99,-0.96 -2.43,-2.81 -0.4,-4.13 3.31,-1.99 4.2,1.7 4.2,1.7 0,0 2.51,-2.84 4.5,0.47 1.29,2.33 -1.42,3.26 -2.65,3.56 l -3.05,11.73 c 0.95,0.84 2.9,2.93 0.67,4.39 -3.31,1.99 -4.2,-1.7 -4.2,-1.7 0,0 -2.51,2.84 -4.5,-0.47 -1.17,-2.12 0.97,-3.08 2.29,-3.46 z"
             id="path312"
             style="fill:#ffffff" />
          <path
             class="cls-1"
             d="m 400.16,344.25 c -1.36,0.58 -2.74,3.66 -1.82,4.41 0.92,0.75 6.05,-1.38 6.16,-2.46 0.11,-1.08 -2.98,-2.53 -4.34,-1.95 z"
             id="path313"
             style="fill:#ffffff" />
          <g
             id="g331">
            <path
               class="cls-1"
               d="m 407.41,317.08 c 0.55,1.72 4.13,3.76 5.16,2.72 1.02,-1.04 -0.98,-7.51 -2.28,-7.78 -1.3,-0.26 -3.42,3.34 -2.87,5.06 z"
               id="path314"
               style="fill:#ffffff" />
            <path
               class="cls-1"
               d="m 411.72,311.77 c -0.04,0.51 0.18,1.09 0.53,1.25 0.36,0.15 1.99,-1.15 2.01,-1.36 0.02,-0.21 -0.19,-0.77 -0.66,-0.94 -0.47,-0.17 -1.84,0.54 -1.88,1.05 z"
               id="path315"
               style="fill:#ffffff" />
            <path
               class="cls-1"
               d="m 414.4,310.13 c -0.04,0.44 0.15,0.94 0.46,1.07 0.31,0.13 1.71,-0.99 1.73,-1.17 0.02,-0.19 -0.17,-0.66 -0.57,-0.8 -0.4,-0.15 -1.58,0.47 -1.62,0.9 z"
               id="path316"
               style="fill:#ffffff" />
            <path
               class="cls-1"
               d="m 416.71,308.63 c -0.04,0.44 0.15,0.94 0.46,1.07 0.31,0.13 1.07,-0.62 1.09,-0.81 0.02,-0.19 -0.17,-0.66 -0.57,-0.8 -0.4,-0.15 -0.94,0.1 -0.98,0.54 z"
               id="path317"
               style="fill:#ffffff" />
            <path
               class="cls-1"
               d="m 412.87,313.8 c -0.14,0.49 -0.03,1.11 0.3,1.32 0.32,0.22 2.17,-0.77 2.22,-0.98 0.06,-0.21 -0.05,-0.79 -0.48,-1.04 -0.43,-0.25 -1.9,0.2 -2.04,0.69 z"
               id="path318"
               style="fill:#ffffff" />
            <path
               class="cls-1"
               d="m 415.8,312.66 c -0.12,0.43 -0.02,0.95 0.26,1.14 0.28,0.19 1.86,-0.66 1.91,-0.84 0.05,-0.18 -0.05,-0.68 -0.41,-0.89 -0.36,-0.21 -1.64,0.17 -1.76,0.6 z"
               id="path319"
               style="fill:#ffffff" />
            <path
               class="cls-1"
               d="m 418.34,311.61 c -0.12,0.43 -0.02,0.95 0.26,1.14 0.28,0.19 1.16,-0.41 1.21,-0.6 0.05,-0.18 -0.05,-0.68 -0.41,-0.89 -0.36,-0.21 -0.94,-0.07 -1.06,0.35 z"
               id="path320"
               style="fill:#ffffff" />
            <path
               class="cls-1"
               d="m 413.61,316.31 c -0.14,0.49 -0.02,1.11 0.3,1.32 0.32,0.22 2.17,-0.77 2.22,-0.98 0.06,-0.21 -0.05,-0.79 -0.48,-1.04 -0.43,-0.25 -1.9,0.2 -2.04,0.69 z"
               id="path321"
               style="fill:#ffffff" />
            <path
               class="cls-1"
               d="m 416.54,315.18 c -0.12,0.43 -0.02,0.95 0.26,1.14 0.28,0.19 1.86,-0.66 1.91,-0.84 0.05,-0.18 -0.05,-0.68 -0.41,-0.89 -0.36,-0.21 -1.64,0.17 -1.76,0.6 z"
               id="path322"
               style="fill:#ffffff" />
            <path
               class="cls-1"
               d="m 419.08,314.13 c -0.12,0.43 -0.02,0.95 0.26,1.14 0.28,0.19 1.16,-0.41 1.21,-0.6 0.05,-0.18 -0.05,-0.68 -0.41,-0.89 -0.37,-0.22 -0.94,-0.07 -1.06,0.35 z"
               id="path323"
               style="fill:#ffffff" />
            <path
               class="cls-1"
               d="m 413.97,318.73 c -0.24,0.45 -0.26,1.08 0,1.36 0.27,0.28 2.28,-0.28 2.38,-0.48 0.1,-0.19 0.12,-0.78 -0.25,-1.12 -0.36,-0.34 -1.9,-0.22 -2.14,0.24 z"
               id="path324"
               style="fill:#ffffff" />
            <path
               class="cls-1"
               d="m 417.08,318.26 c -0.21,0.39 -0.23,0.92 0,1.17 0.23,0.24 1.96,-0.24 2.05,-0.41 0.09,-0.17 0.1,-0.67 -0.21,-0.96 -0.31,-0.29 -1.64,-0.19 -1.84,0.2 z"
               id="path325"
               style="fill:#ffffff" />
            <path
               class="cls-1"
               d="m 419.79,317.78 c -0.21,0.39 -0.23,0.93 0,1.17 0.23,0.24 1.23,-0.15 1.31,-0.32 0.08,-0.17 0.1,-0.67 -0.21,-0.96 -0.31,-0.29 -0.9,-0.28 -1.11,0.11 z"
               id="path326"
               style="fill:#ffffff" />
            <g
               id="g330">
              <path
                 class="cls-2"
                 d="m 410.72,301.61 c 0,0 4.66,21.98 6.67,24.53 1.24,1.57 3.34,1.22 4.89,0.35 4.4,-2.45 3.49,-8.08 1.61,-11.89 -1.15,-2.32 -2.59,-4.54 -4,-6.71 -0.18,-0.28 -2.53,-4.2 -2.76,-4.12 0,0 1.64,-0.56 2.02,-1.08 0.38,-0.52 -0.6,-3.21 -0.6,-3.21 l -7.82,2.13 z"
                 id="path327"
                 style="fill:#9f3bb7" />
              <path
                 class="cls-1"
                 d="m 410.72,301.61 -7.88,-28.96 c 10.38,-1.72 16.86,13.27 19.61,25.77 z"
                 id="path328"
                 style="fill:#ffffff" />
              <path
                 class="cls-5"
                 d="m 403.24,274.08 c 9.01,0.23 14.8,13.31 17.5,24.8 l 1.72,-0.47 c -2.75,-12.5 -9.23,-27.49 -19.61,-25.77 z"
                 id="path329"
                 style="fill:#fceeff" />
              <path
                 class="cls-1"
                 d="m 420.06,319.56 c 0.76,-0.21 1.54,0.24 1.74,1 0.21,0.76 -0.24,1.54 -1,1.74 -0.76,0.21 -1.54,-0.24 -1.75,-1 -0.21,-0.76 0.24,-1.54 1,-1.74 z"
                 id="path330"
                 style="fill:#ffffff" />
            </g>
            <path
               class="cls-1"
               d="m 409.37,309.79 c -0.14,0.51 0.45,1.31 0.96,1.24 0.5,-0.08 3.02,-2.46 2.62,-2.89 -0.4,-0.44 -3.43,1.15 -3.58,1.65 z"
               id="path331"
               style="fill:#ffffff" />
          </g>
        </g>
        <g
           id="g349">
          <path
             class="cls-1"
             d="m 317.56,367.41 2.21,-12.19 c 1.3,-0.46 3.37,-1.55 2.08,-3.59 -2.19,-3.19 -4.52,-0.2 -4.52,-0.2 0,0 -1.11,-3.63 -4.29,-1.44 -2.13,1.58 -0.07,3.55 0.94,4.34 l -2.15,11.84 c -1.22,0.37 -3.86,1.47 -2.43,3.71 2.19,3.19 4.52,0.2 4.52,0.2 0,0 1.11,3.63 4.29,1.44 1.95,-1.44 0.4,-3.21 -0.65,-4.1 z"
             id="path332"
             style="fill:#ffffff" />
          <path
             class="cls-1"
             d="m 304.75,379.71 -9.67,7.89 c -1.28,-0.5 -3.57,-1.03 -3.92,1.36 -0.42,3.84 3.3,3.11 3.3,3.11 0,0 -1.53,3.47 2.31,3.89 2.65,0.2 2.37,-2.65 2.12,-3.9 l 9.39,-7.67 c 1.16,0.51 3.88,1.41 4.27,-1.22 0.42,-3.84 -3.3,-3.11 -3.3,-3.11 0,0 1.53,-3.47 -2.31,-3.89 -2.41,-0.18 -2.4,2.17 -2.19,3.53 z"
             id="path333"
             style="fill:#ffffff" />
          <path
             class="cls-1"
             d="m 311.44,373.61 c 1.17,-0.9 4.53,-0.61 4.74,0.57 0.21,1.17 -4.16,4.61 -5.16,4.18 -1,-0.43 -0.75,-3.84 0.42,-4.74 z"
             id="path334"
             style="fill:#ffffff" />
          <g
             id="g348">
            <path
               class="cls-1"
               d="m 292.31,393.84 c 1.19,1.36 1.09,5.48 -0.32,5.82 -1.41,0.34 -5.94,-4.71 -5.49,-5.96 0.45,-1.25 4.62,-1.22 5.81,0.14 z"
               id="path335"
               style="fill:#ffffff" />
            <path
               class="cls-1"
               d="m 285.66,391.67 c 0.51,0.14 0.89,1.07 0.57,1.46 -0.32,0.39 -3.66,1.32 -3.83,0.76 -0.17,-0.57 2.75,-2.35 3.26,-2.22 z"
               id="path336"
               style="fill:#ffffff" />
            <path
               class="cls-1"
               d="m 285.54,394.8 c 0.46,0.23 0.85,0.71 0.79,1.1 -0.06,0.39 -2.01,1.12 -2.2,1.02 -0.2,-0.1 -0.56,-0.56 -0.46,-1.05 0.1,-0.49 1.41,-1.3 1.87,-1.07 z"
               id="path337"
               style="fill:#ffffff" />
            <path
               class="cls-1"
               d="m 282.75,396.25 c 0.4,0.19 0.73,0.61 0.68,0.95 -0.04,0.33 -1.73,0.96 -1.9,0.88 -0.17,-0.08 -0.48,-0.48 -0.4,-0.9 0.08,-0.42 1.21,-1.12 1.61,-0.92 z"
               id="path338"
               style="fill:#ffffff" />
            <path
               class="cls-1"
               d="m 280.28,397.46 c 0.4,0.19 0.73,0.61 0.68,0.95 -0.05,0.34 -1.08,0.6 -1.25,0.52 -0.17,-0.08 -0.48,-0.48 -0.4,-0.9 0.08,-0.42 0.57,-0.75 0.96,-0.56 z"
               id="path339"
               style="fill:#ffffff" />
            <path
               class="cls-1"
               d="m 286.68,396.83 c 0.49,0.14 0.96,0.55 0.98,0.94 0.02,0.39 -1.77,1.46 -1.98,1.4 -0.21,-0.06 -0.65,-0.45 -0.64,-0.95 0,-0.5 1.15,-1.53 1.64,-1.39 z"
               id="path340"
               style="fill:#ffffff" />
            <path
               class="cls-1"
               d="m 284.2,398.76 c 0.42,0.12 0.83,0.47 0.84,0.81 0.02,0.34 -1.52,1.26 -1.71,1.21 -0.18,-0.05 -0.56,-0.39 -0.55,-0.82 0,-0.43 0.99,-1.32 1.41,-1.2 z"
               id="path341"
               style="fill:#ffffff" />
            <path
               class="cls-1"
               d="m 281.99,400.4 c 0.42,0.12 0.83,0.47 0.84,0.81 0.02,0.34 -0.95,0.79 -1.14,0.73 -0.18,-0.05 -0.56,-0.39 -0.55,-0.82 0,-0.43 0.42,-0.84 0.85,-0.73 z"
               id="path342"
               style="fill:#ffffff" />
            <path
               class="cls-1"
               d="m 288.46,398.75 c 0.49,0.14 0.96,0.55 0.98,0.94 0.02,0.39 -1.77,1.46 -1.98,1.4 -0.21,-0.06 -0.65,-0.45 -0.64,-0.95 0,-0.5 1.15,-1.53 1.65,-1.39 z"
               id="path343"
               style="fill:#ffffff" />
            <path
               class="cls-1"
               d="m 285.98,400.68 c 0.42,0.12 0.83,0.47 0.84,0.81 0.01,0.34 -1.52,1.26 -1.71,1.21 -0.18,-0.05 -0.56,-0.39 -0.55,-0.82 0,-0.43 0.99,-1.32 1.41,-1.2 z"
               id="path344"
               style="fill:#ffffff" />
            <path
               class="cls-1"
               d="m 283.77,402.32 c 0.42,0.12 0.83,0.47 0.84,0.81 0.02,0.34 -0.95,0.79 -1.14,0.73 -0.19,-0.06 -0.56,-0.39 -0.55,-0.82 0,-0.43 0.42,-0.84 0.85,-0.73 z"
               id="path345"
               style="fill:#ffffff" />
            <path
               class="cls-1"
               d="m 290.35,400.32 c 0.51,0.03 1.06,0.33 1.16,0.7 0.1,0.38 -1.42,1.81 -1.63,1.8 -0.22,-0.01 -0.73,-0.3 -0.83,-0.79 -0.1,-0.49 0.79,-1.74 1.31,-1.71 z"
               id="path346"
               style="fill:#ffffff" />
            <path
               class="cls-1"
               d="m 288.34,402.73 c 0.44,0.02 0.91,0.28 1,0.61 0.09,0.32 -1.22,1.56 -1.41,1.55 -0.19,-0.01 -0.63,-0.26 -0.72,-0.68 -0.09,-0.42 0.68,-1.5 1.12,-1.47 z"
               id="path347"
               style="fill:#ffffff" />
            <path
               class="cls-1"
               d="m 286.54,404.81 c 0.44,0.02 0.91,0.28 1,0.61 0.09,0.32 -0.76,0.97 -0.95,0.96 -0.19,-0.01 -0.63,-0.26 -0.72,-0.68 -0.09,-0.42 0.23,-0.91 0.67,-0.89 z"
               id="path348"
               style="fill:#ffffff" />
          </g>
        </g>
        <g
           id="g357">
          <path
             class="cls-1"
             d="m 358.93,293.43 c -4.37,-4.32 -24.52,-7.23 -30.36,-2.56 -5.84,4.67 -8.76,12.16 -7.29,17.03 1.47,4.86 10.76,7.97 10.76,7.97 0,0 0.98,4.34 1.66,5.66 0.67,1.32 2.41,3.02 4.89,1.45 1.33,2.14 4.51,2.13 5.68,0.64 0,0 1.65,2.2 4.47,0.88 1.95,-0.92 3.59,-6.5 3.59,-6.5 0,0 9.14,-2.24 11.63,-6.58 2.5,-4.34 -0.65,-13.65 -5.01,-17.97 z m -19.45,14.19 c -2.26,3.03 -5.92,4.13 -8.18,2.45 -2.26,-1.68 -2.26,-5.5 0,-8.54 2.26,-3.03 5.92,-4.13 8.18,-2.45 2.26,1.68 2.26,5.5 0,8.54 z m 5.24,6.95 c -0.61,0.38 -2.33,-1.64 -2.33,-1.64 0,0 -2.06,1.77 -2.62,0.81 -0.56,-0.96 2.49,-5.59 3.74,-5.44 1.25,0.15 1.82,5.88 1.21,6.27 z m -1.11,-21.56 c -4.21,-0.49 -7.54,-1.56 -7.44,-2.39 0.1,-0.83 3.59,-1.1 7.79,-0.6 4.2,0.5 7.54,1.56 7.44,2.39 -0.1,0.83 -3.59,1.1 -7.79,0.6 z m 10.33,19.05 c -2.07,1.08 -4.93,-0.29 -6.38,-3.08 -1.46,-2.78 -0.96,-5.92 1.11,-7 2.07,-1.08 4.93,0.29 6.38,3.08 1.46,2.78 0.96,5.92 -1.11,7 z"
             id="path349"
             style="fill:#ffffff" />
          <g
             id="g356">
            <path
               class="cls-2"
               d="m 337.73,291.75 c 0,0 0.05,-2.43 0.23,-4.74 -1.72,-1.27 0.4,-3.79 0.8,-4.09 0.87,-0.66 11.73,1.04 12.12,1.42 0.57,0.56 1.15,2.77 -0.35,2.97 l -0.68,5.8 c -3.24,0.47 -8.87,-0.22 -12.12,-1.36 z"
               id="path350"
               style="fill:#9f3bb7" />
            <path
               class="cls-4"
               d="m 338.92,287.5 c -0.58,0 -1.05,-0.26 -1.08,-0.28 l 0.25,-0.43 c 0,0 0.62,0.34 1.21,0.16 0.35,-0.11 0.63,-0.38 0.84,-0.8 l 0.45,0.22 c -0.27,0.55 -0.66,0.91 -1.14,1.06 -0.18,0.05 -0.35,0.08 -0.52,0.08 z"
               id="path351"
               style="fill:#110d39" />
            <path
               class="cls-4"
               d="m 350.53,287.56 c -0.64,-0.02 -1.13,-0.22 -1.46,-0.6 -0.48,-0.56 -0.39,-1.31 -0.39,-1.34 l 0.5,0.06 c 0,0 -0.06,0.56 0.28,0.96 0.23,0.26 0.59,0.41 1.09,0.42 v 0.5 z"
               id="path352"
               style="fill:#110d39" />
            <path
               class="cls-4"
               d="m 344.3,290.51 c -0.89,0 -1.56,-0.3 -1.99,-0.89 -1.11,-1.51 -0.2,-4.41 -0.16,-4.53 l 0.48,0.15 c 0,0 -0.87,2.77 0.08,4.08 0.34,0.46 0.85,0.68 1.58,0.68 v 0 c 0.81,0 1.43,-0.26 1.85,-0.77 0.99,-1.21 0.56,-3.47 0.55,-3.49 l 0.49,-0.1 c 0.02,0.1 0.49,2.51 -0.65,3.91 -0.51,0.63 -1.26,0.95 -2.23,0.95 h -0.01 z"
               id="path353"
               style="fill:#110d39" />
            <path
               class="cls-4"
               d="m 349.05,284.61 c -0.03,0.24 -2.1,0.19 -4.62,-0.1 -2.52,-0.3 -4.55,-0.73 -4.52,-0.97 0.03,-0.24 2.1,-0.19 4.62,0.1 2.52,0.3 4.55,0.73 4.52,0.97 z"
               id="path354"
               style="fill:#110d39" />
            <rect
               class="cls-6"
               x="343.44"
               y="282.53"
               width="2.3599999"
               height="0.75"
               transform="rotate(-83.34,344.61202,282.90391)"
               id="rect354"
               style="fill:#474675" />
            <path
               class="cls-7"
               d="m 348.27,279.73 c -0.21,1.79 -1.83,3.06 -3.61,2.85 -1.79,-0.21 -3.06,-1.83 -2.85,-3.61 0.21,-1.79 3.06,-6.88 4.1,-7.01 1.04,-0.13 2.58,5.99 2.37,7.77 z"
               id="path355"
               style="fill:#fc8e44" />
            <path
               class="cls-3"
               d="m 346.82,280.88 c -0.13,1.07 -1.09,1.83 -2.16,1.71 -1.07,-0.13 -1.83,-1.09 -1.71,-2.16 0.12,-1.07 1.83,-4.11 2.45,-4.2 0.62,-0.08 1.54,3.58 1.42,4.65 z"
               id="path356"
               style="fill:#ffa05f" />
          </g>
        </g>
      </g>
      <g
         id="g366">
        <path
           class="cls-7"
           d="m 410.27,458.3 c 2.98,0.53 6.09,0.51 9.01,-0.12 1.1,-0.24 2.48,0.49 3.51,0.08 7.02,-2.25 8.54,-9.43 8.11,-15.15 -0.42,-5.56 -2.48,-11.45 -8.02,-13.7 -2.61,-1.06 -5.53,-1.39 -8.32,-1.52 -7.61,-0.37 -15.04,2.91 -17.55,10.53 -0.46,1.41 -0.74,2.88 -0.86,4.36 -1.17,9.65 5.64,14.12 8.25,15.41 1.91,0.95 3.7,-0.28 5.87,0.1 z"
           id="path358"
           style="fill:#fc8e44" />
        <path
           class="cls-4"
           d="m 410.19,458.67 c -8.52,-1.7 -11.45,-9.37 -11.37,-15.42 0.08,-6.55 3.71,-14.21 11.48,-15.56 l 0.13,0.74 c -7.34,1.27 -10.77,8.58 -10.85,14.83 -0.07,5.76 2.7,13.06 10.77,14.67 l -0.15,0.74 z"
           id="path359"
           style="fill:#110d39" />
        <path
           class="cls-4"
           d="m 418.86,458.64 -0.32,-0.68 c 6.25,-2.9 9.69,-8.67 9.18,-15.42 -0.5,-6.72 -4.71,-12.38 -10.48,-14.07 l 0.21,-0.72 c 6.06,1.78 10.49,7.7 11.01,14.73 0.53,7.08 -3.07,13.12 -9.62,16.16 z"
           id="path360"
           style="fill:#110d39" />
        <path
           class="cls-4"
           d="m 412.57,458.93 c -3.09,-1.92 -4.4,-6.09 -4.94,-9.25 -1.34,-7.74 0.42,-17.61 3.92,-22 l 0.59,0.47 c -3.39,4.25 -5.08,13.85 -3.77,21.41 0.52,3.01 1.74,6.97 4.6,8.74 l -0.39,0.64 z"
           id="path361"
           style="fill:#110d39" />
        <path
           class="cls-4"
           d="m 416.16,458.98 -0.3,-0.69 c 1.74,-0.77 3.15,-4.07 3.78,-8.82 1.01,-7.66 -0.28,-17.72 -4.67,-21.27 l 0.47,-0.58 c 4.65,3.76 6.01,13.89 4.95,21.95 -0.67,5.09 -2.21,8.51 -4.22,9.41 z"
           id="path362"
           style="fill:#110d39" />
        <path
           class="cls-4"
           d="m 401.18,445.9 c 3.69,10.46 20.43,11.57 25.53,-2.06 -7.9,2.15 -16.42,2.8 -25.53,2.06 z"
           id="path363"
           style="fill:#110d39" />
        <path
           class="cls-4"
           d="m 404.29,437.42 c 0.33,-0.38 6.2,3.69 5.84,4.41 -0.35,0.72 -6.69,1.64 -6.92,1.31 -0.23,-0.32 2.31,-2.46 2.31,-2.46 0,0 -1.56,-2.88 -1.23,-3.26 z"
           id="path364"
           style="fill:#110d39" />
        <path
           class="cls-4"
           d="m 423.16,436.89 c -0.36,-0.35 -5.9,4.15 -5.49,4.84 0.4,0.69 6.79,1.12 7,0.78 0.21,-0.34 -2.49,-2.28 -2.49,-2.28 0,0 1.34,-2.99 0.98,-3.35 z"
           id="path365"
           style="fill:#110d39" />
        <path
           class="cls-4"
           d="m 413.62,439.16 c -0.77,0.14 -1.87,4.4 -1.63,4.57 0.12,0.08 1.95,-1.01 1.95,-1.01 0,0 1.9,0.98 1.97,0.79 0.15,-0.36 -1.53,-4.5 -2.3,-4.36 z"
           id="path366"
           style="fill:#110d39" />
      </g>
    </g>
  </g>
  <metadata
     id="metadata1">
    <rdf:RDF>
      <cc:Work
         rdf:about="">
        <dc:creator>
          <cc:Agent>
            <dc:title>1812</dc:title>
          </cc:Agent>
        </dc:creator>
      </cc:Work>
    </rdf:RDF>
  </metadata>
</svg>
