<?xml version="1.0" encoding="UTF-8" standalone="no"?>
<!-- Created with Inkscape (http://www.inkscape.org/) -->

<svg
   width="150"
   height="200"
   viewBox="0 0 150 200"
   version="1.1"
   id="svg1"
   inkscape:version="1.3.2 (091e20e, 2023-11-25, custom)"
   sodipodi:docname="7.svg"
   xmlns:inkscape="http://www.inkscape.org/namespaces/inkscape"
   xmlns:sodipodi="http://sodipodi.sourceforge.net/DTD/sodipodi-0.dtd"
   xmlns="http://www.w3.org/2000/svg"
   xmlns:svg="http://www.w3.org/2000/svg"
   xmlns:rdf="http://www.w3.org/1999/02/22-rdf-syntax-ns#"
   xmlns:cc="http://creativecommons.org/ns#"
   xmlns:dc="http://purl.org/dc/elements/1.1/">
  <sodipodi:namedview
     id="namedview1"
     pagecolor="#000000"
     bordercolor="#eeeeee"
     borderopacity="1"
     inkscape:showpageshadow="false"
     inkscape:pageopacity="0"
     inkscape:pagecheckerboard="false"
     inkscape:deskcolor="#121212"
     inkscape:document-units="px"
     showgrid="false"
     inkscape:zoom="1.9798571"
     inkscape:cx="90.410565"
     inkscape:cy="98.744499"
     inkscape:window-width="1360"
     inkscape:window-height="697"
     inkscape:window-x="-8"
     inkscape:window-y="-8"
     inkscape:window-maximized="1"
     inkscape:current-layer="g186">
    <inkscape:grid
       id="grid1"
       units="px"
       originx="480"
       originy="270"
       spacingx="1"
       spacingy="1"
       empcolor="#0099e5"
       empopacity="0.69803922"
       color="#4d4d4d"
       opacity="0.69803922"
       empspacing="5"
       dotted="false"
       gridanglex="30"
       gridanglez="30"
       visible="false" />
  </sodipodi:namedview>
  <defs
     id="defs1" />
  <g
     inkscape:label="Capa 1"
     inkscape:groupmode="layer"
     id="layer1">
    <g
       id="g186"
       transform="translate(-312.47645,-38.179657)">
      <path
         class="cls-2"
         d="m 376.66,100.47 c -15.54,43.33 -36.42,88.37 -62.13,101.65 35.54,8.31 89.12,10.68 112.49,-10.16 L 406.6,100.69 c -9.07,-3.23 -19.02,-3.41 -29.94,-0.22 z"
         id="path120"
         style="fill:#fc8e44;fill-opacity:1"
         inkscape:label="layer" />
      <g
         id="g174"
         style="display:inline">
        <path
           class="cls-1"
           d="m 401.64,57.46 c -5.3,-3.11 -25.54,-0.96 -30.06,5 -4.52,5.96 -5.49,13.95 -2.87,18.3 2.63,4.35 12.39,5.07 12.39,5.07 0,0 2.02,3.96 3,5.08 0.98,1.11 3.08,2.33 5.1,0.2 1.82,1.75 4.9,0.96 5.66,-0.78 0,0 2.14,1.73 4.55,-0.25 1.66,-1.37 1.87,-7.18 1.87,-7.18 0,0 8.3,-4.42 9.65,-9.25 1.35,-4.82 -3.99,-13.07 -9.29,-16.18 z"
           id="path121"
           style="fill:#ffffff" />
        <g
           id="g125">
          <path
             class="cls-1"
             d="m 387.76,96.13 c 1.33,-1.31 6.63,-1.12 7.38,-0.05 0.74,1.07 1.89,33.97 0.72,34.94 -1.16,0.97 -7.83,1.55 -9.06,0 -1.23,-1.55 -0.37,-33.58 0.96,-34.89 z"
             id="path122"
             style="fill:#ffffff" />
          <path
             class="cls-1"
             d="m 363.68,109.48 c -0.9,-1.36 9.34,-11.3 27.32,-11.3 17.98,0 30.45,9.83 29.51,11.3 -0.94,1.47 -12.75,-4.26 -29.51,-4 -16.77,0.26 -26.43,5.36 -27.32,4 z"
             id="path123"
             style="fill:#ffffff" />
          <path
             class="cls-1"
             d="m 372.45,120.21 c -0.64,-1.11 6.65,-9.18 19.45,-9.18 12.8,0 21.68,7.98 21.01,9.18 -0.67,1.2 -9.07,-3.46 -21.01,-3.25 -11.94,0.21 -18.81,4.35 -19.45,3.25 z"
             id="path124"
             style="fill:#ffffff" />
          <path
             class="cls-1"
             d="m 375.82,131.11 c -0.53,-0.92 5.54,-7.65 16.21,-7.65 10.67,0 18.07,6.65 17.51,7.65 -0.56,1 -7.56,-2.88 -17.51,-2.7 -9.95,0.18 -15.68,3.63 -16.21,2.7 z"
             id="path125"
             style="fill:#ffffff" />
        </g>
        <path
           class="cls-1"
           d="m 407.45,134.73 c -4.23,-4 -8.12,-0.24 -11.34,1.89 -2.93,2.01 -5.02,1.98 -7.75,0.19 -3.27,-2.09 -7.27,-6.19 -11.62,-2.08 -4.83,5.12 2.06,8.89 3.46,11.58 1.4,2.68 1.59,6.83 4.83,7.47 3.24,0.65 3.96,-4.27 7.06,-4.52 3.1,0.25 3.82,5.17 7.06,4.52 3.24,-0.65 3.43,-4.79 4.83,-7.47 1.4,-2.68 8.29,-6.46 3.46,-11.58 z m -23.03,8.71 c -0.56,0.14 -1.16,0.02 -1.68,-0.23 -0.56,-0.26 -1.11,-0.63 -1.61,-1.06 -0.8,-0.69 -1.48,-1.56 -1.88,-2.47 -0.38,-0.86 -0.35,-2.22 0.66,-2.63 0.32,-0.13 0.68,-0.15 1.03,-0.13 1.92,0.11 3.52,1.32 4.42,2.97 0.75,1.36 0.85,3.08 -0.95,3.54 z m 20.52,-3.75 c -0.4,0.91 -1.08,1.78 -1.88,2.47 -0.5,0.43 -1.05,0.79 -1.61,1.06 -0.52,0.25 -1.12,0.37 -1.68,0.23 -1.81,-0.46 -1.7,-2.18 -0.95,-3.54 0.9,-1.65 2.5,-2.87 4.42,-2.97 0.35,-0.02 0.71,0 1.03,0.13 1.01,0.41 1.04,1.76 0.66,2.63 z"
           id="path126"
           style="fill:#ffffff" />
        <g
           id="g132">
          <path
             class="cls-1"
             d="m 375.09,180.63 4.49,-18.13 c 1.57,-0.45 4.12,-1.6 2.72,-4.12 -2.37,-3.94 -5.36,-0.55 -5.36,-0.55 0,0 -1.06,-4.38 -5,-2.01 -2.65,1.73 -0.33,4.22 0.81,5.22 l -4.39,17.71 c -1.47,0.35 -4.68,1.47 -3.15,4.24 2.37,3.94 5.36,0.55 5.36,0.55 0,0 1.06,4.38 5,2.01 2.41,-1.58 0.7,-3.78 -0.48,-4.92 z"
             id="path127"
             style="fill:#ffffff" />
          <path
             class="cls-1"
             d="m 363.68,194.97 -3.78,18.29 c -1.56,0.51 -4.05,1.76 -2.56,4.23 2.52,3.84 5.38,0.35 5.38,0.35 0,0 1.23,4.34 5.07,1.82 2.58,-1.83 0.16,-4.23 -1.01,-5.18 l 3.7,-17.87 c 1.45,-0.41 4.62,-1.65 2.98,-4.36 -2.52,-3.84 -5.38,-0.35 -5.38,-0.35 0,0 -1.23,-4.34 -5.07,-1.82 -2.35,1.67 -0.55,3.8 0.67,4.89 z"
             id="path128"
             style="fill:#ffffff" />
          <path
             class="cls-1"
             d="m 379.43,154.45 c 1.11,-1.3 -0.71,-6.06 -2.88,-6.46 -2.16,-0.4 -3.5,1.21 -3.31,2.92 0.19,1.71 5.07,4.85 6.18,3.55 z"
             id="path129"
             style="fill:#ffffff" />
          <path
             class="cls-1"
             d="m 368.43,186.05 c 0,0 -0.04,0.02 -0.06,0.03 -0.61,0.32 -1.08,0.97 -1.05,1.66 0.04,1 1.13,1.63 2.04,1.68 0.63,0.04 1.28,-0.23 1.65,-0.74 0.37,-0.52 0.4,-1.23 0.23,-1.84 -0.34,-1.21 -1.86,-1.26 -2.82,-0.79 z"
             id="path130"
             style="fill:#ffffff" />
          <path
             class="cls-1"
             d="m 358.61,220.69 c -2.86,1 -6.5,3.09 -4.15,6.08 0.97,1.23 2.73,1.37 4.13,1.32 1.66,-0.06 4.13,0.03 5.41,-1.34 1.2,-1.28 0.89,-3.84 0.32,-5.38 -0.56,-1.54 -2.43,-1.51 -3.71,-1.24 -0.52,0.11 -1.23,0.3 -1.99,0.56 z"
             id="path131"
             style="fill:#ffffff" />
          <path
             class="cls-1"
             d="m 351.95,227.68 c 1.06,-0.54 0.44,-4.3 -1.33,-4.98 -1.77,-0.69 -10.62,1.98 -10.62,3.92 0,1.94 10.88,1.61 11.94,1.07 z"
             id="path132"
             style="fill:#ffffff" />
        </g>
        <g
           id="g138">
          <path
             class="cls-1"
             d="m 403.24,177.98 -0.26,-18.67 c -1.43,-0.8 -3.64,-2.5 -1.71,-4.63 3.21,-3.3 5.34,0.68 5.34,0.68 0,0 2.03,-4.03 5.32,-0.82 2.18,2.29 -0.64,4.18 -1.97,4.9 l 0.25,18.24 c 1.35,0.68 4.23,2.5 2.1,4.84 -3.21,3.3 -5.34,-0.68 -5.34,-0.68 0,0 -2.03,4.03 -5.32,0.82 -1.99,-2.08 0.18,-3.84 1.59,-4.68 z"
             id="path133"
             style="fill:#ffffff" />
          <path
             class="cls-1"
             d="m 411.1,194.53 -0.47,18.67 c 1.4,0.85 3.55,2.64 1.53,4.7 -3.33,3.17 -5.31,-0.88 -5.31,-0.88 0,0 -2.18,3.95 -5.35,0.62 -2.09,-2.37 0.8,-4.15 2.16,-4.82 l 0.46,-18.24 c -1.32,-0.73 -4.13,-2.66 -1.91,-4.92 3.33,-3.17 5.31,0.88 5.31,0.88 0,0 2.18,-3.95 5.35,-0.62 1.91,2.16 -0.33,3.83 -1.77,4.61 z"
             id="path134"
             style="fill:#ffffff" />
          <path
             class="cls-1"
             d="m 404.97,151.49 c -0.78,-1.52 2.07,-5.74 4.27,-5.64 2.2,0.1 3.13,1.97 2.56,3.59 -0.58,1.62 -6.04,3.57 -6.83,2.05 z"
             id="path135"
             style="fill:#ffffff" />
          <path
             class="cls-1"
             d="m 408.51,184.78 c 0,0 0.03,0.03 0.05,0.04 0.52,0.45 0.83,1.19 0.64,1.86 -0.27,0.97 -1.47,1.33 -2.37,1.18 -0.62,-0.11 -1.2,-0.52 -1.44,-1.1 -0.24,-0.59 -0.11,-1.29 0.19,-1.85 0.6,-1.1 2.1,-0.8 2.92,-0.13 z"
             id="path136"
             style="fill:#ffffff" />
          <path
             class="cls-1"
             d="m 408.48,220.81 c 2.89,0.85 6.59,2.71 4.34,5.62 -0.93,1.2 -2.69,1.39 -4.09,1.39 -1.66,0 -4.13,0.17 -5.44,-1.09 -1.24,-1.18 -1.01,-3.62 -0.49,-5.09 0.52,-1.48 2.38,-1.51 3.67,-1.3 0.53,0.08 1.24,0.24 2.01,0.47 z"
             id="path137"
             style="fill:#ffffff" />
          <path
             class="cls-1"
             d="m 415.36,227.61 c -1.08,-0.5 -0.58,-4.28 1.16,-5.03 1.75,-0.74 10.68,1.62 10.74,3.56 0.06,1.94 -10.82,1.97 -11.9,1.47 z"
             id="path138"
             style="fill:#ffffff" />
        </g>
        <g
           id="g156">
          <path
             class="cls-1"
             d="m 359.28,128.06 5.34,-11.18 c 1.37,-0.1 3.66,-0.61 2.95,-2.92 -1.27,-3.65 -4.31,-1.38 -4.31,-1.38 0,0 -0.11,-3.79 -3.76,-2.52 -2.48,0.97 -1,3.41 -0.24,4.43 l -5.19,10.86 c -1.27,0.04 -4.11,0.4 -3.32,2.94 1.27,3.65 4.31,1.38 4.31,1.38 0,0 0.11,3.79 3.76,2.52 2.26,-0.88 1.23,-2.99 0.45,-4.13 z"
             id="path139"
             style="fill:#ffffff" />
          <path
             class="cls-1"
             d="m 347.06,139.05 -5.97,10.96 c -1.38,0.02 -3.69,0.39 -3.12,2.74 1.06,3.72 4.22,1.63 4.22,1.63 0,0 -0.11,3.79 3.61,2.73 2.53,-0.82 1.19,-3.35 0.5,-4.41 l 5.8,-10.65 c 1.27,0.04 4.12,-0.16 3.49,-2.74 -1.06,-3.72 -4.22,-1.63 -4.22,-1.63 0,0 0.11,-3.79 -3.61,-2.73 -2.3,0.75 -1.4,2.91 -0.69,4.09 z"
             id="path140"
             style="fill:#ffffff" />
          <path
             class="cls-1"
             d="m 352.52,135.92 c -1.34,-0.62 -2.65,-3.72 -1.71,-4.45 0.94,-0.73 6.01,1.53 6.1,2.61 0.09,1.08 -3.05,2.46 -4.39,1.84 z"
             id="path141"
             style="fill:#ffffff" />
          <g
             id="g155">
            <path
               class="cls-1"
               d="m 340.88,156.83 c 1.62,0.81 3.08,4.66 1.9,5.51 -1.18,0.85 -7.28,-2.12 -7.34,-3.44 -0.06,-1.33 3.82,-2.87 5.44,-2.07 z"
               id="path142"
               style="fill:#ffffff" />
            <path
               class="cls-1"
               d="m 333.9,157.33 c 0.52,-0.07 1.23,0.65 1.08,1.14 -0.15,0.49 -2.89,2.61 -3.26,2.15 -0.37,-0.46 1.66,-3.22 2.18,-3.28 z"
               id="path143"
               style="fill:#ffffff" />
            <path
               class="cls-1"
               d="m 334.97,160.28 c 0.51,0.03 1.05,0.34 1.15,0.72 0.1,0.38 -1.44,1.79 -1.66,1.78 -0.22,-0.01 -0.73,-0.31 -0.82,-0.8 -0.1,-0.49 0.82,-1.73 1.33,-1.7 z"
               id="path144"
               style="fill:#ffffff" />
            <path
               class="cls-1"
               d="m 332.94,162.67 c 0.44,0.03 0.91,0.29 0.99,0.62 0.08,0.33 -1.24,1.54 -1.42,1.53 -0.19,-0.01 -0.63,-0.27 -0.71,-0.69 -0.08,-0.42 0.7,-1.49 1.14,-1.46 z"
               id="path145"
               style="fill:#ffffff" />
            <path
               class="cls-1"
               d="m 331.11,164.73 c 0.44,0.03 0.91,0.29 0.99,0.62 0.08,0.33 -0.77,0.96 -0.96,0.95 -0.19,-0.01 -0.63,-0.27 -0.71,-0.69 -0.08,-0.42 0.24,-0.91 0.68,-0.88 z"
               id="path146"
               style="fill:#ffffff" />
            <path
               class="cls-1"
               d="m 336.8,161.73 c 0.51,-0.06 1.1,0.14 1.26,0.5 0.16,0.35 -1.09,2.02 -1.31,2.05 -0.22,0.02 -0.77,-0.17 -0.95,-0.64 -0.18,-0.46 0.49,-1.85 1,-1.91 z"
               id="path147"
               style="fill:#ffffff" />
            <path
               class="cls-1"
               d="m 335.23,164.45 c 0.44,-0.05 0.94,0.12 1.09,0.43 0.15,0.31 -0.94,1.74 -1.12,1.76 -0.19,0.02 -0.66,-0.15 -0.82,-0.55 -0.16,-0.4 0.42,-1.59 0.86,-1.64 z"
               id="path148"
               style="fill:#ffffff" />
            <path
               class="cls-1"
               d="m 333.8,166.8 c 0.44,-0.05 0.94,0.12 1.09,0.43 0.15,0.31 -0.59,1.09 -0.77,1.11 -0.19,0.02 -0.66,-0.15 -0.82,-0.55 -0.16,-0.4 0.07,-0.94 0.51,-0.99 z"
               id="path149"
               style="fill:#ffffff" />
            <path
               class="cls-1"
               d="m 339.17,162.84 c 0.51,-0.06 1.1,0.14 1.26,0.5 0.16,0.35 -1.09,2.02 -1.31,2.05 -0.22,0.03 -0.77,-0.17 -0.95,-0.64 -0.18,-0.47 0.49,-1.85 1,-1.91 z"
               id="path150"
               style="fill:#ffffff" />
            <path
               class="cls-1"
               d="m 337.6,165.56 c 0.44,-0.05 0.94,0.12 1.09,0.43 0.14,0.3 -0.94,1.74 -1.12,1.76 -0.19,0.02 -0.66,-0.15 -0.82,-0.55 -0.16,-0.4 0.42,-1.59 0.86,-1.64 z"
               id="path151"
               style="fill:#ffffff" />
            <path
               class="cls-1"
               d="m 336.18,167.91 c 0.44,-0.05 0.94,0.12 1.09,0.43 0.14,0.3 -0.59,1.09 -0.77,1.11 -0.19,0.02 -0.66,-0.15 -0.82,-0.55 -0.16,-0.4 0.07,-0.94 0.51,-0.99 z"
               id="path152"
               style="fill:#ffffff" />
            <path
               class="cls-1"
               d="m 341.51,163.57 c 0.48,-0.17 1.1,-0.1 1.34,0.21 0.24,0.31 -0.63,2.21 -0.83,2.28 -0.21,0.07 -0.79,0 -1.07,-0.41 -0.28,-0.41 0.08,-1.91 0.56,-2.08 z"
               id="path153"
               style="fill:#ffffff" />
            <path
               class="cls-1"
               d="m 340.56,166.56 c 0.42,-0.14 0.95,-0.08 1.15,0.18 0.2,0.26 -0.54,1.9 -0.72,1.96 -0.18,0.06 -0.68,0 -0.92,-0.36 -0.24,-0.35 0.07,-1.65 0.48,-1.79 z"
               id="path154"
               style="fill:#ffffff" />
            <path
               class="cls-1"
               d="m 339.67,169.17 c 0.42,-0.14 0.95,-0.08 1.15,0.18 0.2,0.26 -0.34,1.19 -0.52,1.25 -0.18,0.06 -0.68,0 -0.92,-0.36 -0.24,-0.35 -0.13,-0.93 0.28,-1.08 z"
               id="path155"
               style="fill:#ffffff" />
          </g>
        </g>
        <g
           id="g173">
          <path
             class="cls-1"
             d="m 427.66,88.49 -6.52,10.53 c -1.38,-0.05 -3.71,0.21 -3.25,2.58 0.87,3.77 4.14,1.84 4.14,1.84 0,0 -0.3,3.78 3.47,2.91 2.57,-0.69 1.36,-3.28 0.72,-4.38 l 6.33,-10.23 c 1.27,0.1 4.12,0.05 3.62,-2.56 -0.87,-3.77 -4.14,-1.84 -4.14,-1.84 0,0 0.3,-3.78 -3.47,-2.91 -2.34,0.63 -1.55,2.84 -0.9,4.05 z"
             id="path156"
             style="fill:#ffffff" />
          <path
             class="cls-1"
             d="m 441.01,78.9 7.12,-10.25 c 1.37,0.13 3.71,0.01 3.39,-2.39 -0.65,-3.81 -4.02,-2.08 -4.02,-2.08 0,0 0.52,-3.76 -3.29,-3.11 -2.6,0.54 -1.55,3.2 -0.97,4.33 l -6.92,9.95 c -1.26,-0.17 -4.12,-0.29 -3.77,2.35 0.65,3.81 4.02,2.08 4.02,2.08 0,0 -0.52,3.76 3.29,3.11 2.37,-0.49 1.71,-2.74 1.13,-3.99 z"
             id="path157"
             style="fill:#ffffff" />
          <path
             class="cls-1"
             d="m 435.23,81.41 c 1.27,0.76 2.23,3.99 1.22,4.61 -1.01,0.62 -5.81,-2.17 -5.78,-3.26 0.03,-1.09 3.29,-2.11 4.56,-1.36 z"
             id="path158"
             style="fill:#ffffff" />
          <g
             id="g172">
            <path
               class="cls-1"
               d="m 449.08,61.9 c -1.52,-0.98 -2.56,-4.97 -1.29,-5.68 1.27,-0.72 7,2.9 6.92,4.22 -0.08,1.33 -4.11,2.44 -5.63,1.46 z"
               id="path159"
               style="fill:#ffffff" />
            <path
               class="cls-1"
               d="m 456.07,62.15 c -0.53,0 -1.15,-0.78 -0.95,-1.25 0.2,-0.47 3.15,-2.28 3.47,-1.78 0.32,0.5 -2,3.02 -2.53,3.03 z"
               id="path160"
               style="fill:#ffffff" />
            <path
               class="cls-1"
               d="m 455.32,59.1 c -0.51,-0.09 -1.01,-0.45 -1.07,-0.84 -0.06,-0.39 1.62,-1.63 1.84,-1.59 0.22,0.04 0.69,0.39 0.73,0.88 0.04,0.49 -1,1.63 -1.5,1.54 z"
               id="path161"
               style="fill:#ffffff" />
            <path
               class="cls-1"
               d="m 457.61,56.95 c -0.43,-0.08 -0.87,-0.39 -0.92,-0.72 -0.05,-0.33 1.4,-1.4 1.58,-1.36 0.19,0.03 0.59,0.33 0.63,0.76 0.04,0.43 -0.86,1.41 -1.29,1.33 z"
               id="path162"
               style="fill:#ffffff" />
            <path
               class="cls-1"
               d="m 459.65,55.1 c -0.43,-0.08 -0.87,-0.39 -0.92,-0.72 -0.05,-0.33 0.87,-0.87 1.06,-0.84 0.19,0.03 0.59,0.33 0.63,0.76 0.04,0.43 -0.34,0.88 -0.77,0.8 z"
               id="path163"
               style="fill:#ffffff" />
            <path
               class="cls-1"
               d="m 453.67,57.47 c -0.51,0 -1.08,-0.26 -1.2,-0.63 -0.13,-0.37 1.3,-1.89 1.52,-1.89 0.22,0 0.75,0.26 0.88,0.74 0.13,0.48 -0.69,1.79 -1.2,1.79 z"
               id="path164"
               style="fill:#ffffff" />
            <path
               class="cls-1"
               d="m 455.52,54.93 c -0.44,0 -0.92,-0.23 -1.03,-0.54 -0.11,-0.32 1.12,-1.63 1.31,-1.63 0.19,0 0.64,0.22 0.76,0.63 0.11,0.41 -0.59,1.54 -1.03,1.54 z"
               id="path165"
               style="fill:#ffffff" />
            <path
               class="cls-1"
               d="m 457.19,52.75 c -0.44,0 -0.92,-0.23 -1.03,-0.54 -0.11,-0.32 0.7,-1.02 0.89,-1.02 0.19,0 0.64,0.22 0.76,0.63 0.11,0.41 -0.17,0.93 -0.61,0.93 z"
               id="path166"
               style="fill:#ffffff" />
            <path
               class="cls-1"
               d="m 451.43,56.11 c -0.51,0 -1.08,-0.26 -1.2,-0.63 -0.12,-0.37 1.3,-1.89 1.52,-1.89 0.22,0 0.75,0.26 0.88,0.74 0.13,0.48 -0.69,1.79 -1.2,1.79 z"
               id="path167"
               style="fill:#ffffff" />
            <path
               class="cls-1"
               d="m 453.28,53.57 c -0.44,0 -0.92,-0.23 -1.03,-0.54 -0.11,-0.31 1.12,-1.63 1.31,-1.63 0.19,0 0.64,0.22 0.76,0.63 0.11,0.41 -0.59,1.54 -1.03,1.54 z"
               id="path168"
               style="fill:#ffffff" />
            <path
               class="cls-1"
               d="m 454.96,51.39 c -0.44,0 -0.92,-0.23 -1.03,-0.54 -0.11,-0.32 0.7,-1.02 0.89,-1.02 0.19,0 0.64,0.22 0.76,0.63 0.11,0.41 -0.17,0.93 -0.61,0.93 z"
               id="path169"
               style="fill:#ffffff" />
            <path
               class="cls-1"
               d="m 449.19,55.13 c -0.5,0.11 -1.11,-0.02 -1.31,-0.36 -0.2,-0.33 0.86,-2.13 1.08,-2.18 0.21,-0.05 0.79,0.09 1.02,0.53 0.23,0.44 -0.28,1.89 -0.78,2.01 z"
               id="path170"
               style="fill:#ffffff" />
            <path
               class="cls-1"
               d="m 450.45,52.25 c -0.43,0.1 -0.95,-0.02 -1.13,-0.31 -0.17,-0.29 0.74,-1.83 0.93,-1.87 0.18,-0.04 0.68,0.08 0.87,0.45 0.2,0.38 -0.24,1.63 -0.67,1.73 z"
               id="path171"
               style="fill:#ffffff" />
            <path
               class="cls-1"
               d="m 451.61,49.76 c -0.43,0.1 -0.95,-0.02 -1.13,-0.31 -0.17,-0.29 0.47,-1.14 0.65,-1.19 0.18,-0.04 0.68,0.08 0.88,0.45 0.2,0.38 0.03,0.94 -0.4,1.04 z"
               id="path172"
               style="fill:#ffffff" />
          </g>
        </g>
      </g>
      <g
         id="g177"
         style="display:inline;fill:#fc8e44;fill-opacity:1"
         inkscape:label="neck">
        <path
           class="cls-2"
           d="m 379.52,99.62 12.58,3.69 10.44,-3.83 c -2.23,-0.55 -4.55,-0.94 -6.97,-1.18 l -3.47,4.16 -5.12,-4.11 c -2.55,0.18 -5.03,0.62 -7.45,1.27 z"
           id="path174"
           style="fill:#fc8e44;fill-opacity:1" />
        <path
           class="cls-2"
           d="m 393.24,102.51 c 0,0.8 -0.65,1.44 -1.44,1.44 -0.79,0 -1.44,-0.65 -1.44,-1.44 0,-0.79 0.65,-1.44 1.44,-1.44 0.79,0 1.44,0.65 1.44,1.44 z"
           id="path175"
           style="fill:#fc8e44;fill-opacity:1" />
        <path
           class="cls-2"
           d="m 392.1,101.95 c -3.35,2.74 -4.02,5.77 -2,9.08 1.73,-2.35 2.47,-5.33 2,-9.08 z"
           id="path176"
           style="fill:#fc8e44;fill-opacity:1" />
        <path
           class="cls-2"
           d="m 392.05,102.51 c 2.66,2.18 3.19,4.58 1.59,7.2 -1.37,-1.86 -1.96,-4.23 -1.59,-7.2 z"
           id="path177"
           style="fill:#fc8e44;fill-opacity:1" />
      </g>
      <g
         id="g183"
         style="display:inline;fill:#fc8e44;fill-opacity:1"
         inkscape:label="mask">
        <path
           class="cls-2"
           d="m 370.07,72.18 c 0,1.34 -1.09,2.43 -2.43,2.43 -1.34,0 -2.43,-1.09 -2.43,-2.43 0,-1.34 1.09,-2.43 2.43,-2.43 1.34,0 2.43,1.09 2.43,2.43 z"
           id="path178"
           style="fill:#fc8e44;fill-opacity:1" />
        <path
           class="cls-2"
           d="m 367.28,71.31 c -1.14,6.25 -5.49,8.36 -11.71,8.06 1.13,-3.34 4.51,-6.15 11.71,-8.06 z"
           id="path179"
           style="fill:#fc8e44;fill-opacity:1" />
        <path
           class="cls-2"
           d="m 366.68,72.33 c 2.4,5.88 -0.14,10 -5.54,13.09 -0.85,-3.42 0.5,-7.61 5.54,-13.09 z"
           id="path180"
           style="fill:#fc8e44;fill-opacity:1" />
        <path
           class="cls-2"
           d="m 369.16,66.56 c 13.52,-2.99 26.27,-3.74 39.7,-1.8 1.43,2.36 4.47,7.93 -0.02,12.84 -10.8,3.55 -13.92,-1.5 -18.23,-1.54 -4.31,-0.05 -5.53,8.25 -20.03,7.06 -4.34,-3.06 -4.92,-11.16 -1.42,-16.55 z"
           id="path181"
           style="fill:#fc8e44;fill-opacity:1" />
        <path
           class="cls-4"
           d="m 367.15,78.34 c -1,-4.84 0.21,-8.51 0.26,-8.67 l 0.47,0.16 c 0,0 -1.22,3.71 -0.24,8.41 z"
           id="path182"
           style="fill:#fc8e44;fill-opacity:1" />
        <path
           class="cls-4"
           d="m 362.51,78.47 -0.46,-0.2 c 1.03,-2.41 2.67,-4.53 4.9,-6.29 l 0.31,0.39 c -2.15,1.71 -3.75,3.76 -4.75,6.09 z"
           id="path183"
           style="fill:#fc8e44;fill-opacity:1" />
      </g>
      <path
         class="cls-4"
         d="m 386.29,76.01 c -1.44,3.5 -4.72,5.46 -7.32,4.39 -2.6,-1.07 -3.54,-4.78 -2.1,-8.28 1.44,-3.5 4.72,-5.46 7.32,-4.39 2.6,1.07 3.54,4.78 2.1,8.28 z"
         id="path184"
         style="fill:#000000" />
      <path
         class="cls-4"
         d="m 393.59,82.65 c -0.5,0.52 -2.66,-1.01 -2.66,-1.01 0,0 -1.56,2.23 -2.34,1.43 -0.78,-0.79 1.03,-6.03 2.28,-6.19 1.25,-0.16 3.22,5.25 2.72,5.78 z"
         id="path185"
         style="fill:#000000" />
      <path
         class="cls-4"
         d="m 401.4,76.74 c -1.74,1.56 -4.85,0.93 -6.95,-1.41 -2.1,-2.34 -2.39,-5.5 -0.65,-7.06 1.74,-1.56 4.85,-0.93 6.95,1.41 2.1,2.34 2.39,5.5 0.65,7.06 z"
         id="path186"
         style="fill:#000000" />
    </g>
  </g>
  <metadata
     id="metadata1">
    <rdf:RDF>
      <cc:Work
         rdf:about="">
        <dc:creator>
          <cc:Agent>
            <dc:title>1812</dc:title>
          </cc:Agent>
        </dc:creator>
      </cc:Work>
    </rdf:RDF>
  </metadata>
</svg>
