<?xml version="1.0" encoding="UTF-8" standalone="no"?>
<!-- Created with Inkscape (http://www.inkscape.org/) -->

<svg
   width="70"
   height="50"
   viewBox="0 0 70 50"
   version="1.1"
   id="svg1"
   inkscape:version="1.3.2 (091e20e, 2023-11-25, custom)"
   sodipodi:docname="favicon.svg"
   xmlns:inkscape="http://www.inkscape.org/namespaces/inkscape"
   xmlns:sodipodi="http://sodipodi.sourceforge.net/DTD/sodipodi-0.dtd"
   xmlns="http://www.w3.org/2000/svg"
   xmlns:svg="http://www.w3.org/2000/svg"
   xmlns:rdf="http://www.w3.org/1999/02/22-rdf-syntax-ns#"
   xmlns:cc="http://creativecommons.org/ns#"
   xmlns:dc="http://purl.org/dc/elements/1.1/">
  <sodipodi:namedview
     id="namedview1"
     pagecolor="#000000"
     bordercolor="#eeeeee"
     borderopacity="1"
     inkscape:showpageshadow="false"
     inkscape:pageopacity="0"
     inkscape:pagecheckerboard="false"
     inkscape:deskcolor="#121212"
     inkscape:document-units="px"
     showgrid="false"
     inkscape:zoom="3.1466252"
     inkscape:cx="23.517259"
     inkscape:cy="15.095538"
     inkscape:window-width="1360"
     inkscape:window-height="697"
     inkscape:window-x="-8"
     inkscape:window-y="-8"
     inkscape:window-maximized="1"
     inkscape:current-layer="layer1">
    <inkscape:grid
       id="grid1"
       units="px"
       originx="480"
       originy="270"
       spacingx="1"
       spacingy="1"
       empcolor="#0099e5"
       empopacity="0.69803922"
       color="#4d4d4d"
       opacity="0.69803922"
       empspacing="5"
       dotted="false"
       gridanglex="30"
       gridanglez="30"
       visible="false" />
  </sodipodi:namedview>
  <defs
     id="defs1" />
  <g
     inkscape:label="Capa 1"
     inkscape:groupmode="layer"
     id="layer1"
     transform="translate(-38.412001,-80.833037)">
    <g
       id="g371"
       transform="translate(-335.98,-58.912947)">
      <g
         id="g370">
        <path
           class="cls-4"
           d="m 395.28,142.9 c -20.84,-2.93 -26.88,38.17 -8.81,42.06 2.97,2.91 7.88,5.13 12.54,2.04 3.23,2.81 14.52,3.58 18.78,0.25 4.5,2.36 10.38,0.95 14.02,-3.4 18.65,-3.89 12.65,-45.03 -7.78,-40.95 -5.63,-4.29 -27.12,-3.28 -28.74,0 z"
           id="path359"
           style="display:inline;fill:#fc8e44" />
        <path
           class="cls-2"
           d="m 398.77,143.49 -0.29,-0.69 c 2.69,-1.14 6.69,-1.79 10.96,-1.79 3.74,0 7.26,0.49 9.92,1.39 l -0.24,0.71 c -2.58,-0.87 -6.01,-1.35 -9.68,-1.35 -4.18,0 -8.07,0.63 -10.67,1.73 z"
           id="path360"
           style="display:inline;fill:#000000" />
        <g
           id="g369"
           style="display:inline;fill:#000000">
          <ellipse
             class="cls-2"
             cx="409.45001"
             cy="146.07001"
             rx="11.61"
             ry="3.05"
             id="ellipse360"
             style="fill:#000000" />
          <path
             class="cls-2"
             d="m 386.22,185.24 c -5.46,-5.03 -8.43,-16.9 -3.17,-29.01 2.91,-6.71 7.58,-10.49 12.52,-10.12 l -0.06,0.75 c -4.58,-0.34 -8.99,3.27 -11.77,9.67 -3.87,8.92 -3.81,21.89 3,28.16 l -0.51,0.55 z"
             id="path361"
             style="fill:#000000" />
          <path
             class="cls-2"
             d="m 409.45,151.14 c -7.98,0 -14.23,-2.22 -14.23,-5.06 0,-1.24 1.13,-2.37 3.26,-3.27 l 0.29,0.69 c -1.81,0.77 -2.81,1.68 -2.81,2.58 0,2.08 5.42,4.31 13.48,4.31 8.06,0 13.48,-2.23 13.48,-4.31 0,-1.06 -1.39,-2.14 -3.8,-2.96 l 0.24,-0.71 c 2.78,0.94 4.31,2.24 4.31,3.67 0,2.84 -6.25,5.06 -14.23,5.06 z"
             id="path362"
             style="fill:#000000" />
          <path
             class="cls-2"
             d="m 432.08,184.1 -0.55,-0.51 c 7.16,-7.69 6.67,-23.16 1.44,-31.84 -2.64,-4.38 -6.04,-6.27 -9.57,-5.32 l -0.2,-0.72 c 3.89,-1.05 7.58,0.96 10.41,5.65 5.37,8.91 5.85,24.81 -1.53,32.74 z"
             id="path363"
             style="fill:#000000" />
          <path
             class="cls-2"
             d="m 398.75,187.27 c -6.35,-5.91 -6.43,-18.94 -3.28,-28.2 1.89,-5.57 4.67,-8.93 7.62,-9.21 l 0.07,0.75 c -2.6,0.25 -5.21,3.5 -6.98,8.7 -3.11,9.16 -2.81,21.92 3.08,27.4 l -0.51,0.55 z"
             id="path364"
             style="fill:#000000" />
          <path
             class="cls-2"
             d="m 417.95,187.58 -0.33,-0.67 c 3.75,-1.85 6.07,-6.89 6.38,-13.84 0.43,-9.69 -3.06,-19.62 -7.94,-22.59 l 0.39,-0.64 c 5.69,3.46 8.69,14.55 8.3,23.26 -0.32,7.23 -2.8,12.51 -6.8,14.48 z"
             id="path365"
             style="fill:#000000" />
          <path
             class="cls-2"
             d="m 385.36,165.71 c 1.65,21.56 44.94,24.63 48.65,0 -3.79,2.19 -7.54,3.86 -11.25,5.03 -0.46,4.2 -2.11,6.38 -2.11,6.38 -0.69,-2.01 -1.65,-3.76 -3.06,-5.08 -5.53,1.06 -10.97,1 -16.34,-0.08 -1.35,1.05 -1.86,2.6 -1.92,4.42 0,0 -2.47,-1.32 -3.22,-5.77 -3.61,-1.18 -7.19,-2.82 -10.74,-4.9 z"
             id="path366"
             style="fill:#000000" />
          <path
             class="cls-2"
             d="m 394.13,156.67 c 1.05,-0.31 7.74,6.76 6.45,7.91 -1.29,1.14 -8.97,-0.49 -9.54,-1.61 -0.56,-1.11 2.03,-5.99 3.08,-6.3 z"
             id="path367"
             style="fill:#000000" />
          <path
             class="cls-2"
             d="m 423.56,156.67 c -1.05,-0.31 -7.74,6.76 -6.45,7.91 1.29,1.14 8.97,-0.49 9.54,-1.61 0.56,-1.11 -2.03,-5.99 -3.08,-6.3 z"
             id="path368"
             style="fill:#000000" />
          <path
             class="cls-2"
             d="m 409.3,161.82 c -1.52,0 -3.81,6.11 -2.99,6.57 0.82,0.45 2.98,-1.26 2.98,-1.26 0,0 2.19,1.87 2.99,1.49 0.8,-0.38 -1.46,-6.8 -2.99,-6.8 z"
             id="path369"
             style="fill:#000000" />
        </g>
      </g>
    </g>
  </g>
  <metadata
     id="metadata1">
    <rdf:RDF>
      <cc:Work
         rdf:about="">
        <dc:creator>
          <cc:Agent>
            <dc:title>1812</dc:title>
          </cc:Agent>
        </dc:creator>
      </cc:Work>
    </rdf:RDF>
  </metadata>
</svg>
