<?xml version="1.0" encoding="UTF-8" standalone="no"?>
<svg
   viewBox="0 0 500 500"
   version="1.1"
   id="svg368"
   sodipodi:docname="5992919[1].svg"
   inkscape:version="1.3.2 (091e20e, 2023-11-25, custom)"
   xmlns:inkscape="http://www.inkscape.org/namespaces/inkscape"
   xmlns:sodipodi="http://sodipodi.sourceforge.net/DTD/sodipodi-0.dtd"
   xmlns="http://www.w3.org/2000/svg"
   xmlns:svg="http://www.w3.org/2000/svg">
  <sodipodi:namedview
     id="namedview368"
     pagecolor="#505050"
     bordercolor="#eeeeee"
     borderopacity="1"
     inkscape:showpageshadow="0"
     inkscape:pageopacity="0"
     inkscape:pagecheckerboard="0"
     inkscape:deskcolor="#505050"
     inkscape:zoom="1.01"
     inkscape:cx="249.50495"
     inkscape:cy="250"
     inkscape:window-width="1360"
     inkscape:window-height="697"
     inkscape:window-x="-8"
     inkscape:window-y="-8"
     inkscape:window-maximized="1"
     inkscape:current-layer="svg368" />
  <defs
     id="defs1">
    <style
       id="style1">
      .cls-1 {
        fill: #fff;
      }

      .cls-2 {
        fill: #9f3bb7;
      }

      .cls-3 {
        fill: #ffa05f;
      }

      .cls-4 {
        fill: #110d39;
      }

      .cls-5 {
        fill: #fceeff;
      }

      .cls-6 {
        fill: #474675;
      }

      .cls-7 {
        fill: #fc8e44;
      }
    </style>
  </defs>
  <g
     id="OBJECTS">
    <g
       id="g368">
      <g
         id="g54">
        <path
           class="cls-1"
           d="M257.88,61.95c-4.84-3.78-25.19-4.33-30.45.99s-7.29,13.1-5.26,17.76,11.61,6.66,11.61,6.66c0,0,1.48,4.2,2.3,5.43.82,1.23,2.75,2.72,5.03.87,1.57,1.97,4.73,1.59,5.71-.02,0,0,1.89,1.99,4.54.35,1.83-1.14,2.8-6.87,2.8-6.87,0,0,8.81-3.29,10.79-7.89,1.97-4.6-2.23-13.48-7.07-17.27ZM240.21,78.31c-1.89,3.28-5.4,4.79-7.84,3.38s-2.88-5.2-.99-8.48,5.4-4.79,7.84-3.38c2.44,1.41,2.88,5.2.99,8.48ZM246.23,84.6c-.56.45-2.51-1.36-2.51-1.36,0,0-1.84,2-2.51,1.11-.67-.89,1.82-5.84,3.08-5.84s2.49,5.63,1.93,6.08ZM255.09,81.03c-1.93,1.32-4.93.28-6.7-2.31s-1.64-5.76.29-7.08c1.93-1.32,4.93-.28,6.7,2.31,1.77,2.59,1.64,5.76-.29,7.08Z"
           id="path1" />
        <g
           id="g5">
          <path
             class="cls-1"
             d="M240.56,98.75c1.33-1.31,6.63-1.12,7.38-.05s1.89,33.97.72,34.94c-1.16.97-7.83,1.55-9.06,0-1.23-1.55-.37-33.58.96-34.89Z"
             id="path2" />
          <path
             class="cls-1"
             d="M216.48,112.1c-.9-1.36,9.34-11.3,27.32-11.3s30.45,9.83,29.51,11.3c-.94,1.47-12.75-4.26-29.51-4-16.77.26-26.43,5.36-27.32,4Z"
             id="path3" />
          <path
             class="cls-1"
             d="M225.25,122.83c-.64-1.11,6.65-9.18,19.45-9.18s21.68,7.98,21.01,9.18-9.07-3.46-21.01-3.25c-11.94.21-18.81,4.35-19.45,3.25Z"
             id="path4" />
          <path
             class="cls-1"
             d="M228.62,133.73c-.53-.92,5.54-7.65,16.21-7.65s18.07,6.65,17.51,7.65-7.56-2.88-17.51-2.7c-9.95.18-15.68,3.63-16.21,2.7Z"
             id="path5" />
        </g>
        <path
           class="cls-1"
           d="M260.25,137.35c-4.23-4-8.12-.24-11.34,1.89-2.93,2.01-5.02,1.98-7.75.19-3.27-2.09-7.27-6.19-11.62-2.08-4.83,5.12,2.06,8.89,3.46,11.58,1.4,2.68,1.59,6.83,4.83,7.47,3.24.65,3.96-4.27,7.06-4.52,3.1.25,3.82,5.17,7.06,4.52,3.24-.65,3.43-4.79,4.83-7.47,1.4-2.68,8.29-6.46,3.46-11.58ZM237.22,146.06c-.56.14-1.16.02-1.68-.23-.56-.26-1.11-.63-1.61-1.06-.8-.69-1.48-1.56-1.88-2.47-.38-.86-.35-2.22.66-2.63.32-.13.68-.15,1.03-.13,1.92.11,3.52,1.32,4.42,2.97.75,1.36.85,3.08-.95,3.54ZM257.74,142.31c-.4.91-1.08,1.78-1.88,2.47-.5.43-1.05.79-1.61,1.06-.52.25-1.12.37-1.68.23-1.81-.46-1.7-2.18-.95-3.54.9-1.65,2.5-2.87,4.42-2.97.35-.02.71,0,1.03.13,1.01.41,1.04,1.76.66,2.63Z"
           id="path6" />
        <g
           id="g12">
          <path
             class="cls-1"
             d="M229.84,180.98l3.28-18.38c1.54-.56,4-1.87,2.44-4.29-2.63-3.77-5.38-.2-5.38-.2,0,0-1.35-4.3-5.12-1.67-2.53,1.9-.05,4.23,1.15,5.15l-3.2,17.96c-1.44.45-4.57,1.78-2.86,4.44,2.63,3.77,5.38.2,5.38.2,0,0,1.35,4.3,5.12,1.67,2.3-1.73.45-3.82-.81-4.87Z"
             id="path7" />
          <path
             class="cls-1"
             d="M224.03,197.35l6.29,17.58c-1.06,1.25-2.54,3.61.02,4.94,4.16,1.96,4.77-2.5,4.77-2.5,0,0,3.31,3.06,5.28-1.09,1.25-2.91-2.06-3.69-3.56-3.9l-6.15-17.18c1.03-1.11,3.08-3.82.28-5.27-4.16-1.96-4.77,2.5-4.77,2.5,0,0-3.31-3.06-5.28,1.09-1.14,2.65,1.51,3.54,3.12,3.83Z"
             id="path8" />
          <path
             class="cls-1"
             d="M232.43,154.56c1.02-1.37-1.12-6-3.3-6.26-2.18-.26-3.41,1.44-3.11,3.13.31,1.69,5.39,4.5,6.41,3.13Z"
             id="path9" />
          <path
             class="cls-1"
             d="M223.55,186.83s-.04.02-.06.03c-.59.36-1.01,1.04-.93,1.73.11,1,1.23,1.55,2.15,1.54.63,0,1.27-.32,1.6-.85.34-.55.32-1.25.11-1.86-.42-1.19-1.94-1.13-2.86-.6Z"
             id="path10" />
          <path
             class="cls-1"
             d="M236.07,221.06c-2.9.82-6.62,2.64-4.4,5.58.91,1.21,2.67,1.42,4.07,1.44,1.66.02,4.12.21,5.46-1.03,1.25-1.16,1.05-3.6.55-5.09-.5-1.48-2.36-1.54-3.66-1.34-.53.08-1.24.23-2.02.44Z"
             id="path11" />
          <path
             class="cls-1"
             d="M229.1,227.79c1.08-.49.63-4.27-1.1-5.04-1.74-.76-10.69,1.5-10.78,3.44-.09,1.94,10.8,2.09,11.89,1.6Z"
             id="path12" />
        </g>
        <g
           id="g18">
          <path
             class="cls-1"
             d="M257.88,153.98c-1.11-1.3.7-6.06,2.86-6.47,2.16-.41,3.5,1.2,3.32,2.91-.19,1.71-5.06,4.87-6.17,3.57Z"
             id="path13" />
          <path
             class="cls-1"
             d="M267.41,179.17l-6.55-17.49c-1.62-.27-4.27-1.12-3.18-3.78,1.9-4.19,5.26-1.17,5.26-1.17,0,0,.55-4.48,4.73-2.57,2.83,1.41.81,4.15-.2,5.28l6.4,17.09c1.5.18,4.82.92,3.62,3.84-1.9,4.19-5.26,1.17-5.26,1.17,0,0-.55,4.48-4.73,2.57-2.58-1.29-1.13-3.67-.09-4.94Z"
             id="path14" />
          <path
             class="cls-1"
             d="M276.1,194.22l-3,18.43c1.27,1.04,3.15,3.09.88,4.86-3.73,2.69-5.14-1.6-5.14-1.6,0,0-2.7,3.61-5.39-.12-1.75-2.63,1.36-4.01,2.8-4.48l2.94-18.01c-1.21-.9-3.73-3.19-1.23-5.13,3.73-2.69,5.14,1.6,5.14,1.6,0,0,2.7-3.61,5.39.12,1.6,2.4-.84,3.75-2.38,4.33Z"
             id="path15" />
          <path
             class="cls-1"
             d="M274.66,183.79s.04.01.06.02c.65.25,1.18.84,1.23,1.53.07,1-.93,1.75-1.83,1.91-.62.11-1.3-.08-1.72-.55-.43-.48-.54-1.17-.44-1.8.19-1.24,1.7-1.46,2.71-1.11Z"
             id="path16" />
          <path
             class="cls-1"
             d="M269.25,219.32c2.98.41,6.92,1.71,5.13,4.92-.74,1.32-2.45,1.77-3.83,1.98-1.64.25-4.06.78-5.55-.27-1.4-.98-1.53-3.43-1.24-4.96.29-1.54,2.13-1.85,3.44-1.83.53,0,1.26.05,2.06.16Z"
             id="path17" />
          <path
             class="cls-1"
             d="M277.07,225.02c-1.14-.34-1.21-4.15.4-5.14s10.8.02,11.15,1.93-10.41,3.55-11.55,3.22Z"
             id="path18" />
        </g>
        <g
           id="g36">
          <path
             class="cls-1"
             d="M277,131.28l-4.3-11.62c-1.36-.23-3.59-.94-2.67-3.18,1.6-3.52,4.42-.98,4.42-.98,0,0,.46-3.76,3.98-2.16,2.38,1.19.68,3.49-.17,4.43l4.17,11.28c1.26.15,4.05.77,3.04,3.23-1.6,3.52-4.42.98-4.42.98,0,0-.46,3.76-3.98,2.16-2.17-1.08-.95-3.09-.08-4.15Z"
             id="path19" />
          <path
             class="cls-1"
             d="M290.9,134.41l11.34-5.22c.11-1.37.64-3.66,2.95-2.92,3.64,1.31,1.34,4.32,1.34,4.32,0,0,3.79.15,2.48,3.79-.99,2.47-3.42.97-4.43.2l-11.01,5.06c-.05,1.27-.44,4.1-2.97,3.3-3.64-1.31-1.34-4.32-1.34-4.32,0,0-3.79-.15-2.48-3.79.9-2.25,3-1.2,4.13-.42Z"
             id="path20" />
          <path
             class="cls-1"
             d="M284.07,137.15c-1.31-.68-4.57.19-4.57,1.38s4.89,3.81,5.8,3.22c.91-.6.08-3.91-1.24-4.6Z"
             id="path21" />
          <g
             id="g35">
            <path
               class="cls-1"
               d="M309.06,129.45c.7,1.67,4.44,3.39,5.37,2.27.93-1.12-1.62-7.4-2.94-7.55-1.32-.15-3.13,3.62-2.43,5.28Z"
               id="path22" />
            <path
               class="cls-1"
               d="M310.03,122.52c-.1.52.57,1.27,1.06,1.15.5-.12,2.8-2.71,2.36-3.11-.43-.4-3.32,1.44-3.42,1.96Z"
               id="path23" />
            <path
               class="cls-1"
               d="M312.9,123.79c0,.51.27,1.07.64,1.2.37.12,1.88-1.31,1.88-1.53s-.26-.75-.74-.88c-.48-.13-1.78.7-1.78,1.21Z"
               id="path24" />
            <path
               class="cls-1"
               d="M315.43,121.92c0,.44.23.92.55,1.03.32.11,1.62-1.13,1.62-1.32s-.22-.64-.64-.75-1.53.6-1.53,1.04Z"
               id="path25" />
            <path
               class="cls-1"
               d="M317.6,120.23c0,.44.23.92.55,1.03.32.11,1.01-.71,1.01-.9s-.22-.64-.64-.75-.93.18-.93.62Z"
               id="path26" />
            <path
               class="cls-1"
               d="M314.22,125.7c-.09.5.07,1.1.41,1.29.34.19,2.09-.95,2.13-1.16.04-.22-.12-.78-.57-.99-.45-.21-1.88.36-1.97.87Z"
               id="path27" />
            <path
               class="cls-1"
               d="M317.04,124.32c-.08.43.06.95.35,1.11s1.8-.82,1.83-1c.03-.19-.1-.67-.49-.86-.39-.18-1.62.31-1.7.74Z"
               id="path28" />
            <path
               class="cls-1"
               d="M319.48,123.06c-.08.43.06.95.35,1.11.29.16,1.12-.51,1.16-.7.03-.19-.1-.67-.49-.86-.39-.18-.94,0-1.02.44Z"
               id="path29" />
            <path
               class="cls-1"
               d="M315.17,128.15c-.09.5.07,1.1.41,1.29s2.09-.95,2.13-1.16c.04-.22-.12-.78-.57-.99s-1.88.36-1.97.87Z"
               id="path30" />
            <path
               class="cls-1"
               d="M317.99,126.77c-.08.43.06.95.35,1.11.29.16,1.8-.82,1.83-1,.03-.19-.1-.67-.49-.86s-1.62.31-1.7.74Z"
               id="path31" />
            <path
               class="cls-1"
               d="M320.43,125.5c-.08.43.06.95.35,1.11.29.16,1.12-.51,1.16-.7.03-.18-.1-.67-.49-.86-.39-.18-.94,0-1.02.44Z"
               id="path32" />
            <path
               class="cls-1"
               d="M315.74,130.53c-.2.47-.17,1.09.12,1.35s2.25-.48,2.33-.68c.09-.2.05-.79-.34-1.09-.39-.31-1.91-.05-2.11.42Z"
               id="path33" />
            <path
               class="cls-1"
               d="M318.79,129.79c-.17.41-.15.94.11,1.16.25.22,1.93-.41,2.01-.58.07-.17.04-.68-.29-.94-.34-.26-1.65-.04-1.82.36Z"
               id="path34" />
            <path
               class="cls-1"
               d="M321.45,129.08c-.17.41-.15.94.11,1.16.25.22,1.21-.26,1.28-.43.07-.17.04-.68-.29-.94s-.92-.2-1.09.21Z"
               id="path35" />
          </g>
        </g>
        <g
           id="g53">
          <path
             class="cls-1"
             d="M200.29,121.79l11.59-4.39c1.06.88,3.07,2.09,4.15-.07,1.6-3.52-2.16-3.98-2.16-3.98,0,0,2.54-2.82-.98-4.42-2.46-1.01-3.08,1.78-3.23,3.04l-11.25,4.26c-.94-.85-3.24-2.55-4.43-.17-1.6,3.52,2.16,3.98,2.16,3.98,0,0-2.54,2.82.98,4.42,2.24.92,2.95-1.31,3.18-2.67Z"
             id="path36" />
          <path
             class="cls-1"
             d="M188.8,113.36l-3.51-11.98c.96-.99,2.34-2.89.27-4.14-3.37-1.88-4.14,1.83-4.14,1.83,0,0-2.6-2.76-4.49.61-1.21,2.37,1.52,3.21,2.76,3.47l3.42,11.63c-.92.87-2.8,3.03-.53,4.41,3.37,1.88,4.14-1.83,4.14-1.83,0,0,2.6,2.76,4.49-.61,1.1-2.16-1.06-3.05-2.4-3.39Z"
             id="path37" />
          <path
             class="cls-1"
             d="M191.22,120.31c1.38.54,2.86,3.57,1.96,4.35-.9.78-6.09-1.19-6.24-2.26-.15-1.08,2.9-2.63,4.28-2.09Z"
             id="path38" />
          <g
             id="g52">
            <path
               class="cls-1"
               d="M180.62,96.41c-1.71.57-5.47-1.12-5.24-2.56.23-1.44,6.65-3.64,7.63-2.74s-.68,4.73-2.39,5.3Z"
               id="path39" />
            <path
               class="cls-1"
               d="M185.2,91.13c-.33.42-1.33.41-1.57-.04-.24-.45.2-3.89.79-3.82.59.06,1.1,3.45.77,3.87Z"
               id="path40" />
            <path
               class="cls-1"
               d="M182.36,89.8c-.39.34-.99.5-1.32.3-.34-.2-.25-2.28-.08-2.43s.73-.29,1.15-.02c.41.28.65,1.8.26,2.14Z"
               id="path41" />
            <path
               class="cls-1"
               d="M182.11,86.66c-.33.29-.85.43-1.14.26-.29-.17-.21-1.96-.07-2.09.14-.12.63-.25.99-.01.36.24.56,1.55.22,1.84Z"
               id="path42" />
            <path
               class="cls-1"
               d="M181.96,83.92c-.33.29-.85.43-1.14.26-.29-.17-.13-1.23.01-1.35.14-.12.63-.25.99-.01s.47.81.14,1.1Z"
               id="path43" />
            <path
               class="cls-1"
               d="M180.05,90.06c-.32.4-.88.67-1.25.54s-.66-2.2-.52-2.37c.14-.17.67-.42,1.12-.22.46.2.96,1.66.64,2.06Z"
               id="path44" />
            <path
               class="cls-1"
               d="M179.23,87.03c-.27.35-.76.58-1.07.46s-.57-1.89-.45-2.04c.12-.15.57-.36.97-.19.39.17.83,1.42.55,1.77Z"
               id="path45" />
            <path
               class="cls-1"
               d="M178.59,84.36c-.27.35-.76.58-1.07.46s-.35-1.18-.24-1.33c.12-.15.57-.36.97-.19s.61.72.34,1.06Z"
               id="path46" />
            <path
               class="cls-1"
               d="M177.58,90.95c-.32.4-.88.67-1.25.54s-.66-2.2-.52-2.37c.14-.17.67-.42,1.12-.22.46.2.96,1.66.64,2.06Z"
               id="path47" />
            <path
               class="cls-1"
               d="M176.77,87.92c-.27.35-.76.58-1.07.46s-.57-1.89-.45-2.04c.12-.15.57-.36.97-.19s.83,1.42.55,1.77Z"
               id="path48" />
            <path
               class="cls-1"
               d="M176.12,85.25c-.27.35-.76.58-1.07.46-.32-.12-.35-1.18-.24-1.33.12-.15.57-.36.97-.19s.61.72.34,1.06Z"
               id="path49" />
            <path
               class="cls-1"
               d="M175.41,92.08c-.23.46-.71.85-1.1.79s-1.12-2.01-1.02-2.2c.1-.2.56-.56,1.05-.46.49.1,1.3,1.41,1.07,1.87Z"
               id="path50" />
            <path
               class="cls-1"
               d="M173.97,89.29c-.19.4-.61.73-.95.68-.33-.04-.96-1.73-.88-1.9.08-.17.48-.48.9-.4.42.08,1.12,1.21.92,1.61Z"
               id="path51" />
            <path
               class="cls-1"
               d="M172.76,86.82c-.19.4-.61.73-.95.68-.33-.04-.6-1.08-.52-1.25.08-.17.48-.48.9-.4.42.08.75.57.56.96Z"
               id="path52" />
          </g>
        </g>
      </g>
      <g
         id="g120">
        <g
           id="g56">
          <path
             class="cls-7"
             d="M72.52,64.69c-.47-6.12,9.45-13.74,9.45-13.74,0,0-4.58-6.94-3.7-10.12.88-3.18,13.84-9.36,13.84-9.36l-1.65,9.98s18.12,1.98,22.16,6.31c4.05,4.33,2.17,16.94,2.17,16.94,0,0-41.42,1.04-42.27,0Z"
             id="path54" />
          <path
             class="cls-4"
             d="M77.27,55.31c-2.49,2.7-4.99,6.24-4.75,9.38.85,1.04,42.27,0,42.27,0,0,0,.7-4.72.32-9.38-13.34-1.63-25.93-1.58-37.84,0Z"
             id="path55" />
          <polygon
             class="cls-4"
             points="82.12 51.15 81.82 50.75 86.12 47.6 86.41 48 82.12 51.15"
             id="polygon55" />
          <rect
             class="cls-4"
             x="87.73"
             y="38.69"
             width=".5"
             height="4.97"
             transform="translate(37.47 124.15) rotate(-83.75)"
             id="rect55" />
          <path
             class="cls-1"
             d="M96.21,58.86c-1.44,0-2.95-.18-3.27-.43-.76-.6-.5-4.14-.1-4.69.11-.15.4-.56,3.02-.56h.06c2.69,0,2.97.41,3.08.56.43.61.83,3.93-.09,4.69h0c-.38.31-1.52.44-2.7.44ZM93.58,57.65c.74.26,4.17.32,4.7,0,.33-.38.17-2.69-.07-3.27-.68-.25-3.93-.26-4.59,0-.21.54-.24,2.75-.04,3.28ZM98.27,54.4h0ZM93.57,54.4h0Z"
             id="path56" />
        </g>
        <path
           class="cls-7"
           d="M151.43,71.49c0,6.42-24.52,11.63-54.78,11.63s-54.78-5.21-54.78-11.63,24.52-13.85,54.78-13.85,54.78,7.43,54.78,13.85Z"
           id="path57" />
        <path
           class="cls-4"
           d="M150.28,72.64h-.5c0-5.53-23.7-12.22-53.13-12.22s-53.13,6.68-53.13,12.22h-.5c0-5.88,23.43-12.72,53.63-12.72s53.63,6.84,53.63,12.72Z"
           id="path58" />
        <path
           class="cls-1"
           d="M109.64,65.61c-4.84-3.78-25.19-4.33-30.45.99-5.26,5.32-7.29,13.1-5.26,17.76,2.03,4.66,11.61,6.66,11.61,6.66,0,0,1.48,4.2,2.3,5.43.82,1.23,2.75,2.72,5.03.87,1.57,1.97,4.73,1.59,5.71-.02,0,0,1.89,1.99,4.54.35,1.83-1.14,2.8-6.87,2.8-6.87,0,0,8.81-3.29,10.79-7.89,1.97-4.6-2.23-13.48-7.07-17.27ZM91.97,81.97c-1.89,3.28-5.4,4.79-7.84,3.38-2.44-1.41-2.88-5.2-.99-8.48,1.89-3.28,5.4-4.79,7.84-3.38,2.44,1.41,2.88,5.2.99,8.48ZM97.99,88.26c-.56.45-2.51-1.36-2.51-1.36,0,0-1.84,2-2.51,1.11-.67-.89,1.82-5.84,3.08-5.84s2.49,5.63,1.93,6.08ZM106.85,84.69c-1.93,1.32-4.93.28-6.7-2.31s-1.64-5.76.29-7.08c1.93-1.32,4.93-.28,6.7,2.31s1.64,5.76-.29,7.08Z"
           id="path59" />
        <g
           id="g63">
          <path
             class="cls-1"
             d="M92.32,102.42c1.33-1.31,6.63-1.12,7.38-.05.74,1.07,1.89,33.97.72,34.94-1.16.97-7.83,1.55-9.06,0s-.37-33.58.96-34.89Z"
             id="path60" />
          <path
             class="cls-1"
             d="M68.24,115.76c-.9-1.36,9.34-11.3,27.32-11.3s30.45,9.83,29.51,11.3c-.94,1.47-12.75-4.26-29.51-4-16.77.26-26.43,5.36-27.32,4Z"
             id="path61" />
          <path
             class="cls-1"
             d="M77,126.49c-.64-1.11,6.65-9.18,19.45-9.18s21.68,7.98,21.01,9.18-9.07-3.46-21.01-3.25c-11.94.21-18.81,4.35-19.45,3.25Z"
             id="path62" />
          <path
             class="cls-1"
             d="M80.38,137.4c-.53-.92,5.54-7.65,16.21-7.65s18.07,6.65,17.51,7.65c-.56,1-7.56-2.88-17.51-2.7s-15.68,3.63-16.21,2.7Z"
             id="path63" />
        </g>
        <path
           class="cls-1"
           d="M112,141.01c-4.23-4-8.12-.24-11.34,1.89-2.93,2.01-5.03,1.98-7.75.19-3.27-2.09-7.27-6.19-11.62-2.08-4.83,5.12,2.06,8.89,3.46,11.58,1.4,2.68,1.59,6.83,4.83,7.47,3.24.65,3.96-4.27,7.06-4.52,3.1.25,3.82,5.17,7.06,4.52,3.24-.65,3.43-4.79,4.83-7.47,1.4-2.68,8.29-6.46,3.46-11.58ZM88.98,149.73c-.56.14-1.16.02-1.68-.23-.56-.26-1.11-.63-1.61-1.06-.8-.69-1.48-1.56-1.88-2.47-.38-.86-.35-2.22.66-2.63.32-.13.68-.15,1.03-.13,1.92.11,3.52,1.32,4.42,2.97.75,1.37.85,3.08-.95,3.54ZM109.49,145.97c-.4.91-1.08,1.78-1.88,2.47-.5.43-1.05.79-1.61,1.06-.52.25-1.12.37-1.68.23-1.81-.46-1.7-2.18-.95-3.54.9-1.65,2.5-2.87,4.42-2.97.35-.02.71,0,1.03.13,1.01.41,1.04,1.76.66,2.63Z"
           id="path64" />
        <g
           id="g70">
          <path
             class="cls-1"
             d="M75.58,184.78l7.07-17.28c1.62-.22,4.31-.99,3.29-3.68-1.78-4.24-5.22-1.33-5.22-1.33,0,0-.41-4.49-4.65-2.71-2.87,1.33-.93,4.12.04,5.28l-6.91,16.89c-1.51.14-4.85.78-3.73,3.74,1.78,4.24,5.22,1.33,5.22,1.33,0,0,.41,4.49,4.65,2.71,2.61-1.21,1.24-3.64.24-4.93Z"
             id="path65" />
          <path
             class="cls-1"
             d="M69.23,199.54l8.15,16.8c-.92,1.36-2.14,3.87.55,4.91,4.34,1.51,4.47-3,4.47-3,0,0,3.62,2.69,5.13-1.65.93-3.02-2.45-3.45-3.96-3.49l-7.96-16.42c.9-1.21,2.66-4.13-.29-5.27-4.34-1.51-4.47,3-4.47,3,0,0-3.62-2.69-5.13,1.65-.84,2.75,1.88,3.35,3.52,3.47Z"
             id="path66" />
          <path
             class="cls-1"
             d="M83.67,159.5c1.29-1.13.17-6.1-1.91-6.81-2.08-.71-3.64.69-3.69,2.41-.06,1.72,4.32,5.54,5.6,4.41Z"
             id="path67" />
          <path
             class="cls-1"
             d="M68.2,189.17s-.04.01-.06.02c-.65.23-1.21.81-1.28,1.49-.1,1,.88,1.78,1.77,1.96.62.13,1.3-.04,1.74-.5.44-.46.58-1.16.5-1.79-.16-1.25-1.66-1.51-2.67-1.19Z"
             id="path68" />
          <path
             class="cls-1"
             d="M83.17,221.08c-2.88.87-6.58,2.75-4.31,5.65.93,1.19,2.7,1.37,4.09,1.37,1.66,0,4.13.14,5.44-1.12,1.23-1.18.99-3.62.46-5.09-.52-1.47-2.39-1.5-3.68-1.28-.53.09-1.24.25-2.01.48Z"
             id="path69" />
          <path
             class="cls-1"
             d="M76.33,227.53c1.08-.51.56-4.28-1.19-5.02s-10.67,1.68-10.72,3.62c-.05,1.94,10.83,1.9,11.91,1.4Z"
             id="path70" />
        </g>
        <g
           id="g76">
          <path
             class="cls-1"
             d="M117.19,184.78l-7.07-17.28c-1.62-.22-4.31-.99-3.29-3.68,1.78-4.24,5.22-1.33,5.22-1.33,0,0,.41-4.49,4.65-2.71,2.87,1.33.93,4.12-.04,5.28l6.91,16.89c1.51.14,4.85.78,3.73,3.74-1.78,4.24-5.22,1.33-5.22,1.33,0,0-.41,4.49-4.65,2.71-2.61-1.21-1.24-3.64-.24-4.93Z"
             id="path71" />
          <path
             class="cls-1"
             d="M123.54,199.54l-8.15,16.8c.92,1.36,2.14,3.87-.55,4.91-4.34,1.51-4.47-3-4.47-3,0,0-3.62,2.69-5.13-1.65-.93-3.02,2.45-3.45,3.96-3.49l7.96-16.42c-.9-1.21-2.66-4.13.29-5.27,4.34-1.51,4.47,3,4.47,3,0,0,3.62-2.69,5.13,1.65.84,2.75-1.88,3.35-3.52,3.47Z"
             id="path72" />
          <path
             class="cls-1"
             d="M109.1,159.5c-1.29-1.13-.17-6.1,1.91-6.81,2.08-.71,3.64.69,3.69,2.41.06,1.72-4.32,5.54-5.6,4.41Z"
             id="path73" />
          <path
             class="cls-1"
             d="M124.57,189.17s.04.01.06.02c.65.23,1.21.81,1.28,1.49.1,1-.88,1.78-1.77,1.96-.62.13-1.3-.04-1.74-.5-.44-.46-.58-1.16-.5-1.79.16-1.25,1.66-1.51,2.67-1.19Z"
             id="path74" />
          <path
             class="cls-1"
             d="M109.6,221.08c2.88.87,6.58,2.75,4.31,5.65-.93,1.19-2.7,1.37-4.09,1.37-1.66,0-4.13.14-5.44-1.12-1.23-1.18-.99-3.62-.46-5.09.52-1.47,2.39-1.5,3.68-1.28.53.09,1.24.25,2.01.48Z"
             id="path75" />
          <path
             class="cls-1"
             d="M116.44,227.53c-1.08-.51-.56-4.28,1.19-5.02s10.67,1.68,10.72,3.62c.05,1.94-10.84,1.9-11.91,1.4Z"
             id="path76" />
        </g>
        <g
           id="g78">
          <path
             class="cls-1"
             d="M49.93,124.08l10.02-7.29c-.15-1.37-.07-3.71,2.33-3.43,3.82.59,2.15,3.99,2.15,3.99,0,0,3.75-.58,3.16,3.24-.5,2.61-3.17,1.6-4.31,1.04l-9.73,7.08c.19,1.26.35,4.11-2.29,3.8-3.82-.59-2.15-3.99-2.15-3.99,0,0-3.75.58-3.16-3.24.45-2.38,2.71-1.75,3.98-1.2Z"
             id="path77" />
          <path
             class="cls-1"
             d="M46.19,132.48c.3-1.45-1.42-4.34-2.57-4.02-1.15.32-2.34,5.74-1.52,6.46.82.71,3.79-.99,4.09-2.44Z"
             id="path78" />
        </g>
        <path
           class="cls-7"
           d="M71.68,74.2c5.18-4.41,41.88-5.25,48.56,0,0,0-4.94-12.9-24.28-12.9s-24.28,12.9-24.28,12.9Z"
           id="path79" />
        <path
           class="cls-4"
           d="M69.24,75.54l-.34-.37c.08-.07,1.95-1.79,5.99-2.68l.11.49c-3.89.86-5.74,2.54-5.75,2.56Z"
           id="path80" />
        <path
           class="cls-4"
           d="M120.61,75.12s-1.86-1.7-5.75-2.56l.11-.49c4.04.89,5.91,2.61,5.99,2.68l-.34.37Z"
           id="path81" />
        <g
           id="g87">
          <path
             class="cls-2"
             d="M121.63,132.35c2.48-2.3,3.64-4.54,2.56-6.7-.89-5.23-56.54-4.83-57.7-.84-1.14,1.86.37,4.47,3.55,7.55-4.3,5.53-6.88,12.48-6.88,20.03,0,18.04,14.63,32.67,32.67,32.67s32.67-14.63,32.67-32.67c0-7.55-2.57-14.5-6.88-20.03Z"
             id="path82" />
          <path
             class="cls-4"
             d="M96.66,135.82c-1.08,0-2.19-.01-3.3-.03-11.23-.23-20.87-1.56-23.45-3.23l.27-.42c4.8,3.11,39.27,5.22,51.35-.02l.2.46c-4.75,2.06-13.97,3.24-25.07,3.24Z"
             id="path83" />
          <path
             class="cls-4"
             d="M95.27,128.87c-13.18,0-26.61-1.59-26.61-3.16,0-1.78,15.76-2.61,26.41-2.61,11.24,0,26.81.91,26.81,2.61,0,1.57-13.43,3.16-26.61,3.16ZM95.08,123.6c-14.86,0-25.44,1.29-25.92,2.14.48.86,11.83,2.63,26.12,2.63s25.37-1.73,26.09-2.66c-.74-.85-11.41-2.11-26.29-2.11Z"
             id="path84" />
          <g
             id="g86">
            <path
               class="cls-4"
               d="M117.13,127.12c-4.79-.64-12.92-1.13-22.06-1.13s-17.04.49-21.72,1.12c4.73.8,12.78,1.51,21.91,1.51s17.12-.7,21.86-1.5Z"
               id="path85" />
            <path
               class="cls-4"
               d="M95.27,128.87c-9.61,0-17.64-.78-21.96-1.51l-1.61-.27,1.62-.22c5.19-.71,13.32-1.13,21.75-1.13s16.86.44,22.09,1.14l1.64.22-1.63.27c-4.32.73-12.33,1.5-21.9,1.5ZM75.19,127.14c4.54.64,11.71,1.23,20.09,1.23s15.47-.59,20.01-1.22c-5.23-.57-12.75-.91-20.21-.91s-14.75.33-19.89.9Z"
               id="path86" />
          </g>
        </g>
        <g
           id="g102">
          <path
             class="cls-1"
             d="M50.69,138.32l8.1,9.5c1.35-.26,3.69-.37,3.61,2.05-.27,3.85-3.8,2.46-3.8,2.46,0,0,.88,3.69-2.97,3.42-2.64-.28-1.86-3.03-1.39-4.21l-7.86-9.23c-1.24.3-4.07.69-3.98-1.97.27-3.85,3.8-2.46,3.8-2.46,0,0-.88-3.69,2.97-3.42,2.41.26,1.97,2.56,1.52,3.86Z"
             id="path87" />
          <g
             id="g101">
            <path
               class="cls-1"
               d="M59.4,154.97c-.45,1.75,1.49,5.38,2.91,5.05,1.42-.33,3.18-6.88,2.22-7.8-.96-.92-4.68.99-5.13,2.74Z"
               id="path88" />
            <path
               class="cls-1"
               d="M64.37,150.03c-.39.35-.32,1.35.15,1.56.47.21,3.86-.47,3.76-1.05-.1-.58-3.52-.86-3.91-.51Z"
               id="path89" />
            <path
               class="cls-1"
               d="M65.89,152.78c-.31.41-.43,1.02-.21,1.34.22.32,2.3.09,2.43-.08.13-.17.24-.75-.06-1.14-.3-.39-1.84-.52-2.15-.11Z"
               id="path90" />
            <path
               class="cls-1"
               d="M69.03,152.82c-.27.35-.37.88-.18,1.15s1.97.08,2.09-.07c.11-.15.21-.65-.05-.98s-1.58-.45-1.85-.1Z"
               id="path91" />
            <path
               class="cls-1"
               d="M71.78,152.79c-.27.35-.37.88-.18,1.15s1.23.05,1.35-.1c.11-.15.21-.65-.05-.98s-.85-.42-1.11-.07Z"
               id="path92" />
            <path
               class="cls-1"
               d="M65.78,155.11c-.38.35-.61.92-.45,1.28s2.24.51,2.4.36c.16-.15.38-.69.15-1.14-.23-.44-1.72-.85-2.1-.5Z"
               id="path93" />
            <path
               class="cls-1"
               d="M68.86,155.71c-.33.3-.53.79-.39,1.1.14.31,1.93.44,2.07.31s.32-.6.13-.98-1.48-.73-1.8-.43Z"
               id="path94" />
            <path
               class="cls-1"
               d="M71.57,156.18c-.33.3-.53.79-.39,1.1.14.31,1.21.27,1.34.14.14-.13.32-.6.13-.98s-.76-.56-1.08-.27Z"
               id="path95" />
            <path
               class="cls-1"
               d="M65.06,157.62c-.38.35-.61.92-.45,1.28.16.36,2.24.51,2.4.36.16-.15.38-.69.15-1.14-.23-.44-1.72-.85-2.1-.5Z"
               id="path96" />
            <path
               class="cls-1"
               d="M68.14,158.23c-.33.3-.53.79-.39,1.1.14.31,1.93.44,2.07.31.14-.13.32-.6.13-.98s-1.48-.73-1.8-.43Z"
               id="path97" />
            <path
               class="cls-1"
               d="M70.85,158.7c-.33.3-.53.79-.39,1.1.14.31,1.21.27,1.34.14s.32-.6.13-.98c-.2-.38-.76-.56-1.08-.27Z"
               id="path98" />
            <path
               class="cls-1"
               d="M64.08,159.87c-.44.26-.8.77-.72,1.15.08.38,2.08.98,2.27.87.19-.11.52-.6.39-1.08-.13-.48-1.49-1.2-1.94-.94Z"
               id="path99" />
            <path
               class="cls-1"
               d="M66.96,161.12c-.38.22-.68.66-.62.99.07.33,1.79.84,1.95.75s.44-.51.33-.93c-.11-.41-1.28-1.03-1.67-.81Z"
               id="path100" />
            <path
               class="cls-1"
               d="M69.5,162.16c-.38.22-.68.66-.62.99.07.33,1.12.52,1.28.43.16-.09.44-.51.33-.93-.11-.41-.62-.71-1-.49Z"
               id="path101" />
          </g>
        </g>
        <g
           id="g103">
          <path
             class="cls-1"
             d="M142.17,124.08l-10.02-7.29c.15-1.37.07-3.71-2.33-3.43-3.82.59-2.15,3.99-2.15,3.99,0,0-3.75-.58-3.16,3.24.5,2.61,3.17,1.6,4.31,1.04l9.73,7.08c-.19,1.26-.35,4.11,2.29,3.8,3.82-.59,2.15-3.99,2.15-3.99,0,0,3.75.58,3.16-3.24-.45-2.38-2.71-1.75-3.98-1.2Z"
             id="path102" />
          <path
             class="cls-1"
             d="M145.91,132.48c-.3-1.45,1.42-4.34,2.57-4.02,1.15.32,2.34,5.74,1.52,6.46s-3.79-.99-4.09-2.44Z"
             id="path103" />
        </g>
        <g
           id="g119">
          <path
             class="cls-1"
             d="M141.42,138.32l-8.1,9.5c-1.35-.26-3.69-.37-3.61,2.05.27,3.85,3.8,2.46,3.8,2.46,0,0-.88,3.69,2.97,3.42,2.64-.28,1.86-3.03,1.39-4.21l7.86-9.23c1.24.3,4.07.69,3.98-1.97-.27-3.85-3.8-2.46-3.8-2.46,0,0,.88-3.69-2.97-3.42-2.41.26-1.97,2.56-1.52,3.86Z"
             id="path104" />
          <g
             id="g118">
            <path
               class="cls-1"
               d="M132.7,154.97c.45,1.75-1.49,5.38-2.91,5.05-1.42-.33-3.18-6.88-2.22-7.8.96-.92,4.68.99,5.13,2.74Z"
               id="path105" />
            <path
               class="cls-1"
               d="M127.74,150.03c.39.35.32,1.35-.15,1.56s-3.86-.47-3.76-1.05c.1-.58,3.52-.86,3.91-.51Z"
               id="path106" />
            <path
               class="cls-1"
               d="M126.22,152.78c.31.41.43,1.02.21,1.34-.22.32-2.3.09-2.43-.08-.13-.17-.24-.75.06-1.14.31-.39,1.84-.52,2.15-.11Z"
               id="path107" />
            <path
               class="cls-1"
               d="M123.08,152.82c.27.35.37.88.18,1.15-.19.28-1.97.08-2.09-.07-.11-.15-.21-.65.05-.98.26-.34,1.58-.45,1.85-.1Z"
               id="path108" />
            <path
               class="cls-1"
               d="M120.33,152.79c.27.35.37.88.18,1.15s-1.23.05-1.35-.1c-.11-.15-.21-.65.05-.98.26-.34.85-.42,1.11-.07Z"
               id="path109" />
            <path
               class="cls-1"
               d="M126.33,155.11c.38.35.61.92.45,1.28s-2.24.51-2.4.36c-.16-.15-.38-.69-.15-1.14.23-.44,1.72-.85,2.1-.5Z"
               id="path110" />
            <path
               class="cls-1"
               d="M123.24,155.71c.33.3.53.79.39,1.1-.14.31-1.93.44-2.07.31s-.32-.6-.13-.98,1.48-.73,1.8-.43Z"
               id="path111" />
            <path
               class="cls-1"
               d="M120.53,156.18c.33.3.53.79.39,1.1-.14.31-1.21.27-1.34.14-.14-.13-.32-.6-.13-.98s.76-.56,1.08-.27Z"
               id="path112" />
            <path
               class="cls-1"
               d="M127.05,157.62c.38.35.61.92.45,1.28-.16.36-2.24.51-2.4.36-.16-.15-.38-.69-.15-1.14s1.72-.85,2.1-.5Z"
               id="path113" />
            <path
               class="cls-1"
               d="M123.96,158.23c.33.3.53.79.39,1.1-.14.31-1.93.44-2.07.31-.14-.13-.32-.6-.13-.98s1.48-.73,1.8-.43Z"
               id="path114" />
            <path
               class="cls-1"
               d="M121.26,158.7c.33.3.53.79.39,1.1-.14.31-1.21.27-1.34.14-.14-.13-.32-.6-.13-.98.2-.38.76-.56,1.08-.27Z"
               id="path115" />
            <path
               class="cls-1"
               d="M128.03,159.87c.44.26.8.77.72,1.15-.08.38-2.08.98-2.27.87s-.52-.6-.39-1.08c.13-.48,1.49-1.2,1.94-.94Z"
               id="path116" />
            <path
               class="cls-1"
               d="M125.15,161.12c.38.22.68.66.62.99-.07.33-1.79.84-1.95.75-.16-.09-.44-.51-.33-.93.11-.41,1.28-1.03,1.67-.81Z"
               id="path117" />
            <path
               class="cls-1"
               d="M122.6,162.16c.38.22.68.66.62.99-.07.33-1.12.52-1.28.43-.16-.09-.44-.51-.33-.93.11-.41.62-.71,1-.49Z"
               id="path118" />
          </g>
        </g>
      </g>
      <g
         id="g186">
        <path
           class="cls-2"
           d="M376.66,100.47c-15.54,43.33-36.42,88.37-62.13,101.65,35.54,8.31,89.12,10.68,112.49-10.16l-20.42-91.27c-9.07-3.23-19.02-3.41-29.94-.22Z"
           id="path120" />
        <g
           id="g174">
          <path
             class="cls-1"
             d="M401.64,57.46c-5.3-3.11-25.54-.96-30.06,5s-5.49,13.95-2.87,18.3c2.63,4.35,12.39,5.07,12.39,5.07,0,0,2.02,3.96,3,5.08.98,1.11,3.08,2.33,5.1.2,1.82,1.75,4.9.96,5.66-.78,0,0,2.14,1.73,4.55-.25,1.66-1.37,1.87-7.18,1.87-7.18,0,0,8.3-4.42,9.65-9.25,1.35-4.82-3.99-13.07-9.29-16.18Z"
             id="path121" />
          <g
             id="g125">
            <path
               class="cls-1"
               d="M387.76,96.13c1.33-1.31,6.63-1.12,7.38-.05.74,1.07,1.89,33.97.72,34.94-1.16.97-7.83,1.55-9.06,0-1.23-1.55-.37-33.58.96-34.89Z"
               id="path122" />
            <path
               class="cls-1"
               d="M363.68,109.48c-.9-1.36,9.34-11.3,27.32-11.3s30.45,9.83,29.51,11.3c-.94,1.47-12.75-4.26-29.51-4-16.77.26-26.43,5.36-27.32,4Z"
               id="path123" />
            <path
               class="cls-1"
               d="M372.45,120.21c-.64-1.11,6.65-9.18,19.45-9.18s21.68,7.98,21.01,9.18-9.07-3.46-21.01-3.25c-11.94.21-18.81,4.35-19.45,3.25Z"
               id="path124" />
            <path
               class="cls-1"
               d="M375.82,131.11c-.53-.92,5.54-7.65,16.21-7.65s18.07,6.65,17.51,7.65-7.56-2.88-17.51-2.7c-9.95.18-15.68,3.63-16.21,2.7Z"
               id="path125" />
          </g>
          <path
             class="cls-1"
             d="M407.45,134.73c-4.23-4-8.12-.24-11.34,1.89-2.93,2.01-5.02,1.98-7.75.19-3.27-2.09-7.27-6.19-11.62-2.08-4.83,5.12,2.06,8.89,3.46,11.58,1.4,2.68,1.59,6.83,4.83,7.47,3.24.65,3.96-4.27,7.06-4.52,3.1.25,3.82,5.17,7.06,4.52,3.24-.65,3.43-4.79,4.83-7.47,1.4-2.68,8.29-6.46,3.46-11.58ZM384.42,143.44c-.56.14-1.16.02-1.68-.23-.56-.26-1.11-.63-1.61-1.06-.8-.69-1.48-1.56-1.88-2.47-.38-.86-.35-2.22.66-2.63.32-.13.68-.15,1.03-.13,1.92.11,3.52,1.32,4.42,2.97.75,1.36.85,3.08-.95,3.54ZM404.94,139.69c-.4.91-1.08,1.78-1.88,2.47-.5.43-1.05.79-1.61,1.06-.52.25-1.12.37-1.68.23-1.81-.46-1.7-2.18-.95-3.54.9-1.65,2.5-2.87,4.42-2.97.35-.02.71,0,1.03.13,1.01.41,1.04,1.76.66,2.63Z"
             id="path126" />
          <g
             id="g132">
            <path
               class="cls-1"
               d="M375.09,180.63l4.49-18.13c1.57-.45,4.12-1.6,2.72-4.12-2.37-3.94-5.36-.55-5.36-.55,0,0-1.06-4.38-5-2.01-2.65,1.73-.33,4.22.81,5.22l-4.39,17.71c-1.47.35-4.68,1.47-3.15,4.24,2.37,3.94,5.36.55,5.36.55,0,0,1.06,4.38,5,2.01,2.41-1.58.7-3.78-.48-4.92Z"
               id="path127" />
            <path
               class="cls-1"
               d="M363.68,194.97l-3.78,18.29c-1.56.51-4.05,1.76-2.56,4.23,2.52,3.84,5.38.35,5.38.35,0,0,1.23,4.34,5.07,1.82,2.58-1.83.16-4.23-1.01-5.18l3.7-17.87c1.45-.41,4.62-1.65,2.98-4.36-2.52-3.84-5.38-.35-5.38-.35,0,0-1.23-4.34-5.07-1.82-2.35,1.67-.55,3.8.67,4.89Z"
               id="path128" />
            <path
               class="cls-1"
               d="M379.43,154.45c1.11-1.3-.71-6.06-2.88-6.46-2.16-.4-3.5,1.21-3.31,2.92.19,1.71,5.07,4.85,6.18,3.55Z"
               id="path129" />
            <path
               class="cls-1"
               d="M368.43,186.05s-.04.02-.06.03c-.61.32-1.08.97-1.05,1.66.04,1,1.13,1.63,2.04,1.68.63.04,1.28-.23,1.65-.74.37-.52.4-1.23.23-1.84-.34-1.21-1.86-1.26-2.82-.79Z"
               id="path130" />
            <path
               class="cls-1"
               d="M358.61,220.69c-2.86,1-6.5,3.09-4.15,6.08.97,1.23,2.73,1.37,4.13,1.32,1.66-.06,4.13.03,5.41-1.34,1.2-1.28.89-3.84.32-5.38-.56-1.54-2.43-1.51-3.71-1.24-.52.11-1.23.3-1.99.56Z"
               id="path131" />
            <path
               class="cls-1"
               d="M351.95,227.68c1.06-.54.44-4.3-1.33-4.98-1.77-.69-10.62,1.98-10.62,3.92s10.88,1.61,11.94,1.07Z"
               id="path132" />
          </g>
          <g
             id="g138">
            <path
               class="cls-1"
               d="M403.24,177.98l-.26-18.67c-1.43-.8-3.64-2.5-1.71-4.63,3.21-3.3,5.34.68,5.34.68,0,0,2.03-4.03,5.32-.82,2.18,2.29-.64,4.18-1.97,4.9l.25,18.24c1.35.68,4.23,2.5,2.1,4.84-3.21,3.3-5.34-.68-5.34-.68,0,0-2.03,4.03-5.32.82-1.99-2.08.18-3.84,1.59-4.68Z"
               id="path133" />
            <path
               class="cls-1"
               d="M411.1,194.53l-.47,18.67c1.4.85,3.55,2.64,1.53,4.7-3.33,3.17-5.31-.88-5.31-.88,0,0-2.18,3.95-5.35.62-2.09-2.37.8-4.15,2.16-4.82l.46-18.24c-1.32-.73-4.13-2.66-1.91-4.92,3.33-3.17,5.31.88,5.31.88,0,0,2.18-3.95,5.35-.62,1.91,2.16-.33,3.83-1.77,4.61Z"
               id="path134" />
            <path
               class="cls-1"
               d="M404.97,151.49c-.78-1.52,2.07-5.74,4.27-5.64,2.2.1,3.13,1.97,2.56,3.59-.58,1.62-6.04,3.57-6.83,2.05Z"
               id="path135" />
            <path
               class="cls-1"
               d="M408.51,184.78s.03.03.05.04c.52.45.83,1.19.64,1.86-.27.97-1.47,1.33-2.37,1.18-.62-.11-1.2-.52-1.44-1.1-.24-.59-.11-1.29.19-1.85.6-1.1,2.1-.8,2.92-.13Z"
               id="path136" />
            <path
               class="cls-1"
               d="M408.48,220.81c2.89.85,6.59,2.71,4.34,5.62-.93,1.2-2.69,1.39-4.09,1.39-1.66,0-4.13.17-5.44-1.09-1.24-1.18-1.01-3.62-.49-5.09.52-1.48,2.38-1.51,3.67-1.3.53.08,1.24.24,2.01.47Z"
               id="path137" />
            <path
               class="cls-1"
               d="M415.36,227.61c-1.08-.5-.58-4.28,1.16-5.03,1.75-.74,10.68,1.62,10.74,3.56s-10.82,1.97-11.9,1.47Z"
               id="path138" />
          </g>
          <g
             id="g156">
            <path
               class="cls-1"
               d="M359.28,128.06l5.34-11.18c1.37-.1,3.66-.61,2.95-2.92-1.27-3.65-4.31-1.38-4.31-1.38,0,0-.11-3.79-3.76-2.52-2.48.97-1,3.41-.24,4.43l-5.19,10.86c-1.27.04-4.11.4-3.32,2.94,1.27,3.65,4.31,1.38,4.31,1.38,0,0,.11,3.79,3.76,2.52,2.26-.88,1.23-2.99.45-4.13Z"
               id="path139" />
            <path
               class="cls-1"
               d="M347.06,139.05l-5.97,10.96c-1.38.02-3.69.39-3.12,2.74,1.06,3.72,4.22,1.63,4.22,1.63,0,0-.11,3.79,3.61,2.73,2.53-.82,1.19-3.35.5-4.41l5.8-10.65c1.27.04,4.12-.16,3.49-2.74-1.06-3.72-4.22-1.63-4.22-1.63,0,0,.11-3.79-3.61-2.73-2.3.75-1.4,2.91-.69,4.09Z"
               id="path140" />
            <path
               class="cls-1"
               d="M352.52,135.92c-1.34-.62-2.65-3.72-1.71-4.45.94-.73,6.01,1.53,6.1,2.61.09,1.08-3.05,2.46-4.39,1.84Z"
               id="path141" />
            <g
               id="g155">
              <path
                 class="cls-1"
                 d="M340.88,156.83c1.62.81,3.08,4.66,1.9,5.51s-7.28-2.12-7.34-3.44c-.06-1.33,3.82-2.87,5.44-2.07Z"
                 id="path142" />
              <path
                 class="cls-1"
                 d="M333.9,157.33c.52-.07,1.23.65,1.08,1.14s-2.89,2.61-3.26,2.15c-.37-.46,1.66-3.22,2.18-3.28Z"
                 id="path143" />
              <path
                 class="cls-1"
                 d="M334.97,160.28c.51.03,1.05.34,1.15.72.1.38-1.44,1.79-1.66,1.78-.22-.01-.73-.31-.82-.8-.1-.49.82-1.73,1.33-1.7Z"
                 id="path144" />
              <path
                 class="cls-1"
                 d="M332.94,162.67c.44.03.91.29.99.62s-1.24,1.54-1.42,1.53c-.19-.01-.63-.27-.71-.69-.08-.42.7-1.49,1.14-1.46Z"
                 id="path145" />
              <path
                 class="cls-1"
                 d="M331.11,164.73c.44.03.91.29.99.62s-.77.96-.96.95c-.19-.01-.63-.27-.71-.69s.24-.91.68-.88Z"
                 id="path146" />
              <path
                 class="cls-1"
                 d="M336.8,161.73c.51-.06,1.1.14,1.26.5.16.35-1.09,2.02-1.31,2.05-.22.02-.77-.17-.95-.64-.18-.46.49-1.85,1-1.91Z"
                 id="path147" />
              <path
                 class="cls-1"
                 d="M335.23,164.45c.44-.05.94.12,1.09.43s-.94,1.74-1.12,1.76c-.19.02-.66-.15-.82-.55-.16-.4.42-1.59.86-1.64Z"
                 id="path148" />
              <path
                 class="cls-1"
                 d="M333.8,166.8c.44-.05.94.12,1.09.43s-.59,1.09-.77,1.11c-.19.02-.66-.15-.82-.55s.07-.94.51-.99Z"
                 id="path149" />
              <path
                 class="cls-1"
                 d="M339.17,162.84c.51-.06,1.1.14,1.26.5.16.35-1.09,2.02-1.31,2.05-.22.03-.77-.17-.95-.64s.49-1.85,1-1.91Z"
                 id="path150" />
              <path
                 class="cls-1"
                 d="M337.6,165.56c.44-.05.94.12,1.09.43.14.3-.94,1.74-1.12,1.76-.19.02-.66-.15-.82-.55s.42-1.59.86-1.64Z"
                 id="path151" />
              <path
                 class="cls-1"
                 d="M336.18,167.91c.44-.05.94.12,1.09.43.14.3-.59,1.09-.77,1.11-.19.02-.66-.15-.82-.55s.07-.94.51-.99Z"
                 id="path152" />
              <path
                 class="cls-1"
                 d="M341.51,163.57c.48-.17,1.1-.1,1.34.21.24.31-.63,2.21-.83,2.28-.21.07-.79,0-1.07-.41-.28-.41.08-1.91.56-2.08Z"
                 id="path153" />
              <path
                 class="cls-1"
                 d="M340.56,166.56c.42-.14.95-.08,1.15.18s-.54,1.9-.72,1.96c-.18.06-.68,0-.92-.36-.24-.35.07-1.65.48-1.79Z"
                 id="path154" />
              <path
                 class="cls-1"
                 d="M339.67,169.17c.42-.14.95-.08,1.15.18s-.34,1.19-.52,1.25c-.18.06-.68,0-.92-.36-.24-.35-.13-.93.28-1.08Z"
                 id="path155" />
            </g>
          </g>
          <g
             id="g173">
            <path
               class="cls-1"
               d="M427.66,88.49l-6.52,10.53c-1.38-.05-3.71.21-3.25,2.58.87,3.77,4.14,1.84,4.14,1.84,0,0-.3,3.78,3.47,2.91,2.57-.69,1.36-3.28.72-4.38l6.33-10.23c1.27.1,4.12.05,3.62-2.56-.87-3.77-4.14-1.84-4.14-1.84,0,0,.3-3.78-3.47-2.91-2.34.63-1.55,2.84-.9,4.05Z"
               id="path156" />
            <path
               class="cls-1"
               d="M441.01,78.9l7.12-10.25c1.37.13,3.71.01,3.39-2.39-.65-3.81-4.02-2.08-4.02-2.08,0,0,.52-3.76-3.29-3.11-2.6.54-1.55,3.2-.97,4.33l-6.92,9.95c-1.26-.17-4.12-.29-3.77,2.35.65,3.81,4.02,2.08,4.02,2.08,0,0-.52,3.76,3.29,3.11,2.37-.49,1.71-2.74,1.13-3.99Z"
               id="path157" />
            <path
               class="cls-1"
               d="M435.23,81.41c1.27.76,2.23,3.99,1.22,4.61-1.01.62-5.81-2.17-5.78-3.26.03-1.09,3.29-2.11,4.56-1.36Z"
               id="path158" />
            <g
               id="g172">
              <path
                 class="cls-1"
                 d="M449.08,61.9c-1.52-.98-2.56-4.97-1.29-5.68,1.27-.72,7,2.9,6.92,4.22-.08,1.33-4.11,2.44-5.63,1.46Z"
                 id="path159" />
              <path
                 class="cls-1"
                 d="M456.07,62.15c-.53,0-1.15-.78-.95-1.25.2-.47,3.15-2.28,3.47-1.78s-2,3.02-2.53,3.03Z"
                 id="path160" />
              <path
                 class="cls-1"
                 d="M455.32,59.1c-.51-.09-1.01-.45-1.07-.84s1.62-1.63,1.84-1.59.69.39.73.88-1,1.63-1.5,1.54Z"
                 id="path161" />
              <path
                 class="cls-1"
                 d="M457.61,56.95c-.43-.08-.87-.39-.92-.72-.05-.33,1.4-1.4,1.58-1.36.19.03.59.33.63.76.04.43-.86,1.41-1.29,1.33Z"
                 id="path162" />
              <path
                 class="cls-1"
                 d="M459.65,55.1c-.43-.08-.87-.39-.92-.72-.05-.33.87-.87,1.06-.84.19.03.59.33.63.76s-.34.88-.77.8Z"
                 id="path163" />
              <path
                 class="cls-1"
                 d="M453.67,57.47c-.51,0-1.08-.26-1.2-.63-.13-.37,1.3-1.89,1.52-1.89.22,0,.75.26.88.74.13.48-.69,1.79-1.2,1.79Z"
                 id="path164" />
              <path
                 class="cls-1"
                 d="M455.52,54.93c-.44,0-.92-.23-1.03-.54-.11-.32,1.12-1.63,1.31-1.63.19,0,.64.22.76.63.11.41-.59,1.54-1.03,1.54Z"
                 id="path165" />
              <path
                 class="cls-1"
                 d="M457.19,52.75c-.44,0-.92-.23-1.03-.54-.11-.32.7-1.02.89-1.02.19,0,.64.22.76.63.11.41-.17.93-.61.93Z"
                 id="path166" />
              <path
                 class="cls-1"
                 d="M451.43,56.11c-.51,0-1.08-.26-1.2-.63s1.3-1.89,1.52-1.89.75.26.88.74c.13.48-.69,1.79-1.2,1.79Z"
                 id="path167" />
              <path
                 class="cls-1"
                 d="M453.28,53.57c-.44,0-.92-.23-1.03-.54s1.12-1.63,1.31-1.63.64.22.76.63c.11.41-.59,1.54-1.03,1.54Z"
                 id="path168" />
              <path
                 class="cls-1"
                 d="M454.96,51.39c-.44,0-.92-.23-1.03-.54-.11-.32.7-1.02.89-1.02.19,0,.64.22.76.63.11.41-.17.93-.61.93Z"
                 id="path169" />
              <path
                 class="cls-1"
                 d="M449.19,55.13c-.5.11-1.11-.02-1.31-.36-.2-.33.86-2.13,1.08-2.18.21-.05.79.09,1.02.53s-.28,1.89-.78,2.01Z"
                 id="path170" />
              <path
                 class="cls-1"
                 d="M450.45,52.25c-.43.1-.95-.02-1.13-.31-.17-.29.74-1.83.93-1.87.18-.04.68.08.87.45.2.38-.24,1.63-.67,1.73Z"
                 id="path171" />
              <path
                 class="cls-1"
                 d="M451.61,49.76c-.43.1-.95-.02-1.13-.31-.17-.29.47-1.14.65-1.19.18-.04.68.08.88.45.2.38.03.94-.4,1.04Z"
                 id="path172" />
            </g>
          </g>
        </g>
        <g
           id="g177">
          <path
             class="cls-2"
             d="M379.52,99.62l12.58,3.69,10.44-3.83c-2.23-.55-4.55-.94-6.97-1.18l-3.47,4.16-5.12-4.11c-2.55.18-5.03.62-7.45,1.27Z"
             id="path174" />
          <path
             class="cls-2"
             d="M393.24,102.51c0,.8-.65,1.44-1.44,1.44s-1.44-.65-1.44-1.44.65-1.44,1.44-1.44,1.44.65,1.44,1.44Z"
             id="path175" />
          <path
             class="cls-2"
             d="M392.1,101.95c-3.35,2.74-4.02,5.77-2,9.08,1.73-2.35,2.47-5.33,2-9.08Z"
             id="path176" />
          <path
             class="cls-2"
             d="M392.05,102.51c2.66,2.18,3.19,4.58,1.59,7.2-1.37-1.86-1.96-4.23-1.59-7.2Z"
             id="path177" />
        </g>
        <g
           id="g183">
          <path
             class="cls-2"
             d="M370.07,72.18c0,1.34-1.09,2.43-2.43,2.43s-2.43-1.09-2.43-2.43,1.09-2.43,2.43-2.43,2.43,1.09,2.43,2.43Z"
             id="path178" />
          <path
             class="cls-2"
             d="M367.28,71.31c-1.14,6.25-5.49,8.36-11.71,8.06,1.13-3.34,4.51-6.15,11.71-8.06Z"
             id="path179" />
          <path
             class="cls-2"
             d="M366.68,72.33c2.4,5.88-.14,10-5.54,13.09-.85-3.42.5-7.61,5.54-13.09Z"
             id="path180" />
          <path
             class="cls-2"
             d="M369.16,66.56c13.52-2.99,26.27-3.74,39.7-1.8,1.43,2.36,4.47,7.93-.02,12.84-10.8,3.55-13.92-1.5-18.23-1.54-4.31-.05-5.53,8.25-20.03,7.06-4.34-3.06-4.92-11.16-1.42-16.55Z"
             id="path181" />
          <path
             class="cls-4"
             d="M367.15,78.34c-1-4.84.21-8.51.26-8.67l.47.16s-1.22,3.71-.24,8.41l-.49.1Z"
             id="path182" />
          <path
             class="cls-4"
             d="M362.51,78.47l-.46-.2c1.03-2.41,2.67-4.53,4.9-6.29l.31.39c-2.15,1.71-3.75,3.76-4.75,6.09Z"
             id="path183" />
        </g>
        <path
           class="cls-4"
           d="M386.29,76.01c-1.44,3.5-4.72,5.46-7.32,4.39-2.6-1.07-3.54-4.78-2.1-8.28,1.44-3.5,4.72-5.46,7.32-4.39,2.6,1.07,3.54,4.78,2.1,8.28Z"
           id="path184" />
        <path
           class="cls-4"
           d="M393.59,82.65c-.5.52-2.66-1.01-2.66-1.01,0,0-1.56,2.23-2.34,1.43-.78-.79,1.03-6.03,2.28-6.19s3.22,5.25,2.72,5.78Z"
           id="path185" />
        <path
           class="cls-4"
           d="M401.4,76.74c-1.74,1.56-4.85.93-6.95-1.41-2.1-2.34-2.39-5.5-.65-7.06,1.74-1.56,4.85-.93,6.95,1.41,2.1,2.34,2.39,5.5.65,7.06Z"
           id="path186" />
      </g>
      <g
         id="g294">
        <g
           id="g239">
          <path
             class="cls-2"
             d="M214.06,302.63c-4.98-2.94-24.03-.96-28.29,4.64-4.26,5.6-5.2,13.11-2.74,17.21,2.46,4.1,11.64,4.8,11.64,4.8,0,0,1.89,3.73,2.81,4.78s2.89,2.2,4.79.2c1.71,1.65,4.61.91,5.33-.72,0,0,2.01,1.63,4.28-.23,1.57-1.28,1.78-6.76,1.78-6.76,0,0,7.82-4.14,9.1-8.68,1.28-4.54-3.73-12.31-8.7-15.24ZM205.96,325.18c-.47.49-2.51-.96-2.51-.96,0,0-1.47,2.09-2.2,1.34-.74-.75.99-5.67,2.16-5.82,1.18-.15,3.01,4.95,2.55,5.44ZM197.38,322.25c-1.67.91-9.33-4.1-7.23-7.71,1.64-2.59,4.11.71,4.11.71,0,0,1.16-5.11,4.08-4.11,2.92,1,.71,10.2-.96,11.11ZM209.11,319.74c-1.57-.38-5.41-7.48-3.23-8.94s4.26,2.49,4.26,2.49c0,0,1.31-3.26,3.23-1.49,2.52,2.51-2.69,8.32-4.26,7.93Z"
             id="path187" />
          <g
             id="g191">
            <path
               class="cls-2"
               d="M202.68,338.83c1.13-1.11,5.63-.95,6.27-.04.63.91,1.6,28.85.62,29.68-.99.82-6.65,1.32-7.69,0-1.04-1.32-.31-28.52.81-29.64Z"
               id="path188" />
            <path
               class="cls-2"
               d="M182.23,350.16c-.76-1.16,7.93-9.6,23.21-9.6s25.87,8.35,25.07,9.6c-.8,1.25-10.83-3.62-25.07-3.4-14.24.22-22.45,4.55-23.21,3.4Z"
               id="path189" />
            <path
               class="cls-2"
               d="M189.68,359.27c-.54-.94,5.65-7.79,16.52-7.79s18.42,6.78,17.85,7.79-7.71-2.94-17.85-2.76c-10.14.18-15.98,3.7-16.52,2.76Z"
               id="path190" />
            <path
               class="cls-2"
               d="M192.54,368.54c-.45-.78,4.7-6.5,13.77-6.5s15.35,5.65,14.87,6.5c-.47.85-6.42-2.45-14.87-2.3-8.45.15-13.32,3.08-13.77,2.3Z"
               id="path191" />
          </g>
          <path
             class="cls-2"
             d="M220.81,371.28c-3.98-3.76-7.64-.22-10.67,1.78-2.76,1.89-4.73,1.86-7.29.17-3.07-1.96-6.84-5.83-10.93-1.95-4.54,4.81,1.94,8.37,3.26,10.9,1.31,2.53,1.49,6.42,4.54,7.03,3.05.61,3.73-4.01,6.65-4.25,2.92.24,3.59,4.86,6.65,4.25,3.05-.61,3.23-4.51,4.54-7.03,1.31-2.53,7.8-6.08,3.26-10.9ZM199.14,379.48c-.52.13-1.09.02-1.58-.21-.53-.25-1.04-.59-1.51-.99-.76-.65-1.39-1.47-1.77-2.33-.35-.81-.33-2.08.62-2.47.31-.12.64-.14.97-.12,1.81.1,3.31,1.24,4.16,2.8.7,1.28.8,2.9-.9,3.33ZM218.45,375.95c-.38.86-1.01,1.68-1.77,2.33-.47.4-.98.75-1.51.99-.49.23-1.05.35-1.58.21-1.7-.44-1.6-2.05-.9-3.33.85-1.56,2.35-2.7,4.16-2.8.33-.02.67,0,.97.12.95.39.98,1.66.62,2.47Z"
             id="path192" />
          <g
             id="g210">
            <path
               class="cls-2"
               d="M234.45,367.32l-4.05-10.93c-1.28-.21-3.38-.88-2.51-2.99,1.51-3.31,4.16-.93,4.16-.93,0,0,.43-3.54,3.74-2.04,2.24,1.12.64,3.28-.16,4.17l3.93,10.62c1.19.14,3.81.73,2.86,3.04-1.51,3.31-4.16.93-4.16.93,0,0-.43,3.54-3.74,2.04-2.04-1.02-.9-2.91-.07-3.91Z"
               id="path193" />
            <path
               class="cls-2"
               d="M240.14,381.05l-1.46,11.65c1.04.77,2.61,2.33.87,3.81-2.85,2.26-4.12-1.07-4.12-1.07,0,0-2,2.95-4.26.1-1.48-2.01.93-3.21,2.04-3.64l1.42-11.32c-.99-.67-3.06-2.39-1.16-4.01,2.85-2.26,4.12,1.07,4.12,1.07,0,0,2-2.95,4.26-.1,1.35,1.84-.53,2.99-1.72,3.51Z"
               id="path194" />
            <path
               class="cls-2"
               d="M239.18,371.25c-1.36.28-3.22,2.86-2.51,3.73.71.87,5.84-.13,6.14-1.11s-2.27-2.9-3.64-2.62Z"
               id="path195" />
            <g
               id="g209">
              <path
                 class="cls-2"
                 d="M235.1,398.02c-1.68-.27-4.91,1.87-4.48,3.17.43,1.3,6.72,2.38,7.5,1.4s-1.34-4.29-3.02-4.56Z"
                 id="path196" />
              <path
                 class="cls-2"
                 d="M240.15,402.24c-.37-.34-1.3-.18-1.45.28-.15.45.78,3.58,1.31,3.43.54-.15.5-3.37.14-3.71Z"
                 id="path197" />
              <path
                 class="cls-2"
                 d="M237.71,403.91c-.41-.25-.99-.32-1.27-.08s.11,2.16.29,2.27c.17.11.73.16,1.07-.16.34-.32.33-1.77-.08-2.03Z"
                 id="path198" />
              <path
                 class="cls-2"
                 d="M237.95,406.85c-.35-.22-.85-.27-1.1-.07-.24.2.1,1.86.25,1.95s.62.14.92-.14.28-1.52-.07-1.74Z"
                 id="path199" />
              <path
                 class="cls-2"
                 d="M238.22,409.42c-.35-.22-.85-.27-1.1-.07-.24.2.06,1.16.21,1.25s.62.14.92-.14c.29-.28.32-.83-.03-1.05Z"
                 id="path200" />
              <path
                 class="cls-2"
                 d="M235.52,404.01c-.36-.32-.92-.49-1.24-.31-.32.18-.28,2.14-.13,2.28.15.14.68.29,1.08.04s.64-1.68.29-2.01Z"
                 id="path201" />
              <path
                 class="cls-2"
                 d="M235.23,406.95c-.31-.28-.79-.42-1.07-.27s-.24,1.84-.11,1.96c.13.12.59.25.93.03.34-.22.55-1.45.25-1.73Z"
                 id="path202" />
              <path
                 class="cls-2"
                 d="M235.03,409.53c-.31-.28-.79-.42-1.07-.27s-.15,1.15-.02,1.27.59.25.93.03c.34-.22.46-.76.16-1.04Z"
                 id="path203" />
              <path
                 class="cls-2"
                 d="M233.1,403.55c-.36-.32-.92-.49-1.24-.31s-.28,2.14-.13,2.28.68.29,1.08.04c.39-.25.64-1.68.29-2.01Z"
                 id="path204" />
              <path
                 class="cls-2"
                 d="M232.81,406.49c-.31-.28-.79-.42-1.07-.27-.28.15-.24,1.84-.11,1.96.13.12.59.25.93.03.34-.22.55-1.45.25-1.73Z"
                 id="path205" />
              <path
                 class="cls-2"
                 d="M232.6,409.07c-.31-.28-.79-.42-1.06-.27-.28.15-.15,1.15-.02,1.27.13.12.59.25.93.03.34-.22.46-.76.16-1.04Z"
                 id="path206" />
              <path
                 class="cls-2"
                 d="M230.92,402.83c-.28-.39-.79-.68-1.14-.57-.35.11-.73,2.03-.62,2.2.12.17.6.43,1.04.27.44-.16.99-1.5.71-1.9Z"
                 id="path207" />
              <path
                 class="cls-2"
                 d="M229.99,405.64c-.24-.34-.68-.58-.98-.49s-.63,1.75-.53,1.89c.1.14.52.37.9.23.38-.14.85-1.29.61-1.63Z"
                 id="path208" />
              <path
                 class="cls-2"
                 d="M229.24,408.11c-.24-.34-.68-.58-.98-.49-.3.09-.39,1.09-.29,1.24.1.14.52.37.9.23.38-.14.62-.64.38-.98Z"
                 id="path209" />
            </g>
          </g>
          <g
             id="g227">
            <path
               class="cls-2"
               d="M180.69,369.22l1.48-11.56c1.2-.49,3.1-1.62,1.78-3.48-2.21-2.89-4.26.03-4.26.03,0,0-1.22-3.35-4.1-1.14-1.93,1.59.11,3.34,1.09,4.03l-1.44,11.23c-1.12.41-3.55,1.57-2.1,3.61,2.21,2.89,4.26-.03,4.26-.03,0,0,1.22,3.35,4.1,1.14,1.76-1.45.22-3.03-.81-3.82Z"
               id="path210" />
            <path
               class="cls-2"
               d="M168.6,375.03l-11.5-2.38c-.39-1.23-1.36-3.22-3.32-2.06-3.06,1.97-.32,4.25-.32,4.25,0,0-3.44.94-1.48,4,1.43,2.05,3.34.16,4.11-.76l11.17,2.31c.31,1.15,1.27,3.67,3.42,2.39,3.06-1.97.32-4.25.32-4.25,0,0,3.44-.94,1.47-4-1.3-1.87-3-.47-3.88.49Z"
               id="path211" />
            <path
               class="cls-2"
               d="M175.45,376.1c1.06-.9,4.23-.79,4.48.3.25,1.09-3.68,4.53-4.64,4.18-.96-.35-.9-3.57.16-4.48Z"
               id="path212" />
            <g
               id="g226">
              <path
                 class="cls-2"
                 d="M150.91,374.32c-.29,1.67-3.35,4.04-4.44,3.22-1.09-.83-.08-7.13,1.1-7.55,1.18-.42,3.63,2.66,3.34,4.33Z"
                 id="path213" />
              <path
                 class="cls-2"
                 d="M148.55,368.18c.2.45-.25,1.28-.73,1.28-.48,0-3.14-1.89-2.82-2.35.31-.46,3.35.61,3.55,1.07Z"
                 id="path214" />
              <path
                 class="cls-2"
                 d="M146.19,369.95c.11.47-.02,1.04-.33,1.23-.31.19-2.01-.8-2.05-1.01-.05-.2.08-.74.49-.96s1.78.26,1.89.73Z"
                 id="path215" />
              <path
                 class="cls-2"
                 d="M143.48,368.77c.09.4-.02.9-.29,1.06s-1.73-.69-1.77-.86c-.04-.17.07-.64.42-.82.36-.19,1.53.22,1.63.63Z"
                 id="path216" />
              <path
                 class="cls-2"
                 d="M141.13,367.68c.09.4-.02.9-.29,1.06-.27.16-1.08-.43-1.12-.61s.07-.64.42-.82c.36-.19.89-.03.98.37Z"
                 id="path217" />
              <path
                 class="cls-2"
                 d="M145.38,371.99c.19.44.17,1.03-.1,1.27-.27.25-2.12-.43-2.2-.62s-.05-.74.31-1.03c.37-.29,1.8-.07,1.99.38Z"
                 id="path218" />
              <path
                 class="cls-2"
                 d="M142.51,371.32c.17.38.15.88-.09,1.09s-1.82-.37-1.89-.53c-.07-.16-.05-.64.27-.89.32-.25,1.55-.06,1.71.32Z"
                 id="path219" />
              <path
                 class="cls-2"
                 d="M140,370.68c.17.38.15.88-.09,1.09-.24.21-1.14-.23-1.21-.39-.07-.16-.05-.64.27-.89.32-.25.87-.19,1.03.19Z"
                 id="path220" />
              <path
                 class="cls-2"
                 d="M145.03,374.43c.19.44.17,1.03-.1,1.27-.27.25-2.12-.43-2.2-.62-.08-.19-.06-.74.31-1.03.37-.29,1.8-.07,1.99.38Z"
                 id="path221" />
              <path
                 class="cls-2"
                 d="M142.16,373.76c.17.38.15.88-.09,1.09-.24.21-1.82-.37-1.89-.53s-.05-.64.27-.89c.32-.25,1.55-.06,1.71.32Z"
                 id="path222" />
              <path
                 class="cls-2"
                 d="M139.65,373.11c.17.38.15.88-.09,1.09-.24.21-1.14-.23-1.21-.39-.07-.16-.05-.64.27-.89.32-.25.87-.19,1.03.19Z"
                 id="path223" />
              <path
                 class="cls-2"
                 d="M145.01,376.73c.28.39.39.97.17,1.27-.21.3-2.16.04-2.28-.13-.12-.17-.21-.71.08-1.08.3-.36,1.74-.45,2.03-.06Z"
                 id="path224" />
              <path
                 class="cls-2"
                 d="M142.06,376.7c.24.34.33.83.15,1.09-.18.26-1.86.03-1.96-.11-.1-.14-.18-.61.07-.92.25-.31,1.5-.39,1.74-.05Z"
                 id="path225" />
              <path
                 class="cls-2"
                 d="M139.47,376.61c.24.34.33.83.15,1.09-.18.26-1.16.02-1.27-.12-.1-.14-.18-.61.07-.92.25-.31.8-.38,1.05-.04Z"
                 id="path226" />
            </g>
          </g>
          <g
             id="g232">
            <path
               class="cls-2"
               d="M216.76,411.15l-.24-17.75c-1.35-.76-3.43-2.37-1.61-4.4,3.02-3.13,5.03.64,5.03.64,0,0,1.91-3.83,5.01-.78,2.05,2.17-.6,3.97-1.85,4.65l.23,17.34c1.27.65,3.98,2.37,1.98,4.6-3.02,3.13-5.03-.64-5.03-.64,0,0-1.91,3.83-5.01.78-1.87-1.98.17-3.65,1.49-4.45Z"
               id="path227" />
            <path
               class="cls-2"
               d="M224.15,426.88l-.44,17.74c1.32.81,3.34,2.51,1.44,4.46-3.13,3.01-5-.84-5-.84,0,0-2.05,3.75-5.04.59-1.97-2.25.75-3.95,2.03-4.58l.43-17.34c-1.25-.7-3.88-2.53-1.8-4.68,3.13-3.01,5,.84,5,.84,0,0,2.05-3.75,5.04-.59,1.79,2.05-.31,3.64-1.66,4.38Z"
               id="path228" />
            <path
               class="cls-2"
               d="M218.39,385.98c-.74-1.45,1.95-5.46,4.02-5.36,2.07.09,2.95,1.88,2.41,3.41-.54,1.54-5.69,3.4-6.42,1.95Z"
               id="path229" />
            <path
               class="cls-2"
               d="M221.71,417.61s.03.03.05.04c.49.43.78,1.13.6,1.77-.25.92-1.38,1.27-2.23,1.12-.58-.1-1.13-.49-1.35-1.04-.23-.56-.11-1.22.18-1.76.57-1.05,1.97-.76,2.75-.12Z"
               id="path230" />
            <path
               class="cls-2"
               d="M221.68,451.85c2.72.81,6.2,2.58,4.08,5.35-.87,1.14-2.53,1.32-3.85,1.32-1.56,0-3.88.16-5.12-1.03-1.16-1.12-.95-3.44-.46-4.84.49-1.4,2.24-1.43,3.46-1.24.49.08,1.17.23,1.89.44Z"
               id="path231" />
            <path
               class="cls-2"
               d="M228.16,458.32c-1.02-.48-.55-4.07,1.09-4.78,1.64-.71,10.05,1.54,10.11,3.38.06,1.84-10.18,1.87-11.2,1.39Z"
               id="path232" />
          </g>
          <g
             id="g238">
            <path
               class="cls-2"
               d="M193.65,412.67l.24-18.62c1.35-.8,3.43-2.49,1.61-4.62-3.02-3.29-5.03.68-5.03.68,0,0-1.91-4.02-5.01-.82-2.06,2.28.6,4.17,1.85,4.88l-.23,18.19c-1.27.68-3.98,2.49-1.98,4.83,3.02,3.29,5.03-.68,5.03-.68,0,0,1.91,4.02,5.01.82,1.87-2.08-.17-3.83-1.49-4.66Z"
               id="path233" />
            <path
               class="cls-2"
               d="M189.88,429.11l7.18,17.18c-.92,1.27-2.15,3.66.36,4.89,4.07,1.8,4.34-2.64,4.34-2.64,0,0,3.35,2.92,4.91-1.26.98-2.92-2.21-3.58-3.64-3.73l-7.02-16.79c.89-1.13,2.65-3.88-.11-5.22-4.07-1.8-4.34,2.64-4.34,2.64,0,0-3.35-2.92-4.91,1.26-.89,2.66,1.67,3.45,3.22,3.68Z"
               id="path234" />
            <path
               class="cls-2"
               d="M193.63,386.24c.74-1.52-1.95-5.72-4.02-5.63-2.07.1-2.95,1.97-2.41,3.58s5.69,3.56,6.42,2.05Z"
               id="path235" />
            <path
               class="cls-2"
               d="M188.84,419.36s-.03.03-.05.04c-.49.45-.78,1.19-.6,1.85.25.96,1.38,1.33,2.23,1.17.58-.11,1.13-.51,1.35-1.1.23-.59.11-1.28-.18-1.84-.57-1.1-1.97-.8-2.75-.13Z"
               id="path236" />
            <path
               class="cls-2"
               d="M202.2,451.56c-2.73.8-6.25,2.59-4.19,5.53.85,1.21,2.5,1.43,3.82,1.46,1.56.03,3.88.24,5.14-.99,1.19-1.15,1.02-3.59.56-5.07-.46-1.48-2.21-1.55-3.43-1.36-.5.07-1.17.22-1.9.43Z"
               id="path237" />
            <path
               class="cls-2"
               d="M195.6,458.22c1.02-.48.63-4.26-1-5.03-1.63-.77-10.07,1.43-10.17,3.36-.1,1.93,10.15,2.15,11.17,1.67Z"
               id="path238" />
          </g>
        </g>
        <g
           id="g291">
          <g
             id="g242">
            <path
               class="cls-1"
               d="M80.34,329.07c1.33-1.31,6.63-1.12,7.38-.05.74,1.07,1.89,33.97.72,34.94-1.16.97-7.83,1.55-9.06,0-1.23-1.55-.37-33.58.96-34.89Z"
               id="path239" />
            <path
               class="cls-1"
               d="M56.26,342.42c-.9-1.36,9.34-11.3,27.32-11.3s30.45,9.83,29.51,11.3-12.75-4.26-29.51-4c-16.77.26-26.43,5.36-27.32,4Z"
               id="path240" />
            <path
               class="cls-1"
               d="M65.03,353.15c-.64-1.11,6.65-9.18,19.45-9.18s21.68,7.98,21.01,9.18c-.67,1.2-9.07-3.46-21.01-3.25-11.94.21-18.81,4.35-19.45,3.25Z"
               id="path241" />
            <path
               class="cls-1"
               d="M68.4,364.05c-.53-.92,5.54-7.65,16.21-7.65s18.07,6.65,17.51,7.65-7.56-2.88-17.51-2.7c-9.95.18-15.68,3.63-16.21,2.7Z"
               id="path242" />
          </g>
          <path
             class="cls-1"
             d="M100.03,367.67c-4.23-4-8.12-.24-11.34,1.89-2.93,2.01-5.02,1.98-7.75.19-3.27-2.09-7.27-6.19-11.62-2.08-4.83,5.12,2.06,8.89,3.46,11.58,1.4,2.68,1.59,6.83,4.83,7.47,3.24.65,3.96-4.27,7.06-4.52,3.1.25,3.82,5.17,7.06,4.52,3.24-.65,3.43-4.79,4.83-7.47,1.4-2.68,8.29-6.46,3.46-11.58ZM77,376.38c-.56.14-1.16.02-1.68-.23-.56-.26-1.11-.63-1.61-1.06-.8-.69-1.48-1.56-1.88-2.47-.38-.86-.35-2.22.66-2.63.32-.13.68-.15,1.03-.13,1.92.11,3.52,1.32,4.42,2.97.75,1.36.85,3.08-.95,3.54ZM97.52,372.63c-.4.91-1.08,1.78-1.88,2.47-.5.43-1.05.79-1.61,1.06-.52.25-1.12.37-1.68.23-1.81-.46-1.7-2.18-.95-3.54.9-1.65,2.5-2.87,4.42-2.97.35-.02.71,0,1.03.13,1.01.41,1.04,1.76.66,2.63Z"
             id="path243" />
          <g
             id="g249">
            <path
               class="cls-1"
               d="M64.53,384.6c-.75-1.54,2.21-5.69,4.4-5.54s3.09,2.05,2.47,3.65c-.62,1.6-6.13,3.43-6.87,1.89Z"
               id="path244" />
            <path
               class="cls-1"
               d="M67.37,411.39l-1.92-18.58c-1.5-.67-3.85-2.16-2.12-4.46,2.9-3.57,5.38.2,5.38.2,0,0,1.66-4.19,5.23-1.29,2.38,2.08-.27,4.22-1.53,5.05l1.87,18.15c1.41.56,4.43,2.11,2.53,4.63-2.9,3.57-5.38-.2-5.38-.2,0,0-1.66,4.19-5.23,1.29-2.17-1.9-.17-3.84,1.16-4.8Z"
               id="path245" />
            <path
               class="cls-1"
               d="M71.97,428.15l-7.57,17.07c.97,1.32,2.27,3.79-.38,4.92-4.29,1.65-4.57-2.85-4.57-2.85,0,0-3.53,2.81-5.18-1.48-1.03-2.99,2.33-3.53,3.84-3.63l7.4-16.68c-.94-1.18-2.8-4.03.11-5.28,4.29-1.65,4.57,2.85,4.57,2.85,0,0,3.53-2.81,5.18,1.48.94,2.72-1.77,3.42-3.39,3.59Z"
               id="path246" />
            <path
               class="cls-1"
               d="M73.22,417.69s.04.02.05.04c.56.4.93,1.11.8,1.79-.18.99-1.34,1.46-2.25,1.38-.63-.05-1.24-.41-1.53-.97-.29-.57-.23-1.27.03-1.86.5-1.15,2.02-.99,2.9-.39Z"
               id="path247" />
            <path
               class="cls-1"
               d="M60.28,451.14c2.86.95,6.5,2.93,4.15,5.77-.97,1.17-2.73,1.3-4.13,1.25-1.66-.05-4.13.03-5.41-1.27-1.2-1.22-.89-3.65-.32-5.11.56-1.46,2.43-1.43,3.71-1.18.52.1,1.23.28,1.99.53Z"
               id="path248" />
            <path
               class="cls-1"
               d="M66.93,458.16c-1.06-.54-.44-4.3,1.33-4.98s10.62,1.98,10.62,3.92-10.88,1.61-11.94,1.07Z"
               id="path249" />
          </g>
          <g
             id="g255">
            <path
               class="cls-1"
               d="M105.24,384.6c.75-1.54-2.21-5.69-4.4-5.54s-3.09,2.05-2.47,3.65c.62,1.6,6.13,3.43,6.87,1.89Z"
               id="path250" />
            <path
               class="cls-1"
               d="M102.4,411.39l1.92-18.58c1.5-.67,3.85-2.16,2.12-4.46-2.9-3.57-5.38.2-5.38.2,0,0-1.66-4.19-5.23-1.29-2.38,2.08.27,4.22,1.53,5.05l-1.87,18.15c-1.41.56-4.43,2.11-2.53,4.63,2.9,3.57,5.38-.2,5.38-.2,0,0,1.66,4.19,5.23,1.29,2.17-1.9.17-3.84-1.16-4.8Z"
               id="path251" />
            <path
               class="cls-1"
               d="M97.8,428.15l7.57,17.07c-.97,1.32-2.27,3.79.38,4.92,4.29,1.65,4.57-2.85,4.57-2.85,0,0,3.53,2.81,5.18-1.48,1.03-2.99-2.33-3.53-3.84-3.63l-7.4-16.68c.94-1.18,2.8-4.03-.11-5.28-4.29-1.65-4.57,2.85-4.57,2.85,0,0-3.53-2.81-5.18,1.48-.94,2.72,1.77,3.42,3.39,3.59Z"
               id="path252" />
            <path
               class="cls-1"
               d="M96.55,417.69s-.04.02-.05.04c-.56.4-.93,1.11-.8,1.79.18.99,1.34,1.46,2.25,1.38.63-.05,1.24-.41,1.53-.97.29-.57.23-1.27-.03-1.86-.5-1.15-2.02-.99-2.9-.39Z"
               id="path253" />
            <path
               class="cls-1"
               d="M109.49,451.14c-2.86.95-6.5,2.93-4.15,5.77.97,1.17,2.73,1.3,4.13,1.25,1.66-.05,4.13.03,5.41-1.27,1.2-1.22.89-3.65.32-5.11-.56-1.46-2.43-1.43-3.71-1.18-.52.1-1.23.28-1.99.53Z"
               id="path254" />
            <path
               class="cls-1"
               d="M102.83,458.16c1.06-.54.44-4.3-1.33-4.98s-10.62,1.98-10.62,3.92,10.88,1.61,11.94,1.07Z"
               id="path255" />
          </g>
          <g
             id="g272">
            <path
               class="cls-1"
               d="M112.76,362.46l-1.73-12.27c-1.28-.51-3.31-1.68-1.93-3.67,2.31-3.1,4.53-.02,4.53-.02,0,0,1.25-3.58,4.35-1.27,2.07,1.67-.08,3.55-1.11,4.3l1.68,11.91c1.2.42,3.79,1.62,2.28,3.8-2.31,3.1-4.53.02-4.53.02,0,0-1.25,3.58-4.35,1.27-1.89-1.52-.27-3.22.81-4.07Z"
               id="path256" />
            <path
               class="cls-1"
               d="M125.02,364.43l8.88-8.77c-.36-1.33-.64-3.66,1.77-3.75,3.86-.01,2.74,3.61,2.74,3.61,0,0,3.61-1.15,3.63,2.71-.09,2.66-2.89,2.07-4.1,1.7l-8.63,8.52c.39,1.21.99,4.01-1.67,4.11-3.86.01-2.74-3.61-2.74-3.61,0,0-3.61,1.15-3.63-2.71.08-2.42,2.41-2.15,3.74-1.8Z"
               id="path257" />
            <path
               class="cls-1"
               d="M120.01,367.95c-1.34-.63-4.56.37-4.51,1.56.05,1.19,5.04,3.62,5.93,2.98.89-.63-.08-3.91-1.42-4.55Z"
               id="path258" />
            <g
               id="g271">
              <path
                 class="cls-1"
                 d="M139.62,351.74c.22,1.79,3.34,4.47,4.55,3.65s.46-7.56-.76-8.07c-1.23-.5-4,2.63-3.78,4.42Z"
                 id="path259" />
              <path
                 class="cls-1"
                 d="M144.87,347.35c-.14.49-.03,1.11.29,1.33.32.22,2.17-.75,2.23-.96.06-.21-.05-.79-.47-1.04s-1.91.18-2.05.68Z"
                 id="path260" />
              <path
                 class="cls-1"
                 d="M147.81,346.24c-.12.42-.03.95.25,1.14.28.19,1.87-.64,1.92-.82s-.04-.68-.41-.9c-.37-.22-1.64.16-1.76.58Z"
                 id="path261" />
              <path
                 class="cls-1"
                 d="M150.36,345.21c-.12.42-.03.95.25,1.14.28.19,1.17-.4,1.22-.58.05-.18-.04-.68-.41-.9-.37-.22-.94-.08-1.06.34Z"
                 id="path262" />
              <path
                 class="cls-1"
                 d="M145.61,349.56c-.23.46-.23,1.08.04,1.36.28.27,2.27-.34,2.37-.54.1-.2.1-.78-.28-1.11-.37-.33-1.91-.17-2.14.29Z"
                 id="path263" />
              <path
                 class="cls-1"
                 d="M148.7,349c-.2.4-.2.93.04,1.17s1.95-.29,2.04-.46.08-.67-.24-.96c-.32-.28-1.64-.14-1.84.25Z"
                 id="path264" />
              <path
                 class="cls-1"
                 d="M151.4,348.45c-.2.4-.2.93.04,1.17.24.24,1.22-.19,1.31-.35s.08-.67-.24-.96c-.32-.28-.91-.25-1.1.14Z"
                 id="path265" />
              <path
                 class="cls-1"
                 d="M145.86,352.16c-.23.46-.23,1.08.04,1.36.28.27,2.27-.34,2.37-.54.1-.2.1-.78-.28-1.11-.37-.33-1.91-.17-2.14.29Z"
                 id="path266" />
              <path
                 class="cls-1"
                 d="M148.95,351.61c-.2.4-.2.93.04,1.17.24.24,1.95-.29,2.04-.46.08-.17.08-.67-.24-.96-.32-.28-1.64-.14-1.84.25Z"
                 id="path267" />
              <path
                 class="cls-1"
                 d="M151.64,351.06c-.2.4-.2.93.04,1.17.24.24,1.22-.19,1.31-.35.08-.17.08-.67-.24-.96s-.91-.25-1.1.14Z"
                 id="path268" />
              <path
                 class="cls-1"
                 d="M145.76,354.61c-.32.4-.46,1.01-.25,1.33s2.29.16,2.43-.01c.14-.17.26-.74-.03-1.15-.29-.4-1.83-.57-2.15-.17Z"
                 id="path269" />
              <path
                 class="cls-1"
                 d="M148.9,354.73c-.28.34-.4.87-.22,1.15.18.28,1.97.13,2.09-.01.12-.15.23-.64-.03-.99-.25-.35-1.57-.49-1.85-.15Z"
                 id="path270" />
              <path
                 class="cls-1"
                 d="M151.65,354.78c-.28.34-.4.87-.22,1.15s1.23.08,1.35-.06c.12-.15.23-.64-.03-.99-.25-.35-.83-.44-1.11-.1Z"
                 id="path271" />
            </g>
          </g>
          <g
             id="g289">
            <path
               class="cls-1"
               d="M55.15,362.7l2.89-12.05c1.32-.38,3.46-1.36,2.28-3.47-2-3.3-4.51-.45-4.51-.45,0,0-.9-3.68-4.21-1.68-2.22,1.46-.26,3.55.69,4.38l-2.81,11.7c-1.23.3-3.93,1.25-2.64,3.57,2,3.3,4.51.45,4.51.45,0,0,.9,3.68,4.21,1.68,2.02-1.33.58-3.18-.42-4.13Z"
               id="path272" />
            <path
               class="cls-1"
               d="M49.04,379.17l2.6,12.21c-1.03.91-2.55,2.7-.58,4.11,3.22,2.13,4.27-1.51,4.27-1.51,0,0,2.39,2.95,4.52-.28,1.39-2.27-1.27-3.32-2.49-3.67l-2.53-11.85c.99-.8,3.02-2.81.86-4.35-3.22-2.13-4.27,1.51-4.27,1.51,0,0-2.39-2.95-4.52.28-1.26,2.07.83,3.12,2.14,3.56Z"
               id="path273" />
            <path
               class="cls-1"
               d="M50.34,367.6c1.48.04,3.9,2.39,3.32,3.43s-6.13.95-6.63-.02c-.5-.96,1.84-3.45,3.32-3.41Z"
               id="path274" />
            <g
               id="g288">
              <path
                 class="cls-1"
                 d="M55.92,396.68c1.75-.44,5.37,1.53,5.03,2.95-.34,1.41-6.9,3.13-7.81,2.16s1.03-4.67,2.78-5.11Z"
                 id="path275" />
              <path
                 class="cls-1"
                 d="M50.95,401.61c.36-.39,1.36-.31,1.56.16.2.47-.5,3.86-1.08,3.75-.58-.11-.84-3.52-.48-3.91Z"
                 id="path276" />
              <path
                 class="cls-1"
                 d="M53.69,403.15c.41-.31,1.02-.43,1.34-.2.32.22.08,2.3-.1,2.43-.18.13-.75.24-1.14-.07-.39-.31-.51-1.85-.1-2.15Z"
                 id="path277" />
              <path
                 class="cls-1"
                 d="M53.7,406.29c.35-.26.88-.37,1.15-.18.28.19.06,1.97-.09,2.09-.15.11-.65.2-.98-.06-.34-.26-.44-1.59-.08-1.85Z"
                 id="path278" />
              <path
                 class="cls-1"
                 d="M53.65,409.04c.35-.26.88-.37,1.15-.18.28.19.04,1.23-.11,1.35s-.65.2-.98-.06c-.34-.26-.41-.85-.06-1.11Z"
                 id="path279" />
              <path
                 class="cls-1"
                 d="M56.01,403.06c.35-.38.93-.6,1.28-.44.36.16.49,2.24.34,2.4-.15.16-.7.37-1.14.14s-.84-1.72-.49-2.1Z"
                 id="path280" />
              <path
                 class="cls-1"
                 d="M56.59,406.14c.3-.32.8-.52,1.1-.38.31.14.42,1.93.29,2.07-.13.14-.6.32-.98.12-.38-.2-.72-1.48-.42-1.81Z"
                 id="path281" />
              <path
                 class="cls-1"
                 d="M57.04,408.86c.3-.32.8-.52,1.1-.38.31.14.26,1.21.13,1.35-.13.14-.6.32-.98.12-.38-.2-.56-.76-.26-1.08Z"
                 id="path282" />
              <path
                 class="cls-1"
                 d="M58.53,402.35c.35-.38.93-.6,1.28-.44.36.16.49,2.24.34,2.4-.15.16-.7.37-1.14.14-.44-.23-.84-1.72-.49-2.1Z"
                 id="path283" />
              <path
                 class="cls-1"
                 d="M59.12,405.44c.3-.32.8-.52,1.1-.38.31.14.42,1.93.29,2.07-.13.14-.6.32-.98.12-.38-.2-.72-1.48-.42-1.81Z"
                 id="path284" />
              <path
                 class="cls-1"
                 d="M59.56,408.15c.3-.32.8-.52,1.1-.38.31.14.26,1.21.13,1.35-.13.14-.6.32-.98.12-.38-.2-.56-.76-.26-1.08Z"
                 id="path285" />
              <path
                 class="cls-1"
                 d="M60.78,401.39c.26-.44.78-.79,1.16-.71.38.08.96,2.09.85,2.27-.11.19-.6.51-1.08.38-.48-.13-1.19-1.5-.93-1.95Z"
                 id="path286" />
              <path
                 class="cls-1"
                 d="M62.02,404.28c.22-.38.67-.68,1-.61.33.07.83,1.79.73,1.96-.1.16-.52.44-.93.33-.41-.11-1.02-1.29-.8-1.67Z"
                 id="path287" />
              <path
                 class="cls-1"
                 d="M63.04,406.83c.22-.38.67-.68,1-.61.33.07.52,1.12.42,1.28-.1.16-.52.44-.93.33-.41-.11-.71-.62-.49-1Z"
                 id="path288" />
            </g>
          </g>
          <g
             id="g290">
            <path
               class="cls-7"
               d="M153.56,359.16c4.84.48,19.56-10.18,14.82-16.5-3.91-5.8-10.21-1.29-10.21-1.29,0,0-1.56-8.5-8.77-5.37-9.65,4.61-.68,22.68,4.15,23.16Z"
               id="path289" />
            <path
               class="cls-1"
               d="M142.46,345.34c-.24.47.2,1.38.71,1.4.51.02,3.43-1.84,3.12-2.34-.31-.5-3.59.47-3.83.95Z"
               id="path290" />
          </g>
          <path
             class="cls-1"
             d="M97.66,292.26c-4.84-3.78-25.19-4.33-30.45.99-5.26,5.32-7.29,13.1-5.26,17.76,2.03,4.66,11.61,6.66,11.61,6.66,0,0,1.48,4.2,2.3,5.43.82,1.23,2.75,2.72,5.02.87,1.57,1.97,4.73,1.59,5.71-.02,0,0,1.89,1.99,4.54.35,1.83-1.14,2.8-6.87,2.8-6.87,0,0,8.81-3.29,10.79-7.89,1.97-4.6-2.23-13.48-7.07-17.27ZM77.23,312.44c-1.88.73-9.26-5.61-6.55-9.12,2.08-2.51,4.23,1.31,4.23,1.31,0,0,1.93-5.22,4.87-3.77,2.94,1.45-.66,10.85-2.54,11.58ZM86.01,314.91c-.56.45-2.51-1.36-2.51-1.36,0,0-1.84,2-2.51,1.11-.67-.89,1.82-5.84,3.08-5.84s2.49,5.63,1.93,6.08ZM89.93,311.41c-1.6-.62-4.67-8.63-2.17-9.86,2.5-1.24,4.14,3.21,4.14,3.21,0,0,1.83-3.26,3.6-1.12,2.31,3-3.98,8.39-5.58,7.77Z"
             id="path291" />
        </g>
        <g
           id="g293">
          <path
             class="cls-1"
             d="M153.07,299.28c-3.8-1.53-7.24-14.59-1.74-17.93,5.5-3.33,6.69,7.16,6.69,7.16,0,0,5.84-6.99,9.29-2.04,3.45,4.94-10.43,14.35-14.24,12.81Z"
             id="path292" />
          <path
             class="cls-2"
             d="M143.49,310.19c-2.03,2.41-12.38,1.78-13.49-3.02-1.11-4.81,6.82-3.17,6.82-3.17,0,0-3.7-5.93.74-7.26,4.43-1.33,7.96,11.04,5.93,13.45Z"
             id="path293" />
        </g>
      </g>
      <g
         id="g367">
        <g
           id="g358">
          <g
             id="g297">
            <path
               class="cls-1"
               d="M339.37,330.53c1.08-1.52,6.34-2.25,7.25-1.33.92.92,7.76,33.12,6.79,34.28-.98,1.16-7.44,2.89-8.92,1.57-1.48-1.32-6.2-33-5.12-34.52Z"
               id="path294" />
            <path
               class="cls-1"
               d="M317.97,347.86c-1.12-1.19,7.23-12.75,24.94-15.88,17.71-3.13,31.7,4.38,31.03,6-.67,1.61-13.29-1.98-29.76,1.19s-25.09,9.87-26.21,8.68Z"
               id="path295" />
            <path
               class="cls-1"
               d="M328.47,356.9c-.82-.98,4.95-10.19,17.56-12.42s22.74,4.09,22.29,5.38c-.45,1.29-9.54-1.83-21.25.46-11.72,2.28-17.77,7.56-18.59,6.58Z"
               id="path296" />
            <path
               class="cls-1"
               d="M333.69,367.05c-.68-.82,4.12-8.49,14.63-10.35,10.51-1.85,18.95,3.41,18.57,4.49-.38,1.08-7.95-1.52-17.71.38s-14.81,6.3-15.49,5.48Z"
               id="path297" />
          </g>
          <path
             class="cls-1"
             d="M365.46,365.12c-4.86-3.2-8.04,1.18-10.83,3.83-2.54,2.49-4.6,2.82-7.6,1.53-3.58-1.49-8.23-4.84-11.8-.03-3.87,5.88,3.58,8.4,5.42,10.8,1.84,2.4,2.75,6.45,6.05,6.52,3.31.08,3.16-4.89,6.17-5.68,3.1-.29,4.66,4.43,7.74,3.22,3.08-1.2,2.55-5.31,3.46-8.2.91-2.89,7.04-7.8,1.39-12ZM344.3,377.7c-.52.24-1.14.22-1.69.07-.6-.16-1.2-.42-1.76-.76-.91-.54-1.73-1.28-2.28-2.11-.52-.78-.73-2.12.2-2.7.3-.19.65-.27,1-.31,1.91-.23,3.69.69,4.87,2.16.97,1.21,1.38,2.88-.32,3.65ZM363.85,370.44c-.23.97-.75,1.94-1.42,2.76-.42.51-.89.96-1.4,1.32-.47.33-1.04.56-1.61.51-1.86-.14-2.05-1.85-1.55-3.32.6-1.78,1.96-3.26,3.84-3.69.34-.08.7-.12,1.04-.05,1.07.23,1.33,1.56,1.11,2.47Z"
             id="path298" />
          <g
             id="g304">
            <path
               class="cls-1"
               d="M343.11,413.37l.03-18.67c1.42-.82,3.61-2.54,1.66-4.65-3.25-3.26-5.34.74-5.34.74,0,0-2.08-4-5.33-.76-2.16,2.31.69,4.17,2.03,4.87l-.03,18.25c-1.34.7-4.19,2.55-2.05,4.87,3.25,3.26,5.34-.74,5.34-.74,0,0,2.08,4,5.33.76,1.96-2.11-.22-3.84-1.64-4.66Z"
               id="path299" />
            <path
               class="cls-1"
               d="M340.22,430.5l9.25,16.22c-.83,1.41-1.87,4,.88,4.86,4.43,1.21,4.26-3.3,4.26-3.3,0,0,3.79,2.44,5.01-1.99.72-3.08-2.67-3.28-4.18-3.22l-9.04-15.85c.82-1.27,2.37-4.3-.64-5.24-4.43-1.21-4.26,3.3-4.26,3.3,0,0-3.79-2.44-5.01,1.99-.66,2.8,2.1,3.22,3.74,3.23Z"
               id="path300" />
            <path
               class="cls-1"
               d="M341.06,386.9c.76-1.53-2.14-5.72-4.34-5.59-2.2.12-3.11,2.01-2.51,3.62.6,1.61,6.09,3.5,6.85,1.97Z"
               id="path301" />
            <path
               class="cls-1"
               d="M337.92,420.22s-.03.03-.05.04c-.52.46-.81,1.2-.62,1.87.28.96,1.49,1.31,2.38,1.15.62-.12,1.19-.53,1.42-1.12.24-.6.1-1.29-.21-1.85-.61-1.1-2.1-.78-2.92-.09Z"
               id="path302" />
            <path
               class="cls-1"
               d="M356.3,451.39c-2.9.79-6.65,2.58-4.45,5.53.9,1.22,2.66,1.45,4.06,1.47,1.66.03,4.12.25,5.47-.98,1.26-1.15,1.08-3.59.6-5.08-.49-1.49-2.35-1.56-3.65-1.38-.53.07-1.24.21-2.02.43Z"
               id="path303" />
            <path
               class="cls-1"
               d="M349.28,458.05c1.09-.48.67-4.27-1.06-5.05-1.73-.78-10.71,1.4-10.81,3.34-.1,1.94,10.78,2.19,11.87,1.71Z"
               id="path304" />
          </g>
          <g
             id="g310">
            <path
               class="cls-1"
               d="M396.02,386.93l-18.5-2.56c-1.01,1.29-3.02,3.23-4.84.99-2.77-3.67,1.48-5.18,1.48-5.18,0,0-3.68-2.61-.01-5.39,2.59-1.81,4.04,1.26,4.54,2.69l18.07,2.51c.88-1.23,3.11-3.8,5.1-1.35,2.77,3.67-1.48,5.18-1.48,5.18,0,0,3.68,2.61.01,5.39-2.36,1.65-3.77-.75-4.39-2.27Z"
               id="path305" />
            <path
               class="cls-1"
               d="M410.58,394.03l.15,18.67c1.43.81,3.63,2.52,1.69,4.64-3.22,3.28-5.34-.71-5.34-.71,0,0-2.05,4.02-5.33.79-2.17-2.3.66-4.18,2-4.89l-.15-18.25c-1.35-.69-4.21-2.52-2.08-4.85,3.22-3.28,5.34.71,5.34.71,0,0,2.05-4.02,5.33-.79,1.98,2.09-.2,3.84-1.61,4.67Z"
               id="path306" />
            <path
               class="cls-1"
               d="M370,383.92c-1.7.2-4.65-3.96-3.78-5.98.86-2.02,2.95-2.24,4.26-1.13,1.31,1.11,1.22,6.91-.48,7.11Z"
               id="path307" />
            <path
               class="cls-1"
               d="M404.79,383.75s.04-.02.06-.03c.61-.33,1.41-.36,1.96.05.81.59.73,1.84.27,2.63-.32.54-.9.94-1.53.96-.64.02-1.24-.34-1.66-.83-.82-.95-.01-2.24.91-2.78Z"
               id="path308" />
            <path
               class="cls-1"
               d="M410.33,420.42c2.86.95,6.5,2.93,4.15,5.77-.97,1.17-2.73,1.3-4.13,1.25-1.66-.05-4.13.03-5.41-1.27-1.2-1.22-.89-3.65-.32-5.11.56-1.46,2.43-1.43,3.71-1.18.52.1,1.23.28,1.99.53Z"
               id="path309" />
            <path
               class="cls-1"
               d="M416.99,427.45c-1.06-.54-.44-4.3,1.33-4.98s10.62,1.98,10.62,3.92-10.88,1.61-11.94,1.07Z"
               id="path310" />
          </g>
          <g
             id="g332">
            <path
               class="cls-1"
               d="M391.14,346.01l-11.72-4.02c-1.03.91-3,2.19-4.15.06-1.71-3.46,2.03-4.05,2.03-4.05,0,0-2.62-2.74.84-4.45,2.42-1.09,3.13,1.68,3.33,2.93l11.38,3.9c.92-.88,3.16-2.65,4.43-.31,1.71,3.46-2.03,4.05-2.03,4.05,0,0,2.62,2.74-.84,4.45-2.21.99-2.99-1.22-3.26-2.57Z"
               id="path311" />
            <path
               class="cls-1"
               d="M402.36,337.22l3.13-12.08c-.99-.96-2.43-2.81-.4-4.13,3.31-1.99,4.2,1.7,4.2,1.7,0,0,2.51-2.84,4.5.47,1.29,2.33-1.42,3.26-2.65,3.56l-3.05,11.73c.95.84,2.9,2.93.67,4.39-3.31,1.99-4.2-1.7-4.2-1.7,0,0-2.51,2.84-4.5-.47-1.17-2.12.97-3.08,2.29-3.46Z"
               id="path312" />
            <path
               class="cls-1"
               d="M400.16,344.25c-1.36.58-2.74,3.66-1.82,4.41.92.75,6.05-1.38,6.16-2.46.11-1.08-2.98-2.53-4.34-1.95Z"
               id="path313" />
            <g
               id="g331">
              <path
                 class="cls-1"
                 d="M407.41,317.08c.55,1.72,4.13,3.76,5.16,2.72,1.02-1.04-.98-7.51-2.28-7.78-1.3-.26-3.42,3.34-2.87,5.06Z"
                 id="path314" />
              <path
                 class="cls-1"
                 d="M411.72,311.77c-.04.51.18,1.09.53,1.25.36.15,1.99-1.15,2.01-1.36s-.19-.77-.66-.94c-.47-.17-1.84.54-1.88,1.05Z"
                 id="path315" />
              <path
                 class="cls-1"
                 d="M414.4,310.13c-.04.44.15.94.46,1.07s1.71-.99,1.73-1.17c.02-.19-.17-.66-.57-.8-.4-.15-1.58.47-1.62.9Z"
                 id="path316" />
              <path
                 class="cls-1"
                 d="M416.71,308.63c-.04.44.15.94.46,1.07.31.13,1.07-.62,1.09-.81.02-.19-.17-.66-.57-.8-.4-.15-.94.1-.98.54Z"
                 id="path317" />
              <path
                 class="cls-1"
                 d="M412.87,313.8c-.14.49-.03,1.11.3,1.32.32.22,2.17-.77,2.22-.98.06-.21-.05-.79-.48-1.04-.43-.25-1.9.2-2.04.69Z"
                 id="path318" />
              <path
                 class="cls-1"
                 d="M415.8,312.66c-.12.43-.02.95.26,1.14.28.19,1.86-.66,1.91-.84.05-.18-.05-.68-.41-.89s-1.64.17-1.76.6Z"
                 id="path319" />
              <path
                 class="cls-1"
                 d="M418.34,311.61c-.12.43-.02.95.26,1.14.28.19,1.16-.41,1.21-.6.05-.18-.05-.68-.41-.89s-.94-.07-1.06.35Z"
                 id="path320" />
              <path
                 class="cls-1"
                 d="M413.61,316.31c-.14.49-.02,1.11.3,1.32.32.22,2.17-.77,2.22-.98.06-.21-.05-.79-.48-1.04-.43-.25-1.9.2-2.04.69Z"
                 id="path321" />
              <path
                 class="cls-1"
                 d="M416.54,315.18c-.12.43-.02.95.26,1.14.28.19,1.86-.66,1.91-.84.05-.18-.05-.68-.41-.89s-1.64.17-1.76.6Z"
                 id="path322" />
              <path
                 class="cls-1"
                 d="M419.08,314.13c-.12.43-.02.95.26,1.14.28.19,1.16-.41,1.21-.6.05-.18-.05-.68-.41-.89-.37-.22-.94-.07-1.06.35Z"
                 id="path323" />
              <path
                 class="cls-1"
                 d="M413.97,318.73c-.24.45-.26,1.08,0,1.36.27.28,2.28-.28,2.38-.48.1-.19.12-.78-.25-1.12-.36-.34-1.9-.22-2.14.24Z"
                 id="path324" />
              <path
                 class="cls-1"
                 d="M417.08,318.26c-.21.39-.23.92,0,1.17.23.24,1.96-.24,2.05-.41s.1-.67-.21-.96c-.31-.29-1.64-.19-1.84.2Z"
                 id="path325" />
              <path
                 class="cls-1"
                 d="M419.79,317.78c-.21.39-.23.93,0,1.17.23.24,1.23-.15,1.31-.32s.1-.67-.21-.96c-.31-.29-.9-.28-1.11.11Z"
                 id="path326" />
              <g
                 id="g330">
                <path
                   class="cls-2"
                   d="M410.72,301.61s4.66,21.98,6.67,24.53c1.24,1.57,3.34,1.22,4.89.35,4.4-2.45,3.49-8.08,1.61-11.89-1.15-2.32-2.59-4.54-4-6.71-.18-.28-2.53-4.2-2.76-4.12,0,0,1.64-.56,2.02-1.08s-.6-3.21-.6-3.21l-7.82,2.13Z"
                   id="path327" />
                <path
                   class="cls-1"
                   d="M410.72,301.61l-7.88-28.96c10.38-1.72,16.86,13.27,19.61,25.77l-11.73,3.19Z"
                   id="path328" />
                <path
                   class="cls-5"
                   d="M403.24,274.08c9.01.23,14.8,13.31,17.5,24.8l1.72-.47c-2.75-12.5-9.23-27.49-19.61-25.77l.39,1.44Z"
                   id="path329" />
                <path
                   class="cls-1"
                   d="M420.06,319.56c.76-.21,1.54.24,1.74,1,.21.76-.24,1.54-1,1.74-.76.21-1.54-.24-1.75-1-.21-.76.24-1.54,1-1.74Z"
                   id="path330" />
              </g>
              <path
                 class="cls-1"
                 d="M409.37,309.79c-.14.51.45,1.31.96,1.24.5-.08,3.02-2.46,2.62-2.89-.4-.44-3.43,1.15-3.58,1.65Z"
                 id="path331" />
            </g>
          </g>
          <g
             id="g349">
            <path
               class="cls-1"
               d="M317.56,367.41l2.21-12.19c1.3-.46,3.37-1.55,2.08-3.59-2.19-3.19-4.52-.2-4.52-.2,0,0-1.11-3.63-4.29-1.44-2.13,1.58-.07,3.55.94,4.34l-2.15,11.84c-1.22.37-3.86,1.47-2.43,3.71,2.19,3.19,4.52.2,4.52.2,0,0,1.11,3.63,4.29,1.44,1.95-1.44.4-3.21-.65-4.1Z"
               id="path332" />
            <path
               class="cls-1"
               d="M304.75,379.71l-9.67,7.89c-1.28-.5-3.57-1.03-3.92,1.36-.42,3.84,3.3,3.11,3.3,3.11,0,0-1.53,3.47,2.31,3.89,2.65.2,2.37-2.65,2.12-3.9l9.39-7.67c1.16.51,3.88,1.41,4.27-1.22.42-3.84-3.3-3.11-3.3-3.11,0,0,1.53-3.47-2.31-3.89-2.41-.18-2.4,2.17-2.19,3.53Z"
               id="path333" />
            <path
               class="cls-1"
               d="M311.44,373.61c1.17-.9,4.53-.61,4.74.57.21,1.17-4.16,4.61-5.16,4.18-1-.43-.75-3.84.42-4.74Z"
               id="path334" />
            <g
               id="g348">
              <path
                 class="cls-1"
                 d="M292.31,393.84c1.19,1.36,1.09,5.48-.32,5.82s-5.94-4.71-5.49-5.96,4.62-1.22,5.81.14Z"
                 id="path335" />
              <path
                 class="cls-1"
                 d="M285.66,391.67c.51.14.89,1.07.57,1.46-.32.39-3.66,1.32-3.83.76-.17-.57,2.75-2.35,3.26-2.22Z"
                 id="path336" />
              <path
                 class="cls-1"
                 d="M285.54,394.8c.46.23.85.71.79,1.1s-2.01,1.12-2.2,1.02c-.2-.1-.56-.56-.46-1.05s1.41-1.3,1.87-1.07Z"
                 id="path337" />
              <path
                 class="cls-1"
                 d="M282.75,396.25c.4.19.73.61.68.95-.04.33-1.73.96-1.9.88-.17-.08-.48-.48-.4-.9.08-.42,1.21-1.12,1.61-.92Z"
                 id="path338" />
              <path
                 class="cls-1"
                 d="M280.28,397.46c.4.19.73.61.68.95s-1.08.6-1.25.52c-.17-.08-.48-.48-.4-.9.08-.42.57-.75.96-.56Z"
                 id="path339" />
              <path
                 class="cls-1"
                 d="M286.68,396.83c.49.14.96.55.98.94.02.39-1.77,1.46-1.98,1.4-.21-.06-.65-.45-.64-.95,0-.5,1.15-1.53,1.64-1.39Z"
                 id="path340" />
              <path
                 class="cls-1"
                 d="M284.2,398.76c.42.12.83.47.84.81.02.34-1.52,1.26-1.71,1.21-.18-.05-.56-.39-.55-.82,0-.43.99-1.32,1.41-1.2Z"
                 id="path341" />
              <path
                 class="cls-1"
                 d="M281.99,400.4c.42.12.83.47.84.81.02.34-.95.79-1.14.73-.18-.05-.56-.39-.55-.82,0-.43.42-.84.85-.73Z"
                 id="path342" />
              <path
                 class="cls-1"
                 d="M288.46,398.75c.49.14.96.55.98.94.02.39-1.77,1.46-1.98,1.4s-.65-.45-.64-.95c0-.5,1.15-1.53,1.65-1.39Z"
                 id="path343" />
              <path
                 class="cls-1"
                 d="M285.98,400.68c.42.12.83.47.84.81s-1.52,1.26-1.71,1.21c-.18-.05-.56-.39-.55-.82,0-.43.99-1.32,1.41-1.2Z"
                 id="path344" />
              <path
                 class="cls-1"
                 d="M283.77,402.32c.42.12.83.47.84.81.02.34-.95.79-1.14.73s-.56-.39-.55-.82c0-.43.42-.84.85-.73Z"
                 id="path345" />
              <path
                 class="cls-1"
                 d="M290.35,400.32c.51.03,1.06.33,1.16.7.1.38-1.42,1.81-1.63,1.8-.22-.01-.73-.3-.83-.79-.1-.49.79-1.74,1.31-1.71Z"
                 id="path346" />
              <path
                 class="cls-1"
                 d="M288.34,402.73c.44.02.91.28,1,.61.09.32-1.22,1.56-1.41,1.55-.19-.01-.63-.26-.72-.68-.09-.42.68-1.5,1.12-1.47Z"
                 id="path347" />
              <path
                 class="cls-1"
                 d="M286.54,404.81c.44.02.91.28,1,.61.09.32-.76.97-.95.96-.19-.01-.63-.26-.72-.68-.09-.42.23-.91.67-.89Z"
                 id="path348" />
            </g>
          </g>
          <g
             id="g357">
            <path
               class="cls-1"
               d="M358.93,293.43c-4.37-4.32-24.52-7.23-30.36-2.56-5.84,4.67-8.76,12.16-7.29,17.03,1.47,4.86,10.76,7.97,10.76,7.97,0,0,.98,4.34,1.66,5.66.67,1.32,2.41,3.02,4.89,1.45,1.33,2.14,4.51,2.13,5.68.64,0,0,1.65,2.2,4.47.88,1.95-.92,3.59-6.5,3.59-6.5,0,0,9.14-2.24,11.63-6.58,2.5-4.34-.65-13.65-5.01-17.97ZM339.48,307.62c-2.26,3.03-5.92,4.13-8.18,2.45s-2.26-5.5,0-8.54c2.26-3.03,5.92-4.13,8.18-2.45,2.26,1.68,2.26,5.5,0,8.54ZM344.72,314.57c-.61.38-2.33-1.64-2.33-1.64,0,0-2.06,1.77-2.62.81-.56-.96,2.49-5.59,3.74-5.44,1.25.15,1.82,5.88,1.21,6.27ZM343.61,293.01c-4.21-.49-7.54-1.56-7.44-2.39.1-.83,3.59-1.1,7.79-.6s7.54,1.56,7.44,2.39-3.59,1.1-7.79.6ZM353.94,312.06c-2.07,1.08-4.93-.29-6.38-3.08-1.46-2.78-.96-5.92,1.11-7,2.07-1.08,4.93.29,6.38,3.08,1.46,2.78.96,5.92-1.11,7Z"
               id="path349" />
            <g
               id="g356">
              <path
                 class="cls-2"
                 d="M337.73,291.75s.05-2.43.23-4.74c-1.72-1.27.4-3.79.8-4.09.87-.66,11.73,1.04,12.12,1.42.57.56,1.15,2.77-.35,2.97l-.68,5.8c-3.24.47-8.87-.22-12.12-1.36Z"
                 id="path350" />
              <path
                 class="cls-4"
                 d="M338.92,287.5c-.58,0-1.05-.26-1.08-.28l.25-.43s.62.34,1.21.16c.35-.11.63-.38.84-.8l.45.22c-.27.55-.66.91-1.14,1.06-.18.05-.35.08-.52.08Z"
                 id="path351" />
              <path
                 class="cls-4"
                 d="M350.53,287.56c-.64-.02-1.13-.22-1.46-.6-.48-.56-.39-1.31-.39-1.34l.5.06s-.06.56.28.96c.23.26.59.41,1.09.42v.5Z"
                 id="path352" />
              <path
                 class="cls-4"
                 d="M344.3,290.51c-.89,0-1.56-.3-1.99-.89-1.11-1.51-.2-4.41-.16-4.53l.48.15s-.87,2.77.08,4.08c.34.46.85.68,1.58.68h0c.81,0,1.43-.26,1.85-.77.99-1.21.56-3.47.55-3.49l.49-.1c.02.1.49,2.51-.65,3.91-.51.63-1.26.95-2.23.95h-.01Z"
                 id="path353" />
              <path
                 class="cls-4"
                 d="M349.05,284.61c-.03.24-2.1.19-4.62-.1-2.52-.3-4.55-.73-4.52-.97.03-.24,2.1-.19,4.62.1,2.52.3,4.55.73,4.52.97Z"
                 id="path354" />
              <rect
                 class="cls-6"
                 x="343.44"
                 y="282.53"
                 width="2.36"
                 height=".75"
                 transform="translate(23.65 592.38) rotate(-83.34)"
                 id="rect354" />
              <path
                 class="cls-7"
                 d="M348.27,279.73c-.21,1.79-1.83,3.06-3.61,2.85-1.79-.21-3.06-1.83-2.85-3.61.21-1.79,3.06-6.88,4.1-7.01s2.58,5.99,2.37,7.77Z"
                 id="path355" />
              <path
                 class="cls-3"
                 d="M346.82,280.88c-.13,1.07-1.09,1.83-2.16,1.71-1.07-.13-1.83-1.09-1.71-2.16s1.83-4.11,2.45-4.2c.62-.08,1.54,3.58,1.42,4.65Z"
                 id="path356" />
            </g>
          </g>
        </g>
        <g
           id="g366">
          <path
             class="cls-7"
             d="M410.27,458.3c2.98.53,6.09.51,9.01-.12,1.1-.24,2.48.49,3.51.08,7.02-2.25,8.54-9.43,8.11-15.15-.42-5.56-2.48-11.45-8.02-13.7-2.61-1.06-5.53-1.39-8.32-1.52-7.61-.37-15.04,2.91-17.55,10.53-.46,1.41-.74,2.88-.86,4.36-1.17,9.65,5.64,14.12,8.25,15.41,1.91.95,3.7-.28,5.87.1Z"
             id="path358" />
          <path
             class="cls-4"
             d="M410.19,458.67c-8.52-1.7-11.45-9.37-11.37-15.42.08-6.55,3.71-14.21,11.48-15.56l.13.74c-7.34,1.27-10.77,8.58-10.85,14.83-.07,5.76,2.7,13.06,10.77,14.67l-.15.74Z"
             id="path359" />
          <path
             class="cls-4"
             d="M418.86,458.64l-.32-.68c6.25-2.9,9.69-8.67,9.18-15.42-.5-6.72-4.71-12.38-10.48-14.07l.21-.72c6.06,1.78,10.49,7.7,11.01,14.73.53,7.08-3.07,13.12-9.62,16.16Z"
             id="path360" />
          <path
             class="cls-4"
             d="M412.57,458.93c-3.09-1.92-4.4-6.09-4.94-9.25-1.34-7.74.42-17.61,3.92-22l.59.47c-3.39,4.25-5.08,13.85-3.77,21.41.52,3.01,1.74,6.97,4.6,8.74l-.39.64Z"
             id="path361" />
          <path
             class="cls-4"
             d="M416.16,458.98l-.3-.69c1.74-.77,3.15-4.07,3.78-8.82,1.01-7.66-.28-17.72-4.67-21.27l.47-.58c4.65,3.76,6.01,13.89,4.95,21.95-.67,5.09-2.21,8.51-4.22,9.41Z"
             id="path362" />
          <path
             class="cls-4"
             d="M401.18,445.9c3.69,10.46,20.43,11.57,25.53-2.06-7.9,2.15-16.42,2.8-25.53,2.06Z"
             id="path363" />
          <path
             class="cls-4"
             d="M404.29,437.42c.33-.38,6.2,3.69,5.84,4.41-.35.72-6.69,1.64-6.92,1.31-.23-.32,2.31-2.46,2.31-2.46,0,0-1.56-2.88-1.23-3.26Z"
             id="path364" />
          <path
             class="cls-4"
             d="M423.16,436.89c-.36-.35-5.9,4.15-5.49,4.84.4.69,6.79,1.12,7,.78.21-.34-2.49-2.28-2.49-2.28,0,0,1.34-2.99.98-3.35Z"
             id="path365" />
          <path
             class="cls-4"
             d="M413.62,439.16c-.77.14-1.87,4.4-1.63,4.57.12.08,1.95-1.01,1.95-1.01,0,0,1.9.98,1.97.79.15-.36-1.53-4.5-2.3-4.36Z"
             id="path366" />
        </g>
      </g>
    </g>
  </g>
</svg>
